M48
;Layer_Color=9474304
;FILE_FORMAT=4:2
METRIC,TZ
;TYPE=PLATED
T01F00S00C0.20
T02F00S00C0.30
T03F00S00C0.60
T04F00S00C1.10
T05F00S00C3.30
%
T01
X7481Y293
X7557
X7696Y719
Y853
X7912Y828
Y962
Y1096
Y1231
Y1365
Y1500
Y1634
Y1768
Y1903
Y2037
X8166
Y1903
Y1768
Y1634
Y1500
Y1365
Y1231
Y1096
Y962
X7140Y1054
X7005
Y1219
X7140
X7003Y1537
X7010Y2093
Y2228
Y2362
X7188Y2324
Y2489
X7010Y2609
Y2743
X7161Y3010
X7210
X7277Y3161
X7455
Y3073
X7607Y3109
Y2975
Y3244
Y3378
Y3513
Y3647
Y3781
Y3916
Y4050
X7747Y4051
X7938
X7455Y3991
X7277
Y3899
Y3748
Y3612
Y3469
X7145Y3264
X7016
X7016Y3813
X7145Y3872
X7146Y4133
X7277
X7015Y4078
X7943Y3099
X8077
X8212
X7188Y2130
X6900
Y2324
X6794Y2489
Y2718
X6629Y2629
X6337
Y2718
X6163Y2616
X6223Y2337
X6160Y2235
X6287Y2159
X5802Y2275
X5563Y2072
Y1779
Y1620
Y1461
Y1302
Y1143
X5283Y1166
Y1325
Y1484
Y1644
Y1803
X5271Y2083
Y2242
X5170Y2488
X5182Y2618
X5160Y2684
X5220Y2852
Y3035
X5354
X5623
X5757
X5892
X5757Y2876
X6337Y3194
X6439
X6495Y3099
X6690Y3073
X6612Y3432
X6754Y3511
X6885Y3566
X6690Y3634
X6439Y3736
X6337Y3639
X6337Y4022
X6495Y3928
X5220Y3734
Y3539
X5062Y3124
X4913
X4778
X4644
X4510
X4375
X4241
X4106
X3972
X4282Y2778
X4305Y2683
X4597Y2618
X4740
Y2758
X4788Y2153
Y1918
X5055Y1638
X4978Y1029
X4638Y1168
X4458
Y1245
X4533Y1430
X4381
X4057Y1638
X3708Y1785
Y1944
X3721Y2153
Y2312
X3860Y2032
X3950
X4140Y2159
X4242
X4407Y2358
X4293Y3552
Y3747
X3340Y3785
Y3590
X3100Y2095
X3062Y1549
X3036Y1257
X3175Y775
X3658Y769
X3872Y787
X4031
X4190
X4349
X4508
X4661Y412
Y253
X3797Y241
Y400
Y559
X3568Y1549
X5283Y826
Y691
Y557
X5791Y648
Y782
Y917
X6212Y918
X6406
X6769Y1067
X6871Y1054
Y1219
X6869Y1537
X6883Y851
Y716
Y582
X5880Y317
X5817
X5753
Y254
X5817
X5880
X5833Y1779
X2807Y1762
Y1696
X2882Y1549
X2769Y1275
X2249Y1257
X2090
X2199Y1371
X2249Y1676
X2408
X2019Y1560
X1867Y1453
X1676Y1143
X1582Y1142
X1580Y671
X1760
X2083Y625
Y445
X2464Y635
X2565
X2667
X1384
X1232Y711
X1162
X1150Y476
X1295Y472
X851Y455
Y275
Y635
X559Y842
Y1022
Y1203
Y1383
Y1563
Y1743
Y1923
Y2103
X379
Y1923
Y1743
Y1563
Y1383
Y1203
Y1022
Y842
X851Y2103
X1162Y2197
X1150Y1982
X1524Y1978
X1384Y2146
X1524Y2680
X1601Y2675
X2210Y2762
X2311
X2705Y2807
X2807
X2667Y2146
X2940Y2095
X2108Y2388
Y2456
X2074Y3048
X2019
X2324Y3615
Y3810
X1549Y3823
Y3628
X546Y4080
X445Y3177
Y2997
X851Y2517
X546Y4260
Y4440
Y4620
Y4801
Y4981
Y5161
Y5341
Y5521
Y5702
Y5882
Y6062
Y6242
Y6422
Y6602
Y6783
Y6963
Y7143
Y7323
Y7503
Y7683
X810Y7823
Y7988
X991
Y7823
X1171
Y7988
X1351
Y7823
X1531
Y7988
X1711
Y7823
X1892
Y7988
X2072
Y7823
X2252
Y7988
X2432
Y7823
X2612
Y7988
X2792
Y7823
X2489Y7582
Y7387
Y7193
Y6804
Y6609
Y6414
Y6025
Y5831
Y5247
Y5052
Y4469
Y4274
X1549Y4261
Y4456
Y4651
Y5040
Y5234
Y5818
Y6013
Y6402
Y6596
Y6791
Y7180
Y7375
Y7569
X2973Y7988
X3153
X3333
X3513
X3693
X3874
X4054
X4234
X4331Y7569
Y7375
Y7180
Y6596
Y6402
Y5818
Y5234
Y5040
Y4456
Y4261
X3442Y4287
Y4481
Y5065
Y5260
Y5649
Y5843
Y6038
Y6427
Y6622
Y7205
Y7400
Y7595
X5271Y7379
Y7184
Y6600
Y6406
Y5822
Y5044
Y4460
Y4265
X6337Y4469
X6439Y4534
X6495Y4757
X6337Y4854
Y5298
X6439Y5397
X6495Y5588
X6337Y5683
X6210Y5918
X6337Y6128
X6439Y6226
X6495Y6414
X6337Y6513
X6338Y6829
X6604Y6807
X6756Y6913
X6885Y6970
X6439Y7056
X6495Y7252
X6337Y7565
X6625Y7604
Y7811
X6755Y7681
X6778Y7531
X6921
X6885Y7736
X6439Y7885
X6260
X6007Y8028
X5827
X5647
X5467
X5286
X5106
X6591Y5931
X6755Y6000
X6885Y6057
Y5230
X6755Y5174
X6617Y5080
X6690Y4464
X6755Y4341
X6885Y4397
X6690Y4204
X6604Y4242
X7015Y4640
X7145Y4707
X7277Y4707
Y4821
Y4951
Y5095
Y5238
Y5407
Y5525
Y5651
Y5770
Y5914
Y6057
Y6344
Y6480
X7455Y6477
X7764
X7836Y6535
X7963Y6515
Y6653
Y6796
Y6939
Y7083
Y7226
X7962Y7597
Y7740
X7700Y7740
Y7883
Y8026
X7544
Y7883
Y7596
Y7453
X7700
X7277Y7415
Y7310
X7145Y7404
X7015
X7016Y7139
X7146Y7196
X7277Y7067
X7544Y6910
Y6785
X7760Y6655
X7963Y6372
Y6228
X8039Y5791
Y5651
Y5471
Y5291
X7938Y5359
X8039Y5111
Y4931
X7938Y4940
X8039Y4751
Y4570
X7925Y4508
X8039Y4390
Y4210
X7673Y4508
X7582Y4634
Y4750
Y4824
X7455Y4821
X7569Y4946
Y5080
X7671Y5156
X7569Y5349
Y5606
Y5740
X7518Y5982
X7145Y5740
X7015
Y5470
X7145Y5525
X7145Y4909
X7015
X7277Y4577
X7145Y6350
X7015Y6295
Y6594
X7145
X7277Y7558
Y7701
Y7988
X7145Y8035
X7015Y7980
T02
X70Y71
X208Y50
X348
X488
X628
X768
X908
X1048
X1188
X1328
X1468
X1608
X1748
X1888
X2028
X2168
X2308
X2448
X2588
X2728
X2868Y50
X3008
X3148
X3288
X3428
X3568
X3708
X3848
X3988
X4548
X4688
X4828
X4968
X5108
X5248
X5388
X5528
X5668Y50
X5808
X5948
X6088
X6228
X6368
X6508
X6648
X6788
X6928
X7068
X7208
X7348
X7488
X7628
X7768
X7908
X8048
X8188
X8328
X8450Y119
X8450Y259
Y399
Y539
Y679
Y819
Y959
Y1099
Y1239
Y1379
X8450Y1519
Y1659
Y1799
Y1939
Y2079
Y2219
Y2359
Y2499
Y2639
X8450Y2779
Y2919
Y3059
Y3199
Y3339
Y3479
Y3619
Y3759
Y3899
X8432Y4038
X8309Y4104
X218Y4062
X106Y3978
X50Y3850
Y3710
Y3570
Y3430
Y3290
Y3150
Y3010
Y2870
Y2730
Y2590
Y2450
Y2310
Y2170
Y2030
Y1890
Y1750
Y1610
Y1470
Y1330
Y1190
Y1050
Y910
Y770
Y630
Y490
Y350
Y210
X250Y4199
Y4339
Y4479
Y4619
Y4759
Y4899
Y5039
Y5179
Y5319
Y5459
Y5599
Y5739
Y5879
Y6019
Y6159
Y6299
Y6439
Y6579
Y6719
Y6859
Y6999
Y7139
Y7279
Y7419
Y7559
X232Y7697
X134Y7797
X50Y7909
Y8049
X8450Y8063
Y7923
X8447Y7783
X8327Y7711
X8254Y7591
X8250Y7452
Y7312
Y7172
Y7032
Y6892
Y6752
Y6612
Y6472
Y6332
Y6192
Y6052
Y5912
Y5772
Y5632
Y5492
Y5352
Y5212
Y5072
Y4932
Y4792
Y4652
Y4512
Y4372
X8251Y4232
X8450Y8203
Y8343
X8359Y8450
X8219
X8079
X7939
X7799
X7660Y8440
X7601Y8313
X7516Y8202
X7380Y8170
X7240
X7100
X6960
X6820
X6680
X6540
X6400
X6260
X6120
X5980
X5840
X5700
X5560
X5420
X5280
X5145Y8209
X5069Y8326
X4997Y8446
X4857Y8450
X4717
X4577
X4437
X4332Y8450
X4241Y8344
X4175Y8221
X4044Y8170
X3904Y8170
X3764
X3624
X3484
X3344
X3204
X3064
X2924
X2784
X2644
X2504
X2364
X2224
X2084
X1944
X1804
X1664
X1524
X1384
X1244
X1104
X970Y8211
X895Y8329
X821Y8447
X681Y8450
X541Y8450
X401
X261Y8450
X121
X50Y8329
Y8189
T03
X198Y198
X360Y131
X522Y198
X7978
X8140Y131
X8302Y198
X8369Y360
X8302Y522
X8140Y589
X7978Y522
X7911Y360
X7978Y2398
X8140Y2331
X8302Y2398
X8369Y2560
X8302Y2722
X8140Y2789
X7978Y2722
X7911Y2560
X7978Y3478
X7911Y3640
X7978Y3802
X8140Y3869
X8302Y3802
X8369Y3640
X8302Y3478
X8140Y3411
X5681Y3423
X5554Y3550
X5681Y3677
X5808Y3550
X5681Y4143
X4748
Y3677
X4621Y3550
X4748Y3423
X4875Y3550
X3941
X3687
X3814Y3677
Y3423
Y4143
X3008Y3550
X2754
X2881Y3677
Y3423
Y4143
X1947
Y3677
X1820Y3550
X1947Y3423
X2074Y3550
X1141
X887
X1014Y3677
Y3423
X522Y3478
X589Y3640
X522Y3802
X360Y3869
X198Y3802
X131Y3640
X198Y3478
X360Y3411
Y2789
X522Y2722
X589Y2560
X522Y2398
X360Y2331
X198Y2398
X131Y2560
X198Y2722
Y522
X131Y360
X589
X522Y522
X360Y589
X1014Y4143
X887Y4270
X1014Y4397
X1141Y4270
X1820
X1947Y4397
X2074Y4270
X2754
X2881Y4397
Y4863
X2754Y4990
X2881Y5117
Y5583
X2754Y5710
X2881Y5837
Y6303
X2754Y6430
X2881Y6557
Y7023
X2754Y7150
X2881Y7277
X1947
X1820Y7150
X1947Y7023
X2074Y7150
X1947Y6557
X1820Y6430
X1947Y6303
X2074Y6430
X1947Y5837
X1820Y5710
X1947Y5583
X2074Y5710
X1947Y5117
X1820Y4990
X1947Y4863
X2074Y4990
X1141
X887
X1014Y5117
Y4863
Y5583
X887Y5710
X1014Y5837
X1141Y5710
X1014Y6303
X887Y6430
X1014Y6557
X1141Y6430
X1014Y7023
X887Y7150
X1014Y7277
X1141Y7150
X522Y7978
X360Y7911
X198Y7978
X131Y8140
X589
X3008Y7150
X3687
X3814Y7277
Y7023
X3941Y7150
X4621
X4748Y7277
Y7023
X4875Y7150
X5554
X5681Y7277
Y7023
X5808Y7150
Y6430
X5681Y6303
Y6557
X5554Y6430
X4875
X4621
X4748Y6557
Y6303
Y5837
X4621Y5710
X4748Y5583
X4875Y5710
X5554
X5681Y5837
Y5583
X5808Y5710
X5681Y5117
X5554Y4990
X5681Y4863
X5808Y4990
X5681Y4397
X5554Y4270
X5808
X4875
X4621
X4748Y4397
Y4863
X4621Y4990
X4748Y5117
X4875Y4990
X3941
X3687
X3814Y5117
Y4863
Y4397
X3687Y4270
X3941
X3008
Y4990
Y5710
X3687
X3814Y5837
Y5583
X3941Y5710
X3814Y6303
X3687Y6430
X3814Y6557
X3941Y6430
X3008
X4491Y8078
X4653Y8011
X4815Y8078
X7911Y8140
X7978Y7978
X8140Y7911
X8302Y7978
X8369Y8140
X8302Y8302
X8140Y8369
X7978Y8302
X4882Y8240
X4815Y8402
X4653Y8469
X4491Y8402
X4424Y8240
X522Y8302
X360Y8369
X198Y8302
T04
X7373Y1138
Y1392
Y1646
Y1900
Y2154
Y2408
Y2662
X7627
Y2408
Y2154
Y1900
Y1646
Y1392
Y1138
T05
X8140Y360
Y2560
Y3640
X4250Y210
X360Y360
Y2560
Y3640
Y8140
X8140
X4653Y8240
M30
