G04*
G04 #@! TF.GenerationSoftware,Altium Limited,Altium Designer,25.8.1 (18)*
G04*
G04 Layer_Color=128*
%FSLAX44Y44*%
%MOMM*%
G71*
G04*
G04 #@! TF.SameCoordinates,5338E875-7156-4E5C-9014-822FA18EDE4B*
G04*
G04*
G04 #@! TF.FilePolarity,Positive*
G04*
G01*
G75*
%ADD50R,0.9000X0.9500*%
%ADD51R,0.8000X0.9000*%
%ADD52R,0.9000X0.6000*%
G04:AMPARAMS|DCode=53|XSize=0.7mm|YSize=0.3396mm|CornerRadius=0.017mm|HoleSize=0mm|Usage=FLASHONLY|Rotation=270.000|XOffset=0mm|YOffset=0mm|HoleType=Round|Shape=RoundedRectangle|*
%AMROUNDEDRECTD53*
21,1,0.7000,0.3056,0,0,270.0*
21,1,0.6660,0.3396,0,0,270.0*
1,1,0.0340,-0.1528,-0.3330*
1,1,0.0340,-0.1528,0.3330*
1,1,0.0340,0.1528,0.3330*
1,1,0.0340,0.1528,-0.3330*
%
%ADD53ROUNDEDRECTD53*%
%ADD54R,0.6000X0.9000*%
%ADD55O,0.6000X1.8000*%
%ADD56R,0.9100X1.2200*%
%ADD57C,1.5000*%
%ADD58R,1.7018X0.8128*%
%ADD60R,0.9500X0.9000*%
G04:AMPARAMS|DCode=61|XSize=0.7mm|YSize=0.3396mm|CornerRadius=0.017mm|HoleSize=0mm|Usage=FLASHONLY|Rotation=270.000|XOffset=0mm|YOffset=0mm|HoleType=Round|Shape=RoundedRectangle|*
%AMROUNDEDRECTD61*
21,1,0.7000,0.3056,0,0,270.0*
21,1,0.6660,0.3396,0,0,270.0*
1,1,0.0340,-0.1528,-0.3330*
1,1,0.0340,-0.1528,0.3330*
1,1,0.0340,0.1528,0.3330*
1,1,0.0340,0.1528,-0.3330*
%
%ADD61ROUNDEDRECTD61*%
G04:AMPARAMS|DCode=62|XSize=0.7mm|YSize=0.1698mm|CornerRadius=0.0085mm|HoleSize=0mm|Usage=FLASHONLY|Rotation=270.000|XOffset=0mm|YOffset=0mm|HoleType=Round|Shape=RoundedRectangle|*
%AMROUNDEDRECTD62*
21,1,0.7000,0.1528,0,0,270.0*
21,1,0.6830,0.1698,0,0,270.0*
1,1,0.0170,-0.0764,-0.3415*
1,1,0.0170,-0.0764,0.3415*
1,1,0.0170,0.0764,0.3415*
1,1,0.0170,0.0764,-0.3415*
%
%ADD62ROUNDEDRECTD62*%
%ADD63R,0.9000X0.8000*%
%ADD64R,1.8796X2.3622*%
%ADD65R,0.6200X1.2200*%
%ADD66R,0.8128X1.7018*%
%ADD67R,0.3500X1.5000*%
%ADD68O,1.2500X0.3500*%
%ADD69R,2.3455X3.1725*%
%ADD70R,2.3455X0.6325*%
%ADD71O,1.8000X0.6000*%
%ADD72R,2.3000X2.8000*%
%ADD73R,2.3000X2.2860*%
%ADD74R,2.3622X1.8796*%
%ADD75R,1.4000X1.4000*%
%ADD76R,3.3000X3.1500*%
%ADD77R,0.9000X0.8000*%
%ADD78R,1.4000X1.3000*%
D50*
X628904Y278692D02*
D03*
X619404Y253692D02*
D03*
X638404D02*
D03*
X725478Y700986D02*
D03*
X657031D02*
D03*
X622808D02*
D03*
X691255D02*
D03*
X588585D02*
D03*
X579085Y725986D02*
D03*
X598085D02*
D03*
X613308D02*
D03*
X666531D02*
D03*
X715978D02*
D03*
X734978D02*
D03*
X708428Y118539D02*
D03*
X717928Y143539D02*
D03*
X727428Y118539D02*
D03*
X486537Y253490D02*
D03*
X477037Y278490D02*
D03*
X467537Y253490D02*
D03*
X557476Y118602D02*
D03*
X566976Y143602D02*
D03*
X576476Y118602D02*
D03*
X681755Y725986D02*
D03*
X700755D02*
D03*
X632308D02*
D03*
X647531D02*
D03*
D51*
X615058Y235484D02*
D03*
X518970Y217388D02*
D03*
Y199388D02*
D03*
X744708Y118808D02*
D03*
X669922Y253643D02*
D03*
X716280Y550960D02*
D03*
X518970Y253706D02*
D03*
X593756Y118871D02*
D03*
X464105Y168511D02*
D03*
X427050Y647761D02*
D03*
Y503761D02*
D03*
Y359761D02*
D03*
X432220Y210829D02*
D03*
X371396Y175132D02*
D03*
X353060D02*
D03*
X65774Y190485D02*
D03*
X432012Y95589D02*
D03*
X734110Y550960D02*
D03*
X464105Y150511D02*
D03*
X669922Y199325D02*
D03*
X427050Y710239D02*
D03*
Y422239D02*
D03*
Y566239D02*
D03*
X734110Y568960D02*
D03*
X744708Y136808D02*
D03*
X615058Y217484D02*
D03*
X669922Y217325D02*
D03*
Y235643D02*
D03*
X717928Y160497D02*
D03*
Y178497D02*
D03*
X744708Y160497D02*
D03*
Y178497D02*
D03*
X549054Y235028D02*
D03*
Y253028D02*
D03*
X65774Y172485D02*
D03*
X566976Y178560D02*
D03*
X593756D02*
D03*
Y136871D02*
D03*
Y160560D02*
D03*
X566976D02*
D03*
X432012Y77589D02*
D03*
X464105Y133560D02*
D03*
Y115560D02*
D03*
X432220Y228829D02*
D03*
X464106Y217547D02*
D03*
Y235547D02*
D03*
X353060Y136110D02*
D03*
Y118110D02*
D03*
Y157132D02*
D03*
X371396D02*
D03*
Y118110D02*
D03*
Y136110D02*
D03*
X413188Y77589D02*
D03*
Y95589D02*
D03*
X518970Y235706D02*
D03*
X716280Y568960D02*
D03*
X427050Y665761D02*
D03*
Y692239D02*
D03*
Y404239D02*
D03*
Y377761D02*
D03*
Y548239D02*
D03*
Y521761D02*
D03*
D52*
X634339Y235643D02*
D03*
X652340Y271586D02*
D03*
X541200Y136761D02*
D03*
X770256Y569228D02*
D03*
X615057Y185428D02*
D03*
X681756Y569229D02*
D03*
X84384Y172485D02*
D03*
X464105Y185491D02*
D03*
X447050Y692349D02*
D03*
Y665651D02*
D03*
X751841Y569229D02*
D03*
X770255Y551069D02*
D03*
X751840Y551070D02*
D03*
X615058Y203587D02*
D03*
X692151Y136698D02*
D03*
X692150Y118539D02*
D03*
X692151Y160607D02*
D03*
X692153Y178766D02*
D03*
X652339Y253427D02*
D03*
X634338Y217484D02*
D03*
X652338D02*
D03*
X652339Y235643D02*
D03*
X102384Y172485D02*
D03*
X102385Y190644D02*
D03*
X84385D02*
D03*
X541201Y178829D02*
D03*
X541200Y160670D02*
D03*
X483386Y217547D02*
D03*
X483387Y235706D02*
D03*
X501386Y217547D02*
D03*
X501387Y235706D02*
D03*
X464106Y203650D02*
D03*
X541198Y118602D02*
D03*
X447045Y359492D02*
D03*
X447047Y377651D02*
D03*
X699769Y569229D02*
D03*
X447049Y548349D02*
D03*
X447050Y566508D02*
D03*
X447049Y521651D02*
D03*
X447048Y503492D02*
D03*
X447426Y404349D02*
D03*
X447428Y422508D02*
D03*
X447049Y647492D02*
D03*
X447051Y710508D02*
D03*
X699768Y551070D02*
D03*
X681755D02*
D03*
D53*
X608428Y257927D02*
D03*
X600334D02*
D03*
X448112Y257990D02*
D03*
X456207D02*
D03*
D54*
X637150Y299782D02*
D03*
X692150Y81977D02*
D03*
X624840Y82039D02*
D03*
X541198Y82040D02*
D03*
X473888D02*
D03*
X541198Y99930D02*
D03*
X504357Y299844D02*
D03*
X655309Y299781D02*
D03*
X710309Y81976D02*
D03*
X642999Y82038D02*
D03*
X692150Y99867D02*
D03*
X710309Y99866D02*
D03*
X642999Y99867D02*
D03*
X624840Y99868D02*
D03*
X492047Y99930D02*
D03*
X473888Y99931D02*
D03*
X413059Y175131D02*
D03*
X394901Y175132D02*
D03*
X413438Y211048D02*
D03*
X395279Y211049D02*
D03*
X413438Y193268D02*
D03*
X395279Y193269D02*
D03*
X486198Y299845D02*
D03*
X559357Y99929D02*
D03*
Y82039D02*
D03*
X492047D02*
D03*
D55*
X507286Y178560D02*
D03*
X519986Y122060D02*
D03*
X494586Y178560D02*
D03*
X507286Y122060D02*
D03*
X481886Y178560D02*
D03*
X494586Y122060D02*
D03*
X481886D02*
D03*
X519986Y178560D02*
D03*
X645538Y121997D02*
D03*
X632838Y178497D02*
D03*
X658238Y121997D02*
D03*
X645538Y178497D02*
D03*
X670938Y121997D02*
D03*
X658238Y178497D02*
D03*
X632838Y121997D02*
D03*
X670938Y178497D02*
D03*
D56*
X397770Y751840D02*
D03*
X365070D02*
D03*
X304430D02*
D03*
X271730D02*
D03*
X211090D02*
D03*
X178390D02*
D03*
X397770Y679840D02*
D03*
X365070D02*
D03*
X304430D02*
D03*
X271730D02*
D03*
X211090D02*
D03*
X178390D02*
D03*
X365070Y607840D02*
D03*
X397770D02*
D03*
X271730D02*
D03*
X304430D02*
D03*
X178390D02*
D03*
X211090D02*
D03*
X365070Y535840D02*
D03*
X397770D02*
D03*
X85050D02*
D03*
X117750D02*
D03*
X271730D02*
D03*
X304430D02*
D03*
X178390D02*
D03*
X211090D02*
D03*
X365070Y463840D02*
D03*
X397770D02*
D03*
X271730D02*
D03*
X304430D02*
D03*
X178390D02*
D03*
X211090D02*
D03*
X85050D02*
D03*
X117750D02*
D03*
X365070Y391840D02*
D03*
X397770D02*
D03*
X271730D02*
D03*
X304430D02*
D03*
X178390D02*
D03*
X211090D02*
D03*
X85050D02*
D03*
X117750D02*
D03*
Y751840D02*
D03*
Y607840D02*
D03*
Y679840D02*
D03*
X85050D02*
D03*
Y751840D02*
D03*
Y607840D02*
D03*
D57*
X586740Y598170D02*
D03*
Y570774D02*
D03*
Y543378D02*
D03*
Y515983D02*
D03*
Y488587D02*
D03*
Y461191D02*
D03*
Y433796D02*
D03*
Y406400D02*
D03*
X538331Y53340D02*
D03*
X615057Y53412D02*
D03*
X378393D02*
D03*
X461605D02*
D03*
D58*
X763435Y690980D02*
D03*
Y678480D02*
D03*
Y628480D02*
D03*
Y703480D02*
D03*
Y715980D02*
D03*
Y665980D02*
D03*
Y640980D02*
D03*
Y653480D02*
D03*
D60*
X708860Y641671D02*
D03*
X733860Y651171D02*
D03*
Y632171D02*
D03*
Y597948D02*
D03*
X708860Y607448D02*
D03*
X733860Y616948D02*
D03*
Y685394D02*
D03*
Y666394D02*
D03*
X708860Y675894D02*
D03*
D61*
X600334Y273927D02*
D03*
X608428Y273927D02*
D03*
X448112Y273990D02*
D03*
X456207Y273990D02*
D03*
D62*
X604381Y273927D02*
D03*
Y257927D02*
D03*
X452159Y273990D02*
D03*
Y257990D02*
D03*
D63*
X567580Y235028D02*
D03*
X585580D02*
D03*
X507176Y99930D02*
D03*
X525176D02*
D03*
X507176Y82040D02*
D03*
X744708Y81976D02*
D03*
Y99866D02*
D03*
X549054Y299782D02*
D03*
X593756Y99929D02*
D03*
Y82039D02*
D03*
X394755Y299845D02*
D03*
X279484Y219063D02*
D03*
X220014Y171224D02*
D03*
X279484Y76823D02*
D03*
X525176Y82040D02*
D03*
X604520Y299720D02*
D03*
X452159Y299845D02*
D03*
X220014Y189104D02*
D03*
X297484Y76823D02*
D03*
X567054Y299782D02*
D03*
X586520Y299720D02*
D03*
X726708Y81976D02*
D03*
X658128Y81977D02*
D03*
X676128D02*
D03*
X726708Y99866D02*
D03*
X658128Y99867D02*
D03*
X676128D02*
D03*
X652338Y199325D02*
D03*
X634338D02*
D03*
X238014Y189104D02*
D03*
X84384Y156833D02*
D03*
X102384D02*
D03*
X158793Y154814D02*
D03*
X176793D02*
D03*
X238014Y171224D02*
D03*
X331774Y219063D02*
D03*
X501386Y199388D02*
D03*
X483386D02*
D03*
X413170Y228829D02*
D03*
X395169D02*
D03*
X412755Y299845D02*
D03*
X434159D02*
D03*
X575756Y82039D02*
D03*
Y99929D02*
D03*
X313774Y76823D02*
D03*
X331774D02*
D03*
X313774Y219063D02*
D03*
X297484D02*
D03*
D64*
X744708Y247587D02*
D03*
X700004Y207239D02*
D03*
X284530Y252730D02*
D03*
X175641Y246380D02*
D03*
X549052Y207010D02*
D03*
X284530Y297722D02*
D03*
X282752Y112383D02*
D03*
X600964Y353060D02*
D03*
X556260D02*
D03*
X700004Y247587D02*
D03*
X220345Y246380D02*
D03*
X744708Y207239D02*
D03*
X593756Y207010D02*
D03*
X329234Y252730D02*
D03*
X327456Y112383D02*
D03*
X329234Y297722D02*
D03*
D65*
X576554Y279228D02*
D03*
X422669Y279089D02*
D03*
X586054Y279228D02*
D03*
X432169Y279089D02*
D03*
X586104Y253028D02*
D03*
X567054D02*
D03*
Y279228D02*
D03*
X432220Y252889D02*
D03*
X413170Y279089D02*
D03*
Y252889D02*
D03*
D66*
X583650Y755561D02*
D03*
X596150D02*
D03*
X608650D02*
D03*
X621150D02*
D03*
X658650D02*
D03*
X571150D02*
D03*
X696150D02*
D03*
X633650D02*
D03*
X646150D02*
D03*
X671150D02*
D03*
X683650D02*
D03*
D67*
X482330Y506806D02*
D03*
X482330Y419194D02*
D03*
Y563194D02*
D03*
X482330Y362806D02*
D03*
Y650806D02*
D03*
X482330Y707194D02*
D03*
X475830D02*
D03*
X462830D02*
D03*
Y563194D02*
D03*
Y419194D02*
D03*
X475830Y650806D02*
D03*
X475830Y563194D02*
D03*
X495330Y707194D02*
D03*
X508330D02*
D03*
X521330D02*
D03*
X534330D02*
D03*
Y650806D02*
D03*
X521330D02*
D03*
X469330D02*
D03*
X488830Y707194D02*
D03*
X501830D02*
D03*
X514830D02*
D03*
X527830D02*
D03*
X514830Y650806D02*
D03*
X508330D02*
D03*
X501830D02*
D03*
X495330D02*
D03*
X488830D02*
D03*
X527830D02*
D03*
X462830D02*
D03*
X469330Y707194D02*
D03*
X462830Y506806D02*
D03*
Y362806D02*
D03*
X469330Y563194D02*
D03*
Y419194D02*
D03*
X495330Y506806D02*
D03*
X508330D02*
D03*
X521330D02*
D03*
X534330D02*
D03*
Y563194D02*
D03*
X521330D02*
D03*
X508330D02*
D03*
X495330D02*
D03*
X508330Y362806D02*
D03*
X495330D02*
D03*
X521330D02*
D03*
X534330D02*
D03*
Y419194D02*
D03*
X521330D02*
D03*
X508330D02*
D03*
X495330D02*
D03*
X469330Y362806D02*
D03*
X475830D02*
D03*
X488830D02*
D03*
X501830D02*
D03*
X514830D02*
D03*
X527830D02*
D03*
X527830Y419194D02*
D03*
X514830D02*
D03*
X501830D02*
D03*
X488830D02*
D03*
X475830D02*
D03*
X475830Y506806D02*
D03*
X501830Y563194D02*
D03*
X527830Y506806D02*
D03*
X514830D02*
D03*
X514830Y563194D02*
D03*
X488830D02*
D03*
X527830D02*
D03*
X501830Y506806D02*
D03*
X488830D02*
D03*
X469330D02*
D03*
D68*
X447906Y131110D02*
D03*
X391406Y144110D02*
D03*
Y137610D02*
D03*
Y131110D02*
D03*
Y118110D02*
D03*
X447906Y157110D02*
D03*
Y150610D02*
D03*
Y144110D02*
D03*
Y118110D02*
D03*
X391406Y157110D02*
D03*
Y150610D02*
D03*
Y124610D02*
D03*
X447906Y137610D02*
D03*
Y124610D02*
D03*
D69*
X265410Y170796D02*
D03*
D70*
X325617D02*
D03*
Y183496D02*
D03*
Y196196D02*
D03*
Y145396D02*
D03*
Y158096D02*
D03*
D71*
X196043Y201804D02*
D03*
Y189104D02*
D03*
Y214504D02*
D03*
X139543Y201804D02*
D03*
Y189104D02*
D03*
Y176404D02*
D03*
X196043D02*
D03*
X139543Y214504D02*
D03*
D72*
X167793Y195454D02*
D03*
D73*
X234950Y124460D02*
D03*
Y83820D02*
D03*
D74*
X93980Y84328D02*
D03*
Y129032D02*
D03*
D75*
X43660D02*
D03*
X60960D02*
D03*
D76*
X138870Y105410D02*
D03*
X193870D02*
D03*
D77*
X501387Y253490D02*
D03*
X501388Y271649D02*
D03*
D78*
X391406Y94589D02*
D03*
Y78589D02*
D03*
M02*
