G04*
G04 #@! TF.GenerationSoftware,Altium Limited,Altium Designer,25.8.1 (18)*
G04*
G04 Layer_Color=255*
%FSLAX44Y44*%
%MOMM*%
G71*
G04*
G04 #@! TF.SameCoordinates,2A5453E3-354D-4B83-B7DC-91B48DEC4409*
G04*
G04*
G04 #@! TF.FilePolarity,Positive*
G04*
G01*
G75*
%ADD34C,0.6000*%
%ADD35C,1.2000*%
%ADD36C,6.0000*%
%ADD37C,1.0668*%
D34*
X5000Y272984D02*
D03*
X825000Y745153D02*
D03*
Y535154D02*
D03*
Y549154D02*
D03*
X825438Y759147D02*
D03*
X821945Y845000D02*
D03*
X807945D02*
D03*
X832680Y771128D02*
D03*
X844688Y778326D02*
D03*
X845000Y806322D02*
D03*
X835945Y845000D02*
D03*
X845000Y820322D02*
D03*
Y834322D02*
D03*
Y792322D02*
D03*
X527989Y817000D02*
D03*
X555989D02*
D03*
X541989D02*
D03*
X597989D02*
D03*
X611989D02*
D03*
X583989D02*
D03*
X569989D02*
D03*
X667989D02*
D03*
X681989D02*
D03*
X625989D02*
D03*
X653989D02*
D03*
X639989D02*
D03*
X737989D02*
D03*
X695989D02*
D03*
X723989D02*
D03*
X709989D02*
D03*
X457698Y845000D02*
D03*
X471698D02*
D03*
X433227Y845007D02*
D03*
X443698Y845000D02*
D03*
X485698D02*
D03*
X499694Y844649D02*
D03*
X514549Y820922D02*
D03*
X751625Y820170D02*
D03*
X506867Y832626D02*
D03*
X760086Y831324D02*
D03*
X765980Y844023D02*
D03*
X793945Y845000D02*
D03*
X779946D02*
D03*
X825000Y577154D02*
D03*
Y563153D02*
D03*
Y591153D02*
D03*
Y689154D02*
D03*
Y675154D02*
D03*
Y731153D02*
D03*
Y703154D02*
D03*
Y717153D02*
D03*
Y619154D02*
D03*
Y605154D02*
D03*
Y661153D02*
D03*
Y633153D02*
D03*
Y647153D02*
D03*
Y465154D02*
D03*
Y451153D02*
D03*
Y493153D02*
D03*
Y479154D02*
D03*
X830854Y410376D02*
D03*
X843212Y403795D02*
D03*
X825000Y437154D02*
D03*
X825135Y423154D02*
D03*
X825000Y521153D02*
D03*
Y507154D02*
D03*
X762820Y5000D02*
D03*
X720820D02*
D03*
X734820D02*
D03*
X818820D02*
D03*
X832820D02*
D03*
X776820D02*
D03*
X804820D02*
D03*
X790820D02*
D03*
X706820D02*
D03*
X844996Y11910D02*
D03*
X845000Y39910D02*
D03*
Y53910D02*
D03*
Y25910D02*
D03*
Y95910D02*
D03*
Y81910D02*
D03*
Y137910D02*
D03*
Y109910D02*
D03*
Y123910D02*
D03*
Y67910D02*
D03*
X845000Y151910D02*
D03*
Y179910D02*
D03*
Y165910D02*
D03*
Y221910D02*
D03*
Y207910D02*
D03*
Y249910D02*
D03*
Y235910D02*
D03*
Y193910D02*
D03*
Y263910D02*
D03*
X845000Y389910D02*
D03*
Y375910D02*
D03*
Y277910D02*
D03*
Y319910D02*
D03*
Y305910D02*
D03*
Y361910D02*
D03*
Y333910D02*
D03*
Y347910D02*
D03*
Y291910D02*
D03*
X89513Y832894D02*
D03*
X54067Y845000D02*
D03*
X68067Y845000D02*
D03*
X12067Y845000D02*
D03*
X40067Y845000D02*
D03*
X26067Y845000D02*
D03*
X82065Y844748D02*
D03*
X166420Y817000D02*
D03*
X306420D02*
D03*
X334421D02*
D03*
X320420D02*
D03*
X390420D02*
D03*
X264421D02*
D03*
X152421D02*
D03*
X180420D02*
D03*
X110421D02*
D03*
X138420D02*
D03*
X124420D02*
D03*
X236420D02*
D03*
X250420D02*
D03*
X194421D02*
D03*
X222421D02*
D03*
X208421D02*
D03*
X362421D02*
D03*
X376421D02*
D03*
X278421D02*
D03*
X348420D02*
D03*
X292421D02*
D03*
X404421Y817014D02*
D03*
X417475Y822071D02*
D03*
X424061Y834425D02*
D03*
X608820Y5000D02*
D03*
X622820D02*
D03*
X580820D02*
D03*
X594820D02*
D03*
X678820D02*
D03*
X692820D02*
D03*
X636820D02*
D03*
X664820D02*
D03*
X650820D02*
D03*
X496820Y5000D02*
D03*
X510820D02*
D03*
X482820D02*
D03*
X468820D02*
D03*
X552820D02*
D03*
X566820Y5000D02*
D03*
X524820Y5000D02*
D03*
X538820D02*
D03*
X748820Y5000D02*
D03*
X5000Y244984D02*
D03*
Y230984D02*
D03*
Y258984D02*
D03*
Y202984D02*
D03*
Y216984D02*
D03*
Y34984D02*
D03*
Y104984D02*
D03*
Y118984D02*
D03*
Y48984D02*
D03*
Y90984D02*
D03*
Y146984D02*
D03*
Y132984D02*
D03*
Y188984D02*
D03*
Y160984D02*
D03*
Y174984D02*
D03*
X6982Y7125D02*
D03*
X20820Y5000D02*
D03*
X34820D02*
D03*
X48820D02*
D03*
X5000Y20984D02*
D03*
Y76984D02*
D03*
Y62984D02*
D03*
Y300984D02*
D03*
Y286984D02*
D03*
Y328984D02*
D03*
Y314984D02*
D03*
Y356984D02*
D03*
Y342984D02*
D03*
Y370984D02*
D03*
X25000Y475855D02*
D03*
Y685855D02*
D03*
Y699855D02*
D03*
X5000Y790915D02*
D03*
X13392Y779709D02*
D03*
X23223Y769742D02*
D03*
X25000Y559855D02*
D03*
Y545855D02*
D03*
Y587855D02*
D03*
Y573855D02*
D03*
Y503855D02*
D03*
Y461855D02*
D03*
Y531855D02*
D03*
Y517855D02*
D03*
Y629855D02*
D03*
Y615855D02*
D03*
Y671855D02*
D03*
Y643855D02*
D03*
Y657855D02*
D03*
Y601855D02*
D03*
X5000Y804915D02*
D03*
Y832915D02*
D03*
Y818915D02*
D03*
X97029Y821082D02*
D03*
X5000Y384984D02*
D03*
X10583Y397822D02*
D03*
X21777Y406231D02*
D03*
X25000Y447855D02*
D03*
Y419855D02*
D03*
Y433855D02*
D03*
X160820Y5000D02*
D03*
X174820D02*
D03*
X132820D02*
D03*
X146820D02*
D03*
X188820D02*
D03*
X62820D02*
D03*
X104820D02*
D03*
X118820D02*
D03*
X76820D02*
D03*
X90820D02*
D03*
X328820Y5000D02*
D03*
X342820D02*
D03*
X300820D02*
D03*
X314820D02*
D03*
X384820D02*
D03*
X356820D02*
D03*
X370820D02*
D03*
X244820Y5000D02*
D03*
X258820D02*
D03*
X202820D02*
D03*
X230820D02*
D03*
X216820D02*
D03*
X272820D02*
D03*
X286820Y5000D02*
D03*
X25000Y727855D02*
D03*
Y713855D02*
D03*
Y755855D02*
D03*
Y741855D02*
D03*
Y489855D02*
D03*
D35*
X814000Y791140D02*
D03*
X830164Y797835D02*
D03*
Y830164D02*
D03*
X814000Y836860D02*
D03*
X836860Y814000D02*
D03*
X465298Y801140D02*
D03*
X449133Y807835D02*
D03*
X481462D02*
D03*
X797835Y797835D02*
D03*
X791140Y814000D02*
D03*
X442438Y824000D02*
D03*
X488158D02*
D03*
X449133Y840164D02*
D03*
X481462D02*
D03*
X465298Y846860D02*
D03*
X797835Y830164D02*
D03*
X814000Y13140D02*
D03*
X791140Y36000D02*
D03*
X830164Y19835D02*
D03*
X797835D02*
D03*
X836860Y36000D02*
D03*
X797835Y52165D02*
D03*
X814000Y233140D02*
D03*
X791140Y256000D02*
D03*
X797835Y239835D02*
D03*
X814000Y58860D02*
D03*
X830164Y52165D02*
D03*
Y272164D02*
D03*
Y239835D02*
D03*
X836860Y256000D02*
D03*
X797835Y347836D02*
D03*
Y272164D02*
D03*
X791140Y364000D02*
D03*
X797835Y380164D02*
D03*
X814000Y386860D02*
D03*
Y341140D02*
D03*
Y278860D02*
D03*
X830164Y380164D02*
D03*
Y347836D02*
D03*
X836860Y364000D02*
D03*
X52165Y830164D02*
D03*
X36000Y13140D02*
D03*
X13140Y36000D02*
D03*
X19835Y239835D02*
D03*
Y52165D02*
D03*
Y19835D02*
D03*
X36000Y233140D02*
D03*
Y58860D02*
D03*
X52165Y239835D02*
D03*
X36000Y791140D02*
D03*
X52165Y797835D02*
D03*
X13140Y814000D02*
D03*
X19835Y830164D02*
D03*
Y797835D02*
D03*
X58860Y814000D02*
D03*
X36000Y836860D02*
D03*
X13140Y256000D02*
D03*
X19835Y347836D02*
D03*
X13140Y364000D02*
D03*
X19835Y380164D02*
D03*
Y272164D02*
D03*
X36000Y278860D02*
D03*
Y341140D02*
D03*
Y386860D02*
D03*
X52165Y19835D02*
D03*
X58860Y36000D02*
D03*
X52165Y52165D02*
D03*
X58860Y256000D02*
D03*
X52165Y272164D02*
D03*
Y347836D02*
D03*
X58860Y364000D02*
D03*
X52165Y380164D02*
D03*
D36*
X425000Y21000D02*
D03*
X36000Y364000D02*
D03*
Y256000D02*
D03*
Y36000D02*
D03*
X814000D02*
D03*
Y256000D02*
D03*
Y364000D02*
D03*
Y814000D02*
D03*
X465298Y824000D02*
D03*
X36000Y814000D02*
D03*
D37*
X381420Y702300D02*
D03*
Y558300D02*
D03*
Y486300D02*
D03*
Y630300D02*
D03*
X288080D02*
D03*
Y702300D02*
D03*
X194740Y630300D02*
D03*
Y702300D02*
D03*
X288080Y558300D02*
D03*
X194740Y486300D02*
D03*
X288080D02*
D03*
X194740Y558300D02*
D03*
X101400Y486300D02*
D03*
Y702300D02*
D03*
Y630300D02*
D03*
Y558300D02*
D03*
X381420Y342300D02*
D03*
Y414300D02*
D03*
X288080D02*
D03*
Y342300D02*
D03*
X194740Y414300D02*
D03*
Y342300D02*
D03*
X101400D02*
D03*
Y414300D02*
D03*
X275380Y643000D02*
D03*
X368720Y715000D02*
D03*
X88700Y643000D02*
D03*
Y715000D02*
D03*
X182040Y643000D02*
D03*
X275380Y715000D02*
D03*
X368720Y643000D02*
D03*
X182040Y715000D02*
D03*
X275380Y355000D02*
D03*
X288080Y367700D02*
D03*
X300780Y355000D02*
D03*
X182040D02*
D03*
X194740Y367700D02*
D03*
X207440Y355000D02*
D03*
X88700D02*
D03*
X381420Y727700D02*
D03*
X394120Y715000D02*
D03*
X300780Y571000D02*
D03*
X288080Y583700D02*
D03*
X275380Y571000D02*
D03*
X207440D02*
D03*
X194740Y583700D02*
D03*
X182040Y571000D02*
D03*
X114100D02*
D03*
X101400Y583700D02*
D03*
X88700Y571000D02*
D03*
X394120Y499000D02*
D03*
X381420Y511700D02*
D03*
X368720Y499000D02*
D03*
X114100D02*
D03*
X101400Y511700D02*
D03*
X88700Y499000D02*
D03*
X300780D02*
D03*
X288080Y511700D02*
D03*
X275380Y499000D02*
D03*
X182040D02*
D03*
X194740Y511700D02*
D03*
X207440Y499000D02*
D03*
X394120Y427000D02*
D03*
X381420Y439700D02*
D03*
X368720Y427000D02*
D03*
X300780D02*
D03*
X288080Y439700D02*
D03*
X275380Y427000D02*
D03*
X182040D02*
D03*
X194740Y439700D02*
D03*
X207440Y427000D02*
D03*
X288080Y727700D02*
D03*
X300780Y715000D02*
D03*
X88700Y427000D02*
D03*
X101400Y439700D02*
D03*
X114100Y427000D02*
D03*
X368720Y355000D02*
D03*
X381420Y367700D02*
D03*
X394120Y355000D02*
D03*
X101400Y367700D02*
D03*
X114100Y355000D02*
D03*
X207440Y715000D02*
D03*
X194740Y727700D02*
D03*
X381420Y655700D02*
D03*
X394120Y643000D02*
D03*
X114100D02*
D03*
X101400Y655700D02*
D03*
X207440Y643000D02*
D03*
X194740Y655700D02*
D03*
X368720Y571000D02*
D03*
X381420Y583700D02*
D03*
X394120Y571000D02*
D03*
X300780Y643000D02*
D03*
X288080Y655700D02*
D03*
X114100Y715000D02*
D03*
X101400Y727700D02*
D03*
M02*
