G04*
G04 #@! TF.GenerationSoftware,Altium Limited,Altium Designer,24.1.2 (44)*
G04*
G04 Layer_Color=16711935*
%FSLAX44Y44*%
%MOMM*%
G71*
G04*
G04 #@! TF.SameCoordinates,EA7915C2-BB38-46DF-888F-944F4F2BDD17*
G04*
G04*
G04 #@! TF.FilePolarity,Positive*
G04*
G01*
G75*
%ADD114C,0.4460*%
D114*
X433300Y855000D02*
X430822Y854838D01*
X428386Y854353D01*
X426033Y853556D01*
X423805Y852458D01*
X421740Y851078D01*
X419872Y849442D01*
X418233Y847575D01*
X416852Y845511D01*
X415752Y843284D01*
X414951Y840932D01*
X414465Y838497D01*
X414300Y836019D01*
X405300Y827000D02*
X407629Y827307D01*
X409800Y828206D01*
X411664Y829636D01*
X413094Y831500D01*
X413993Y833671D01*
X414300Y836000D01*
X516300D02*
X516607Y833671D01*
X517506Y831500D01*
X518936Y829636D01*
X520800Y828206D01*
X522971Y827307D01*
X525300Y827000D01*
X516300Y836019D02*
X516135Y838497D01*
X515649Y840932D01*
X514848Y843284D01*
X513748Y845511D01*
X512367Y847575D01*
X510728Y849442D01*
X508860Y851078D01*
X506795Y852458D01*
X504567Y853556D01*
X502215Y854353D01*
X499779Y854838D01*
X497300Y855000D01*
X855000Y838000D02*
X854827Y840419D01*
X854311Y842789D01*
X853464Y845062D01*
X852301Y847191D01*
X850848Y849133D01*
X849133Y850848D01*
X847191Y852301D01*
X845062Y853464D01*
X842789Y854311D01*
X840419Y854827D01*
X838000Y855000D01*
X99000Y836000D02*
X99307Y833671D01*
X100206Y831500D01*
X101636Y829636D01*
X103500Y828206D01*
X105671Y827307D01*
X108000Y827000D01*
X10000Y407430D02*
X12500Y408100D01*
X14330Y409930D01*
X15000Y412430D01*
X855000Y400000D02*
X854772Y402605D01*
X854095Y405130D01*
X852990Y407500D01*
X851491Y409642D01*
X849642Y411491D01*
X847500Y412990D01*
X845130Y414095D01*
X842605Y414772D01*
X840000Y415000D01*
X-5000Y786130D02*
X-4772Y783525D01*
X-4095Y781000D01*
X-2990Y778630D01*
X-1491Y776488D01*
X358Y774639D01*
X2500Y773140D01*
X4870Y772035D01*
X7395Y771358D01*
X10000Y771130D01*
X770000Y855000D02*
X767522Y854838D01*
X765085Y854353D01*
X762733Y853556D01*
X760505Y852458D01*
X758440Y851078D01*
X756572Y849442D01*
X754933Y847575D01*
X753552Y845511D01*
X752452Y843284D01*
X751651Y840932D01*
X751165Y838497D01*
X751000Y836019D01*
X840001Y765000D02*
X842606Y765228D01*
X845131Y765905D01*
X847501Y767010D01*
X849643Y768509D01*
X851492Y770358D01*
X852991Y772500D01*
X854096Y774870D01*
X854773Y777395D01*
X855001Y780000D01*
X99000Y836019D02*
X98835Y838497D01*
X98349Y840932D01*
X97548Y843284D01*
X96448Y845511D01*
X95067Y847575D01*
X93428Y849442D01*
X91560Y851078D01*
X89495Y852458D01*
X87267Y853556D01*
X84915Y854353D01*
X82479Y854838D01*
X80000Y855000D01*
X839990Y765000D02*
X837495Y764326D01*
X835669Y762497D01*
X835001Y760000D01*
X835000Y420000D02*
X835670Y417500D01*
X837500Y415670D01*
X840000Y415000D01*
X10000Y407430D02*
X7397Y407202D01*
X4874Y406527D01*
X2506Y405424D01*
X365Y403926D01*
X-1484Y402080D01*
X-2984Y399941D01*
X-4090Y397575D01*
X-4769Y395052D01*
X-5000Y392449D01*
X11981Y855000D02*
X9564Y854825D01*
X7196Y854307D01*
X4925Y853458D01*
X2799Y852295D01*
X860Y850841D01*
X-853Y849126D01*
X-2305Y847185D01*
X-3466Y845057D01*
X-4312Y842786D01*
X-4827Y840418D01*
X-5000Y838000D01*
X838027Y-5000D02*
X840443Y-4823D01*
X842811Y-4305D01*
X845080Y-3456D01*
X847205Y-2292D01*
X849144Y-838D01*
X850856Y877D01*
X852307Y2817D01*
X853467Y4945D01*
X854313Y7215D01*
X854827Y9583D01*
X855000Y12000D01*
X742000Y827000D02*
X744329Y827307D01*
X746500Y828206D01*
X748364Y829636D01*
X749794Y831500D01*
X750693Y833671D01*
X751000Y836000D01*
X15000Y766130D02*
X14330Y768630D01*
X12500Y770460D01*
X10000Y771130D01*
X-5000Y11973D02*
X-4823Y9556D01*
X-4305Y7189D01*
X-3456Y4920D01*
X-2292Y2795D01*
X-838Y856D01*
X877Y-856D01*
X2817Y-2307D01*
X4945Y-3467D01*
X7215Y-4313D01*
X9583Y-4827D01*
X12000Y-5000D01*
X432990Y855000D02*
X497300D01*
X525300Y827000D02*
X742000D01*
X108000D02*
X405300D01*
X-5000Y12000D02*
X-5000Y392430D01*
X835000Y420000D02*
Y759903D01*
X12016Y-5000D02*
X838000Y-5000D01*
X12000Y855000D02*
X79977Y855000D01*
X855000Y12016D02*
X855000Y400000D01*
X15000Y412430D02*
Y766130D01*
X770000Y855000D02*
X838000D01*
X-5000Y786130D02*
Y838000D01*
X855000Y780099D02*
Y838000D01*
M02*
