G04*
G04 #@! TF.GenerationSoftware,Altium Limited,Altium Designer,25.8.1 (18)*
G04*
G04 Layer_Physical_Order=3*
G04 Layer_Color=16440176*
%FSLAX44Y44*%
%MOMM*%
G71*
G04*
G04 #@! TF.SameCoordinates,5338E875-7156-4E5C-9014-822FA18EDE4B*
G04*
G04*
G04 #@! TF.FilePolarity,Positive*
G04*
G01*
G75*
%ADD14C,1.2000*%
%ADD23C,1.2700*%
%ADD24C,0.3810*%
%ADD25C,0.6096*%
%ADD27C,0.8890*%
%ADD28C,0.3500*%
%ADD34C,0.6000*%
%ADD35C,1.2000*%
%ADD36C,6.0000*%
%ADD37C,1.0668*%
%ADD38C,0.8890*%
%ADD39C,0.4000*%
%ADD44C,0.3500*%
%ADD45R,2.5851X2.1590*%
%ADD46R,2.4130X2.1590*%
%ADD47R,1.9050X6.8234*%
%ADD48R,2.7335X2.7293*%
G36*
X841431Y850805D02*
X844628Y849480D01*
X847374Y847374D01*
X849480Y844628D01*
X850805Y841431D01*
X851233Y838180D01*
X851197Y838000D01*
Y781251D01*
X851197Y780099D01*
X851198Y780000D01*
X851079Y778779D01*
X850857Y777091D01*
X849734Y774380D01*
X847948Y772053D01*
X845621Y770267D01*
X842910Y769144D01*
X841222Y768922D01*
X840762Y768877D01*
X839981Y768803D01*
X837722Y768505D01*
X835598Y767626D01*
X833775Y766226D01*
X832375Y764403D01*
X831496Y762279D01*
X831196Y760000D01*
X831196D01*
X831197Y759903D01*
Y420000D01*
X831195D01*
X831495Y417721D01*
X832374Y415597D01*
X833774Y413774D01*
X835597Y412374D01*
X837721Y411495D01*
X840000Y411195D01*
X841222Y411078D01*
X842909Y410856D01*
X845620Y409733D01*
X847947Y407947D01*
X849734Y405620D01*
X850856Y402909D01*
X851222Y400128D01*
X851197Y400000D01*
X851197Y11960D01*
X851233Y11781D01*
X850806Y8539D01*
X849485Y5352D01*
X847385Y2615D01*
X844648Y515D01*
X841461Y-806D01*
X838235Y-1230D01*
X838067Y-1197D01*
X13251Y-1197D01*
X12000Y-1197D01*
X10772Y-1095D01*
X8569Y-805D01*
X5372Y520D01*
X2626Y2626D01*
X520Y5372D01*
X-805Y8569D01*
X-1092Y10753D01*
X-1198Y11979D01*
X-1197Y12000D01*
X-1197Y13226D01*
X-1197Y391176D01*
X-1197Y392430D01*
X-1198Y392445D01*
X-1077Y393665D01*
X-856Y395339D01*
X267Y398050D01*
X2053Y400377D01*
X4380Y402163D01*
X7091Y403286D01*
X8778Y403508D01*
X10000Y403625D01*
X12279Y403925D01*
X14403Y404804D01*
X16226Y406204D01*
X17626Y408027D01*
X18505Y410151D01*
X18805Y412430D01*
X18803D01*
Y766130D01*
X18805D01*
X18505Y768409D01*
X17626Y770533D01*
X16226Y772356D01*
X14403Y773756D01*
X12279Y774635D01*
X10000Y774935D01*
X8778Y775052D01*
X7091Y775274D01*
X4380Y776397D01*
X2053Y778183D01*
X267Y780510D01*
X-856Y783221D01*
X-1222Y786002D01*
X-1197Y786130D01*
Y838000D01*
X-1233Y838180D01*
X-805Y841431D01*
X520Y844628D01*
X2626Y847374D01*
X5372Y849480D01*
X8569Y850805D01*
X10758Y851093D01*
X11985Y851198D01*
X12000Y851197D01*
X13232Y851197D01*
X78730Y851197D01*
X79977Y851197D01*
X80000Y851197D01*
X81228Y851095D01*
X82969Y850924D01*
X85823Y850058D01*
X88454Y848652D01*
X90759Y846759D01*
X92652Y844454D01*
X94058Y841823D01*
X94924Y838969D01*
X95094Y837243D01*
X95160Y836000D01*
X95319Y834794D01*
X95598Y832677D01*
X96880Y829580D01*
X98921Y826921D01*
X101580Y824880D01*
X104677Y823598D01*
X108000Y823160D01*
Y823197D01*
X405300D01*
Y823160D01*
X408623Y823598D01*
X411720Y824880D01*
X414379Y826921D01*
X416420Y829580D01*
X417702Y832677D01*
X417981Y834794D01*
X418140Y836000D01*
X418206Y837243D01*
X418376Y838969D01*
X419242Y841823D01*
X420648Y844454D01*
X422541Y846759D01*
X424846Y848652D01*
X427477Y850058D01*
X430331Y850924D01*
X433103Y851197D01*
X497300D01*
X497365Y851210D01*
X500269Y850924D01*
X503123Y850058D01*
X505754Y848652D01*
X508060Y846759D01*
X509952Y844454D01*
X511358Y841823D01*
X512224Y838969D01*
X512394Y837243D01*
X512460Y836000D01*
X512619Y834794D01*
X512898Y832677D01*
X514180Y829580D01*
X516221Y826921D01*
X518880Y824880D01*
X521977Y823598D01*
X525300Y823160D01*
Y823197D01*
X742000D01*
Y823160D01*
X745323Y823598D01*
X748420Y824880D01*
X751079Y826921D01*
X753120Y829580D01*
X754402Y832677D01*
X754681Y834794D01*
X754840Y836000D01*
X754906Y837243D01*
X755076Y838969D01*
X755942Y841823D01*
X757348Y844454D01*
X759240Y846759D01*
X761546Y848652D01*
X764177Y850058D01*
X767031Y850924D01*
X769935Y851210D01*
X770000Y851197D01*
X838000D01*
X838180Y851233D01*
X841431Y850805D01*
D02*
G37*
%LPC*%
G36*
X562235Y763960D02*
X560445D01*
X558791Y763275D01*
X557530Y762014D01*
X556269Y763275D01*
X554615Y763960D01*
X552825D01*
X551171Y763275D01*
X549910Y762014D01*
X548649Y763275D01*
X546995Y763960D01*
X545205D01*
X543551Y763275D01*
X542285Y762009D01*
X541600Y760355D01*
Y758565D01*
X542285Y756911D01*
X543546Y755650D01*
X542285Y754389D01*
X541600Y752735D01*
Y750945D01*
X542285Y749291D01*
X543551Y748025D01*
X545205Y747340D01*
X546995D01*
X548649Y748025D01*
X549910Y749286D01*
X551171Y748025D01*
X552825Y747340D01*
X554615D01*
X556269Y748025D01*
X557530Y749286D01*
X558791Y748025D01*
X560445Y747340D01*
X562235D01*
X563889Y748025D01*
X565155Y749291D01*
X565840Y750945D01*
Y752735D01*
X565155Y754389D01*
X563894Y755650D01*
X565155Y756911D01*
X565840Y758565D01*
Y760355D01*
X565155Y762009D01*
X563889Y763275D01*
X562235Y763960D01*
D02*
G37*
G36*
X528725Y768849D02*
X526935D01*
X525281Y768164D01*
X524015Y766898D01*
X523330Y765244D01*
Y763454D01*
X524015Y761800D01*
X525281Y760534D01*
X526935Y759849D01*
X528725D01*
X530379Y760534D01*
X531645Y761800D01*
X532330Y763454D01*
Y765244D01*
X531645Y766898D01*
X530379Y768164D01*
X528725Y768849D01*
D02*
G37*
G36*
X515725Y761030D02*
X513935D01*
X512281Y760345D01*
X511015Y759079D01*
X510330Y757425D01*
Y755635D01*
X511015Y753981D01*
X512281Y752715D01*
X513935Y752030D01*
X515725D01*
X517379Y752715D01*
X518645Y753981D01*
X519330Y755635D01*
Y757425D01*
X518645Y759079D01*
X517379Y760345D01*
X515725Y761030D01*
D02*
G37*
G36*
X502545Y752883D02*
X500755D01*
X499101Y752198D01*
X497835Y750932D01*
X497150Y749278D01*
Y747488D01*
X497835Y745834D01*
X499101Y744568D01*
X500755Y743883D01*
X502545D01*
X504199Y744568D01*
X505465Y745834D01*
X506150Y747488D01*
Y749278D01*
X505465Y750932D01*
X504199Y752198D01*
X502545Y752883D01*
D02*
G37*
G36*
X489725Y744520D02*
X487935D01*
X486281Y743835D01*
X485015Y742569D01*
X484330Y740915D01*
Y739125D01*
X485015Y737471D01*
X486281Y736205D01*
X487935Y735520D01*
X489725D01*
X491379Y736205D01*
X492645Y737471D01*
X493330Y739125D01*
Y740915D01*
X492645Y742569D01*
X491379Y743835D01*
X489725Y744520D01*
D02*
G37*
G36*
X770515Y736020D02*
X768725D01*
X767071Y735335D01*
X765810Y734074D01*
X764549Y735335D01*
X762895Y736020D01*
X761105D01*
X759451Y735335D01*
X758190Y734074D01*
X756929Y735335D01*
X755275Y736020D01*
X753485D01*
X751831Y735335D01*
X750565Y734069D01*
X749880Y732415D01*
Y730625D01*
X750565Y728971D01*
X751826Y727710D01*
X750565Y726449D01*
X749880Y724795D01*
Y723005D01*
X750565Y721351D01*
X751831Y720085D01*
X753485Y719400D01*
X755275D01*
X756929Y720085D01*
X758190Y721346D01*
X759451Y720085D01*
X761105Y719400D01*
X762895D01*
X764549Y720085D01*
X765810Y721346D01*
X767071Y720085D01*
X768725Y719400D01*
X770515D01*
X772169Y720085D01*
X773435Y721351D01*
X774120Y723005D01*
Y724795D01*
X773435Y726449D01*
X772174Y727710D01*
X773435Y728971D01*
X774120Y730625D01*
Y732415D01*
X773435Y734069D01*
X772169Y735335D01*
X770515Y736020D01*
D02*
G37*
G36*
X585495Y730486D02*
X583705D01*
X582051Y729801D01*
X580785Y728535D01*
X580100Y726881D01*
Y725091D01*
X580785Y723437D01*
X582051Y722171D01*
X583705Y721486D01*
X585495D01*
X587149Y722171D01*
X588415Y723437D01*
X589100Y725091D01*
Y726881D01*
X588415Y728535D01*
X587149Y729801D01*
X585495Y730486D01*
D02*
G37*
G36*
X476725Y730344D02*
X474935D01*
X473281Y729659D01*
X472015Y728393D01*
X471330Y726739D01*
Y724949D01*
X472015Y723295D01*
X473281Y722029D01*
X474935Y721344D01*
X476725D01*
X478379Y722029D01*
X479645Y723295D01*
X480330Y724949D01*
Y726739D01*
X479645Y728393D01*
X478379Y729659D01*
X476725Y730344D01*
D02*
G37*
G36*
X382320Y734534D02*
X380520D01*
X378782Y734068D01*
X377224Y733168D01*
X375951Y731896D01*
X375052Y730338D01*
X374586Y728600D01*
Y726800D01*
X375052Y725062D01*
X375951Y723504D01*
X377224Y722231D01*
X378782Y721332D01*
X380520Y720866D01*
X382320D01*
X384058Y721332D01*
X385616Y722231D01*
X386889Y723504D01*
X387788Y725062D01*
X388254Y726800D01*
Y728600D01*
X387788Y730338D01*
X386889Y731896D01*
X385616Y733168D01*
X384058Y734068D01*
X382320Y734534D01*
D02*
G37*
G36*
X288980D02*
X287180D01*
X285442Y734068D01*
X283884Y733168D01*
X282611Y731896D01*
X281712Y730338D01*
X281246Y728600D01*
Y726800D01*
X281712Y725062D01*
X282611Y723504D01*
X283884Y722231D01*
X285442Y721332D01*
X287180Y720866D01*
X288980D01*
X290718Y721332D01*
X292276Y722231D01*
X293549Y723504D01*
X294448Y725062D01*
X294914Y726800D01*
Y728600D01*
X294448Y730338D01*
X293549Y731896D01*
X292276Y733168D01*
X290718Y734068D01*
X288980Y734534D01*
D02*
G37*
G36*
X195640D02*
X193840D01*
X192102Y734068D01*
X190544Y733168D01*
X189271Y731896D01*
X188372Y730338D01*
X187906Y728600D01*
Y726800D01*
X188372Y725062D01*
X189271Y723504D01*
X190544Y722231D01*
X192102Y721332D01*
X193840Y720866D01*
X195640D01*
X197378Y721332D01*
X198936Y722231D01*
X200209Y723504D01*
X201108Y725062D01*
X201574Y726800D01*
Y728600D01*
X201108Y730338D01*
X200209Y731896D01*
X198936Y733168D01*
X197378Y734068D01*
X195640Y734534D01*
D02*
G37*
G36*
X102300D02*
X100500D01*
X98762Y734068D01*
X97204Y733168D01*
X95931Y731896D01*
X95032Y730338D01*
X94566Y728600D01*
Y726800D01*
X95032Y725062D01*
X95931Y723504D01*
X97204Y722231D01*
X98762Y721332D01*
X100500Y720866D01*
X102300D01*
X104038Y721332D01*
X105596Y722231D01*
X106869Y723504D01*
X107768Y725062D01*
X108234Y726800D01*
Y728600D01*
X107768Y730338D01*
X106869Y731896D01*
X105596Y733168D01*
X104038Y734068D01*
X102300Y734534D01*
D02*
G37*
G36*
X395020Y721834D02*
X393220D01*
X391482Y721368D01*
X389924Y720469D01*
X388651Y719196D01*
X387752Y717638D01*
X387286Y715900D01*
Y714100D01*
X387752Y712362D01*
X388651Y710804D01*
X389924Y709531D01*
X391482Y708632D01*
X393220Y708166D01*
X395020D01*
X396758Y708632D01*
X398316Y709531D01*
X399589Y710804D01*
X400488Y712362D01*
X400954Y714100D01*
Y715900D01*
X400488Y717638D01*
X399589Y719196D01*
X398316Y720469D01*
X396758Y721368D01*
X395020Y721834D01*
D02*
G37*
G36*
X369620D02*
X367820D01*
X366082Y721368D01*
X364524Y720469D01*
X363251Y719196D01*
X362352Y717638D01*
X361886Y715900D01*
Y714100D01*
X362352Y712362D01*
X363251Y710804D01*
X364524Y709531D01*
X366082Y708632D01*
X367820Y708166D01*
X369620D01*
X371358Y708632D01*
X372916Y709531D01*
X374189Y710804D01*
X375088Y712362D01*
X375554Y714100D01*
Y715900D01*
X375088Y717638D01*
X374189Y719196D01*
X372916Y720469D01*
X371358Y721368D01*
X369620Y721834D01*
D02*
G37*
G36*
X301680D02*
X299880D01*
X298142Y721368D01*
X296584Y720469D01*
X295311Y719196D01*
X294412Y717638D01*
X293946Y715900D01*
Y714100D01*
X294412Y712362D01*
X295311Y710804D01*
X296584Y709531D01*
X298142Y708632D01*
X299880Y708166D01*
X301680D01*
X303418Y708632D01*
X304976Y709531D01*
X306249Y710804D01*
X307148Y712362D01*
X307614Y714100D01*
Y715900D01*
X307148Y717638D01*
X306249Y719196D01*
X304976Y720469D01*
X303418Y721368D01*
X301680Y721834D01*
D02*
G37*
G36*
X276280D02*
X274480D01*
X272742Y721368D01*
X271184Y720469D01*
X269911Y719196D01*
X269012Y717638D01*
X268546Y715900D01*
Y714100D01*
X269012Y712362D01*
X269911Y710804D01*
X271184Y709531D01*
X272742Y708632D01*
X274480Y708166D01*
X276280D01*
X278018Y708632D01*
X279576Y709531D01*
X280849Y710804D01*
X281748Y712362D01*
X282214Y714100D01*
Y715900D01*
X281748Y717638D01*
X280849Y719196D01*
X279576Y720469D01*
X278018Y721368D01*
X276280Y721834D01*
D02*
G37*
G36*
X208340D02*
X206540D01*
X204802Y721368D01*
X203244Y720469D01*
X201971Y719196D01*
X201072Y717638D01*
X200606Y715900D01*
Y714100D01*
X201072Y712362D01*
X201971Y710804D01*
X203244Y709531D01*
X204802Y708632D01*
X206540Y708166D01*
X208340D01*
X210078Y708632D01*
X211636Y709531D01*
X212909Y710804D01*
X213808Y712362D01*
X214274Y714100D01*
Y715900D01*
X213808Y717638D01*
X212909Y719196D01*
X211636Y720469D01*
X210078Y721368D01*
X208340Y721834D01*
D02*
G37*
G36*
X182940D02*
X181140D01*
X179402Y721368D01*
X177844Y720469D01*
X176571Y719196D01*
X175672Y717638D01*
X175206Y715900D01*
Y714100D01*
X175672Y712362D01*
X176571Y710804D01*
X177844Y709531D01*
X179402Y708632D01*
X181140Y708166D01*
X182940D01*
X184678Y708632D01*
X186236Y709531D01*
X187509Y710804D01*
X188408Y712362D01*
X188874Y714100D01*
Y715900D01*
X188408Y717638D01*
X187509Y719196D01*
X186236Y720469D01*
X184678Y721368D01*
X182940Y721834D01*
D02*
G37*
G36*
X115000D02*
X113200D01*
X111462Y721368D01*
X109904Y720469D01*
X108631Y719196D01*
X107732Y717638D01*
X107266Y715900D01*
Y714100D01*
X107732Y712362D01*
X108631Y710804D01*
X109904Y709531D01*
X111462Y708632D01*
X113200Y708166D01*
X115000D01*
X116738Y708632D01*
X118296Y709531D01*
X119569Y710804D01*
X120468Y712362D01*
X120934Y714100D01*
Y715900D01*
X120468Y717638D01*
X119569Y719196D01*
X118296Y720469D01*
X116738Y721368D01*
X115000Y721834D01*
D02*
G37*
G36*
X89600D02*
X87800D01*
X86062Y721368D01*
X84504Y720469D01*
X83231Y719196D01*
X82332Y717638D01*
X81866Y715900D01*
Y714100D01*
X82332Y712362D01*
X83231Y710804D01*
X84504Y709531D01*
X86062Y708632D01*
X87800Y708166D01*
X89600D01*
X91338Y708632D01*
X92896Y709531D01*
X94169Y710804D01*
X95068Y712362D01*
X95534Y714100D01*
Y715900D01*
X95068Y717638D01*
X94169Y719196D01*
X92896Y720469D01*
X91338Y721368D01*
X89600Y721834D01*
D02*
G37*
G36*
X382690Y710111D02*
Y703570D01*
X389231D01*
X388757Y705339D01*
X387721Y707135D01*
X386255Y708601D01*
X384459Y709637D01*
X382690Y710111D01*
D02*
G37*
G36*
X380150D02*
X378381Y709637D01*
X376585Y708601D01*
X375119Y707135D01*
X374083Y705339D01*
X373609Y703570D01*
X380150D01*
Y710111D01*
D02*
G37*
G36*
X289350D02*
Y703570D01*
X295891D01*
X295417Y705339D01*
X294381Y707135D01*
X292915Y708601D01*
X291119Y709637D01*
X289350Y710111D01*
D02*
G37*
G36*
X286810D02*
X285041Y709637D01*
X283245Y708601D01*
X281779Y707135D01*
X280743Y705339D01*
X280268Y703570D01*
X286810D01*
Y710111D01*
D02*
G37*
G36*
X196010D02*
Y703570D01*
X202551D01*
X202077Y705339D01*
X201041Y707135D01*
X199575Y708601D01*
X197779Y709637D01*
X196010Y710111D01*
D02*
G37*
G36*
X193470D02*
X191701Y709637D01*
X189905Y708601D01*
X188439Y707135D01*
X187403Y705339D01*
X186929Y703570D01*
X193470D01*
Y710111D01*
D02*
G37*
G36*
X102670D02*
Y703570D01*
X109212D01*
X108737Y705339D01*
X107701Y707135D01*
X106235Y708601D01*
X104439Y709637D01*
X102670Y710111D01*
D02*
G37*
G36*
X100130D02*
X98361Y709637D01*
X96565Y708601D01*
X95099Y707135D01*
X94063Y705339D01*
X93588Y703570D01*
X100130D01*
Y710111D01*
D02*
G37*
G36*
X389231Y701030D02*
X382690D01*
Y694489D01*
X384459Y694962D01*
X386255Y695999D01*
X387721Y697465D01*
X388757Y699261D01*
X389231Y701030D01*
D02*
G37*
G36*
X380150D02*
X373609D01*
X374083Y699261D01*
X375119Y697465D01*
X376585Y695999D01*
X378381Y694962D01*
X380150Y694489D01*
Y701030D01*
D02*
G37*
G36*
X295891D02*
X289350D01*
Y694489D01*
X291119Y694962D01*
X292915Y695999D01*
X294381Y697465D01*
X295417Y699261D01*
X295891Y701030D01*
D02*
G37*
G36*
X286810D02*
X280268D01*
X280743Y699261D01*
X281779Y697465D01*
X283245Y695999D01*
X285041Y694962D01*
X286810Y694489D01*
Y701030D01*
D02*
G37*
G36*
X202551D02*
X196010D01*
Y694489D01*
X197779Y694962D01*
X199575Y695999D01*
X201041Y697465D01*
X202077Y699261D01*
X202551Y701030D01*
D02*
G37*
G36*
X193470D02*
X186929D01*
X187403Y699261D01*
X188439Y697465D01*
X189905Y695999D01*
X191701Y694962D01*
X193470Y694489D01*
Y701030D01*
D02*
G37*
G36*
X109212D02*
X102670D01*
Y694489D01*
X104439Y694962D01*
X106235Y695999D01*
X107701Y697465D01*
X108737Y699261D01*
X109212Y701030D01*
D02*
G37*
G36*
X100130D02*
X93588D01*
X94063Y699261D01*
X95099Y697465D01*
X96565Y695999D01*
X98361Y694962D01*
X100130Y694489D01*
Y701030D01*
D02*
G37*
G36*
X528725Y696849D02*
X526935D01*
X525281Y696164D01*
X524015Y694898D01*
X523330Y693244D01*
Y691454D01*
X524015Y689800D01*
X525281Y688534D01*
X526935Y687849D01*
X528725D01*
X530379Y688534D01*
X531645Y689800D01*
X532330Y691454D01*
Y693244D01*
X531645Y694898D01*
X530379Y696164D01*
X528725Y696849D01*
D02*
G37*
G36*
X515725Y689030D02*
X513935D01*
X512281Y688345D01*
X511015Y687079D01*
X510330Y685425D01*
Y683635D01*
X511015Y681981D01*
X512281Y680715D01*
X513935Y680030D01*
X515725D01*
X517379Y680715D01*
X518645Y681981D01*
X519330Y683635D01*
Y685425D01*
X518645Y687079D01*
X517379Y688345D01*
X515725Y689030D01*
D02*
G37*
G36*
X502678Y680883D02*
X500888D01*
X499234Y680198D01*
X497968Y678932D01*
X497283Y677278D01*
Y675488D01*
X497968Y673834D01*
X499234Y672568D01*
X500888Y671883D01*
X502678D01*
X504332Y672568D01*
X505598Y673834D01*
X506283Y675488D01*
Y677278D01*
X505598Y678932D01*
X504332Y680198D01*
X502678Y680883D01*
D02*
G37*
G36*
X783215Y686490D02*
X781425D01*
X779771Y685805D01*
X778505Y684539D01*
X777820Y682885D01*
Y681095D01*
X778505Y679441D01*
X779131Y678815D01*
X778505Y678189D01*
X777820Y676535D01*
Y674745D01*
X778505Y673091D01*
X779771Y671825D01*
X781425Y671140D01*
X783215D01*
X784869Y671825D01*
X786135Y673091D01*
X786820Y674745D01*
Y676535D01*
X786135Y678189D01*
X785509Y678815D01*
X786135Y679441D01*
X786820Y681095D01*
Y682885D01*
X786135Y684539D01*
X784869Y685805D01*
X783215Y686490D01*
D02*
G37*
G36*
X489725Y672520D02*
X487935D01*
X486281Y671835D01*
X485015Y670569D01*
X484330Y668915D01*
Y667125D01*
X485015Y665471D01*
X486281Y664205D01*
X487935Y663520D01*
X489725D01*
X491379Y664205D01*
X492645Y665471D01*
X493330Y667125D01*
Y668915D01*
X492645Y670569D01*
X491379Y671835D01*
X489725Y672520D01*
D02*
G37*
G36*
X382320Y662534D02*
X380520D01*
X378782Y662068D01*
X377224Y661169D01*
X375951Y659896D01*
X375052Y658338D01*
X374586Y656600D01*
Y654800D01*
X375052Y653062D01*
X375951Y651504D01*
X377224Y650231D01*
X378782Y649332D01*
X380520Y648866D01*
X382320D01*
X384058Y649332D01*
X385616Y650231D01*
X386889Y651504D01*
X387788Y653062D01*
X388254Y654800D01*
Y656600D01*
X387788Y658338D01*
X386889Y659896D01*
X385616Y661169D01*
X384058Y662068D01*
X382320Y662534D01*
D02*
G37*
G36*
X288980D02*
X287180D01*
X285442Y662068D01*
X283884Y661169D01*
X282611Y659896D01*
X281712Y658338D01*
X281246Y656600D01*
Y654800D01*
X281712Y653062D01*
X282611Y651504D01*
X283884Y650231D01*
X285442Y649332D01*
X287180Y648866D01*
X288980D01*
X290718Y649332D01*
X292276Y650231D01*
X293549Y651504D01*
X294448Y653062D01*
X294914Y654800D01*
Y656600D01*
X294448Y658338D01*
X293549Y659896D01*
X292276Y661169D01*
X290718Y662068D01*
X288980Y662534D01*
D02*
G37*
G36*
X195640D02*
X193840D01*
X192102Y662068D01*
X190544Y661169D01*
X189271Y659896D01*
X188372Y658338D01*
X187906Y656600D01*
Y654800D01*
X188372Y653062D01*
X189271Y651504D01*
X190544Y650231D01*
X192102Y649332D01*
X193840Y648866D01*
X195640D01*
X197378Y649332D01*
X198936Y650231D01*
X200209Y651504D01*
X201108Y653062D01*
X201574Y654800D01*
Y656600D01*
X201108Y658338D01*
X200209Y659896D01*
X198936Y661169D01*
X197378Y662068D01*
X195640Y662534D01*
D02*
G37*
G36*
X102300D02*
X100500D01*
X98762Y662068D01*
X97204Y661169D01*
X95931Y659896D01*
X95032Y658338D01*
X94566Y656600D01*
Y654800D01*
X95032Y653062D01*
X95931Y651504D01*
X97204Y650231D01*
X98762Y649332D01*
X100500Y648866D01*
X102300D01*
X104038Y649332D01*
X105596Y650231D01*
X106869Y651504D01*
X107768Y653062D01*
X108234Y654800D01*
Y656600D01*
X107768Y658338D01*
X106869Y659896D01*
X105596Y661169D01*
X104038Y662068D01*
X102300Y662534D01*
D02*
G37*
G36*
X722111Y654671D02*
X720320D01*
X718666Y653986D01*
X717401Y652720D01*
X716715Y651066D01*
Y649276D01*
X717401Y647622D01*
X718666Y646356D01*
X720320Y645671D01*
X722111D01*
X723764Y646356D01*
X725030Y647622D01*
X725715Y649276D01*
Y651066D01*
X725030Y652720D01*
X723764Y653986D01*
X722111Y654671D01*
D02*
G37*
G36*
X395020Y649834D02*
X393220D01*
X391482Y649368D01*
X389924Y648468D01*
X388651Y647196D01*
X387752Y645638D01*
X387286Y643900D01*
Y642100D01*
X387752Y640362D01*
X388651Y638804D01*
X389924Y637531D01*
X391482Y636632D01*
X393220Y636166D01*
X395020D01*
X396758Y636632D01*
X398316Y637531D01*
X399589Y638804D01*
X400488Y640362D01*
X400954Y642100D01*
Y643900D01*
X400488Y645638D01*
X399589Y647196D01*
X398316Y648468D01*
X396758Y649368D01*
X395020Y649834D01*
D02*
G37*
G36*
X369620D02*
X367820D01*
X366082Y649368D01*
X364524Y648468D01*
X363251Y647196D01*
X362352Y645638D01*
X361886Y643900D01*
Y642100D01*
X362352Y640362D01*
X363251Y638804D01*
X364524Y637531D01*
X366082Y636632D01*
X367820Y636166D01*
X369620D01*
X371358Y636632D01*
X372916Y637531D01*
X374189Y638804D01*
X375088Y640362D01*
X375554Y642100D01*
Y643900D01*
X375088Y645638D01*
X374189Y647196D01*
X372916Y648468D01*
X371358Y649368D01*
X369620Y649834D01*
D02*
G37*
G36*
X301680D02*
X299880D01*
X298142Y649368D01*
X296584Y648468D01*
X295311Y647196D01*
X294412Y645638D01*
X293946Y643900D01*
Y642100D01*
X294412Y640362D01*
X295311Y638804D01*
X296584Y637531D01*
X298142Y636632D01*
X299880Y636166D01*
X301680D01*
X303418Y636632D01*
X304976Y637531D01*
X306249Y638804D01*
X307148Y640362D01*
X307614Y642100D01*
Y643900D01*
X307148Y645638D01*
X306249Y647196D01*
X304976Y648468D01*
X303418Y649368D01*
X301680Y649834D01*
D02*
G37*
G36*
X276280D02*
X274480D01*
X272742Y649368D01*
X271184Y648468D01*
X269911Y647196D01*
X269012Y645638D01*
X268546Y643900D01*
Y642100D01*
X269012Y640362D01*
X269911Y638804D01*
X271184Y637531D01*
X272742Y636632D01*
X274480Y636166D01*
X276280D01*
X278018Y636632D01*
X279576Y637531D01*
X280849Y638804D01*
X281748Y640362D01*
X282214Y642100D01*
Y643900D01*
X281748Y645638D01*
X280849Y647196D01*
X279576Y648468D01*
X278018Y649368D01*
X276280Y649834D01*
D02*
G37*
G36*
X208340D02*
X206540D01*
X204802Y649368D01*
X203244Y648468D01*
X201971Y647196D01*
X201072Y645638D01*
X200606Y643900D01*
Y642100D01*
X201072Y640362D01*
X201971Y638804D01*
X203244Y637531D01*
X204802Y636632D01*
X206540Y636166D01*
X208340D01*
X210078Y636632D01*
X211636Y637531D01*
X212909Y638804D01*
X213808Y640362D01*
X214274Y642100D01*
Y643900D01*
X213808Y645638D01*
X212909Y647196D01*
X211636Y648468D01*
X210078Y649368D01*
X208340Y649834D01*
D02*
G37*
G36*
X182940D02*
X181140D01*
X179402Y649368D01*
X177844Y648468D01*
X176571Y647196D01*
X175672Y645638D01*
X175206Y643900D01*
Y642100D01*
X175672Y640362D01*
X176571Y638804D01*
X177844Y637531D01*
X179402Y636632D01*
X181140Y636166D01*
X182940D01*
X184678Y636632D01*
X186236Y637531D01*
X187509Y638804D01*
X188408Y640362D01*
X188874Y642100D01*
Y643900D01*
X188408Y645638D01*
X187509Y647196D01*
X186236Y648468D01*
X184678Y649368D01*
X182940Y649834D01*
D02*
G37*
G36*
X115000D02*
X113200D01*
X111462Y649368D01*
X109904Y648468D01*
X108631Y647196D01*
X107732Y645638D01*
X107266Y643900D01*
Y642100D01*
X107732Y640362D01*
X108631Y638804D01*
X109904Y637531D01*
X111462Y636632D01*
X113200Y636166D01*
X115000D01*
X116738Y636632D01*
X118296Y637531D01*
X119569Y638804D01*
X120468Y640362D01*
X120934Y642100D01*
Y643900D01*
X120468Y645638D01*
X119569Y647196D01*
X118296Y648468D01*
X116738Y649368D01*
X115000Y649834D01*
D02*
G37*
G36*
X89600D02*
X87800D01*
X86062Y649368D01*
X84504Y648468D01*
X83231Y647196D01*
X82332Y645638D01*
X81866Y643900D01*
Y642100D01*
X82332Y640362D01*
X83231Y638804D01*
X84504Y637531D01*
X86062Y636632D01*
X87800Y636166D01*
X89600D01*
X91338Y636632D01*
X92896Y637531D01*
X94169Y638804D01*
X95068Y640362D01*
X95534Y642100D01*
Y643900D01*
X95068Y645638D01*
X94169Y647196D01*
X92896Y648468D01*
X91338Y649368D01*
X89600Y649834D01*
D02*
G37*
G36*
X382690Y638111D02*
Y631570D01*
X389231D01*
X388757Y633339D01*
X387721Y635135D01*
X386255Y636601D01*
X384459Y637637D01*
X382690Y638111D01*
D02*
G37*
G36*
X380150D02*
X378381Y637637D01*
X376585Y636601D01*
X375119Y635135D01*
X374083Y633339D01*
X373609Y631570D01*
X380150D01*
Y638111D01*
D02*
G37*
G36*
X289350D02*
Y631570D01*
X295891D01*
X295417Y633339D01*
X294381Y635135D01*
X292915Y636601D01*
X291119Y637637D01*
X289350Y638111D01*
D02*
G37*
G36*
X286810D02*
X285041Y637637D01*
X283245Y636601D01*
X281779Y635135D01*
X280743Y633339D01*
X280268Y631570D01*
X286810D01*
Y638111D01*
D02*
G37*
G36*
X196010D02*
Y631570D01*
X202551D01*
X202077Y633339D01*
X201041Y635135D01*
X199575Y636601D01*
X197779Y637637D01*
X196010Y638111D01*
D02*
G37*
G36*
X193470D02*
X191701Y637637D01*
X189905Y636601D01*
X188439Y635135D01*
X187403Y633339D01*
X186929Y631570D01*
X193470D01*
Y638111D01*
D02*
G37*
G36*
X102670D02*
Y631570D01*
X109212D01*
X108737Y633339D01*
X107701Y635135D01*
X106235Y636601D01*
X104439Y637637D01*
X102670Y638111D01*
D02*
G37*
G36*
X100130D02*
X98361Y637637D01*
X96565Y636601D01*
X95099Y635135D01*
X94063Y633339D01*
X93588Y631570D01*
X100130D01*
Y638111D01*
D02*
G37*
G36*
X579980Y636706D02*
X578190D01*
X576536Y636021D01*
X575270Y634755D01*
X574585Y633101D01*
Y631311D01*
X575270Y629657D01*
X576536Y628391D01*
X578190Y627706D01*
X579980D01*
X581634Y628391D01*
X582900Y629657D01*
X583585Y631311D01*
Y633101D01*
X582900Y634755D01*
X581634Y636021D01*
X579980Y636706D01*
D02*
G37*
G36*
X722255Y636671D02*
X720465D01*
X718811Y635986D01*
X717545Y634720D01*
X716860Y633066D01*
Y631276D01*
X717545Y629622D01*
X718811Y628356D01*
X720465Y627671D01*
X722255D01*
X723909Y628356D01*
X725175Y629622D01*
X725860Y631276D01*
Y633066D01*
X725175Y634720D01*
X723909Y635986D01*
X722255Y636671D01*
D02*
G37*
G36*
X389231Y629030D02*
X382690D01*
Y622489D01*
X384459Y622962D01*
X386255Y623999D01*
X387721Y625465D01*
X388757Y627261D01*
X389231Y629030D01*
D02*
G37*
G36*
X380150D02*
X373609D01*
X374083Y627261D01*
X375119Y625465D01*
X376585Y623999D01*
X378381Y622962D01*
X380150Y622489D01*
Y629030D01*
D02*
G37*
G36*
X295891D02*
X289350D01*
Y622489D01*
X291119Y622962D01*
X292915Y623999D01*
X294381Y625465D01*
X295417Y627261D01*
X295891Y629030D01*
D02*
G37*
G36*
X286810D02*
X280268D01*
X280743Y627261D01*
X281779Y625465D01*
X283245Y623999D01*
X285041Y622962D01*
X286810Y622489D01*
Y629030D01*
D02*
G37*
G36*
X202551D02*
X196010D01*
Y622489D01*
X197779Y622962D01*
X199575Y623999D01*
X201041Y625465D01*
X202077Y627261D01*
X202551Y629030D01*
D02*
G37*
G36*
X193470D02*
X186929D01*
X187403Y627261D01*
X188439Y625465D01*
X189905Y623999D01*
X191701Y622962D01*
X193470Y622489D01*
Y629030D01*
D02*
G37*
G36*
X109212D02*
X102670D01*
Y622489D01*
X104439Y622962D01*
X106235Y623999D01*
X107701Y625465D01*
X108737Y627261D01*
X109212Y629030D01*
D02*
G37*
G36*
X100130D02*
X93588D01*
X94063Y627261D01*
X95099Y625465D01*
X96565Y623999D01*
X98361Y622962D01*
X100130Y622489D01*
Y629030D01*
D02*
G37*
G36*
X528725Y624849D02*
X526935D01*
X525281Y624164D01*
X524015Y622898D01*
X523330Y621244D01*
Y619454D01*
X524015Y617800D01*
X525281Y616534D01*
X526935Y615849D01*
X528725D01*
X530379Y616534D01*
X531645Y617800D01*
X532330Y619454D01*
Y621244D01*
X531645Y622898D01*
X530379Y624164D01*
X528725Y624849D01*
D02*
G37*
G36*
X722548Y621448D02*
X720758D01*
X719104Y620762D01*
X717838Y619497D01*
X717153Y617843D01*
Y616053D01*
X717838Y614399D01*
X719104Y613133D01*
X720758Y612448D01*
X722548D01*
X724202Y613133D01*
X725468Y614399D01*
X726153Y616053D01*
Y617843D01*
X725468Y619497D01*
X724202Y620762D01*
X722548Y621448D01*
D02*
G37*
G36*
X515725Y617030D02*
X513935D01*
X512281Y616345D01*
X511015Y615079D01*
X510330Y613425D01*
Y611635D01*
X511015Y609981D01*
X512281Y608715D01*
X513935Y608030D01*
X515725D01*
X517379Y608715D01*
X518645Y609981D01*
X519330Y611635D01*
Y613425D01*
X518645Y615079D01*
X517379Y616345D01*
X515725Y617030D01*
D02*
G37*
G36*
X502678Y608883D02*
X500888D01*
X499234Y608198D01*
X497968Y606932D01*
X497283Y605278D01*
Y603488D01*
X497968Y601834D01*
X499234Y600568D01*
X500888Y599883D01*
X502678D01*
X504332Y600568D01*
X505598Y601834D01*
X506283Y603488D01*
Y605278D01*
X505598Y606932D01*
X504332Y608198D01*
X502678Y608883D01*
D02*
G37*
G36*
X682650Y723320D02*
X680860D01*
X679206Y722635D01*
X677940Y721369D01*
X677255Y719715D01*
Y717925D01*
X677940Y716271D01*
X678151Y716059D01*
X678224Y714984D01*
X678226Y714693D01*
X678283Y714558D01*
Y602206D01*
X678226Y602074D01*
X678219Y601449D01*
X678199Y600996D01*
X678172Y600716D01*
X677953Y600497D01*
X677268Y598843D01*
Y597052D01*
X677953Y595399D01*
X679219Y594133D01*
X680872Y593448D01*
X682663D01*
X684317Y594133D01*
X685583Y595399D01*
X686268Y597052D01*
Y598843D01*
X685583Y600497D01*
X685359Y600720D01*
X685285Y601796D01*
X685283Y602085D01*
X685226Y602220D01*
Y714550D01*
X685283Y714683D01*
X685291Y715306D01*
X685311Y715759D01*
X685339Y716040D01*
X685570Y716271D01*
X686255Y717925D01*
Y719715D01*
X685570Y721369D01*
X684304Y722635D01*
X682650Y723320D01*
D02*
G37*
G36*
X489725Y600520D02*
X487935D01*
X486281Y599835D01*
X485015Y598569D01*
X484330Y596915D01*
Y595125D01*
X485015Y593471D01*
X486281Y592205D01*
X487935Y591520D01*
X489725D01*
X491379Y592205D01*
X492645Y593471D01*
X493330Y595125D01*
Y596915D01*
X492645Y598569D01*
X491379Y599835D01*
X489725Y600520D01*
D02*
G37*
G36*
X477145Y588700D02*
X475355D01*
X473701Y588015D01*
X472435Y586749D01*
X471750Y585095D01*
Y583305D01*
X472435Y581651D01*
X473701Y580385D01*
X475355Y579700D01*
X477145D01*
X478799Y580385D01*
X480065Y581651D01*
X480750Y583305D01*
Y585095D01*
X480065Y586749D01*
X478799Y588015D01*
X477145Y588700D01*
D02*
G37*
G36*
X382320Y590534D02*
X380520D01*
X378782Y590068D01*
X377224Y589169D01*
X375951Y587896D01*
X375052Y586338D01*
X374586Y584600D01*
Y582800D01*
X375052Y581062D01*
X375951Y579504D01*
X377224Y578231D01*
X378782Y577332D01*
X380520Y576866D01*
X382320D01*
X384058Y577332D01*
X385616Y578231D01*
X386889Y579504D01*
X387788Y581062D01*
X388254Y582800D01*
Y584600D01*
X387788Y586338D01*
X386889Y587896D01*
X385616Y589169D01*
X384058Y590068D01*
X382320Y590534D01*
D02*
G37*
G36*
X288980D02*
X287180D01*
X285442Y590068D01*
X283884Y589169D01*
X282611Y587896D01*
X281712Y586338D01*
X281246Y584600D01*
Y582800D01*
X281712Y581062D01*
X282611Y579504D01*
X283884Y578231D01*
X285442Y577332D01*
X287180Y576866D01*
X288980D01*
X290718Y577332D01*
X292276Y578231D01*
X293549Y579504D01*
X294448Y581062D01*
X294914Y582800D01*
Y584600D01*
X294448Y586338D01*
X293549Y587896D01*
X292276Y589169D01*
X290718Y590068D01*
X288980Y590534D01*
D02*
G37*
G36*
X195640D02*
X193840D01*
X192102Y590068D01*
X190544Y589169D01*
X189271Y587896D01*
X188372Y586338D01*
X187906Y584600D01*
Y582800D01*
X188372Y581062D01*
X189271Y579504D01*
X190544Y578231D01*
X192102Y577332D01*
X193840Y576866D01*
X195640D01*
X197378Y577332D01*
X198936Y578231D01*
X200209Y579504D01*
X201108Y581062D01*
X201574Y582800D01*
Y584600D01*
X201108Y586338D01*
X200209Y587896D01*
X198936Y589169D01*
X197378Y590068D01*
X195640Y590534D01*
D02*
G37*
G36*
X102300D02*
X100500D01*
X98762Y590068D01*
X97204Y589169D01*
X95931Y587896D01*
X95032Y586338D01*
X94566Y584600D01*
Y582800D01*
X95032Y581062D01*
X95931Y579504D01*
X97204Y578231D01*
X98762Y577332D01*
X100500Y576866D01*
X102300D01*
X104038Y577332D01*
X105596Y578231D01*
X106869Y579504D01*
X107768Y581062D01*
X108234Y582800D01*
Y584600D01*
X107768Y586338D01*
X106869Y587896D01*
X105596Y589169D01*
X104038Y590068D01*
X102300Y590534D01*
D02*
G37*
G36*
X735873Y723320D02*
X734083D01*
X732429Y722635D01*
X731163Y721369D01*
X730478Y719715D01*
Y717925D01*
X731163Y716271D01*
X731374Y716059D01*
X731448Y714984D01*
X731449Y714693D01*
X731506Y714558D01*
Y579851D01*
X731449Y579718D01*
X731442Y579095D01*
X731422Y578642D01*
X731394Y578361D01*
X731163Y578130D01*
X730478Y576476D01*
Y574686D01*
X731163Y573032D01*
X732429Y571766D01*
X734083Y571081D01*
X735873D01*
X737527Y571766D01*
X738793Y573032D01*
X739478Y574686D01*
Y576476D01*
X738793Y578130D01*
X738581Y578341D01*
X738508Y579417D01*
X738506Y579708D01*
X738450Y579843D01*
Y714550D01*
X738506Y714683D01*
X738514Y715306D01*
X738534Y715759D01*
X738562Y716040D01*
X738793Y716271D01*
X739478Y717925D01*
Y719715D01*
X738793Y721369D01*
X737527Y722635D01*
X735873Y723320D01*
D02*
G37*
G36*
X701650D02*
X699860D01*
X698206Y722635D01*
X696940Y721369D01*
X696255Y719715D01*
Y717925D01*
X696940Y716271D01*
X697151Y716059D01*
X697224Y714984D01*
X697226Y714693D01*
X697283Y714558D01*
Y578200D01*
X697226Y578067D01*
X697219Y577444D01*
X697198Y576991D01*
X697171Y576710D01*
X696940Y576479D01*
X696255Y574825D01*
Y573035D01*
X696940Y571381D01*
X698206Y570115D01*
X699860Y569430D01*
X701650D01*
X703304Y570115D01*
X704570Y571381D01*
X705255Y573035D01*
Y574825D01*
X704570Y576479D01*
X704358Y576690D01*
X704285Y577766D01*
X704283Y578057D01*
X704226Y578192D01*
Y714550D01*
X704283Y714683D01*
X704291Y715306D01*
X704311Y715759D01*
X704339Y716040D01*
X704570Y716271D01*
X705255Y717925D01*
Y719715D01*
X704570Y721369D01*
X703304Y722635D01*
X701650Y723320D01*
D02*
G37*
G36*
X395020Y577834D02*
X393220D01*
X391482Y577368D01*
X389924Y576469D01*
X388651Y575196D01*
X387752Y573638D01*
X387286Y571900D01*
Y570100D01*
X387752Y568362D01*
X388651Y566804D01*
X389924Y565531D01*
X391482Y564632D01*
X393220Y564166D01*
X395020D01*
X396758Y564632D01*
X398316Y565531D01*
X399589Y566804D01*
X400488Y568362D01*
X400954Y570100D01*
Y571900D01*
X400488Y573638D01*
X399589Y575196D01*
X398316Y576469D01*
X396758Y577368D01*
X395020Y577834D01*
D02*
G37*
G36*
X369620D02*
X367820D01*
X366082Y577368D01*
X364524Y576469D01*
X363251Y575196D01*
X362352Y573638D01*
X361886Y571900D01*
Y570100D01*
X362352Y568362D01*
X363251Y566804D01*
X364524Y565531D01*
X366082Y564632D01*
X367820Y564166D01*
X369620D01*
X371358Y564632D01*
X372916Y565531D01*
X374189Y566804D01*
X375088Y568362D01*
X375554Y570100D01*
Y571900D01*
X375088Y573638D01*
X374189Y575196D01*
X372916Y576469D01*
X371358Y577368D01*
X369620Y577834D01*
D02*
G37*
G36*
X301680D02*
X299880D01*
X298142Y577368D01*
X296584Y576469D01*
X295311Y575196D01*
X294412Y573638D01*
X293946Y571900D01*
Y570100D01*
X294412Y568362D01*
X295311Y566804D01*
X296584Y565531D01*
X298142Y564632D01*
X299880Y564166D01*
X301680D01*
X303418Y564632D01*
X304976Y565531D01*
X306249Y566804D01*
X307148Y568362D01*
X307614Y570100D01*
Y571900D01*
X307148Y573638D01*
X306249Y575196D01*
X304976Y576469D01*
X303418Y577368D01*
X301680Y577834D01*
D02*
G37*
G36*
X276280D02*
X274480D01*
X272742Y577368D01*
X271184Y576469D01*
X269911Y575196D01*
X269012Y573638D01*
X268546Y571900D01*
Y570100D01*
X269012Y568362D01*
X269911Y566804D01*
X271184Y565531D01*
X272742Y564632D01*
X274480Y564166D01*
X276280D01*
X278018Y564632D01*
X279576Y565531D01*
X280849Y566804D01*
X281748Y568362D01*
X282214Y570100D01*
Y571900D01*
X281748Y573638D01*
X280849Y575196D01*
X279576Y576469D01*
X278018Y577368D01*
X276280Y577834D01*
D02*
G37*
G36*
X208340D02*
X206540D01*
X204802Y577368D01*
X203244Y576469D01*
X201971Y575196D01*
X201072Y573638D01*
X200606Y571900D01*
Y570100D01*
X201072Y568362D01*
X201971Y566804D01*
X203244Y565531D01*
X204802Y564632D01*
X206540Y564166D01*
X208340D01*
X210078Y564632D01*
X211636Y565531D01*
X212909Y566804D01*
X213808Y568362D01*
X214274Y570100D01*
Y571900D01*
X213808Y573638D01*
X212909Y575196D01*
X211636Y576469D01*
X210078Y577368D01*
X208340Y577834D01*
D02*
G37*
G36*
X182940D02*
X181140D01*
X179402Y577368D01*
X177844Y576469D01*
X176571Y575196D01*
X175672Y573638D01*
X175206Y571900D01*
Y570100D01*
X175672Y568362D01*
X176571Y566804D01*
X177844Y565531D01*
X179402Y564632D01*
X181140Y564166D01*
X182940D01*
X184678Y564632D01*
X186236Y565531D01*
X187509Y566804D01*
X188408Y568362D01*
X188874Y570100D01*
Y571900D01*
X188408Y573638D01*
X187509Y575196D01*
X186236Y576469D01*
X184678Y577368D01*
X182940Y577834D01*
D02*
G37*
G36*
X115000D02*
X113200D01*
X111462Y577368D01*
X109904Y576469D01*
X108631Y575196D01*
X107732Y573638D01*
X107266Y571900D01*
Y570100D01*
X107732Y568362D01*
X108631Y566804D01*
X109904Y565531D01*
X111462Y564632D01*
X113200Y564166D01*
X115000D01*
X116738Y564632D01*
X118296Y565531D01*
X119569Y566804D01*
X120468Y568362D01*
X120934Y570100D01*
Y571900D01*
X120468Y573638D01*
X119569Y575196D01*
X118296Y576469D01*
X116738Y577368D01*
X115000Y577834D01*
D02*
G37*
G36*
X89600D02*
X87800D01*
X86062Y577368D01*
X84504Y576469D01*
X83231Y575196D01*
X82332Y573638D01*
X81866Y571900D01*
Y570100D01*
X82332Y568362D01*
X83231Y566804D01*
X84504Y565531D01*
X86062Y564632D01*
X87800Y564166D01*
X89600D01*
X91338Y564632D01*
X92896Y565531D01*
X94169Y566804D01*
X95068Y568362D01*
X95534Y570100D01*
Y571900D01*
X95068Y573638D01*
X94169Y575196D01*
X92896Y576469D01*
X91338Y577368D01*
X89600Y577834D01*
D02*
G37*
G36*
X382690Y566111D02*
Y559570D01*
X389231D01*
X388757Y561339D01*
X387721Y563135D01*
X386255Y564601D01*
X384459Y565637D01*
X382690Y566111D01*
D02*
G37*
G36*
X380150D02*
X378381Y565637D01*
X376585Y564601D01*
X375119Y563135D01*
X374083Y561339D01*
X373609Y559570D01*
X380150D01*
Y566111D01*
D02*
G37*
G36*
X289350D02*
Y559570D01*
X295891D01*
X295417Y561339D01*
X294381Y563135D01*
X292915Y564601D01*
X291119Y565637D01*
X289350Y566111D01*
D02*
G37*
G36*
X286810D02*
X285041Y565637D01*
X283245Y564601D01*
X281779Y563135D01*
X280743Y561339D01*
X280268Y559570D01*
X286810D01*
Y566111D01*
D02*
G37*
G36*
X196010D02*
Y559570D01*
X202551D01*
X202077Y561339D01*
X201041Y563135D01*
X199575Y564601D01*
X197779Y565637D01*
X196010Y566111D01*
D02*
G37*
G36*
X193470D02*
X191701Y565637D01*
X189905Y564601D01*
X188439Y563135D01*
X187403Y561339D01*
X186929Y559570D01*
X193470D01*
Y566111D01*
D02*
G37*
G36*
X102670D02*
Y559570D01*
X109212D01*
X108737Y561339D01*
X107701Y563135D01*
X106235Y564601D01*
X104439Y565637D01*
X102670Y566111D01*
D02*
G37*
G36*
X100130D02*
X98361Y565637D01*
X96565Y564601D01*
X95099Y563135D01*
X94063Y561339D01*
X93588Y559570D01*
X100130D01*
Y566111D01*
D02*
G37*
G36*
X389231Y557030D02*
X382690D01*
Y550489D01*
X384459Y550963D01*
X386255Y551999D01*
X387721Y553465D01*
X388757Y555261D01*
X389231Y557030D01*
D02*
G37*
G36*
X380150D02*
X373609D01*
X374083Y555261D01*
X375119Y553465D01*
X376585Y551999D01*
X378381Y550963D01*
X380150Y550489D01*
Y557030D01*
D02*
G37*
G36*
X295891D02*
X289350D01*
Y550489D01*
X291119Y550963D01*
X292915Y551999D01*
X294381Y553465D01*
X295417Y555261D01*
X295891Y557030D01*
D02*
G37*
G36*
X286810D02*
X280268D01*
X280743Y555261D01*
X281779Y553465D01*
X283245Y551999D01*
X285041Y550963D01*
X286810Y550489D01*
Y557030D01*
D02*
G37*
G36*
X202551D02*
X196010D01*
Y550489D01*
X197779Y550963D01*
X199575Y551999D01*
X201041Y553465D01*
X202077Y555261D01*
X202551Y557030D01*
D02*
G37*
G36*
X193470D02*
X186929D01*
X187403Y555261D01*
X188439Y553465D01*
X189905Y551999D01*
X191701Y550963D01*
X193470Y550489D01*
Y557030D01*
D02*
G37*
G36*
X109212D02*
X102670D01*
Y550489D01*
X104439Y550963D01*
X106235Y551999D01*
X107701Y553465D01*
X108737Y555261D01*
X109212Y557030D01*
D02*
G37*
G36*
X100130D02*
X93588D01*
X94063Y555261D01*
X95099Y553465D01*
X96565Y551999D01*
X98361Y550963D01*
X100130Y550489D01*
Y557030D01*
D02*
G37*
G36*
X528725Y552849D02*
X526935D01*
X525281Y552164D01*
X524015Y550898D01*
X523330Y549244D01*
Y547454D01*
X524015Y545800D01*
X525281Y544534D01*
X526935Y543849D01*
X528725D01*
X530379Y544534D01*
X531645Y545800D01*
X532330Y547454D01*
Y549244D01*
X531645Y550898D01*
X530379Y552164D01*
X528725Y552849D01*
D02*
G37*
G36*
X587635Y547878D02*
X585845D01*
X584191Y547193D01*
X582925Y545928D01*
X582240Y544274D01*
Y542483D01*
X582925Y540830D01*
X584191Y539564D01*
X585845Y538879D01*
X587635D01*
X589289Y539564D01*
X590555Y540830D01*
X591240Y542483D01*
Y544274D01*
X590555Y545928D01*
X589289Y547193D01*
X587635Y547878D01*
D02*
G37*
G36*
X515725Y545030D02*
X513935D01*
X512281Y544345D01*
X511015Y543079D01*
X510330Y541425D01*
Y539635D01*
X511015Y537981D01*
X512281Y536715D01*
X513935Y536030D01*
X515725D01*
X517379Y536715D01*
X518645Y537981D01*
X519330Y539635D01*
Y541425D01*
X518645Y543079D01*
X517379Y544345D01*
X515725Y545030D01*
D02*
G37*
G36*
X502545Y536883D02*
X500755D01*
X499101Y536198D01*
X497835Y534932D01*
X497150Y533278D01*
Y531488D01*
X497835Y529834D01*
X499101Y528568D01*
X500755Y527883D01*
X502545D01*
X504199Y528568D01*
X505465Y529834D01*
X506150Y531488D01*
Y533278D01*
X505465Y534932D01*
X504199Y536198D01*
X502545Y536883D01*
D02*
G37*
G36*
X489725Y528520D02*
X487935D01*
X486281Y527835D01*
X485015Y526569D01*
X484330Y524915D01*
Y523125D01*
X485015Y521471D01*
X486281Y520205D01*
X487935Y519520D01*
X489725D01*
X491379Y520205D01*
X492645Y521471D01*
X493330Y523125D01*
Y524915D01*
X492645Y526569D01*
X491379Y527835D01*
X489725Y528520D01*
D02*
G37*
G36*
X587635Y520483D02*
X585845D01*
X584191Y519798D01*
X582925Y518532D01*
X582240Y516878D01*
Y515088D01*
X582925Y513434D01*
X584191Y512168D01*
X585845Y511483D01*
X587635D01*
X589289Y512168D01*
X590555Y513434D01*
X591240Y515088D01*
Y516878D01*
X590555Y518532D01*
X589289Y519798D01*
X587635Y520483D01*
D02*
G37*
G36*
X382320Y518534D02*
X380520D01*
X378782Y518068D01*
X377224Y517169D01*
X375951Y515896D01*
X375052Y514338D01*
X374586Y512600D01*
Y510800D01*
X375052Y509062D01*
X375951Y507504D01*
X377224Y506231D01*
X378782Y505332D01*
X380520Y504866D01*
X382320D01*
X384058Y505332D01*
X385616Y506231D01*
X386889Y507504D01*
X387788Y509062D01*
X388254Y510800D01*
Y512600D01*
X387788Y514338D01*
X386889Y515896D01*
X385616Y517169D01*
X384058Y518068D01*
X382320Y518534D01*
D02*
G37*
G36*
X288980D02*
X287180D01*
X285442Y518068D01*
X283884Y517169D01*
X282611Y515896D01*
X281712Y514338D01*
X281246Y512600D01*
Y510800D01*
X281712Y509062D01*
X282611Y507504D01*
X283884Y506231D01*
X285442Y505332D01*
X287180Y504866D01*
X288980D01*
X290718Y505332D01*
X292276Y506231D01*
X293549Y507504D01*
X294448Y509062D01*
X294914Y510800D01*
Y512600D01*
X294448Y514338D01*
X293549Y515896D01*
X292276Y517169D01*
X290718Y518068D01*
X288980Y518534D01*
D02*
G37*
G36*
X195640D02*
X193840D01*
X192102Y518068D01*
X190544Y517169D01*
X189271Y515896D01*
X188372Y514338D01*
X187906Y512600D01*
Y510800D01*
X188372Y509062D01*
X189271Y507504D01*
X190544Y506231D01*
X192102Y505332D01*
X193840Y504866D01*
X195640D01*
X197378Y505332D01*
X198936Y506231D01*
X200209Y507504D01*
X201108Y509062D01*
X201574Y510800D01*
Y512600D01*
X201108Y514338D01*
X200209Y515896D01*
X198936Y517169D01*
X197378Y518068D01*
X195640Y518534D01*
D02*
G37*
G36*
X102300D02*
X100500D01*
X98762Y518068D01*
X97204Y517169D01*
X95931Y515896D01*
X95032Y514338D01*
X94566Y512600D01*
Y510800D01*
X95032Y509062D01*
X95931Y507504D01*
X97204Y506231D01*
X98762Y505332D01*
X100500Y504866D01*
X102300D01*
X104038Y505332D01*
X105596Y506231D01*
X106869Y507504D01*
X107768Y509062D01*
X108234Y510800D01*
Y512600D01*
X107768Y514338D01*
X106869Y515896D01*
X105596Y517169D01*
X104038Y518068D01*
X102300Y518534D01*
D02*
G37*
G36*
X395020Y505834D02*
X393220D01*
X391482Y505368D01*
X389924Y504468D01*
X388651Y503196D01*
X387752Y501638D01*
X387286Y499900D01*
Y498100D01*
X387752Y496362D01*
X388651Y494804D01*
X389924Y493531D01*
X391482Y492632D01*
X393220Y492166D01*
X395020D01*
X396758Y492632D01*
X398316Y493531D01*
X399589Y494804D01*
X400488Y496362D01*
X400954Y498100D01*
Y499900D01*
X400488Y501638D01*
X399589Y503196D01*
X398316Y504468D01*
X396758Y505368D01*
X395020Y505834D01*
D02*
G37*
G36*
X369620D02*
X367820D01*
X366082Y505368D01*
X364524Y504468D01*
X363251Y503196D01*
X362352Y501638D01*
X361886Y499900D01*
Y498100D01*
X362352Y496362D01*
X363251Y494804D01*
X364524Y493531D01*
X366082Y492632D01*
X367820Y492166D01*
X369620D01*
X371358Y492632D01*
X372916Y493531D01*
X374189Y494804D01*
X375088Y496362D01*
X375554Y498100D01*
Y499900D01*
X375088Y501638D01*
X374189Y503196D01*
X372916Y504468D01*
X371358Y505368D01*
X369620Y505834D01*
D02*
G37*
G36*
X301680D02*
X299880D01*
X298142Y505368D01*
X296584Y504468D01*
X295311Y503196D01*
X294412Y501638D01*
X293946Y499900D01*
Y498100D01*
X294412Y496362D01*
X295311Y494804D01*
X296584Y493531D01*
X298142Y492632D01*
X299880Y492166D01*
X301680D01*
X303418Y492632D01*
X304976Y493531D01*
X306249Y494804D01*
X307148Y496362D01*
X307614Y498100D01*
Y499900D01*
X307148Y501638D01*
X306249Y503196D01*
X304976Y504468D01*
X303418Y505368D01*
X301680Y505834D01*
D02*
G37*
G36*
X276280D02*
X274480D01*
X272742Y505368D01*
X271184Y504468D01*
X269911Y503196D01*
X269012Y501638D01*
X268546Y499900D01*
Y498100D01*
X269012Y496362D01*
X269911Y494804D01*
X271184Y493531D01*
X272742Y492632D01*
X274480Y492166D01*
X276280D01*
X278018Y492632D01*
X279576Y493531D01*
X280849Y494804D01*
X281748Y496362D01*
X282214Y498100D01*
Y499900D01*
X281748Y501638D01*
X280849Y503196D01*
X279576Y504468D01*
X278018Y505368D01*
X276280Y505834D01*
D02*
G37*
G36*
X208340D02*
X206540D01*
X204802Y505368D01*
X203244Y504468D01*
X201971Y503196D01*
X201072Y501638D01*
X200606Y499900D01*
Y498100D01*
X201072Y496362D01*
X201971Y494804D01*
X203244Y493531D01*
X204802Y492632D01*
X206540Y492166D01*
X208340D01*
X210078Y492632D01*
X211636Y493531D01*
X212909Y494804D01*
X213808Y496362D01*
X214274Y498100D01*
Y499900D01*
X213808Y501638D01*
X212909Y503196D01*
X211636Y504468D01*
X210078Y505368D01*
X208340Y505834D01*
D02*
G37*
G36*
X182940D02*
X181140D01*
X179402Y505368D01*
X177844Y504468D01*
X176571Y503196D01*
X175672Y501638D01*
X175206Y499900D01*
Y498100D01*
X175672Y496362D01*
X176571Y494804D01*
X177844Y493531D01*
X179402Y492632D01*
X181140Y492166D01*
X182940D01*
X184678Y492632D01*
X186236Y493531D01*
X187509Y494804D01*
X188408Y496362D01*
X188874Y498100D01*
Y499900D01*
X188408Y501638D01*
X187509Y503196D01*
X186236Y504468D01*
X184678Y505368D01*
X182940Y505834D01*
D02*
G37*
G36*
X115000D02*
X113200D01*
X111462Y505368D01*
X109904Y504468D01*
X108631Y503196D01*
X107732Y501638D01*
X107266Y499900D01*
Y498100D01*
X107732Y496362D01*
X108631Y494804D01*
X109904Y493531D01*
X111462Y492632D01*
X113200Y492166D01*
X115000D01*
X116738Y492632D01*
X118296Y493531D01*
X119569Y494804D01*
X120468Y496362D01*
X120934Y498100D01*
Y499900D01*
X120468Y501638D01*
X119569Y503196D01*
X118296Y504468D01*
X116738Y505368D01*
X115000Y505834D01*
D02*
G37*
G36*
X89600D02*
X87800D01*
X86062Y505368D01*
X84504Y504468D01*
X83231Y503196D01*
X82332Y501638D01*
X81866Y499900D01*
Y498100D01*
X82332Y496362D01*
X83231Y494804D01*
X84504Y493531D01*
X86062Y492632D01*
X87800Y492166D01*
X89600D01*
X91338Y492632D01*
X92896Y493531D01*
X94169Y494804D01*
X95068Y496362D01*
X95534Y498100D01*
Y499900D01*
X95068Y501638D01*
X94169Y503196D01*
X92896Y504468D01*
X91338Y505368D01*
X89600Y505834D01*
D02*
G37*
G36*
X382690Y494111D02*
Y487570D01*
X389231D01*
X388757Y489339D01*
X387721Y491135D01*
X386255Y492601D01*
X384459Y493637D01*
X382690Y494111D01*
D02*
G37*
G36*
X380150D02*
X378381Y493637D01*
X376585Y492601D01*
X375119Y491135D01*
X374083Y489339D01*
X373609Y487570D01*
X380150D01*
Y494111D01*
D02*
G37*
G36*
X289350D02*
Y487570D01*
X295891D01*
X295417Y489339D01*
X294381Y491135D01*
X292915Y492601D01*
X291119Y493637D01*
X289350Y494111D01*
D02*
G37*
G36*
X286810D02*
X285041Y493637D01*
X283245Y492601D01*
X281779Y491135D01*
X280743Y489339D01*
X280268Y487570D01*
X286810D01*
Y494111D01*
D02*
G37*
G36*
X196010D02*
Y487570D01*
X202551D01*
X202077Y489339D01*
X201041Y491135D01*
X199575Y492601D01*
X197779Y493637D01*
X196010Y494111D01*
D02*
G37*
G36*
X193470D02*
X191701Y493637D01*
X189905Y492601D01*
X188439Y491135D01*
X187403Y489339D01*
X186929Y487570D01*
X193470D01*
Y494111D01*
D02*
G37*
G36*
X102670D02*
Y487570D01*
X109212D01*
X108737Y489339D01*
X107701Y491135D01*
X106235Y492601D01*
X104439Y493637D01*
X102670Y494111D01*
D02*
G37*
G36*
X100130D02*
X98361Y493637D01*
X96565Y492601D01*
X95099Y491135D01*
X94063Y489339D01*
X93588Y487570D01*
X100130D01*
Y494111D01*
D02*
G37*
G36*
X667426Y723320D02*
X665636D01*
X663982Y722635D01*
X662716Y721369D01*
X662031Y719715D01*
Y717925D01*
X662716Y716271D01*
X663043Y715944D01*
X663110Y714900D01*
X663112Y714606D01*
X663126Y714573D01*
X663114Y714540D01*
X663169Y714423D01*
Y493116D01*
X663112Y492981D01*
X663111Y492659D01*
X663088Y491893D01*
X663066Y491630D01*
X662935Y491499D01*
X662250Y489845D01*
Y488055D01*
X662935Y486401D01*
X664201Y485135D01*
X665855Y484450D01*
X667645D01*
X669299Y485135D01*
X670565Y486401D01*
X671250Y488055D01*
Y489845D01*
X670565Y491499D01*
X670238Y491826D01*
X670171Y492870D01*
X670169Y493164D01*
X670155Y493197D01*
X670167Y493230D01*
X670112Y493347D01*
Y714654D01*
X670169Y714789D01*
X670171Y715111D01*
X670193Y715877D01*
X670215Y716140D01*
X670346Y716271D01*
X671031Y717925D01*
Y719715D01*
X670346Y721369D01*
X669080Y722635D01*
X667426Y723320D01*
D02*
G37*
G36*
X587635Y493087D02*
X585845D01*
X584191Y492402D01*
X582925Y491136D01*
X582240Y489482D01*
Y487692D01*
X582925Y486038D01*
X584191Y484772D01*
X585845Y484087D01*
X587635D01*
X589289Y484772D01*
X590555Y486038D01*
X591240Y487692D01*
Y489482D01*
X590555Y491136D01*
X589289Y492402D01*
X587635Y493087D01*
D02*
G37*
G36*
X389231Y485030D02*
X382690D01*
Y478489D01*
X384459Y478963D01*
X386255Y479999D01*
X387721Y481465D01*
X388757Y483261D01*
X389231Y485030D01*
D02*
G37*
G36*
X380150D02*
X373609D01*
X374083Y483261D01*
X375119Y481465D01*
X376585Y479999D01*
X378381Y478963D01*
X380150Y478489D01*
Y485030D01*
D02*
G37*
G36*
X295891D02*
X289350D01*
Y478489D01*
X291119Y478963D01*
X292915Y479999D01*
X294381Y481465D01*
X295417Y483261D01*
X295891Y485030D01*
D02*
G37*
G36*
X286810D02*
X280268D01*
X280743Y483261D01*
X281779Y481465D01*
X283245Y479999D01*
X285041Y478963D01*
X286810Y478489D01*
Y485030D01*
D02*
G37*
G36*
X202551D02*
X196010D01*
Y478489D01*
X197779Y478963D01*
X199575Y479999D01*
X201041Y481465D01*
X202077Y483261D01*
X202551Y485030D01*
D02*
G37*
G36*
X193470D02*
X186929D01*
X187403Y483261D01*
X188439Y481465D01*
X189905Y479999D01*
X191701Y478963D01*
X193470Y478489D01*
Y485030D01*
D02*
G37*
G36*
X109212D02*
X102670D01*
Y478489D01*
X104439Y478963D01*
X106235Y479999D01*
X107701Y481465D01*
X108737Y483261D01*
X109212Y485030D01*
D02*
G37*
G36*
X100130D02*
X93588D01*
X94063Y483261D01*
X95099Y481465D01*
X96565Y479999D01*
X98361Y478963D01*
X100130Y478489D01*
Y485030D01*
D02*
G37*
G36*
X528725Y480849D02*
X526935D01*
X525281Y480164D01*
X524015Y478898D01*
X523330Y477244D01*
Y475454D01*
X524015Y473800D01*
X525281Y472534D01*
X526935Y471849D01*
X528725D01*
X530379Y472534D01*
X531645Y473800D01*
X532330Y475454D01*
Y477244D01*
X531645Y478898D01*
X530379Y480164D01*
X528725Y480849D01*
D02*
G37*
G36*
X515725Y473030D02*
X513935D01*
X512281Y472345D01*
X511015Y471079D01*
X510330Y469425D01*
Y467635D01*
X511015Y465981D01*
X512281Y464715D01*
X513935Y464030D01*
X515725D01*
X517379Y464715D01*
X518645Y465981D01*
X519330Y467635D01*
Y469425D01*
X518645Y471079D01*
X517379Y472345D01*
X515725Y473030D01*
D02*
G37*
G36*
X587635Y465691D02*
X585845D01*
X584191Y465006D01*
X582925Y463741D01*
X582240Y462086D01*
Y460296D01*
X582925Y458642D01*
X584191Y457377D01*
X585845Y456691D01*
X587635D01*
X589289Y457377D01*
X590555Y458642D01*
X591240Y460296D01*
Y462086D01*
X590555Y463741D01*
X589289Y465006D01*
X587635Y465691D01*
D02*
G37*
G36*
X502678Y464883D02*
X500888D01*
X499234Y464198D01*
X497968Y462932D01*
X497283Y461278D01*
Y459488D01*
X497968Y457834D01*
X499234Y456568D01*
X500888Y455883D01*
X502678D01*
X504332Y456568D01*
X505598Y457834D01*
X506283Y459488D01*
Y461278D01*
X505598Y462932D01*
X504332Y464198D01*
X502678Y464883D01*
D02*
G37*
G36*
X489725Y456520D02*
X487935D01*
X486281Y455835D01*
X485015Y454569D01*
X484330Y452915D01*
Y451125D01*
X485015Y449471D01*
X486281Y448205D01*
X487935Y447520D01*
X489725D01*
X491379Y448205D01*
X492645Y449471D01*
X493330Y451125D01*
Y452915D01*
X492645Y454569D01*
X491379Y455835D01*
X489725Y456520D01*
D02*
G37*
G36*
X476725Y447320D02*
X474935D01*
X473281Y446635D01*
X472015Y445369D01*
X471330Y443715D01*
Y441925D01*
X472015Y440271D01*
X473281Y439005D01*
X474935Y438320D01*
X476725D01*
X478379Y439005D01*
X479645Y440271D01*
X480330Y441925D01*
Y443715D01*
X479645Y445369D01*
X478379Y446635D01*
X476725Y447320D01*
D02*
G37*
G36*
X382320Y446534D02*
X380520D01*
X378782Y446068D01*
X377224Y445169D01*
X375951Y443896D01*
X375052Y442338D01*
X374586Y440600D01*
Y438800D01*
X375052Y437062D01*
X375951Y435504D01*
X377224Y434231D01*
X378782Y433332D01*
X380520Y432866D01*
X382320D01*
X384058Y433332D01*
X385616Y434231D01*
X386889Y435504D01*
X387788Y437062D01*
X388254Y438800D01*
Y440600D01*
X387788Y442338D01*
X386889Y443896D01*
X385616Y445169D01*
X384058Y446068D01*
X382320Y446534D01*
D02*
G37*
G36*
X288980D02*
X287180D01*
X285442Y446068D01*
X283884Y445169D01*
X282611Y443896D01*
X281712Y442338D01*
X281246Y440600D01*
Y438800D01*
X281712Y437062D01*
X282611Y435504D01*
X283884Y434231D01*
X285442Y433332D01*
X287180Y432866D01*
X288980D01*
X290718Y433332D01*
X292276Y434231D01*
X293549Y435504D01*
X294448Y437062D01*
X294914Y438800D01*
Y440600D01*
X294448Y442338D01*
X293549Y443896D01*
X292276Y445169D01*
X290718Y446068D01*
X288980Y446534D01*
D02*
G37*
G36*
X195640D02*
X193840D01*
X192102Y446068D01*
X190544Y445169D01*
X189271Y443896D01*
X188372Y442338D01*
X187906Y440600D01*
Y438800D01*
X188372Y437062D01*
X189271Y435504D01*
X190544Y434231D01*
X192102Y433332D01*
X193840Y432866D01*
X195640D01*
X197378Y433332D01*
X198936Y434231D01*
X200209Y435504D01*
X201108Y437062D01*
X201574Y438800D01*
Y440600D01*
X201108Y442338D01*
X200209Y443896D01*
X198936Y445169D01*
X197378Y446068D01*
X195640Y446534D01*
D02*
G37*
G36*
X102300D02*
X100500D01*
X98762Y446068D01*
X97204Y445169D01*
X95931Y443896D01*
X95032Y442338D01*
X94566Y440600D01*
Y438800D01*
X95032Y437062D01*
X95931Y435504D01*
X97204Y434231D01*
X98762Y433332D01*
X100500Y432866D01*
X102300D01*
X104038Y433332D01*
X105596Y434231D01*
X106869Y435504D01*
X107768Y437062D01*
X108234Y438800D01*
Y440600D01*
X107768Y442338D01*
X106869Y443896D01*
X105596Y445169D01*
X104038Y446068D01*
X102300Y446534D01*
D02*
G37*
G36*
X587635Y435030D02*
X585845D01*
X584191Y434345D01*
X582925Y433079D01*
X582240Y431425D01*
Y429635D01*
X582925Y427981D01*
X584191Y426715D01*
X585845Y426030D01*
X587635D01*
X589289Y426715D01*
X590555Y427981D01*
X591240Y429635D01*
Y431425D01*
X590555Y433079D01*
X589289Y434345D01*
X587635Y435030D01*
D02*
G37*
G36*
X395020Y433834D02*
X393220D01*
X391482Y433368D01*
X389924Y432469D01*
X388651Y431196D01*
X387752Y429638D01*
X387286Y427900D01*
Y426100D01*
X387752Y424362D01*
X388651Y422804D01*
X389924Y421531D01*
X391482Y420632D01*
X393220Y420166D01*
X395020D01*
X396758Y420632D01*
X398316Y421531D01*
X399589Y422804D01*
X400488Y424362D01*
X400954Y426100D01*
Y427900D01*
X400488Y429638D01*
X399589Y431196D01*
X398316Y432469D01*
X396758Y433368D01*
X395020Y433834D01*
D02*
G37*
G36*
X369620D02*
X367820D01*
X366082Y433368D01*
X364524Y432469D01*
X363251Y431196D01*
X362352Y429638D01*
X361886Y427900D01*
Y426100D01*
X362352Y424362D01*
X363251Y422804D01*
X364524Y421531D01*
X366082Y420632D01*
X367820Y420166D01*
X369620D01*
X371358Y420632D01*
X372916Y421531D01*
X374189Y422804D01*
X375088Y424362D01*
X375554Y426100D01*
Y427900D01*
X375088Y429638D01*
X374189Y431196D01*
X372916Y432469D01*
X371358Y433368D01*
X369620Y433834D01*
D02*
G37*
G36*
X301680D02*
X299880D01*
X298142Y433368D01*
X296584Y432469D01*
X295311Y431196D01*
X294412Y429638D01*
X293946Y427900D01*
Y426100D01*
X294412Y424362D01*
X295311Y422804D01*
X296584Y421531D01*
X298142Y420632D01*
X299880Y420166D01*
X301680D01*
X303418Y420632D01*
X304976Y421531D01*
X306249Y422804D01*
X307148Y424362D01*
X307614Y426100D01*
Y427900D01*
X307148Y429638D01*
X306249Y431196D01*
X304976Y432469D01*
X303418Y433368D01*
X301680Y433834D01*
D02*
G37*
G36*
X276280D02*
X274480D01*
X272742Y433368D01*
X271184Y432469D01*
X269911Y431196D01*
X269012Y429638D01*
X268546Y427900D01*
Y426100D01*
X269012Y424362D01*
X269911Y422804D01*
X271184Y421531D01*
X272742Y420632D01*
X274480Y420166D01*
X276280D01*
X278018Y420632D01*
X279576Y421531D01*
X280849Y422804D01*
X281748Y424362D01*
X282214Y426100D01*
Y427900D01*
X281748Y429638D01*
X280849Y431196D01*
X279576Y432469D01*
X278018Y433368D01*
X276280Y433834D01*
D02*
G37*
G36*
X208340D02*
X206540D01*
X204802Y433368D01*
X203244Y432469D01*
X201971Y431196D01*
X201072Y429638D01*
X200606Y427900D01*
Y426100D01*
X201072Y424362D01*
X201971Y422804D01*
X203244Y421531D01*
X204802Y420632D01*
X206540Y420166D01*
X208340D01*
X210078Y420632D01*
X211636Y421531D01*
X212909Y422804D01*
X213808Y424362D01*
X214274Y426100D01*
Y427900D01*
X213808Y429638D01*
X212909Y431196D01*
X211636Y432469D01*
X210078Y433368D01*
X208340Y433834D01*
D02*
G37*
G36*
X182940D02*
X181140D01*
X179402Y433368D01*
X177844Y432469D01*
X176571Y431196D01*
X175672Y429638D01*
X175206Y427900D01*
Y426100D01*
X175672Y424362D01*
X176571Y422804D01*
X177844Y421531D01*
X179402Y420632D01*
X181140Y420166D01*
X182940D01*
X184678Y420632D01*
X186236Y421531D01*
X187509Y422804D01*
X188408Y424362D01*
X188874Y426100D01*
Y427900D01*
X188408Y429638D01*
X187509Y431196D01*
X186236Y432469D01*
X184678Y433368D01*
X182940Y433834D01*
D02*
G37*
G36*
X115000D02*
X113200D01*
X111462Y433368D01*
X109904Y432469D01*
X108631Y431196D01*
X107732Y429638D01*
X107266Y427900D01*
Y426100D01*
X107732Y424362D01*
X108631Y422804D01*
X109904Y421531D01*
X111462Y420632D01*
X113200Y420166D01*
X115000D01*
X116738Y420632D01*
X118296Y421531D01*
X119569Y422804D01*
X120468Y424362D01*
X120934Y426100D01*
Y427900D01*
X120468Y429638D01*
X119569Y431196D01*
X118296Y432469D01*
X116738Y433368D01*
X115000Y433834D01*
D02*
G37*
G36*
X89600D02*
X87800D01*
X86062Y433368D01*
X84504Y432469D01*
X83231Y431196D01*
X82332Y429638D01*
X81866Y427900D01*
Y426100D01*
X82332Y424362D01*
X83231Y422804D01*
X84504Y421531D01*
X86062Y420632D01*
X87800Y420166D01*
X89600D01*
X91338Y420632D01*
X92896Y421531D01*
X94169Y422804D01*
X95068Y424362D01*
X95534Y426100D01*
Y427900D01*
X95068Y429638D01*
X94169Y431196D01*
X92896Y432469D01*
X91338Y433368D01*
X89600Y433834D01*
D02*
G37*
G36*
X382690Y422112D02*
Y415570D01*
X389231D01*
X388757Y417339D01*
X387721Y419135D01*
X386255Y420601D01*
X384459Y421637D01*
X382690Y422112D01*
D02*
G37*
G36*
X380150D02*
X378381Y421637D01*
X376585Y420601D01*
X375119Y419135D01*
X374083Y417339D01*
X373609Y415570D01*
X380150D01*
Y422112D01*
D02*
G37*
G36*
X289350D02*
Y415570D01*
X295891D01*
X295417Y417339D01*
X294381Y419135D01*
X292915Y420601D01*
X291119Y421637D01*
X289350Y422112D01*
D02*
G37*
G36*
X286810D02*
X285041Y421637D01*
X283245Y420601D01*
X281779Y419135D01*
X280743Y417339D01*
X280268Y415570D01*
X286810D01*
Y422112D01*
D02*
G37*
G36*
X196010D02*
Y415570D01*
X202551D01*
X202077Y417339D01*
X201041Y419135D01*
X199575Y420601D01*
X197779Y421637D01*
X196010Y422112D01*
D02*
G37*
G36*
X193470D02*
X191701Y421637D01*
X189905Y420601D01*
X188439Y419135D01*
X187403Y417339D01*
X186929Y415570D01*
X193470D01*
Y422112D01*
D02*
G37*
G36*
X102670D02*
Y415570D01*
X109212D01*
X108737Y417339D01*
X107701Y419135D01*
X106235Y420601D01*
X104439Y421637D01*
X102670Y422112D01*
D02*
G37*
G36*
X100130D02*
X98361Y421637D01*
X96565Y420601D01*
X95099Y419135D01*
X94063Y417339D01*
X93588Y415570D01*
X100130D01*
Y422112D01*
D02*
G37*
G36*
X389231Y413030D02*
X382690D01*
Y406488D01*
X384459Y406963D01*
X386255Y407999D01*
X387721Y409465D01*
X388757Y411261D01*
X389231Y413030D01*
D02*
G37*
G36*
X380150D02*
X373609D01*
X374083Y411261D01*
X375119Y409465D01*
X376585Y407999D01*
X378381Y406963D01*
X380150Y406488D01*
Y413030D01*
D02*
G37*
G36*
X295891D02*
X289350D01*
Y406488D01*
X291119Y406963D01*
X292915Y407999D01*
X294381Y409465D01*
X295417Y411261D01*
X295891Y413030D01*
D02*
G37*
G36*
X286810D02*
X280268D01*
X280743Y411261D01*
X281779Y409465D01*
X283245Y407999D01*
X285041Y406963D01*
X286810Y406488D01*
Y413030D01*
D02*
G37*
G36*
X202551D02*
X196010D01*
Y406488D01*
X197779Y406963D01*
X199575Y407999D01*
X201041Y409465D01*
X202077Y411261D01*
X202551Y413030D01*
D02*
G37*
G36*
X193470D02*
X186929D01*
X187403Y411261D01*
X188439Y409465D01*
X189905Y407999D01*
X191701Y406963D01*
X193470Y406488D01*
Y413030D01*
D02*
G37*
G36*
X109212D02*
X102670D01*
Y406488D01*
X104439Y406963D01*
X106235Y407999D01*
X107701Y409465D01*
X108737Y411261D01*
X109212Y413030D01*
D02*
G37*
G36*
X100130D02*
X93588D01*
X94063Y411261D01*
X95099Y409465D01*
X96565Y407999D01*
X98361Y406963D01*
X100130Y406488D01*
Y413030D01*
D02*
G37*
G36*
X528725Y408849D02*
X526935D01*
X525281Y408164D01*
X524015Y406898D01*
X523330Y405244D01*
Y403454D01*
X524015Y401800D01*
X525281Y400534D01*
X526935Y399849D01*
X528725D01*
X530379Y400534D01*
X531645Y401800D01*
X532330Y403454D01*
Y405244D01*
X531645Y406898D01*
X530379Y408164D01*
X528725Y408849D01*
D02*
G37*
G36*
X515725Y401030D02*
X513935D01*
X512281Y400345D01*
X511015Y399079D01*
X510330Y397425D01*
Y395635D01*
X511015Y393981D01*
X512281Y392715D01*
X513935Y392030D01*
X515725D01*
X517379Y392715D01*
X518645Y393981D01*
X519330Y395635D01*
Y397425D01*
X518645Y399079D01*
X517379Y400345D01*
X515725Y401030D01*
D02*
G37*
G36*
X502545Y392883D02*
X500755D01*
X499101Y392198D01*
X497835Y390932D01*
X497150Y389278D01*
Y387488D01*
X497835Y385834D01*
X499101Y384568D01*
X500755Y383883D01*
X502545D01*
X504199Y384568D01*
X505465Y385834D01*
X506150Y387488D01*
Y389278D01*
X505465Y390932D01*
X504199Y392198D01*
X502545Y392883D01*
D02*
G37*
G36*
X489725Y384520D02*
X487935D01*
X486281Y383835D01*
X485015Y382569D01*
X484330Y380915D01*
Y379125D01*
X485015Y377471D01*
X486281Y376205D01*
X487935Y375520D01*
X489725D01*
X491379Y376205D01*
X492645Y377471D01*
X493330Y379125D01*
Y380915D01*
X492645Y382569D01*
X491379Y383835D01*
X489725Y384520D01*
D02*
G37*
G36*
X382320Y374534D02*
X380520D01*
X378782Y374068D01*
X377224Y373169D01*
X375951Y371896D01*
X375052Y370338D01*
X374586Y368600D01*
Y366800D01*
X375052Y365062D01*
X375951Y363504D01*
X377224Y362231D01*
X378782Y361332D01*
X380520Y360866D01*
X382320D01*
X384058Y361332D01*
X385616Y362231D01*
X386889Y363504D01*
X387788Y365062D01*
X388254Y366800D01*
Y368600D01*
X387788Y370338D01*
X386889Y371896D01*
X385616Y373169D01*
X384058Y374068D01*
X382320Y374534D01*
D02*
G37*
G36*
X288980D02*
X287180D01*
X285442Y374068D01*
X283884Y373169D01*
X282611Y371896D01*
X281712Y370338D01*
X281246Y368600D01*
Y366800D01*
X281712Y365062D01*
X282611Y363504D01*
X283884Y362231D01*
X285442Y361332D01*
X287180Y360866D01*
X288980D01*
X290718Y361332D01*
X292276Y362231D01*
X293549Y363504D01*
X294448Y365062D01*
X294914Y366800D01*
Y368600D01*
X294448Y370338D01*
X293549Y371896D01*
X292276Y373169D01*
X290718Y374068D01*
X288980Y374534D01*
D02*
G37*
G36*
X195640D02*
X193840D01*
X192102Y374068D01*
X190544Y373169D01*
X189271Y371896D01*
X188372Y370338D01*
X187906Y368600D01*
Y366800D01*
X188372Y365062D01*
X189271Y363504D01*
X190544Y362231D01*
X192102Y361332D01*
X193840Y360866D01*
X195640D01*
X197378Y361332D01*
X198936Y362231D01*
X200209Y363504D01*
X201108Y365062D01*
X201574Y366800D01*
Y368600D01*
X201108Y370338D01*
X200209Y371896D01*
X198936Y373169D01*
X197378Y374068D01*
X195640Y374534D01*
D02*
G37*
G36*
X102300D02*
X100500D01*
X98762Y374068D01*
X97204Y373169D01*
X95931Y371896D01*
X95032Y370338D01*
X94566Y368600D01*
Y366800D01*
X95032Y365062D01*
X95931Y363504D01*
X97204Y362231D01*
X98762Y361332D01*
X100500Y360866D01*
X102300D01*
X104038Y361332D01*
X105596Y362231D01*
X106869Y363504D01*
X107768Y365062D01*
X108234Y366800D01*
Y368600D01*
X107768Y370338D01*
X106869Y371896D01*
X105596Y373169D01*
X104038Y374068D01*
X102300Y374534D01*
D02*
G37*
G36*
X395020Y361834D02*
X393220D01*
X391482Y361368D01*
X389924Y360469D01*
X388651Y359196D01*
X387752Y357638D01*
X387286Y355900D01*
Y354100D01*
X387752Y352362D01*
X388651Y350804D01*
X389924Y349531D01*
X391482Y348632D01*
X393220Y348166D01*
X395020D01*
X396758Y348632D01*
X398316Y349531D01*
X399589Y350804D01*
X400488Y352362D01*
X400954Y354100D01*
Y355900D01*
X400488Y357638D01*
X399589Y359196D01*
X398316Y360469D01*
X396758Y361368D01*
X395020Y361834D01*
D02*
G37*
G36*
X369620D02*
X367820D01*
X366082Y361368D01*
X364524Y360469D01*
X363251Y359196D01*
X362352Y357638D01*
X361886Y355900D01*
Y354100D01*
X362352Y352362D01*
X363251Y350804D01*
X364524Y349531D01*
X366082Y348632D01*
X367820Y348166D01*
X369620D01*
X371358Y348632D01*
X372916Y349531D01*
X374189Y350804D01*
X375088Y352362D01*
X375554Y354100D01*
Y355900D01*
X375088Y357638D01*
X374189Y359196D01*
X372916Y360469D01*
X371358Y361368D01*
X369620Y361834D01*
D02*
G37*
G36*
X301680D02*
X299880D01*
X298142Y361368D01*
X296584Y360469D01*
X295311Y359196D01*
X294412Y357638D01*
X293946Y355900D01*
Y354100D01*
X294412Y352362D01*
X295311Y350804D01*
X296584Y349531D01*
X298142Y348632D01*
X299880Y348166D01*
X301680D01*
X303418Y348632D01*
X304976Y349531D01*
X306249Y350804D01*
X307148Y352362D01*
X307614Y354100D01*
Y355900D01*
X307148Y357638D01*
X306249Y359196D01*
X304976Y360469D01*
X303418Y361368D01*
X301680Y361834D01*
D02*
G37*
G36*
X276280D02*
X274480D01*
X272742Y361368D01*
X271184Y360469D01*
X269911Y359196D01*
X269012Y357638D01*
X268546Y355900D01*
Y354100D01*
X269012Y352362D01*
X269911Y350804D01*
X271184Y349531D01*
X272742Y348632D01*
X274480Y348166D01*
X276280D01*
X278018Y348632D01*
X279576Y349531D01*
X280849Y350804D01*
X281748Y352362D01*
X282214Y354100D01*
Y355900D01*
X281748Y357638D01*
X280849Y359196D01*
X279576Y360469D01*
X278018Y361368D01*
X276280Y361834D01*
D02*
G37*
G36*
X208340D02*
X206540D01*
X204802Y361368D01*
X203244Y360469D01*
X201971Y359196D01*
X201072Y357638D01*
X200606Y355900D01*
Y354100D01*
X201072Y352362D01*
X201971Y350804D01*
X203244Y349531D01*
X204802Y348632D01*
X206540Y348166D01*
X208340D01*
X210078Y348632D01*
X211636Y349531D01*
X212909Y350804D01*
X213808Y352362D01*
X214274Y354100D01*
Y355900D01*
X213808Y357638D01*
X212909Y359196D01*
X211636Y360469D01*
X210078Y361368D01*
X208340Y361834D01*
D02*
G37*
G36*
X182940D02*
X181140D01*
X179402Y361368D01*
X177844Y360469D01*
X176571Y359196D01*
X175672Y357638D01*
X175206Y355900D01*
Y354100D01*
X175672Y352362D01*
X176571Y350804D01*
X177844Y349531D01*
X179402Y348632D01*
X181140Y348166D01*
X182940D01*
X184678Y348632D01*
X186236Y349531D01*
X187509Y350804D01*
X188408Y352362D01*
X188874Y354100D01*
Y355900D01*
X188408Y357638D01*
X187509Y359196D01*
X186236Y360469D01*
X184678Y361368D01*
X182940Y361834D01*
D02*
G37*
G36*
X115000D02*
X113200D01*
X111462Y361368D01*
X109904Y360469D01*
X108631Y359196D01*
X107732Y357638D01*
X107266Y355900D01*
Y354100D01*
X107732Y352362D01*
X108631Y350804D01*
X109904Y349531D01*
X111462Y348632D01*
X113200Y348166D01*
X115000D01*
X116738Y348632D01*
X118296Y349531D01*
X119569Y350804D01*
X120468Y352362D01*
X120934Y354100D01*
Y355900D01*
X120468Y357638D01*
X119569Y359196D01*
X118296Y360469D01*
X116738Y361368D01*
X115000Y361834D01*
D02*
G37*
G36*
X89600D02*
X87800D01*
X86062Y361368D01*
X84504Y360469D01*
X83231Y359196D01*
X82332Y357638D01*
X81866Y355900D01*
Y354100D01*
X82332Y352362D01*
X83231Y350804D01*
X84504Y349531D01*
X86062Y348632D01*
X87800Y348166D01*
X89600D01*
X91338Y348632D01*
X92896Y349531D01*
X94169Y350804D01*
X95068Y352362D01*
X95534Y354100D01*
Y355900D01*
X95068Y357638D01*
X94169Y359196D01*
X92896Y360469D01*
X91338Y361368D01*
X89600Y361834D01*
D02*
G37*
G36*
X447040Y723457D02*
X446351Y723320D01*
X446145D01*
X445955Y723241D01*
X445266Y723104D01*
X444681Y722714D01*
X444491Y722635D01*
X444346Y722489D01*
X443761Y722099D01*
X443371Y721515D01*
X443225Y721369D01*
X443146Y721179D01*
X442756Y720594D01*
X442619Y719905D01*
X442540Y719715D01*
Y719509D01*
X442403Y718820D01*
X442413Y718770D01*
Y638810D01*
Y575350D01*
X442403Y575300D01*
X442403Y575300D01*
Y495300D01*
Y430530D01*
X442403Y430530D01*
X442409Y430497D01*
Y350520D01*
X442547Y349831D01*
Y349625D01*
X442625Y349435D01*
X442762Y348745D01*
X443153Y348161D01*
X443232Y347971D01*
X443377Y347826D01*
X443768Y347241D01*
X444352Y346851D01*
X444497Y346705D01*
X444688Y346626D01*
X445272Y346236D01*
X445961Y346099D01*
X446151Y346020D01*
X446357D01*
X447047Y345883D01*
X447736Y346020D01*
X447942D01*
X448132Y346099D01*
X448821Y346236D01*
X449406Y346626D01*
X449595Y346705D01*
X449741Y346851D01*
X450325Y347241D01*
X450716Y347826D01*
X450861Y347971D01*
X450940Y348161D01*
X451331Y348745D01*
X451468Y349435D01*
X451547Y349625D01*
Y349831D01*
X451684Y350520D01*
Y425518D01*
X452954Y426366D01*
X453765Y426030D01*
X455555D01*
X456923Y426597D01*
X458193Y426040D01*
Y350520D01*
X458330Y349831D01*
Y349625D01*
X458409Y349435D01*
X458546Y348745D01*
X458936Y348161D01*
X459015Y347971D01*
X459161Y347826D01*
X459551Y347241D01*
X460135Y346851D01*
X460281Y346705D01*
X460471Y346626D01*
X461055Y346236D01*
X461745Y346099D01*
X461935Y346020D01*
X462141D01*
X462830Y345883D01*
X463519Y346020D01*
X463725D01*
X463915Y346099D01*
X464605Y346236D01*
X465189Y346626D01*
X465379Y346705D01*
X465524Y346851D01*
X466109Y347241D01*
X466499Y347826D01*
X466645Y347971D01*
X466724Y348161D01*
X467114Y348745D01*
X467251Y349435D01*
X467330Y349625D01*
Y349831D01*
X467467Y350520D01*
Y488950D01*
Y632460D01*
X467330Y633149D01*
Y633355D01*
X467251Y633545D01*
X467114Y634235D01*
X466724Y634819D01*
X466645Y635009D01*
X466499Y635154D01*
X466109Y635739D01*
X465524Y636129D01*
X465379Y636275D01*
X465189Y636354D01*
X464605Y636744D01*
X463915Y636881D01*
X463725Y636960D01*
X463519D01*
X462830Y637097D01*
X462141Y636960D01*
X461935D01*
X461745Y636881D01*
X461055Y636744D01*
X460471Y636354D01*
X460281Y636275D01*
X460135Y636129D01*
X459551Y635739D01*
X458184Y635967D01*
X457974Y636127D01*
Y714413D01*
X458033Y714548D01*
X458046Y715146D01*
X458081Y715581D01*
X458099Y715712D01*
X458118Y715807D01*
X458122Y715824D01*
X458124Y715827D01*
X458125Y715832D01*
X458128Y715844D01*
X458153Y715911D01*
X458152Y715948D01*
X458475Y716271D01*
X459160Y717925D01*
Y719715D01*
X458475Y721369D01*
X457209Y722635D01*
X455555Y723320D01*
X453765D01*
X452111Y722635D01*
X451740Y722264D01*
X450418Y722100D01*
X450319Y722099D01*
X449734Y722489D01*
X449589Y722635D01*
X449399Y722714D01*
X448815Y723104D01*
X448125Y723241D01*
X447935Y723320D01*
X447729D01*
X447040Y723457D01*
D02*
G37*
G36*
X382690Y350112D02*
Y343570D01*
X389231D01*
X388757Y345339D01*
X387721Y347135D01*
X386255Y348601D01*
X384459Y349637D01*
X382690Y350112D01*
D02*
G37*
G36*
X380150D02*
X378381Y349637D01*
X376585Y348601D01*
X375119Y347135D01*
X374083Y345339D01*
X373609Y343570D01*
X380150D01*
Y350112D01*
D02*
G37*
G36*
X289350D02*
Y343570D01*
X295891D01*
X295417Y345339D01*
X294381Y347135D01*
X292915Y348601D01*
X291119Y349637D01*
X289350Y350112D01*
D02*
G37*
G36*
X286810D02*
X285041Y349637D01*
X283245Y348601D01*
X281779Y347135D01*
X280743Y345339D01*
X280268Y343570D01*
X286810D01*
Y350112D01*
D02*
G37*
G36*
X196010D02*
Y343570D01*
X202551D01*
X202077Y345339D01*
X201041Y347135D01*
X199575Y348601D01*
X197779Y349637D01*
X196010Y350112D01*
D02*
G37*
G36*
X193470D02*
X191701Y349637D01*
X189905Y348601D01*
X188439Y347135D01*
X187403Y345339D01*
X186929Y343570D01*
X193470D01*
Y350112D01*
D02*
G37*
G36*
X102670D02*
Y343570D01*
X109212D01*
X108737Y345339D01*
X107701Y347135D01*
X106235Y348601D01*
X104439Y349637D01*
X102670Y350112D01*
D02*
G37*
G36*
X100130D02*
X98361Y349637D01*
X96565Y348601D01*
X95099Y347135D01*
X94063Y345339D01*
X93588Y343570D01*
X100130D01*
Y350112D01*
D02*
G37*
G36*
X389231Y341030D02*
X382690D01*
Y334488D01*
X384459Y334963D01*
X386255Y335999D01*
X387721Y337465D01*
X388757Y339261D01*
X389231Y341030D01*
D02*
G37*
G36*
X380150D02*
X373609D01*
X374083Y339261D01*
X375119Y337465D01*
X376585Y335999D01*
X378381Y334963D01*
X380150Y334488D01*
Y341030D01*
D02*
G37*
G36*
X295891D02*
X289350D01*
Y334488D01*
X291119Y334963D01*
X292915Y335999D01*
X294381Y337465D01*
X295417Y339261D01*
X295891Y341030D01*
D02*
G37*
G36*
X286810D02*
X280268D01*
X280743Y339261D01*
X281779Y337465D01*
X283245Y335999D01*
X285041Y334963D01*
X286810Y334488D01*
Y341030D01*
D02*
G37*
G36*
X202551D02*
X196010D01*
Y334488D01*
X197779Y334963D01*
X199575Y335999D01*
X201041Y337465D01*
X202077Y339261D01*
X202551Y341030D01*
D02*
G37*
G36*
X193470D02*
X186929D01*
X187403Y339261D01*
X188439Y337465D01*
X189905Y335999D01*
X191701Y334963D01*
X193470Y334488D01*
Y341030D01*
D02*
G37*
G36*
X109212D02*
X102670D01*
Y334488D01*
X104439Y334963D01*
X106235Y335999D01*
X107701Y337465D01*
X108737Y339261D01*
X109212Y341030D01*
D02*
G37*
G36*
X100130D02*
X93588D01*
X94063Y339261D01*
X95099Y337465D01*
X96565Y335999D01*
X98361Y334963D01*
X100130Y334488D01*
Y341030D01*
D02*
G37*
G36*
X564913Y334240D02*
X562846D01*
X560850Y333705D01*
X559060Y332672D01*
X557598Y331210D01*
X556993Y330162D01*
X555527D01*
X554922Y331210D01*
X553460Y332672D01*
X551670Y333705D01*
X549674Y334240D01*
X547607D01*
X545610Y333705D01*
X543820Y332672D01*
X542358Y331210D01*
X541325Y329420D01*
X540790Y327424D01*
Y325356D01*
X541325Y323360D01*
X542358Y321570D01*
X543782Y320146D01*
X543938Y319975D01*
Y318835D01*
X543782Y318664D01*
X542358Y317240D01*
X541325Y315450D01*
X540790Y313454D01*
Y311387D01*
X541325Y309390D01*
X542358Y307600D01*
X543820Y306138D01*
X545610Y305105D01*
X547607Y304570D01*
X549674D01*
X551670Y305105D01*
X553460Y306138D01*
X554922Y307600D01*
X555527Y308648D01*
X556993D01*
X557598Y307600D01*
X559060Y306138D01*
X560850Y305105D01*
X562846Y304570D01*
X564913D01*
X566910Y305105D01*
X568700Y306138D01*
X570162Y307600D01*
X571195Y309390D01*
X571730Y311387D01*
Y313454D01*
X571195Y315450D01*
X570162Y317240D01*
X568738Y318664D01*
X568582Y318835D01*
Y319975D01*
X568738Y320146D01*
X570162Y321570D01*
X571195Y323360D01*
X571730Y325356D01*
Y327424D01*
X571195Y329420D01*
X570162Y331210D01*
X568700Y332672D01*
X566910Y333705D01*
X564913Y334240D01*
D02*
G37*
G36*
X228363Y332970D02*
X226297D01*
X224300Y332435D01*
X222510Y331402D01*
X221048Y329940D01*
X220443Y328892D01*
X218977D01*
X218372Y329940D01*
X216910Y331402D01*
X215120Y332435D01*
X213123Y332970D01*
X211056D01*
X209060Y332435D01*
X207270Y331402D01*
X205808Y329940D01*
X204775Y328150D01*
X204240Y326153D01*
Y324086D01*
X204775Y322090D01*
X205808Y320300D01*
X207232Y318876D01*
X207388Y318705D01*
Y317565D01*
X207232Y317394D01*
X205808Y315970D01*
X204775Y314180D01*
X204240Y312183D01*
Y310117D01*
X204775Y308120D01*
X205808Y306330D01*
X207270Y304868D01*
X209060Y303835D01*
X211056Y303300D01*
X213123D01*
X215120Y303835D01*
X216910Y304868D01*
X218372Y306330D01*
X218977Y307378D01*
X220443D01*
X221048Y306330D01*
X222510Y304868D01*
X224300Y303835D01*
X226297Y303300D01*
X228363D01*
X230360Y303835D01*
X232150Y304868D01*
X233612Y306330D01*
X234645Y308120D01*
X235180Y310117D01*
Y312183D01*
X234645Y314180D01*
X233612Y315970D01*
X232188Y317394D01*
X232031Y317565D01*
Y318705D01*
X232188Y318876D01*
X233612Y320300D01*
X234645Y322090D01*
X235180Y324086D01*
Y326153D01*
X234645Y328150D01*
X233612Y329940D01*
X232150Y331402D01*
X230360Y332435D01*
X228363Y332970D01*
D02*
G37*
G36*
X427050Y723457D02*
X426361Y723320D01*
X426155D01*
X425965Y723241D01*
X425275Y723104D01*
X424691Y722714D01*
X424501Y722635D01*
X424356Y722489D01*
X423771Y722099D01*
X423381Y721515D01*
X423235Y721369D01*
X423156Y721179D01*
X422766Y720594D01*
X422629Y719905D01*
X422550Y719715D01*
Y719509D01*
X422413Y718820D01*
Y575310D01*
Y327660D01*
X422550Y326971D01*
Y326765D01*
X422629Y326575D01*
X422766Y325886D01*
X423156Y325301D01*
X423235Y325111D01*
X423381Y324966D01*
X423771Y324381D01*
X424356Y323991D01*
X424501Y323845D01*
X424691Y323766D01*
X425275Y323376D01*
X425965Y323239D01*
X426155Y323160D01*
X426361D01*
X427050Y323023D01*
X427739Y323160D01*
X427945D01*
X428135Y323239D01*
X428825Y323376D01*
X429409Y323766D01*
X429599Y323845D01*
X429744Y323991D01*
X430329Y324381D01*
X430719Y324966D01*
X430865Y325111D01*
X430944Y325301D01*
X431334Y325886D01*
X431471Y326575D01*
X431550Y326765D01*
Y326971D01*
X431687Y327660D01*
Y575310D01*
Y718820D01*
X431550Y719509D01*
Y719715D01*
X431471Y719905D01*
X431334Y720594D01*
X430944Y721179D01*
X430865Y721369D01*
X430719Y721515D01*
X430329Y722099D01*
X429744Y722489D01*
X429599Y722635D01*
X429409Y722714D01*
X428825Y723104D01*
X428135Y723241D01*
X427945Y723320D01*
X427739D01*
X427050Y723457D01*
D02*
G37*
G36*
X701038Y334240D02*
X698970D01*
X696974Y333705D01*
X695184Y332672D01*
X693722Y331210D01*
X692689Y329420D01*
X692154Y327424D01*
Y325356D01*
X692689Y323360D01*
X693722Y321570D01*
X695184Y320108D01*
X696974Y319075D01*
X698970Y318540D01*
X701038D01*
X703034Y319075D01*
X704824Y320108D01*
X706286Y321570D01*
X707319Y323360D01*
X707854Y325356D01*
Y327424D01*
X707319Y329420D01*
X706286Y331210D01*
X704824Y332672D01*
X703034Y333705D01*
X701038Y334240D01*
D02*
G37*
G36*
X453056Y315776D02*
X451266D01*
X449612Y315091D01*
X448346Y313825D01*
X447661Y312171D01*
Y310381D01*
X448346Y308727D01*
X449612Y307461D01*
X451266Y306776D01*
X453056D01*
X454710Y307461D01*
X455976Y308727D01*
X456661Y310381D01*
Y312171D01*
X455976Y313825D01*
X454710Y315091D01*
X453056Y315776D01*
D02*
G37*
G36*
X414065Y291864D02*
X412274D01*
X410620Y291179D01*
X409355Y289913D01*
X408670Y288259D01*
Y286469D01*
X409355Y284815D01*
X410620Y283549D01*
X412274Y282864D01*
X414065D01*
X415718Y283549D01*
X416984Y284815D01*
X417669Y286469D01*
Y288259D01*
X416984Y289913D01*
X415718Y291179D01*
X414065Y291864D01*
D02*
G37*
G36*
X681755Y550627D02*
X681065Y550490D01*
X680860D01*
X680669Y550411D01*
X679980Y550274D01*
X679396Y549884D01*
X679206Y549805D01*
X679060Y549659D01*
X678476Y549269D01*
X678085Y548685D01*
X677940Y548539D01*
X677861Y548349D01*
X677470Y547765D01*
X677333Y547075D01*
X677255Y546885D01*
Y546679D01*
X677117Y545990D01*
Y287364D01*
X677255Y286675D01*
Y286469D01*
X677333Y286279D01*
X677470Y285590D01*
X677861Y285005D01*
X677940Y284815D01*
X678085Y284670D01*
X678476Y284085D01*
X679060Y283695D01*
X679206Y283549D01*
X679396Y283470D01*
X679980Y283080D01*
X680669Y282943D01*
X680860Y282864D01*
X681065D01*
X681755Y282727D01*
X682444Y282864D01*
X682650D01*
X682840Y282943D01*
X683529Y283080D01*
X684114Y283470D01*
X684304Y283549D01*
X684449Y283695D01*
X685034Y284085D01*
X685424Y284670D01*
X685570Y284815D01*
X685648Y285005D01*
X686039Y285590D01*
X686176Y286279D01*
X686255Y286469D01*
Y286675D01*
X686392Y287364D01*
Y545990D01*
X686255Y546679D01*
Y546885D01*
X686176Y547075D01*
X686039Y547765D01*
X685648Y548349D01*
X685570Y548539D01*
X685424Y548685D01*
X685034Y549269D01*
X684449Y549659D01*
X684304Y549805D01*
X684114Y549884D01*
X683529Y550274D01*
X682840Y550411D01*
X682650Y550490D01*
X682444D01*
X681755Y550627D01*
D02*
G37*
G36*
X558949Y283440D02*
X557159D01*
X555505Y282755D01*
X554239Y281489D01*
X553554Y279835D01*
Y278045D01*
X554239Y276391D01*
X555505Y275125D01*
X557159Y274440D01*
X558949D01*
X560603Y275125D01*
X561869Y276391D01*
X562554Y278045D01*
Y279835D01*
X561869Y281489D01*
X560603Y282755D01*
X558949Y283440D01*
D02*
G37*
G36*
X751840Y550627D02*
X751151Y550490D01*
X750945D01*
X750755Y550411D01*
X750066Y550274D01*
X749481Y549884D01*
X749291Y549805D01*
X749146Y549659D01*
X748561Y549269D01*
X748171Y548685D01*
X748025Y548539D01*
X747946Y548349D01*
X747556Y547765D01*
X747419Y547075D01*
X747340Y546885D01*
Y546679D01*
X747203Y545990D01*
Y278940D01*
X747340Y278251D01*
Y278045D01*
X747419Y277855D01*
X747556Y277166D01*
X747946Y276581D01*
X748025Y276391D01*
X748171Y276246D01*
X748561Y275661D01*
X749146Y275271D01*
X749291Y275125D01*
X749481Y275047D01*
X750066Y274656D01*
X750755Y274519D01*
X750945Y274440D01*
X751151D01*
X751840Y274303D01*
X752529Y274440D01*
X752735D01*
X752925Y274519D01*
X753615Y274656D01*
X754199Y275047D01*
X754389Y275125D01*
X754535Y275271D01*
X755119Y275661D01*
X755509Y276246D01*
X755655Y276391D01*
X755734Y276581D01*
X756124Y277166D01*
X756261Y277855D01*
X756340Y278045D01*
Y278251D01*
X756477Y278940D01*
Y545990D01*
X756340Y546679D01*
Y546885D01*
X756261Y547075D01*
X756124Y547765D01*
X755734Y548349D01*
X755655Y548539D01*
X755509Y548685D01*
X755119Y549269D01*
X754535Y549659D01*
X754389Y549805D01*
X754199Y549884D01*
X753615Y550274D01*
X752925Y550411D01*
X752735Y550490D01*
X752529D01*
X751840Y550627D01*
D02*
G37*
G36*
X543853Y257528D02*
X542063D01*
X540409Y256842D01*
X539143Y255577D01*
X538458Y253923D01*
Y252132D01*
X539143Y250479D01*
X540409Y249213D01*
X542063Y248528D01*
X543853D01*
X545507Y249213D01*
X546773Y250479D01*
X547458Y252132D01*
Y253923D01*
X546773Y255577D01*
X545507Y256842D01*
X543853Y257528D01*
D02*
G37*
G36*
X374922Y257528D02*
X373131D01*
X371477Y256842D01*
X370212Y255577D01*
X369526Y253923D01*
Y252132D01*
X370212Y250479D01*
X371477Y249213D01*
X373131Y248528D01*
X374922D01*
X376576Y249213D01*
X377841Y250479D01*
X378526Y252132D01*
Y253923D01*
X377841Y255577D01*
X376576Y256842D01*
X374922Y257528D01*
D02*
G37*
G36*
X331774Y288574D02*
X331188Y288457D01*
X330591D01*
X330040Y288229D01*
X329454Y288112D01*
X328958Y287781D01*
X328406Y287552D01*
X327984Y287130D01*
X327488Y286798D01*
X327156Y286302D01*
X326734Y285880D01*
X326505Y285328D01*
X326174Y284832D01*
X326057Y284246D01*
X325829Y283695D01*
Y283098D01*
X325712Y282512D01*
Y98044D01*
X325111Y97795D01*
X323845Y96529D01*
X323160Y94875D01*
Y93085D01*
X323845Y91431D01*
X325106Y90170D01*
X323845Y88909D01*
X323160Y87255D01*
Y85465D01*
X323845Y83811D01*
X325111Y82545D01*
X326765Y81860D01*
X328555D01*
X330209Y82545D01*
X330713Y83049D01*
X331774Y82838D01*
X332327Y82949D01*
X332731Y82545D01*
X334385Y81860D01*
X336175D01*
X337829Y82545D01*
X339095Y83811D01*
X339780Y85465D01*
Y87255D01*
X339095Y88909D01*
X337835Y90169D01*
Y90171D01*
X339095Y91431D01*
X339780Y93085D01*
Y94875D01*
X339095Y96529D01*
X337835Y97789D01*
Y217285D01*
X339105Y217625D01*
X339299Y217289D01*
X340761Y215828D01*
X342551Y214794D01*
X344547Y214259D01*
X346614D01*
X348611Y214794D01*
X350401Y215828D01*
X351862Y217289D01*
X352896Y219079D01*
X353431Y221076D01*
Y223143D01*
X352896Y225139D01*
X351862Y226929D01*
X350401Y228391D01*
X348611Y229424D01*
X346614Y229959D01*
X344547D01*
X342551Y229424D01*
X340761Y228391D01*
X339299Y226929D01*
X339105Y226594D01*
X337835Y226934D01*
Y240990D01*
X338991Y241268D01*
X339105Y241271D01*
X340351Y240025D01*
X342005Y239340D01*
X343795D01*
X345449Y240025D01*
X346715Y241291D01*
X347400Y242945D01*
Y244735D01*
X346715Y246389D01*
X345846Y247258D01*
X346715Y248126D01*
X347400Y249780D01*
Y251570D01*
X346715Y253224D01*
X345978Y253961D01*
X346715Y254697D01*
X347400Y256351D01*
Y258141D01*
X346715Y259795D01*
X345807Y260703D01*
X346715Y261611D01*
X347400Y263265D01*
Y265055D01*
X346715Y266709D01*
X345449Y267975D01*
X343795Y268660D01*
X342005D01*
X340351Y267975D01*
X339105Y266729D01*
X338991Y266732D01*
X337835Y267010D01*
Y282512D01*
X337719Y283098D01*
Y283695D01*
X337490Y284246D01*
X337374Y284832D01*
X337042Y285328D01*
X336814Y285880D01*
X336391Y286302D01*
X336060Y286798D01*
X335563Y287130D01*
X335141Y287552D01*
X334590Y287781D01*
X334093Y288112D01*
X333508Y288229D01*
X332956Y288457D01*
X332359D01*
X331774Y288574D01*
D02*
G37*
G36*
X597045Y723320D02*
X595255D01*
X593601Y722635D01*
X592335Y721369D01*
X591650Y719715D01*
Y717925D01*
X592335Y716271D01*
X592547Y716059D01*
X592620Y714984D01*
X592621Y714693D01*
X592678Y714558D01*
Y621236D01*
X592621Y621103D01*
X592614Y620480D01*
X592594Y620027D01*
X592566Y619746D01*
X592335Y619515D01*
X591650Y617861D01*
Y616071D01*
X592335Y614417D01*
X592547Y614206D01*
X592620Y613130D01*
X592621Y612839D01*
X592678Y612704D01*
Y574821D01*
X592621Y574688D01*
X592611Y573794D01*
X592588Y573334D01*
X592577Y573323D01*
X591892Y571669D01*
Y569879D01*
X592577Y568225D01*
X593843Y566959D01*
X595497Y566274D01*
X597287D01*
X598941Y566959D01*
X599778Y567797D01*
X601048Y567271D01*
Y434799D01*
X600992Y434667D01*
X600984Y434044D01*
X600964Y433591D01*
X600936Y433310D01*
X600705Y433079D01*
X600020Y431425D01*
Y429635D01*
X600705Y427981D01*
X600917Y427770D01*
X600990Y426693D01*
X600991Y426403D01*
X601048Y426268D01*
X601048Y227556D01*
X599778Y227189D01*
X598576Y228391D01*
X596786Y229424D01*
X594790Y229959D01*
X592723D01*
X590726Y229424D01*
X588936Y228391D01*
X587475Y226929D01*
X586441Y225139D01*
X585906Y223143D01*
Y221076D01*
X586441Y219079D01*
X587475Y217289D01*
X588936Y215828D01*
X590726Y214794D01*
X592723Y214259D01*
X594790D01*
X596786Y214794D01*
X598576Y215828D01*
X599778Y217030D01*
X601048Y216663D01*
Y141430D01*
X600992Y141297D01*
X600984Y140674D01*
X600964Y140221D01*
X600936Y139940D01*
X600705Y139709D01*
X600020Y138055D01*
Y136265D01*
X600705Y134611D01*
X601971Y133345D01*
X603625Y132660D01*
X605415D01*
X607069Y133345D01*
X608335Y134611D01*
X609020Y136265D01*
Y138055D01*
X608335Y139709D01*
X608123Y139921D01*
X608050Y140997D01*
X608049Y141287D01*
X607992Y141422D01*
Y171248D01*
X609262Y171774D01*
X609591Y171445D01*
X611245Y170760D01*
X613035D01*
X614689Y171445D01*
X615018Y171774D01*
X616288Y171248D01*
Y169370D01*
X616231Y169237D01*
X616224Y168614D01*
X616204Y168161D01*
X616176Y167880D01*
X615945Y167649D01*
X615260Y165995D01*
Y164205D01*
X615945Y162551D01*
X617211Y161285D01*
X618865Y160600D01*
X620655D01*
X622309Y161285D01*
X622638Y161614D01*
X623908Y161088D01*
Y156670D01*
X623852Y156537D01*
X623844Y155914D01*
X623824Y155461D01*
X623796Y155180D01*
X623565Y154949D01*
X622880Y153295D01*
Y151505D01*
X623565Y149851D01*
X622810Y148810D01*
X622291Y148595D01*
X621025Y147329D01*
X620340Y145675D01*
Y143885D01*
X621025Y142231D01*
X622291Y140965D01*
X623945Y140280D01*
X625735D01*
X627389Y140965D01*
X628655Y142231D01*
X629340Y143885D01*
Y145675D01*
X628655Y147329D01*
X629410Y148370D01*
X629929Y148585D01*
X631195Y149851D01*
X631880Y151505D01*
Y153295D01*
X631195Y154949D01*
X630983Y155161D01*
X630910Y156236D01*
X630909Y156527D01*
X630852Y156662D01*
X630852Y628190D01*
X630908Y628323D01*
X630916Y628946D01*
X630936Y629398D01*
X630964Y629680D01*
X631195Y629911D01*
X631880Y631565D01*
Y633355D01*
X631195Y635009D01*
X629929Y636275D01*
X628275Y636960D01*
X626485D01*
X624831Y636275D01*
X624502Y635946D01*
X623232Y636472D01*
Y661210D01*
X623288Y661343D01*
X623296Y661966D01*
X623316Y662419D01*
X623344Y662700D01*
X623575Y662931D01*
X624260Y664585D01*
Y666375D01*
X623575Y668029D01*
X622309Y669295D01*
X620655Y669980D01*
X618865D01*
X617211Y669295D01*
X615945Y668029D01*
X615260Y666375D01*
Y664585D01*
X615945Y662931D01*
X615799Y662733D01*
X614689Y662047D01*
X613035Y662732D01*
X611245D01*
X609591Y662047D01*
X608325Y660781D01*
X607640Y659127D01*
Y657337D01*
X608325Y655683D01*
X608514Y655494D01*
X608489Y654221D01*
X608052Y653904D01*
X607741Y653792D01*
X607398Y653726D01*
X607069Y654055D01*
X605415Y654740D01*
X603625D01*
X601971Y654055D01*
X600892Y652976D01*
X600009Y653159D01*
X599622Y653365D01*
Y714550D01*
X599678Y714683D01*
X599686Y715306D01*
X599706Y715759D01*
X599734Y716040D01*
X599965Y716271D01*
X600650Y717925D01*
Y719715D01*
X599965Y721369D01*
X598699Y722635D01*
X597045Y723320D01*
D02*
G37*
G36*
X745742Y230188D02*
X743674D01*
X741678Y229653D01*
X739888Y228620D01*
X738426Y227158D01*
X737393Y225368D01*
X736858Y223372D01*
Y221305D01*
X737393Y219308D01*
X738426Y217518D01*
X739888Y216057D01*
X741678Y215023D01*
X743674Y214488D01*
X745742D01*
X747738Y215023D01*
X749528Y216057D01*
X750990Y217518D01*
X752023Y219308D01*
X752558Y221305D01*
Y223372D01*
X752023Y225368D01*
X750990Y227158D01*
X749528Y228620D01*
X747738Y229653D01*
X745742Y230188D01*
D02*
G37*
G36*
X421916Y179608D02*
X420126D01*
X418472Y178923D01*
X417206Y177657D01*
X416521Y176003D01*
Y174212D01*
X417206Y172558D01*
X418472Y171293D01*
X420126Y170608D01*
X421916D01*
X423570Y171293D01*
X424836Y172558D01*
X425521Y174212D01*
Y176003D01*
X424836Y177657D01*
X423570Y178923D01*
X421916Y179608D01*
D02*
G37*
G36*
X450475Y169600D02*
X448685D01*
X447031Y168915D01*
X445765Y167649D01*
X445080Y165995D01*
Y164205D01*
X445765Y162551D01*
X447031Y161285D01*
X448685Y160600D01*
X450475D01*
X452129Y161285D01*
X453395Y162551D01*
X454080Y164205D01*
Y165995D01*
X453395Y167649D01*
X452129Y168915D01*
X450475Y169600D01*
D02*
G37*
G36*
X404755Y156900D02*
X402965D01*
X401311Y156215D01*
X400045Y154949D01*
X399360Y153295D01*
Y151505D01*
X400045Y149851D01*
X401311Y148585D01*
X402965Y147900D01*
X404755D01*
X406409Y148585D01*
X407675Y149851D01*
X408360Y151505D01*
Y153295D01*
X407675Y154949D01*
X406409Y156215D01*
X404755Y156900D01*
D02*
G37*
G36*
X105035Y146740D02*
X103245D01*
X101591Y146055D01*
X100722Y145186D01*
X99854Y146055D01*
X98200Y146740D01*
X96410D01*
X94756Y146055D01*
X94019Y145318D01*
X93283Y146055D01*
X91629Y146740D01*
X89839D01*
X88185Y146055D01*
X87277Y145147D01*
X86369Y146055D01*
X84715Y146740D01*
X82925D01*
X81271Y146055D01*
X80005Y144789D01*
X79320Y143135D01*
Y141345D01*
X80005Y139691D01*
X81271Y138425D01*
X82925Y137740D01*
X84715D01*
X86369Y138425D01*
X87277Y139333D01*
X88185Y138425D01*
X89839Y137740D01*
X91629D01*
X93283Y138425D01*
X94019Y139162D01*
X94756Y138425D01*
X96410Y137740D01*
X98200D01*
X99854Y138425D01*
X100722Y139294D01*
X101591Y138425D01*
X103245Y137740D01*
X105035D01*
X106689Y138425D01*
X107955Y139691D01*
X108640Y141345D01*
Y143135D01*
X107955Y144789D01*
X106689Y146055D01*
X105035Y146740D01*
D02*
G37*
G36*
X438551Y148610D02*
X436761D01*
X435107Y147925D01*
X433841Y146659D01*
X433156Y145005D01*
Y143215D01*
X433841Y141561D01*
X435107Y140295D01*
X436761Y139610D01*
X438551D01*
X440205Y140295D01*
X441471Y141561D01*
X442156Y143215D01*
Y145005D01*
X441471Y146659D01*
X440205Y147925D01*
X438551Y148610D01*
D02*
G37*
G36*
X404755Y141660D02*
X402965D01*
X401311Y140975D01*
X400045Y139709D01*
X399360Y138055D01*
Y136265D01*
X400045Y134611D01*
X401311Y133345D01*
X402965Y132660D01*
X404755D01*
X406409Y133345D01*
X407675Y134611D01*
X408360Y136265D01*
Y138055D01*
X407675Y139709D01*
X406409Y140975D01*
X404755Y141660D01*
D02*
G37*
G36*
X576476Y123239D02*
X574702Y122886D01*
X573197Y121881D01*
X556078Y104762D01*
X555073Y103258D01*
X554720Y101483D01*
X554720Y101483D01*
Y99929D01*
X555073Y98154D01*
X556078Y96650D01*
X557583Y95645D01*
X559357Y95292D01*
X561132Y95645D01*
X562636Y96650D01*
X563641Y98154D01*
X563903Y99471D01*
X579755Y115323D01*
X580760Y116827D01*
X581113Y118602D01*
X580760Y120377D01*
X579755Y121881D01*
X578251Y122886D01*
X576476Y123239D01*
D02*
G37*
G36*
X727428Y123176D02*
X726739Y123039D01*
X726533D01*
X726343Y122960D01*
X725654Y122823D01*
X725069Y122432D01*
X724879Y122354D01*
X724734Y122208D01*
X724149Y121818D01*
X707030Y104699D01*
X706025Y103195D01*
X705672Y101420D01*
X705672Y101420D01*
Y99866D01*
X705809Y99176D01*
Y98971D01*
X705888Y98780D01*
X706025Y98091D01*
X706415Y97507D01*
X706494Y97317D01*
X706640Y97171D01*
X707030Y96587D01*
X707615Y96196D01*
X707760Y96051D01*
X707950Y95972D01*
X708535Y95582D01*
X709224Y95444D01*
X709414Y95366D01*
X709620D01*
X710309Y95229D01*
X710999Y95366D01*
X711204D01*
X711394Y95444D01*
X712084Y95582D01*
X712668Y95972D01*
X712858Y96051D01*
X713004Y96196D01*
X713588Y96587D01*
X713979Y97171D01*
X714124Y97317D01*
X714203Y97507D01*
X714593Y98091D01*
X714730Y98780D01*
X714809Y98971D01*
Y99176D01*
X714855Y99408D01*
X730707Y115260D01*
X731097Y115844D01*
X731243Y115990D01*
X731322Y116180D01*
X731712Y116764D01*
X731849Y117454D01*
X731928Y117644D01*
Y117849D01*
X732065Y118539D01*
X731928Y119228D01*
Y119434D01*
X731849Y119624D01*
X731712Y120313D01*
X731322Y120898D01*
X731243Y121088D01*
X731097Y121233D01*
X730707Y121818D01*
X730123Y122208D01*
X729977Y122354D01*
X729787Y122432D01*
X729203Y122823D01*
X728513Y122960D01*
X728323Y123039D01*
X728117D01*
X727428Y123176D01*
D02*
G37*
G36*
X379288Y106710D02*
X377497D01*
X375844Y106025D01*
X374578Y104759D01*
X373893Y103105D01*
Y101315D01*
X374578Y99661D01*
X374901Y99338D01*
X374900Y99300D01*
X374925Y99234D01*
X374928Y99222D01*
X374929Y99217D01*
X374930Y99214D01*
X374935Y99197D01*
X374944Y99151D01*
X375016Y98237D01*
X375019Y97957D01*
X375079Y97816D01*
Y57820D01*
X375019Y57684D01*
X375006Y57086D01*
X374972Y56651D01*
X374954Y56520D01*
X374935Y56425D01*
X374930Y56409D01*
X374929Y56405D01*
X374928Y56400D01*
X374925Y56389D01*
X374900Y56322D01*
X374901Y56284D01*
X374578Y55961D01*
X373893Y54307D01*
Y52517D01*
X374578Y50863D01*
X375844Y49597D01*
X377497Y48912D01*
X379288D01*
X380942Y49597D01*
X382207Y50863D01*
X382893Y52517D01*
Y54307D01*
X382207Y55961D01*
X381884Y56284D01*
X381885Y56322D01*
X381860Y56388D01*
X381857Y56400D01*
X381857Y56405D01*
X381855Y56409D01*
X381850Y56425D01*
X381841Y56472D01*
X381769Y57385D01*
X381766Y57666D01*
X381706Y57806D01*
Y97803D01*
X381766Y97938D01*
X381779Y98536D01*
X381813Y98971D01*
X381832Y99102D01*
X381850Y99197D01*
X381855Y99214D01*
X381857Y99217D01*
X381857Y99222D01*
X381860Y99234D01*
X381885Y99300D01*
X381884Y99338D01*
X382207Y99661D01*
X382893Y101315D01*
Y103105D01*
X382207Y104759D01*
X380942Y106025D01*
X379288Y106710D01*
D02*
G37*
%LPD*%
G36*
X683818Y716623D02*
X683784Y716537D01*
X683755Y716420D01*
X683730Y716270D01*
X683691Y715875D01*
X683667Y715352D01*
X683660Y714703D01*
X679850D01*
X679848Y715043D01*
X679754Y716420D01*
X679725Y716537D01*
X679692Y716623D01*
X679655Y716678D01*
X683855D01*
X683818Y716623D01*
D02*
G37*
G36*
X683662Y601735D02*
X683757Y600358D01*
X683787Y600240D01*
X683821Y600154D01*
X683858Y600099D01*
X679658Y600081D01*
X679695Y600135D01*
X679727Y600220D01*
X679756Y600338D01*
X679781Y600488D01*
X679819Y600882D01*
X679842Y601404D01*
X679850Y602054D01*
X683660Y602076D01*
X683662Y601735D01*
D02*
G37*
G36*
X737041Y716623D02*
X737008Y716537D01*
X736978Y716420D01*
X736953Y716270D01*
X736914Y715875D01*
X736891Y715352D01*
X736883Y714703D01*
X733073D01*
X733071Y715043D01*
X732977Y716420D01*
X732948Y716537D01*
X732915Y716623D01*
X732878Y716678D01*
X737078D01*
X737041Y716623D01*
D02*
G37*
G36*
X736885Y579358D02*
X736978Y577981D01*
X737008Y577864D01*
X737041Y577778D01*
X737078Y577723D01*
X732878D01*
X732915Y577778D01*
X732948Y577864D01*
X732977Y577981D01*
X733003Y578131D01*
X733042Y578526D01*
X733065Y579049D01*
X733073Y579698D01*
X736883D01*
X736885Y579358D01*
D02*
G37*
G36*
X702818Y716623D02*
X702784Y716537D01*
X702755Y716420D01*
X702730Y716270D01*
X702691Y715875D01*
X702667Y715352D01*
X702660Y714703D01*
X698850D01*
X698848Y715043D01*
X698754Y716420D01*
X698725Y716537D01*
X698692Y716623D01*
X698655Y716678D01*
X702855D01*
X702818Y716623D01*
D02*
G37*
G36*
X702662Y577707D02*
X702755Y576330D01*
X702784Y576213D01*
X702818Y576127D01*
X702855Y576072D01*
X698655D01*
X698692Y576127D01*
X698725Y576213D01*
X698754Y576330D01*
X698780Y576480D01*
X698819Y576875D01*
X698842Y577398D01*
X698850Y578047D01*
X702660D01*
X702662Y577707D01*
D02*
G37*
G36*
X668677Y716705D02*
X668650Y716622D01*
X668625Y716507D01*
X668604Y716360D01*
X668572Y715968D01*
X668547Y715138D01*
X668546Y714797D01*
X664736Y714617D01*
X664733Y714957D01*
X664655Y716186D01*
X664625Y716338D01*
X664592Y716458D01*
X664554Y716546D01*
X664511Y716602D01*
X668708Y716756D01*
X668677Y716705D01*
D02*
G37*
G36*
X668548Y492813D02*
X668627Y491584D01*
X668656Y491432D01*
X668690Y491312D01*
X668728Y491224D01*
X668771Y491167D01*
X664573Y491015D01*
X664604Y491065D01*
X664632Y491148D01*
X664656Y491263D01*
X664677Y491410D01*
X664710Y491802D01*
X664734Y492632D01*
X664736Y492973D01*
X668546Y493153D01*
X668548Y492813D01*
D02*
G37*
G36*
X456693Y716595D02*
X456634Y716484D01*
X456581Y716345D01*
X456536Y716178D01*
X456497Y715983D01*
X456466Y715759D01*
X456424Y715228D01*
X456410Y714583D01*
X452910D01*
X452906Y714920D01*
X452822Y715983D01*
X452784Y716178D01*
X452738Y716345D01*
X452686Y716484D01*
X452626Y716595D01*
X452560Y716678D01*
X456760D01*
X456693Y716595D01*
D02*
G37*
G36*
X456414Y579211D02*
X456497Y578148D01*
X456536Y577952D01*
X456581Y577785D01*
X456634Y577646D01*
X456693Y577535D01*
X456760Y577452D01*
X452560D01*
X452626Y577535D01*
X452686Y577646D01*
X452738Y577785D01*
X452784Y577952D01*
X452822Y578148D01*
X452854Y578371D01*
X452896Y578903D01*
X452910Y579547D01*
X456410D01*
X456414Y579211D01*
D02*
G37*
G36*
X456693Y573085D02*
X456634Y572974D01*
X456581Y572835D01*
X456536Y572668D01*
X456497Y572472D01*
X456466Y572249D01*
X456424Y571717D01*
X456410Y571073D01*
X452910D01*
X452906Y571409D01*
X452822Y572472D01*
X452784Y572668D01*
X452738Y572835D01*
X452686Y572974D01*
X452626Y573085D01*
X452560Y573168D01*
X456760D01*
X456693Y573085D01*
D02*
G37*
G36*
X456414Y434431D02*
X456497Y433368D01*
X456536Y433172D01*
X456581Y433005D01*
X456634Y432866D01*
X456693Y432755D01*
X456760Y432672D01*
X452560D01*
X452626Y432755D01*
X452686Y432866D01*
X452738Y433005D01*
X452784Y433172D01*
X452822Y433368D01*
X452854Y433591D01*
X452896Y434123D01*
X452910Y434767D01*
X456410D01*
X456414Y434431D01*
D02*
G37*
G36*
X598213Y716623D02*
X598180Y716537D01*
X598150Y716420D01*
X598125Y716270D01*
X598086Y715875D01*
X598063Y715352D01*
X598055Y714703D01*
X594245D01*
X594243Y715043D01*
X594149Y716420D01*
X594120Y716537D01*
X594087Y716623D01*
X594050Y716678D01*
X598250D01*
X598213Y716623D01*
D02*
G37*
G36*
X621823Y663283D02*
X621790Y663197D01*
X621760Y663080D01*
X621735Y662930D01*
X621696Y662535D01*
X621673Y662012D01*
X621665Y661363D01*
X617855D01*
X617853Y661703D01*
X617759Y663080D01*
X617730Y663197D01*
X617697Y663283D01*
X617660Y663338D01*
X621860D01*
X621823Y663283D01*
D02*
G37*
G36*
X614203Y656035D02*
X614170Y655949D01*
X614141Y655832D01*
X614115Y655682D01*
X614076Y655287D01*
X614053Y654764D01*
X614045Y654114D01*
X610235D01*
X610233Y654455D01*
X610139Y655832D01*
X610110Y655949D01*
X610077Y656035D01*
X610040Y656089D01*
X614240D01*
X614203Y656035D01*
D02*
G37*
G36*
X606583Y648043D02*
X606550Y647957D01*
X606521Y647840D01*
X606495Y647690D01*
X606456Y647295D01*
X606433Y646772D01*
X606425Y646123D01*
X602615D01*
X602613Y646463D01*
X602519Y647840D01*
X602490Y647957D01*
X602457Y648043D01*
X602420Y648098D01*
X606620D01*
X606583Y648043D01*
D02*
G37*
G36*
X629480Y630317D02*
X629443Y630263D01*
X629410Y630177D01*
X629380Y630059D01*
X629355Y629910D01*
X629316Y629515D01*
X629293Y628992D01*
X629285Y628342D01*
X625475Y628343D01*
X625473Y628684D01*
X625379Y630060D01*
X625350Y630177D01*
X625317Y630263D01*
X625280Y630318D01*
X629480Y630317D01*
D02*
G37*
G36*
X598057Y620743D02*
X598150Y619366D01*
X598180Y619249D01*
X598213Y619163D01*
X598250Y619108D01*
X594050D01*
X594087Y619163D01*
X594120Y619249D01*
X594149Y619366D01*
X594175Y619516D01*
X594214Y619911D01*
X594237Y620434D01*
X594245Y621083D01*
X598055D01*
X598057Y620743D01*
D02*
G37*
G36*
X598213Y614769D02*
X598180Y614683D01*
X598150Y614566D01*
X598125Y614416D01*
X598086Y614021D01*
X598063Y613498D01*
X598055Y612849D01*
X594245D01*
X594243Y613189D01*
X594149Y614566D01*
X594120Y614683D01*
X594087Y614769D01*
X594050Y614824D01*
X598250D01*
X598213Y614769D01*
D02*
G37*
G36*
X598058Y574731D02*
X598148Y573501D01*
X598181Y573348D01*
X598220Y573227D01*
X598263Y573138D01*
X598312Y573079D01*
X594126Y572740D01*
X594149Y572784D01*
X594169Y572861D01*
X594187Y572971D01*
X594202Y573115D01*
X594234Y573743D01*
X594245Y574669D01*
X598055Y575071D01*
X598058Y574731D01*
D02*
G37*
G36*
X606427Y434307D02*
X606521Y432930D01*
X606550Y432813D01*
X606583Y432727D01*
X606620Y432672D01*
X602420D01*
X602457Y432727D01*
X602490Y432813D01*
X602519Y432930D01*
X602545Y433080D01*
X602584Y433475D01*
X602607Y433998D01*
X602615Y434647D01*
X606425D01*
X606427Y434307D01*
D02*
G37*
G36*
X606620Y428388D02*
X606583Y428333D01*
X606550Y428247D01*
X606521Y428130D01*
X606495Y427980D01*
X606456Y427585D01*
X606433Y427062D01*
X606425Y426413D01*
X602615Y426413D01*
X602613Y426753D01*
X602519Y428130D01*
X602490Y428247D01*
X602457Y428333D01*
X602420Y428388D01*
X606620Y428388D01*
D02*
G37*
G36*
X614047Y179037D02*
X614141Y177661D01*
X614170Y177543D01*
X614203Y177457D01*
X614240Y177402D01*
X610040D01*
X610077Y177457D01*
X610110Y177543D01*
X610139Y177661D01*
X610165Y177810D01*
X610204Y178205D01*
X610227Y178728D01*
X610235Y179377D01*
X614045D01*
X614047Y179037D01*
D02*
G37*
G36*
X621667Y168877D02*
X621761Y167500D01*
X621790Y167383D01*
X621823Y167297D01*
X621860Y167242D01*
X617660D01*
X617697Y167297D01*
X617730Y167383D01*
X617759Y167500D01*
X617785Y167650D01*
X617824Y168045D01*
X617847Y168568D01*
X617855Y169217D01*
X621665D01*
X621667Y168877D01*
D02*
G37*
G36*
X629287Y156177D02*
X629381Y154801D01*
X629410Y154683D01*
X629443Y154597D01*
X629480Y154542D01*
X625280D01*
X625317Y154597D01*
X625350Y154683D01*
X625379Y154801D01*
X625405Y154950D01*
X625444Y155345D01*
X625467Y155868D01*
X625475Y156517D01*
X629285D01*
X629287Y156177D01*
D02*
G37*
G36*
X606427Y140937D02*
X606521Y139560D01*
X606550Y139443D01*
X606583Y139357D01*
X606620Y139302D01*
X602420D01*
X602457Y139357D01*
X602490Y139443D01*
X602519Y139560D01*
X602545Y139710D01*
X602584Y140105D01*
X602607Y140628D01*
X602615Y141278D01*
X606425D01*
X606427Y140937D01*
D02*
G37*
G36*
X380426Y99985D02*
X380367Y99874D01*
X380314Y99735D01*
X380269Y99568D01*
X380230Y99373D01*
X380199Y99149D01*
X380157Y98618D01*
X380143Y97973D01*
X376643D01*
X376639Y98310D01*
X376555Y99373D01*
X376517Y99568D01*
X376471Y99735D01*
X376419Y99874D01*
X376359Y99985D01*
X376293Y100068D01*
X380493D01*
X380426Y99985D01*
D02*
G37*
G36*
X380146Y57313D02*
X380230Y56250D01*
X380269Y56055D01*
X380314Y55887D01*
X380367Y55748D01*
X380426Y55637D01*
X380493Y55555D01*
X376293D01*
X376359Y55637D01*
X376419Y55748D01*
X376471Y55887D01*
X376517Y56055D01*
X376555Y56250D01*
X376587Y56473D01*
X376629Y57005D01*
X376643Y57649D01*
X380143D01*
X380146Y57313D01*
D02*
G37*
D14*
X844960Y838000D02*
X844430Y840664D01*
X842922Y842922D01*
X840664Y844430D01*
X838000Y844960D01*
X770000D02*
X767682Y844655D01*
X765523Y843761D01*
X763667Y842339D01*
X762243Y840485D01*
X761347Y838326D01*
X761040Y836009D01*
X742000Y816960D02*
X744485Y817123D01*
X746928Y817609D01*
X749286Y818409D01*
X751520Y819511D01*
X753591Y820895D01*
X755463Y822537D01*
X757105Y824409D01*
X758489Y826480D01*
X759591Y828714D01*
X760391Y831072D01*
X760877Y833515D01*
X761040Y836000D01*
X824960Y420000D02*
X825189Y417388D01*
X825867Y414856D01*
X826975Y412480D01*
X828479Y410332D01*
X830332Y408479D01*
X832480Y406975D01*
X834856Y405867D01*
X837388Y405188D01*
X840000Y404960D01*
X506260Y836009D02*
X505953Y838326D01*
X505057Y840485D01*
X503633Y842339D01*
X501777Y843761D01*
X499618Y844655D01*
X497300Y844960D01*
X506260Y836000D02*
X506423Y833515D01*
X506909Y831072D01*
X507709Y828714D01*
X508811Y826480D01*
X510195Y824409D01*
X511837Y822537D01*
X513709Y820895D01*
X515780Y819511D01*
X518014Y818409D01*
X520372Y817609D01*
X522815Y817123D01*
X525300Y816960D01*
X433300Y844960D02*
X430982Y844655D01*
X428823Y843761D01*
X426967Y842339D01*
X425543Y840485D01*
X424647Y838326D01*
X424340Y836009D01*
X405300Y816960D02*
X407785Y817123D01*
X410228Y817609D01*
X412586Y818409D01*
X414820Y819511D01*
X416891Y820895D01*
X418763Y822537D01*
X420405Y824409D01*
X421789Y826480D01*
X422891Y828714D01*
X423691Y831072D01*
X424177Y833515D01*
X424340Y836000D01*
X844960Y400000D02*
X844296Y402480D01*
X842480Y404296D01*
X840000Y404960D01*
X88960Y836000D02*
X89123Y833515D01*
X89609Y831072D01*
X90409Y828714D01*
X91511Y826480D01*
X92895Y824409D01*
X94537Y822537D01*
X96409Y820895D01*
X98480Y819511D01*
X100714Y818409D01*
X103072Y817609D01*
X105515Y817123D01*
X108000Y816960D01*
X11992Y844960D02*
X9331Y844428D01*
X7076Y842919D01*
X5569Y840662D01*
X5040Y838000D01*
X25040Y766130D02*
X24812Y768742D01*
X24133Y771274D01*
X23025Y773650D01*
X21521Y775798D01*
X19668Y777651D01*
X17520Y779155D01*
X15144Y780263D01*
X12612Y780941D01*
X10000Y781170D01*
X5040Y786130D02*
X5705Y783650D01*
X7520Y781834D01*
X10000Y781170D01*
X10000Y397390D02*
X12612Y397618D01*
X15144Y398297D01*
X17520Y399405D01*
X19668Y400909D01*
X21521Y402762D01*
X23025Y404910D01*
X24133Y407286D01*
X24812Y409818D01*
X25040Y412430D01*
X10000Y397390D02*
X7522Y396727D01*
X5707Y394914D01*
X5040Y392436D01*
X840010Y775040D02*
X842476Y775702D01*
X844286Y777503D01*
X844961Y779965D01*
X839967Y775040D02*
X837364Y774807D01*
X834841Y774127D01*
X832474Y773021D01*
X830334Y771522D01*
X828485Y769674D01*
X826985Y767535D01*
X825877Y765168D01*
X825195Y762646D01*
X824961Y760043D01*
X838011Y5040D02*
X840669Y5572D01*
X842923Y7080D01*
X844429Y9334D01*
X844960Y11992D01*
X88960Y836009D02*
X88653Y838324D01*
X87759Y840482D01*
X86337Y842335D01*
X84484Y843757D01*
X82327Y844653D01*
X80011Y844960D01*
X5040Y11989D02*
X5572Y9331D01*
X7080Y7078D01*
X9334Y5571D01*
X11992Y5040D01*
X844960Y820322D02*
Y838000D01*
Y806322D02*
Y820322D01*
Y780099D02*
Y806322D01*
X824960Y745153D02*
Y759903D01*
Y717153D02*
Y745153D01*
X814000Y844960D02*
X838000D01*
X793945D02*
X814000D01*
X770000D02*
X793945D01*
X695989Y816960D02*
X742000D01*
X824960Y420000D02*
Y465154D01*
Y689154D02*
Y717153D01*
Y591153D02*
Y689154D01*
Y549154D02*
Y591153D01*
Y507154D02*
Y549154D01*
Y465154D02*
Y507154D01*
X681989Y816960D02*
X695989D01*
X597989D02*
X681989D01*
X569989D02*
X597989D01*
X525300D02*
X569989D01*
X471698Y844960D02*
X497300D01*
X457698D02*
X471698D01*
X433300D02*
X457698D01*
X844960Y389910D02*
X844960Y400000D01*
X844960Y375910D02*
X844960Y389910D01*
X844960Y364000D02*
X844960Y375910D01*
X844960Y361910D02*
Y364000D01*
Y277910D02*
Y305910D01*
Y249910D02*
Y277910D01*
Y207910D02*
Y249910D01*
Y151910D02*
Y207910D01*
Y95910D02*
Y151910D01*
Y333910D02*
Y361910D01*
Y305910D02*
Y333910D01*
Y53910D02*
Y95910D01*
Y36000D02*
Y53910D01*
Y12016D02*
Y36000D01*
X818820Y5040D02*
X837988D01*
X790820D02*
X818820D01*
X734820D02*
X790820D01*
X678820D02*
X734820D01*
X636820D02*
X678820D01*
X580820D02*
X636820D01*
X496820D02*
X580820D01*
X370820D02*
X496820D01*
X356820Y5040D02*
X370820Y5040D01*
X390420Y816960D02*
X405300D01*
X362421D02*
X390420D01*
X320420D02*
X362421D01*
X278421D02*
X320420D01*
X250420D02*
X278421D01*
X208421D02*
X250420D01*
X138420D02*
X208421D01*
X108000D02*
X138420D01*
X40067Y844960D02*
X54067Y844960D01*
X40067Y844960D02*
X40067D01*
X54067Y844960D02*
X79977D01*
X26067Y844960D02*
X40067D01*
X12067Y844960D02*
X26067Y844960D01*
X12004Y844960D02*
X12067D01*
X5040Y814000D02*
Y838000D01*
Y804915D02*
Y814000D01*
Y786130D02*
Y804915D01*
X25040Y741855D02*
Y766130D01*
Y559855D02*
Y615855D01*
Y531855D02*
Y559855D01*
Y475855D02*
Y531855D01*
Y412430D02*
Y475855D01*
Y699855D02*
Y741855D01*
Y671855D02*
Y699855D01*
Y615855D02*
Y671855D01*
X328820Y5040D02*
X356820D01*
X272820D02*
X328820D01*
X244820D02*
X272820D01*
X174820D02*
X244820D01*
X146820D02*
X174820D01*
X132820Y5040D02*
X146820Y5040D01*
X90820Y5040D02*
X132820D01*
X48820D02*
X90820D01*
X20820D02*
X48820D01*
X5040Y384984D02*
X5040Y392427D01*
X5040Y244984D02*
Y272984D01*
Y224080D02*
Y244984D01*
Y364000D02*
Y384984D01*
Y272984D02*
Y364000D01*
X12016Y5040D02*
X20820Y5040D01*
X5040Y188984D02*
Y224080D01*
Y146984D02*
Y188984D01*
Y104984D02*
Y146984D01*
Y48984D02*
Y104984D01*
Y34984D02*
Y48984D01*
Y12012D02*
Y34984D01*
D23*
X700004Y326390D02*
D03*
X563880D02*
D03*
Y312420D02*
D03*
X548640D02*
D03*
Y326390D02*
D03*
X212090Y325120D02*
D03*
X227330D02*
D03*
Y311150D02*
D03*
X212090D02*
D03*
X345581Y222109D02*
D03*
X744708Y222338D02*
D03*
X593756Y222109D02*
D03*
D24*
X666641Y489059D02*
X666750Y488950D01*
X666531Y718820D02*
X666641Y718711D01*
Y489059D02*
Y718711D01*
X596150Y570774D02*
Y616966D01*
X627380Y632206D02*
X627380Y152400D01*
X596150Y616966D02*
Y718820D01*
X604520Y430530D02*
Y650240D01*
X604520Y430530D02*
X604520Y137160D01*
X734978Y576449D02*
Y718820D01*
X700755Y573930D02*
Y718820D01*
X619760Y665480D02*
X619760Y165100D01*
X612140Y658232D02*
X612140Y175260D01*
X681755Y597935D02*
Y718820D01*
D25*
X462830Y350520D02*
Y488950D01*
Y632460D01*
X447040Y430530D02*
X447047Y430523D01*
Y350520D02*
Y430523D01*
X447040Y575300D02*
X447050Y575310D01*
Y638810D01*
X447040Y430530D02*
Y495300D01*
X447050Y638810D02*
Y718810D01*
X447040Y495300D02*
Y575300D01*
Y718820D02*
X447050Y718810D01*
X751840Y278940D02*
Y545990D01*
X681755Y287364D02*
Y545990D01*
X427050Y327660D02*
Y575310D01*
Y718820D01*
X710309Y99866D02*
Y101420D01*
X727428Y118539D01*
X559357Y101483D02*
X576476Y118602D01*
X559357Y99929D02*
Y101483D01*
D27*
X331774Y88900D02*
Y282512D01*
D28*
X378393Y53412D02*
Y102210D01*
D34*
X5000Y272984D02*
D03*
X825000Y745153D02*
D03*
Y535154D02*
D03*
Y549154D02*
D03*
X825438Y759147D02*
D03*
X821945Y845000D02*
D03*
X807945D02*
D03*
X832680Y771128D02*
D03*
X844688Y778326D02*
D03*
X845000Y806322D02*
D03*
X835945Y845000D02*
D03*
X845000Y820322D02*
D03*
Y834322D02*
D03*
Y792322D02*
D03*
X527989Y817000D02*
D03*
X555989D02*
D03*
X541989D02*
D03*
X597989D02*
D03*
X611989D02*
D03*
X583989D02*
D03*
X569989D02*
D03*
X667989D02*
D03*
X681989D02*
D03*
X625989D02*
D03*
X653989D02*
D03*
X639989D02*
D03*
X737989D02*
D03*
X695989D02*
D03*
X723989D02*
D03*
X709989D02*
D03*
X457698Y845000D02*
D03*
X471698D02*
D03*
X433227Y845007D02*
D03*
X443698Y845000D02*
D03*
X485698D02*
D03*
X499694Y844649D02*
D03*
X514549Y820922D02*
D03*
X751625Y820170D02*
D03*
X506867Y832626D02*
D03*
X760086Y831324D02*
D03*
X765980Y844023D02*
D03*
X793945Y845000D02*
D03*
X779946D02*
D03*
X825000Y577154D02*
D03*
Y563153D02*
D03*
Y591153D02*
D03*
Y689154D02*
D03*
Y675154D02*
D03*
Y731153D02*
D03*
Y703154D02*
D03*
Y717153D02*
D03*
Y619154D02*
D03*
Y605154D02*
D03*
Y661153D02*
D03*
Y633153D02*
D03*
Y647153D02*
D03*
Y465154D02*
D03*
Y451153D02*
D03*
Y493153D02*
D03*
Y479154D02*
D03*
X830854Y410376D02*
D03*
X843212Y403795D02*
D03*
X825000Y437154D02*
D03*
X825135Y423154D02*
D03*
X825000Y521153D02*
D03*
Y507154D02*
D03*
X762820Y5000D02*
D03*
X720820D02*
D03*
X734820D02*
D03*
X818820D02*
D03*
X832820D02*
D03*
X776820D02*
D03*
X804820D02*
D03*
X790820D02*
D03*
X706820D02*
D03*
X844996Y11910D02*
D03*
X845000Y39910D02*
D03*
Y53910D02*
D03*
Y25910D02*
D03*
Y95910D02*
D03*
Y81910D02*
D03*
Y137910D02*
D03*
Y109910D02*
D03*
Y123910D02*
D03*
Y67910D02*
D03*
X845000Y151910D02*
D03*
Y179910D02*
D03*
Y165910D02*
D03*
Y221910D02*
D03*
Y207910D02*
D03*
Y249910D02*
D03*
Y235910D02*
D03*
Y193910D02*
D03*
Y263910D02*
D03*
X845000Y389910D02*
D03*
Y375910D02*
D03*
Y277910D02*
D03*
Y319910D02*
D03*
Y305910D02*
D03*
Y361910D02*
D03*
Y333910D02*
D03*
Y347910D02*
D03*
Y291910D02*
D03*
X89513Y832894D02*
D03*
X54067Y845000D02*
D03*
X68067Y845000D02*
D03*
X12067Y845000D02*
D03*
X40067Y845000D02*
D03*
X26067Y845000D02*
D03*
X82065Y844748D02*
D03*
X166420Y817000D02*
D03*
X306420D02*
D03*
X334421D02*
D03*
X320420D02*
D03*
X390420D02*
D03*
X264421D02*
D03*
X152421D02*
D03*
X180420D02*
D03*
X110421D02*
D03*
X138420D02*
D03*
X124420D02*
D03*
X236420D02*
D03*
X250420D02*
D03*
X194421D02*
D03*
X222421D02*
D03*
X208421D02*
D03*
X362421D02*
D03*
X376421D02*
D03*
X278421D02*
D03*
X348420D02*
D03*
X292421D02*
D03*
X404421Y817014D02*
D03*
X417475Y822071D02*
D03*
X424061Y834425D02*
D03*
X608820Y5000D02*
D03*
X622820D02*
D03*
X580820D02*
D03*
X594820D02*
D03*
X678820D02*
D03*
X692820D02*
D03*
X636820D02*
D03*
X664820D02*
D03*
X650820D02*
D03*
X496820Y5000D02*
D03*
X510820D02*
D03*
X482820D02*
D03*
X468820D02*
D03*
X552820D02*
D03*
X566820Y5000D02*
D03*
X524820Y5000D02*
D03*
X538820D02*
D03*
X748820Y5000D02*
D03*
X5000Y244984D02*
D03*
Y230984D02*
D03*
Y258984D02*
D03*
Y202984D02*
D03*
Y216984D02*
D03*
Y34984D02*
D03*
Y104984D02*
D03*
Y118984D02*
D03*
Y48984D02*
D03*
Y90984D02*
D03*
Y146984D02*
D03*
Y132984D02*
D03*
Y188984D02*
D03*
Y160984D02*
D03*
Y174984D02*
D03*
X6982Y7125D02*
D03*
X20820Y5000D02*
D03*
X34820D02*
D03*
X48820D02*
D03*
X5000Y20984D02*
D03*
Y76984D02*
D03*
Y62984D02*
D03*
Y300984D02*
D03*
Y286984D02*
D03*
Y328984D02*
D03*
Y314984D02*
D03*
Y356984D02*
D03*
Y342984D02*
D03*
Y370984D02*
D03*
X25000Y475855D02*
D03*
Y685855D02*
D03*
Y699855D02*
D03*
X5000Y790915D02*
D03*
X13392Y779709D02*
D03*
X23223Y769742D02*
D03*
X25000Y559855D02*
D03*
Y545855D02*
D03*
Y587855D02*
D03*
Y573855D02*
D03*
Y503855D02*
D03*
Y461855D02*
D03*
Y531855D02*
D03*
Y517855D02*
D03*
Y629855D02*
D03*
Y615855D02*
D03*
Y671855D02*
D03*
Y643855D02*
D03*
Y657855D02*
D03*
Y601855D02*
D03*
X5000Y804915D02*
D03*
Y832915D02*
D03*
Y818915D02*
D03*
X97029Y821082D02*
D03*
X5000Y384984D02*
D03*
X10583Y397822D02*
D03*
X21777Y406231D02*
D03*
X25000Y447855D02*
D03*
Y419855D02*
D03*
Y433855D02*
D03*
X160820Y5000D02*
D03*
X174820D02*
D03*
X132820D02*
D03*
X146820D02*
D03*
X188820D02*
D03*
X62820D02*
D03*
X104820D02*
D03*
X118820D02*
D03*
X76820D02*
D03*
X90820D02*
D03*
X328820Y5000D02*
D03*
X342820D02*
D03*
X300820D02*
D03*
X314820D02*
D03*
X384820D02*
D03*
X356820D02*
D03*
X370820D02*
D03*
X244820Y5000D02*
D03*
X258820D02*
D03*
X202820D02*
D03*
X230820D02*
D03*
X216820D02*
D03*
X272820D02*
D03*
X286820Y5000D02*
D03*
X25000Y727855D02*
D03*
Y713855D02*
D03*
Y755855D02*
D03*
Y741855D02*
D03*
Y489855D02*
D03*
X833431Y784081D02*
D03*
X823431Y404080D02*
D03*
Y324080D02*
D03*
X833431Y304080D02*
D03*
Y224080D02*
D03*
X823431Y204080D02*
D03*
X833431Y184080D02*
D03*
X823431Y164080D02*
D03*
X833431Y144080D02*
D03*
X823431Y124080D02*
D03*
X833431Y104080D02*
D03*
X823431Y84080D02*
D03*
X803431Y764081D02*
D03*
Y724081D02*
D03*
X813431Y704081D02*
D03*
X803431Y684081D02*
D03*
X813431Y664081D02*
D03*
X803431Y644081D02*
D03*
X813431Y624081D02*
D03*
Y584081D02*
D03*
X803431Y564081D02*
D03*
X813431Y544081D02*
D03*
X803431Y524081D02*
D03*
X813431Y504081D02*
D03*
X803431Y484081D02*
D03*
X813431Y464081D02*
D03*
X803431Y444080D02*
D03*
X813431Y424080D02*
D03*
X803431Y404080D02*
D03*
Y324080D02*
D03*
X813431Y304080D02*
D03*
X803431Y204080D02*
D03*
X813431Y184080D02*
D03*
X803431Y164080D02*
D03*
X813431Y144080D02*
D03*
X803431Y124080D02*
D03*
X813431Y104080D02*
D03*
X803431Y84080D02*
D03*
X793431Y784081D02*
D03*
X783431Y764081D02*
D03*
Y724081D02*
D03*
X793431Y704081D02*
D03*
Y664081D02*
D03*
X783431Y644081D02*
D03*
X793431Y624081D02*
D03*
Y584081D02*
D03*
X783431Y564081D02*
D03*
X793431Y544081D02*
D03*
X783431Y524081D02*
D03*
X793431Y504081D02*
D03*
X783431Y484081D02*
D03*
X793431Y464081D02*
D03*
X783431Y444080D02*
D03*
X793431Y424080D02*
D03*
X783431Y404080D02*
D03*
Y324080D02*
D03*
X793431Y304080D02*
D03*
X783431Y284080D02*
D03*
X793431Y224080D02*
D03*
X783431Y204080D02*
D03*
X793431Y184080D02*
D03*
X783431Y164080D02*
D03*
X793431Y144080D02*
D03*
X783431Y124080D02*
D03*
X793431Y104080D02*
D03*
X783431Y84080D02*
D03*
X773431Y824081D02*
D03*
Y64080D02*
D03*
X763431Y44080D02*
D03*
X773431Y24080D02*
D03*
X753431Y64080D02*
D03*
X743431Y44080D02*
D03*
X753431Y24080D02*
D03*
X733431Y744081D02*
D03*
X723431Y524081D02*
D03*
X733431Y504081D02*
D03*
X723431Y484081D02*
D03*
X733431Y464081D02*
D03*
X723431Y444080D02*
D03*
X733431Y424080D02*
D03*
X723431Y404080D02*
D03*
X733431Y384080D02*
D03*
X723431Y364080D02*
D03*
X733431Y344080D02*
D03*
X723431Y324080D02*
D03*
X733431Y304080D02*
D03*
Y264080D02*
D03*
X723431Y244080D02*
D03*
Y204080D02*
D03*
X733431Y144080D02*
D03*
Y64080D02*
D03*
X723431Y44080D02*
D03*
X733431Y24080D02*
D03*
X713431Y704081D02*
D03*
Y584081D02*
D03*
X703431Y524081D02*
D03*
X713431Y504081D02*
D03*
X703431Y484081D02*
D03*
X713431Y464081D02*
D03*
X703431Y444080D02*
D03*
X713431Y424080D02*
D03*
X703431Y404080D02*
D03*
X713431Y384080D02*
D03*
X703431Y364080D02*
D03*
X713431Y344080D02*
D03*
Y304080D02*
D03*
Y64080D02*
D03*
X703431Y44080D02*
D03*
X713431Y24080D02*
D03*
X693431Y504081D02*
D03*
Y464081D02*
D03*
Y424080D02*
D03*
Y384080D02*
D03*
Y344080D02*
D03*
Y64080D02*
D03*
X683431Y44080D02*
D03*
X693431Y24080D02*
D03*
X673431Y264080D02*
D03*
Y64080D02*
D03*
X663431Y44080D02*
D03*
X673431Y24080D02*
D03*
X643431Y604081D02*
D03*
Y524081D02*
D03*
Y444080D02*
D03*
Y404080D02*
D03*
Y364080D02*
D03*
X653431Y144080D02*
D03*
Y64080D02*
D03*
X643431Y44080D02*
D03*
X653431Y24080D02*
D03*
X633431Y664081D02*
D03*
Y64080D02*
D03*
Y24080D02*
D03*
X603431Y124080D02*
D03*
X613431Y104080D02*
D03*
X603431Y44080D02*
D03*
X613431Y24080D02*
D03*
X593431Y504081D02*
D03*
Y384080D02*
D03*
X583431Y364080D02*
D03*
X593431Y64080D02*
D03*
X583431Y44080D02*
D03*
X593431Y24080D02*
D03*
X573431Y64080D02*
D03*
X563431Y44080D02*
D03*
X573431Y24080D02*
D03*
X553431Y264080D02*
D03*
Y64080D02*
D03*
Y24080D02*
D03*
X523431Y804081D02*
D03*
Y44080D02*
D03*
X533431Y24080D02*
D03*
X503430Y804081D02*
D03*
X513430Y784081D02*
D03*
Y264080D02*
D03*
Y64080D02*
D03*
X503430Y44080D02*
D03*
X513430Y24080D02*
D03*
X493430Y784081D02*
D03*
Y64080D02*
D03*
X483430Y44080D02*
D03*
X493430Y24080D02*
D03*
X473430Y784081D02*
D03*
Y344080D02*
D03*
Y64080D02*
D03*
Y24080D02*
D03*
X453430Y784081D02*
D03*
X443430Y204080D02*
D03*
X453430Y184080D02*
D03*
Y104080D02*
D03*
X423430Y804081D02*
D03*
X433430Y784081D02*
D03*
Y64080D02*
D03*
X403430Y804081D02*
D03*
X413430Y784081D02*
D03*
X403430Y724081D02*
D03*
X413430Y704081D02*
D03*
Y584081D02*
D03*
X403430Y564081D02*
D03*
X413430Y504081D02*
D03*
Y424080D02*
D03*
X403430Y364080D02*
D03*
X413430Y344080D02*
D03*
X403430Y284080D02*
D03*
Y164080D02*
D03*
X413430Y64080D02*
D03*
X383430Y804081D02*
D03*
X393430Y784081D02*
D03*
Y584081D02*
D03*
X383430Y284080D02*
D03*
X393430Y264080D02*
D03*
X383430Y204080D02*
D03*
X393430Y64080D02*
D03*
X363430Y804081D02*
D03*
X373430Y784081D02*
D03*
X363430Y204080D02*
D03*
Y44080D02*
D03*
X373430Y24080D02*
D03*
X343430Y804081D02*
D03*
X353430Y784081D02*
D03*
X343430Y724081D02*
D03*
X353430Y704081D02*
D03*
Y664081D02*
D03*
X343430Y644081D02*
D03*
X353430Y584081D02*
D03*
X343430Y564081D02*
D03*
Y524081D02*
D03*
X353430Y504081D02*
D03*
X343430Y444080D02*
D03*
X353430Y424080D02*
D03*
X343430Y364080D02*
D03*
X353430Y344080D02*
D03*
X343430Y204080D02*
D03*
X353430Y64080D02*
D03*
X343430Y44080D02*
D03*
X353430Y24080D02*
D03*
X323430Y804081D02*
D03*
X333430Y784081D02*
D03*
X323430Y724081D02*
D03*
X333430Y704081D02*
D03*
Y664081D02*
D03*
X323430Y644081D02*
D03*
X333430Y584081D02*
D03*
X323430Y564081D02*
D03*
Y524081D02*
D03*
X333430Y504081D02*
D03*
X323430Y444080D02*
D03*
X333430Y424080D02*
D03*
X323430Y364080D02*
D03*
X333430Y344080D02*
D03*
X323430Y44080D02*
D03*
X333430Y24080D02*
D03*
X303430Y804081D02*
D03*
X313430Y784081D02*
D03*
Y704081D02*
D03*
Y664081D02*
D03*
Y584081D02*
D03*
X303430Y524081D02*
D03*
X313430Y504081D02*
D03*
X303430Y444080D02*
D03*
X313430Y424080D02*
D03*
Y344080D02*
D03*
X303430Y284080D02*
D03*
Y204080D02*
D03*
Y164080D02*
D03*
Y124080D02*
D03*
X313430Y64080D02*
D03*
X303430Y44080D02*
D03*
X313430Y24080D02*
D03*
X283430Y804081D02*
D03*
X293430Y784081D02*
D03*
X283430Y204080D02*
D03*
X293430Y184080D02*
D03*
X283430Y164080D02*
D03*
X293430Y144080D02*
D03*
Y64080D02*
D03*
X283430Y44080D02*
D03*
X293430Y24080D02*
D03*
X263430Y804081D02*
D03*
X273430Y784081D02*
D03*
X263430Y724081D02*
D03*
Y644081D02*
D03*
Y564081D02*
D03*
Y524081D02*
D03*
Y444080D02*
D03*
Y364080D02*
D03*
Y284080D02*
D03*
Y204080D02*
D03*
X273430Y144080D02*
D03*
X263430Y124080D02*
D03*
Y84080D02*
D03*
X273430Y64080D02*
D03*
X263430Y44080D02*
D03*
X273430Y24080D02*
D03*
X243430Y804081D02*
D03*
X253430Y784081D02*
D03*
Y744081D02*
D03*
X243430Y724081D02*
D03*
X253430Y704081D02*
D03*
Y664081D02*
D03*
X243430Y644081D02*
D03*
Y604081D02*
D03*
X253430Y584081D02*
D03*
X243430Y564081D02*
D03*
Y524081D02*
D03*
X253430Y504081D02*
D03*
X243430Y444080D02*
D03*
X253430Y424080D02*
D03*
Y384080D02*
D03*
X243430Y364080D02*
D03*
X253430Y344080D02*
D03*
X243430Y284080D02*
D03*
X253430Y224080D02*
D03*
X243430Y204080D02*
D03*
X253430Y144080D02*
D03*
Y104080D02*
D03*
X243430Y44080D02*
D03*
X253430Y24080D02*
D03*
X223430Y804081D02*
D03*
X233430Y784081D02*
D03*
Y744081D02*
D03*
X223430Y724081D02*
D03*
X233430Y704081D02*
D03*
Y664081D02*
D03*
X223430Y644081D02*
D03*
Y604081D02*
D03*
X233430Y584081D02*
D03*
X223430Y564081D02*
D03*
Y524081D02*
D03*
X233430Y504081D02*
D03*
X223430Y444080D02*
D03*
X233430Y424080D02*
D03*
Y384080D02*
D03*
X223430Y364080D02*
D03*
X233430Y344080D02*
D03*
Y224080D02*
D03*
Y144080D02*
D03*
X223430Y44080D02*
D03*
X233430Y24080D02*
D03*
X203430Y804081D02*
D03*
X213430Y784081D02*
D03*
Y704081D02*
D03*
Y664081D02*
D03*
Y584081D02*
D03*
X203430Y524081D02*
D03*
X213430Y344080D02*
D03*
X203430Y44080D02*
D03*
X213430Y24080D02*
D03*
X183430Y804081D02*
D03*
X193430Y784081D02*
D03*
Y744081D02*
D03*
Y384080D02*
D03*
X183430Y324080D02*
D03*
Y284080D02*
D03*
X193430Y224080D02*
D03*
X183430Y44080D02*
D03*
X193430Y24080D02*
D03*
X163430Y804081D02*
D03*
X173430Y784081D02*
D03*
X163430Y724081D02*
D03*
X173430Y704081D02*
D03*
X163430Y684081D02*
D03*
Y644081D02*
D03*
Y604081D02*
D03*
Y564081D02*
D03*
Y524081D02*
D03*
Y444080D02*
D03*
Y364080D02*
D03*
X173430Y344080D02*
D03*
X163430Y324080D02*
D03*
Y284080D02*
D03*
X173430Y224080D02*
D03*
X163430Y84080D02*
D03*
Y44080D02*
D03*
X173430Y24080D02*
D03*
X143430Y804081D02*
D03*
X153430Y784081D02*
D03*
Y744081D02*
D03*
X143430Y724081D02*
D03*
X153430Y704081D02*
D03*
X143430Y684081D02*
D03*
X153430Y664081D02*
D03*
X143430Y644081D02*
D03*
Y604081D02*
D03*
X153430Y584081D02*
D03*
X143430Y564081D02*
D03*
Y524081D02*
D03*
X153430Y504081D02*
D03*
Y464081D02*
D03*
X143430Y444080D02*
D03*
X153430Y424080D02*
D03*
Y384080D02*
D03*
X143430Y364080D02*
D03*
X153430Y344080D02*
D03*
X143430Y324080D02*
D03*
Y284080D02*
D03*
X153430Y224080D02*
D03*
Y64080D02*
D03*
X143430Y44080D02*
D03*
X153430Y24080D02*
D03*
X123430Y804081D02*
D03*
X133430Y784081D02*
D03*
Y744081D02*
D03*
X123430Y724081D02*
D03*
X133430Y704081D02*
D03*
Y664081D02*
D03*
Y584081D02*
D03*
X123430Y564081D02*
D03*
Y524081D02*
D03*
X133430Y504081D02*
D03*
Y464081D02*
D03*
X123430Y444080D02*
D03*
X133430Y424080D02*
D03*
Y384080D02*
D03*
X123430Y364080D02*
D03*
X133430Y344080D02*
D03*
X123430Y324080D02*
D03*
Y284080D02*
D03*
X133430Y224080D02*
D03*
X123430Y204080D02*
D03*
Y164080D02*
D03*
X133430Y64080D02*
D03*
X123430Y44080D02*
D03*
X133430Y24080D02*
D03*
X103430Y804081D02*
D03*
X113430Y784081D02*
D03*
X103430Y684081D02*
D03*
X113430Y664081D02*
D03*
X103430Y604081D02*
D03*
X113430Y584081D02*
D03*
X103430Y524081D02*
D03*
Y324080D02*
D03*
X113430Y64080D02*
D03*
X103430Y44080D02*
D03*
X113430Y24080D02*
D03*
X83430Y804081D02*
D03*
X93430Y784081D02*
D03*
X83430Y764081D02*
D03*
Y484081D02*
D03*
Y404080D02*
D03*
Y324080D02*
D03*
X93430Y64080D02*
D03*
X83430Y44080D02*
D03*
X93430Y24080D02*
D03*
X73430Y824081D02*
D03*
Y784081D02*
D03*
X63430Y764081D02*
D03*
X73430Y744081D02*
D03*
X63430Y724081D02*
D03*
X73430Y704081D02*
D03*
X63430Y684081D02*
D03*
X73430Y664081D02*
D03*
X63430Y644081D02*
D03*
X73430Y624081D02*
D03*
X63430Y604081D02*
D03*
X73430Y584081D02*
D03*
X63430Y564081D02*
D03*
X73430Y544081D02*
D03*
X63430Y524081D02*
D03*
X73430Y504081D02*
D03*
X63430Y484081D02*
D03*
X73430Y464081D02*
D03*
X63430Y444080D02*
D03*
X73430Y424080D02*
D03*
X63430Y404080D02*
D03*
X73430Y384080D02*
D03*
Y344080D02*
D03*
X63430Y324080D02*
D03*
X73430Y304080D02*
D03*
X63430Y284080D02*
D03*
X73430Y104080D02*
D03*
X63430Y84080D02*
D03*
X73430Y64080D02*
D03*
Y24080D02*
D03*
X43430Y764081D02*
D03*
X53430Y744081D02*
D03*
X43430Y724081D02*
D03*
X53430Y704081D02*
D03*
X43430Y684081D02*
D03*
X53430Y664081D02*
D03*
X43430Y644081D02*
D03*
X53430Y624081D02*
D03*
X43430Y604081D02*
D03*
X53430Y584081D02*
D03*
X43430Y564081D02*
D03*
X53430Y544081D02*
D03*
X43430Y524081D02*
D03*
X53430Y504081D02*
D03*
X43430Y484081D02*
D03*
X53430Y464081D02*
D03*
X43430Y444080D02*
D03*
X53430Y424080D02*
D03*
X43430Y404080D02*
D03*
Y324080D02*
D03*
X53430Y304080D02*
D03*
Y224080D02*
D03*
Y104080D02*
D03*
X43430Y84080D02*
D03*
X33430Y744081D02*
D03*
Y704081D02*
D03*
Y664081D02*
D03*
Y624081D02*
D03*
Y584081D02*
D03*
Y544081D02*
D03*
Y504081D02*
D03*
Y464081D02*
D03*
Y424080D02*
D03*
X23430Y324080D02*
D03*
X33430Y304080D02*
D03*
X23430Y204080D02*
D03*
Y164080D02*
D03*
Y124080D02*
D03*
X33430Y104080D02*
D03*
X23430Y84080D02*
D03*
X13430Y304080D02*
D03*
Y224080D02*
D03*
Y184080D02*
D03*
Y144080D02*
D03*
Y104080D02*
D03*
Y64080D02*
D03*
X403860Y152400D02*
D03*
X335280Y93980D02*
D03*
X327660D02*
D03*
X335280Y86360D02*
D03*
X327660D02*
D03*
X488830Y740020D02*
D03*
X501650Y748383D02*
D03*
X514830Y756530D02*
D03*
X488830Y668020D02*
D03*
X527830Y692349D02*
D03*
X501783Y676383D02*
D03*
X514830Y684530D02*
D03*
X488830Y596020D02*
D03*
X501783Y604383D02*
D03*
X514830Y612530D02*
D03*
X527830Y620349D02*
D03*
X488830Y524020D02*
D03*
X527830Y548349D02*
D03*
X501650Y532383D02*
D03*
X514830Y540530D02*
D03*
X488830Y452020D02*
D03*
X501783Y460383D02*
D03*
X514830Y468530D02*
D03*
X527830Y476349D02*
D03*
X488830Y380020D02*
D03*
X527830Y404349D02*
D03*
X501650Y388383D02*
D03*
X514830Y396530D02*
D03*
X710309Y99866D02*
D03*
X727428Y118539D02*
D03*
X374026Y253028D02*
D03*
X586740Y515983D02*
D03*
Y543378D02*
D03*
Y461191D02*
D03*
X475830Y442820D02*
D03*
X462830Y488950D02*
D03*
X666750D02*
D03*
X586740Y488587D02*
D03*
Y430530D02*
D03*
X596392Y570774D02*
D03*
X782320Y681990D02*
D03*
Y675640D02*
D03*
X378393Y102210D02*
D03*
X721360Y632171D02*
D03*
X627380Y632460D02*
D03*
Y152400D02*
D03*
X584600Y725986D02*
D03*
X475830Y725844D02*
D03*
X579085Y632206D02*
D03*
X596150Y616966D02*
D03*
X721653Y616948D02*
D03*
X596150Y718820D02*
D03*
X721215Y650171D02*
D03*
X604520Y137160D02*
D03*
Y650240D02*
D03*
Y430530D02*
D03*
X454660Y718820D02*
D03*
Y575310D02*
D03*
Y430530D02*
D03*
X403860Y137160D02*
D03*
X476250Y584200D02*
D03*
X447047Y350520D02*
D03*
X734978Y575581D02*
D03*
X700755Y573930D02*
D03*
Y718820D02*
D03*
X734978D02*
D03*
X751840Y278940D02*
D03*
X681755Y287364D02*
D03*
X751840Y545990D02*
D03*
X681755D02*
D03*
X754380Y731520D02*
D03*
X762000D02*
D03*
X769620D02*
D03*
Y723900D02*
D03*
X762000D02*
D03*
X754380D02*
D03*
X546100Y751840D02*
D03*
X553720D02*
D03*
X561340D02*
D03*
Y759460D02*
D03*
X553720D02*
D03*
X546100D02*
D03*
X666531Y718820D02*
D03*
X427050Y327660D02*
D03*
X462830Y632460D02*
D03*
X619760Y665480D02*
D03*
X612140Y658232D02*
D03*
X681768Y597948D02*
D03*
X681755Y718820D02*
D03*
X619760Y165100D02*
D03*
X612140Y175260D02*
D03*
X462830Y350520D02*
D03*
X527830Y764349D02*
D03*
X452161Y311276D02*
D03*
X427050Y718820D02*
D03*
Y575310D02*
D03*
Y430150D02*
D03*
X342900Y250675D02*
D03*
Y257246D02*
D03*
X542958Y253028D02*
D03*
X413170Y287364D02*
D03*
X437656Y144110D02*
D03*
X624840Y144780D02*
D03*
X449580Y165100D02*
D03*
X378393Y53412D02*
D03*
X558054Y278940D02*
D03*
X342900Y264160D02*
D03*
Y243840D02*
D03*
X104140Y142240D02*
D03*
X97305D02*
D03*
X90734D02*
D03*
X83820D02*
D03*
X447040Y430530D02*
D03*
X421021Y175108D02*
D03*
X447040Y495300D02*
D03*
X447050Y638810D02*
D03*
Y575310D02*
D03*
X447040Y718820D02*
D03*
D35*
X814000Y791140D02*
D03*
X830164Y797835D02*
D03*
Y830164D02*
D03*
X814000Y836860D02*
D03*
X836860Y814000D02*
D03*
X465298Y801140D02*
D03*
X449133Y807835D02*
D03*
X481462D02*
D03*
X797835Y797835D02*
D03*
X791140Y814000D02*
D03*
X442438Y824000D02*
D03*
X488158D02*
D03*
X449133Y840164D02*
D03*
X481462D02*
D03*
X465298Y846860D02*
D03*
X797835Y830164D02*
D03*
X814000Y13140D02*
D03*
X791140Y36000D02*
D03*
X830164Y19835D02*
D03*
X797835D02*
D03*
X836860Y36000D02*
D03*
X797835Y52165D02*
D03*
X814000Y233140D02*
D03*
X791140Y256000D02*
D03*
X797835Y239835D02*
D03*
X814000Y58860D02*
D03*
X830164Y52165D02*
D03*
Y272164D02*
D03*
Y239835D02*
D03*
X836860Y256000D02*
D03*
X797835Y347836D02*
D03*
Y272164D02*
D03*
X791140Y364000D02*
D03*
X797835Y380164D02*
D03*
X814000Y386860D02*
D03*
Y341140D02*
D03*
Y278860D02*
D03*
X830164Y380164D02*
D03*
Y347836D02*
D03*
X836860Y364000D02*
D03*
X52165Y830164D02*
D03*
X36000Y13140D02*
D03*
X13140Y36000D02*
D03*
X19835Y239835D02*
D03*
Y52165D02*
D03*
Y19835D02*
D03*
X36000Y233140D02*
D03*
Y58860D02*
D03*
X52165Y239835D02*
D03*
X36000Y791140D02*
D03*
X52165Y797835D02*
D03*
X13140Y814000D02*
D03*
X19835Y830164D02*
D03*
Y797835D02*
D03*
X58860Y814000D02*
D03*
X36000Y836860D02*
D03*
X13140Y256000D02*
D03*
X19835Y347836D02*
D03*
X13140Y364000D02*
D03*
X19835Y380164D02*
D03*
Y272164D02*
D03*
X36000Y278860D02*
D03*
Y341140D02*
D03*
Y386860D02*
D03*
X52165Y19835D02*
D03*
X58860Y36000D02*
D03*
X52165Y52165D02*
D03*
X58860Y256000D02*
D03*
X52165Y272164D02*
D03*
Y347836D02*
D03*
X58860Y364000D02*
D03*
X52165Y380164D02*
D03*
D36*
X425000Y21000D02*
D03*
X36000Y364000D02*
D03*
Y256000D02*
D03*
Y36000D02*
D03*
X814000D02*
D03*
Y256000D02*
D03*
Y364000D02*
D03*
Y814000D02*
D03*
X465298Y824000D02*
D03*
X36000Y814000D02*
D03*
D37*
X381420Y702300D02*
D03*
Y558300D02*
D03*
Y486300D02*
D03*
Y630300D02*
D03*
X288080D02*
D03*
Y702300D02*
D03*
X194740Y630300D02*
D03*
Y702300D02*
D03*
X288080Y558300D02*
D03*
X194740Y486300D02*
D03*
X288080D02*
D03*
X194740Y558300D02*
D03*
X101400Y486300D02*
D03*
Y702300D02*
D03*
Y630300D02*
D03*
Y558300D02*
D03*
X381420Y342300D02*
D03*
Y414300D02*
D03*
X288080D02*
D03*
Y342300D02*
D03*
X194740Y414300D02*
D03*
Y342300D02*
D03*
X101400D02*
D03*
Y414300D02*
D03*
X275380Y643000D02*
D03*
X368720Y715000D02*
D03*
X88700Y643000D02*
D03*
Y715000D02*
D03*
X182040Y643000D02*
D03*
X275380Y715000D02*
D03*
X368720Y643000D02*
D03*
X182040Y715000D02*
D03*
X275380Y355000D02*
D03*
X288080Y367700D02*
D03*
X300780Y355000D02*
D03*
X182040D02*
D03*
X194740Y367700D02*
D03*
X207440Y355000D02*
D03*
X88700D02*
D03*
X381420Y727700D02*
D03*
X394120Y715000D02*
D03*
X300780Y571000D02*
D03*
X288080Y583700D02*
D03*
X275380Y571000D02*
D03*
X207440D02*
D03*
X194740Y583700D02*
D03*
X182040Y571000D02*
D03*
X114100D02*
D03*
X101400Y583700D02*
D03*
X88700Y571000D02*
D03*
X394120Y499000D02*
D03*
X381420Y511700D02*
D03*
X368720Y499000D02*
D03*
X114100D02*
D03*
X101400Y511700D02*
D03*
X88700Y499000D02*
D03*
X300780D02*
D03*
X288080Y511700D02*
D03*
X275380Y499000D02*
D03*
X182040D02*
D03*
X194740Y511700D02*
D03*
X207440Y499000D02*
D03*
X394120Y427000D02*
D03*
X381420Y439700D02*
D03*
X368720Y427000D02*
D03*
X300780D02*
D03*
X288080Y439700D02*
D03*
X275380Y427000D02*
D03*
X182040D02*
D03*
X194740Y439700D02*
D03*
X207440Y427000D02*
D03*
X288080Y727700D02*
D03*
X300780Y715000D02*
D03*
X88700Y427000D02*
D03*
X101400Y439700D02*
D03*
X114100Y427000D02*
D03*
X368720Y355000D02*
D03*
X381420Y367700D02*
D03*
X394120Y355000D02*
D03*
X101400Y367700D02*
D03*
X114100Y355000D02*
D03*
X207440Y715000D02*
D03*
X194740Y727700D02*
D03*
X381420Y655700D02*
D03*
X394120Y643000D02*
D03*
X114100D02*
D03*
X101400Y655700D02*
D03*
X207440Y643000D02*
D03*
X194740Y655700D02*
D03*
X368720Y571000D02*
D03*
X381420Y583700D02*
D03*
X394120Y571000D02*
D03*
X300780Y643000D02*
D03*
X288080Y655700D02*
D03*
X114100Y715000D02*
D03*
X101400Y727700D02*
D03*
D38*
X331774Y282512D02*
D03*
D39*
X559357Y99929D02*
D03*
X576476Y118602D02*
D03*
D44*
X454660Y575310D02*
Y718820D01*
Y430530D02*
Y575310D01*
D45*
X832075Y835025D02*
D03*
D46*
X831215Y18415D02*
D03*
D47*
X17145Y810859D02*
D03*
D48*
X18691Y18670D02*
D03*
M02*
