G04*
G04 #@! TF.GenerationSoftware,Altium Limited,Altium Designer,24.1.2 (44)*
G04*
G04 Layer_Color=255*
%FSLAX44Y44*%
%MOMM*%
G71*
G04*
G04 #@! TF.SameCoordinates,EA7915C2-BB38-46DF-888F-944F4F2BDD17*
G04*
G04*
G04 #@! TF.FilePolarity,Positive*
G04*
G01*
G75*
%ADD34C,1.6000*%
%ADD35R,1.6000X1.6000*%
%ADD36C,1.2000*%
%ADD37C,6.0000*%
%ADD38C,0.6000*%
%ADD39C,4.5000*%
%ADD40C,1.0000*%
%ADD54R,0.4000X1.5000*%
%ADD55R,1.7018X0.8128*%
%ADD56R,3.5000X2.2098*%
%ADD57R,0.6200X1.2200*%
%ADD58R,0.9000X0.6000*%
%ADD59O,1.8000X0.6000*%
%ADD60R,0.9000X0.9500*%
%ADD61R,0.9000X0.8000*%
%ADD62R,0.9500X0.9000*%
%ADD63C,1.5000*%
%ADD64R,0.8000X0.9000*%
%ADD65R,0.3000X0.8000*%
%ADD66R,3.1725X2.3455*%
%ADD67R,0.6325X2.3455*%
%ADD68R,0.3000X0.8000*%
%ADD69R,2.3000X2.8000*%
%ADD70R,1.4000X1.4000*%
%ADD71R,2.3000X2.2860*%
%ADD72O,1.2500X0.3500*%
%ADD73R,3.3000X3.1500*%
%ADD74R,1.4000X1.3000*%
%ADD75R,0.6000X0.9000*%
%ADD76R,2.3622X1.8796*%
%ADD77R,1.8796X2.3622*%
%ADD78R,0.9100X1.2200*%
D34*
X737300Y266200D02*
D03*
Y240800D02*
D03*
Y215400D02*
D03*
Y190000D02*
D03*
Y164600D02*
D03*
Y139200D02*
D03*
X762700Y266200D02*
D03*
Y240800D02*
D03*
Y215400D02*
D03*
Y190000D02*
D03*
Y164600D02*
D03*
Y139200D02*
D03*
Y113800D02*
D03*
D35*
X737300D02*
D03*
D36*
X481462Y807835D02*
D03*
X449133D02*
D03*
Y840164D02*
D03*
X481462D02*
D03*
X488158Y824000D02*
D03*
X465298Y801140D02*
D03*
X442438Y824000D02*
D03*
X465298Y846860D02*
D03*
X52165Y19835D02*
D03*
X19835D02*
D03*
Y52165D02*
D03*
X52165D02*
D03*
X58860Y36000D02*
D03*
X36000Y13140D02*
D03*
X13140Y36000D02*
D03*
X36000Y58860D02*
D03*
X830164Y239835D02*
D03*
X797835D02*
D03*
Y272164D02*
D03*
X830164D02*
D03*
X836860Y256000D02*
D03*
X814000Y233140D02*
D03*
X791140Y256000D02*
D03*
X814000Y278860D02*
D03*
X36000Y836860D02*
D03*
X13140Y814000D02*
D03*
X36000Y791140D02*
D03*
X58860Y814000D02*
D03*
X52165Y830164D02*
D03*
X19835D02*
D03*
Y797835D02*
D03*
X52165D02*
D03*
X36000Y278860D02*
D03*
X13140Y256000D02*
D03*
X36000Y233140D02*
D03*
X58860Y256000D02*
D03*
X52165Y272164D02*
D03*
X19835D02*
D03*
Y239835D02*
D03*
X52165D02*
D03*
Y347836D02*
D03*
X19835D02*
D03*
Y380164D02*
D03*
X52165D02*
D03*
X58860Y364000D02*
D03*
X36000Y341140D02*
D03*
X13140Y364000D02*
D03*
X36000Y386860D02*
D03*
X830164Y797835D02*
D03*
X797835D02*
D03*
Y830164D02*
D03*
X830164D02*
D03*
X836860Y814000D02*
D03*
X814000Y791140D02*
D03*
X791140Y814000D02*
D03*
X814000Y836860D02*
D03*
Y386860D02*
D03*
X791140Y364000D02*
D03*
X814000Y341140D02*
D03*
X836860Y364000D02*
D03*
X830164Y380164D02*
D03*
X797835D02*
D03*
Y347836D02*
D03*
X830164D02*
D03*
Y19835D02*
D03*
X797835D02*
D03*
Y52165D02*
D03*
X830164D02*
D03*
X836860Y36000D02*
D03*
X814000Y13140D02*
D03*
X791140Y36000D02*
D03*
X814000Y58860D02*
D03*
D37*
X465298Y824000D02*
D03*
X36000Y36000D02*
D03*
X814000Y256000D02*
D03*
X36000Y814000D02*
D03*
Y256000D02*
D03*
Y364000D02*
D03*
X814000Y814000D02*
D03*
Y364000D02*
D03*
Y36000D02*
D03*
D38*
X443698Y845000D02*
D03*
X457698D02*
D03*
X471698D02*
D03*
X485698D02*
D03*
X499694Y844649D02*
D03*
X506867Y832626D02*
D03*
X514549Y820922D02*
D03*
X527989Y817000D02*
D03*
X541989D02*
D03*
X555989D02*
D03*
X569989D02*
D03*
X583989D02*
D03*
X597989D02*
D03*
X611989D02*
D03*
X625989D02*
D03*
X639989D02*
D03*
X653989D02*
D03*
X667989D02*
D03*
X681989D02*
D03*
X695989D02*
D03*
X709989D02*
D03*
X723989D02*
D03*
X737989D02*
D03*
X751625Y820170D02*
D03*
X760086Y831324D02*
D03*
X765980Y844023D02*
D03*
X779946Y845000D02*
D03*
X793945D02*
D03*
X807945D02*
D03*
X821945D02*
D03*
X835945D02*
D03*
X845000Y834322D02*
D03*
Y820322D02*
D03*
Y806322D02*
D03*
Y792322D02*
D03*
X844688Y778326D02*
D03*
X832680Y771128D02*
D03*
X825438Y759147D02*
D03*
X825000Y745153D02*
D03*
Y731153D02*
D03*
Y717153D02*
D03*
Y703154D02*
D03*
Y689154D02*
D03*
Y675154D02*
D03*
Y661153D02*
D03*
Y647153D02*
D03*
Y633153D02*
D03*
Y619154D02*
D03*
Y605154D02*
D03*
Y591153D02*
D03*
Y577154D02*
D03*
Y563153D02*
D03*
Y549154D02*
D03*
Y535154D02*
D03*
Y521153D02*
D03*
Y507154D02*
D03*
Y493153D02*
D03*
Y479154D02*
D03*
Y465154D02*
D03*
Y451153D02*
D03*
Y437154D02*
D03*
X825135Y423154D02*
D03*
X830854Y410376D02*
D03*
X843212Y403795D02*
D03*
X845000Y389910D02*
D03*
Y375910D02*
D03*
Y361910D02*
D03*
Y347910D02*
D03*
Y333910D02*
D03*
Y319910D02*
D03*
Y305910D02*
D03*
Y291910D02*
D03*
Y277910D02*
D03*
X845000Y263910D02*
D03*
Y249910D02*
D03*
Y235910D02*
D03*
Y221910D02*
D03*
Y207910D02*
D03*
Y193910D02*
D03*
Y179910D02*
D03*
Y165910D02*
D03*
Y151910D02*
D03*
X845000Y137910D02*
D03*
Y123910D02*
D03*
Y109910D02*
D03*
Y95910D02*
D03*
Y81910D02*
D03*
Y67910D02*
D03*
Y53910D02*
D03*
Y39910D02*
D03*
Y25910D02*
D03*
X844996Y11910D02*
D03*
X832820Y5000D02*
D03*
X818820D02*
D03*
X804820D02*
D03*
X790820D02*
D03*
X776820D02*
D03*
X762820D02*
D03*
X748820D02*
D03*
X734820D02*
D03*
X720820D02*
D03*
X706820D02*
D03*
X692820D02*
D03*
X678820D02*
D03*
X664820D02*
D03*
X650820D02*
D03*
X636820D02*
D03*
X622820D02*
D03*
X608820D02*
D03*
X594820D02*
D03*
X580820D02*
D03*
X566820D02*
D03*
X552820Y5000D02*
D03*
X538820D02*
D03*
X524820D02*
D03*
X510820D02*
D03*
X496820D02*
D03*
X482820D02*
D03*
X468820D02*
D03*
X454820D02*
D03*
X398820D02*
D03*
X384820D02*
D03*
X370820D02*
D03*
X356820D02*
D03*
X342820D02*
D03*
X328820D02*
D03*
X314820D02*
D03*
X300820D02*
D03*
X286820D02*
D03*
X272820Y5000D02*
D03*
X258820D02*
D03*
X244820D02*
D03*
X230820D02*
D03*
X216820D02*
D03*
X202820D02*
D03*
X188820D02*
D03*
X174820D02*
D03*
X160820D02*
D03*
X146820D02*
D03*
X132820D02*
D03*
X118820D02*
D03*
X104820D02*
D03*
X90820D02*
D03*
X76820D02*
D03*
X62820D02*
D03*
X48820D02*
D03*
X34820D02*
D03*
X20820D02*
D03*
X6982Y7125D02*
D03*
X5000Y20984D02*
D03*
Y34984D02*
D03*
Y48984D02*
D03*
Y62984D02*
D03*
Y76984D02*
D03*
Y90984D02*
D03*
Y104984D02*
D03*
Y118984D02*
D03*
Y132984D02*
D03*
Y146984D02*
D03*
Y160984D02*
D03*
Y174984D02*
D03*
Y188984D02*
D03*
Y202984D02*
D03*
Y216984D02*
D03*
Y230984D02*
D03*
Y244984D02*
D03*
Y258984D02*
D03*
Y272984D02*
D03*
Y286984D02*
D03*
Y300984D02*
D03*
Y314984D02*
D03*
Y328984D02*
D03*
Y342984D02*
D03*
Y356984D02*
D03*
Y370984D02*
D03*
Y384984D02*
D03*
X10583Y397822D02*
D03*
X21777Y406231D02*
D03*
X25000Y419855D02*
D03*
Y433855D02*
D03*
Y447855D02*
D03*
Y461855D02*
D03*
Y475855D02*
D03*
Y489855D02*
D03*
Y503855D02*
D03*
Y517855D02*
D03*
Y531855D02*
D03*
Y545855D02*
D03*
Y559855D02*
D03*
Y573855D02*
D03*
Y587855D02*
D03*
Y601855D02*
D03*
Y615855D02*
D03*
Y629855D02*
D03*
Y643855D02*
D03*
Y657855D02*
D03*
Y671855D02*
D03*
Y685855D02*
D03*
Y699855D02*
D03*
Y713855D02*
D03*
Y727855D02*
D03*
Y741855D02*
D03*
Y755855D02*
D03*
X23223Y769742D02*
D03*
X13392Y779709D02*
D03*
X5000Y790915D02*
D03*
Y804915D02*
D03*
Y818915D02*
D03*
Y832915D02*
D03*
X12067Y845000D02*
D03*
X26067D02*
D03*
X40067Y845000D02*
D03*
X54067D02*
D03*
X68067Y845000D02*
D03*
X82065Y844748D02*
D03*
X89513Y832894D02*
D03*
X97029Y821082D02*
D03*
X110421Y817000D02*
D03*
X124420D02*
D03*
X138420D02*
D03*
X152421D02*
D03*
X166420D02*
D03*
X180420D02*
D03*
X194421D02*
D03*
X208421D02*
D03*
X222421D02*
D03*
X236420D02*
D03*
X250420D02*
D03*
X264421D02*
D03*
X278421D02*
D03*
X292421D02*
D03*
X306420D02*
D03*
X320420D02*
D03*
X334421D02*
D03*
X348420D02*
D03*
X362421D02*
D03*
X376421D02*
D03*
X390420D02*
D03*
X404421Y817014D02*
D03*
X417475Y822071D02*
D03*
X424061Y834425D02*
D03*
X433227Y845007D02*
D03*
D39*
X425000Y21000D02*
D03*
D40*
X555400Y427000D02*
D03*
X568100Y439700D02*
D03*
Y414300D02*
D03*
X580800Y427000D02*
D03*
X555400Y355000D02*
D03*
X568100Y367700D02*
D03*
Y342300D02*
D03*
X580800Y355000D02*
D03*
X462060D02*
D03*
X474760Y367700D02*
D03*
Y342300D02*
D03*
X487460Y355000D02*
D03*
X368720Y427000D02*
D03*
X381420Y439700D02*
D03*
Y414300D02*
D03*
X394120Y427000D02*
D03*
X462060D02*
D03*
X474760Y439700D02*
D03*
Y414300D02*
D03*
X487460Y427000D02*
D03*
X368720Y355000D02*
D03*
X381420Y367700D02*
D03*
Y342300D02*
D03*
X394120Y355000D02*
D03*
X275380D02*
D03*
X288080Y367700D02*
D03*
Y342300D02*
D03*
X300780Y355000D02*
D03*
X275380Y427000D02*
D03*
X288080Y439700D02*
D03*
Y414300D02*
D03*
X300780Y427000D02*
D03*
X275380Y499000D02*
D03*
X288080Y511700D02*
D03*
Y486300D02*
D03*
X300780Y499000D02*
D03*
X368720D02*
D03*
X381420Y511700D02*
D03*
Y486300D02*
D03*
X394120Y499000D02*
D03*
X462060D02*
D03*
X474760Y511700D02*
D03*
Y486300D02*
D03*
X487460Y499000D02*
D03*
X555400D02*
D03*
X568100Y511700D02*
D03*
Y486300D02*
D03*
X580800Y499000D02*
D03*
X555400Y571000D02*
D03*
X568100Y583700D02*
D03*
Y558300D02*
D03*
X580800Y571000D02*
D03*
X462060D02*
D03*
X474760Y583700D02*
D03*
Y558300D02*
D03*
X487460Y571000D02*
D03*
X368720D02*
D03*
X381420Y583700D02*
D03*
Y558300D02*
D03*
X394120Y571000D02*
D03*
X275380D02*
D03*
X288080Y583700D02*
D03*
Y558300D02*
D03*
X300780Y571000D02*
D03*
X182040D02*
D03*
X194740Y583700D02*
D03*
Y558300D02*
D03*
X207440Y571000D02*
D03*
X182040Y499000D02*
D03*
X194740Y511700D02*
D03*
Y486300D02*
D03*
X207440Y499000D02*
D03*
X182040Y427000D02*
D03*
X194740Y439700D02*
D03*
Y414300D02*
D03*
X207440Y427000D02*
D03*
X182040Y355000D02*
D03*
X194740Y367700D02*
D03*
Y342300D02*
D03*
X207440Y355000D02*
D03*
X88700D02*
D03*
X101400Y367700D02*
D03*
Y342300D02*
D03*
X114100Y355000D02*
D03*
X88700Y427000D02*
D03*
X101400Y439700D02*
D03*
Y414300D02*
D03*
X114100Y427000D02*
D03*
X88700Y499000D02*
D03*
X101400Y511700D02*
D03*
Y486300D02*
D03*
X114100Y499000D02*
D03*
X88700Y571000D02*
D03*
X101400Y583700D02*
D03*
Y558300D02*
D03*
X114100Y571000D02*
D03*
X182040Y643000D02*
D03*
X194740Y655700D02*
D03*
Y630300D02*
D03*
X207440Y643000D02*
D03*
X275380D02*
D03*
X288080Y655700D02*
D03*
Y630300D02*
D03*
X300780Y643000D02*
D03*
X368720D02*
D03*
X381420Y655700D02*
D03*
Y630300D02*
D03*
X394120Y643000D02*
D03*
X462060D02*
D03*
X474760Y655700D02*
D03*
Y630300D02*
D03*
X487460Y643000D02*
D03*
X580800D02*
D03*
X568100Y630300D02*
D03*
Y655700D02*
D03*
X555400Y643000D02*
D03*
Y715000D02*
D03*
X568100Y727700D02*
D03*
Y702300D02*
D03*
X580800Y715000D02*
D03*
X462060D02*
D03*
X474760Y727700D02*
D03*
Y702300D02*
D03*
X487460Y715000D02*
D03*
X368720D02*
D03*
X381420Y727700D02*
D03*
Y702300D02*
D03*
X394120Y715000D02*
D03*
X275380D02*
D03*
X288080Y727700D02*
D03*
Y702300D02*
D03*
X300780Y715000D02*
D03*
X182040D02*
D03*
X194740Y727700D02*
D03*
Y702300D02*
D03*
X207440Y715000D02*
D03*
X88700D02*
D03*
X101400Y727700D02*
D03*
Y702300D02*
D03*
X114100Y715000D02*
D03*
X88700Y643000D02*
D03*
X101400Y655700D02*
D03*
Y630300D02*
D03*
X114100Y643000D02*
D03*
D54*
X649515Y483211D02*
D03*
X656015D02*
D03*
X662515D02*
D03*
X669015D02*
D03*
X675515D02*
D03*
X682015D02*
D03*
X688515D02*
D03*
X695015D02*
D03*
X701515D02*
D03*
X708015D02*
D03*
X714515D02*
D03*
X721015D02*
D03*
Y539599D02*
D03*
X714515D02*
D03*
X708015D02*
D03*
X701515D02*
D03*
X695015D02*
D03*
X688515D02*
D03*
X682015D02*
D03*
X675515D02*
D03*
X669015D02*
D03*
X662515D02*
D03*
X656015D02*
D03*
X649515D02*
D03*
Y566193D02*
D03*
X656015D02*
D03*
X662515D02*
D03*
X669015D02*
D03*
X675515D02*
D03*
X682015D02*
D03*
X688515D02*
D03*
X695015D02*
D03*
X701515D02*
D03*
X708015D02*
D03*
X714515D02*
D03*
X721015D02*
D03*
Y622581D02*
D03*
X714515D02*
D03*
X708015D02*
D03*
X701515D02*
D03*
X695015D02*
D03*
X688515D02*
D03*
X682015D02*
D03*
X675515D02*
D03*
X669015D02*
D03*
X662515D02*
D03*
X656015D02*
D03*
X649515D02*
D03*
Y705564D02*
D03*
X656015D02*
D03*
X662515D02*
D03*
X669015D02*
D03*
X675515D02*
D03*
X682015D02*
D03*
X688515D02*
D03*
X695015D02*
D03*
X701515D02*
D03*
X708015D02*
D03*
X714515D02*
D03*
X721015D02*
D03*
Y649175D02*
D03*
X714515D02*
D03*
X708015D02*
D03*
X701515D02*
D03*
X695015D02*
D03*
X688515D02*
D03*
X682015D02*
D03*
X675515D02*
D03*
X669015D02*
D03*
X662515D02*
D03*
X656015D02*
D03*
X649515D02*
D03*
Y456616D02*
D03*
X656015D02*
D03*
X662515D02*
D03*
X669015D02*
D03*
X675515D02*
D03*
X682015D02*
D03*
X688515D02*
D03*
X695015D02*
D03*
X701515D02*
D03*
X708015D02*
D03*
X714515D02*
D03*
X721015D02*
D03*
Y400228D02*
D03*
X714515D02*
D03*
X708015D02*
D03*
X701515D02*
D03*
X695015D02*
D03*
X688515D02*
D03*
X682015D02*
D03*
X675515D02*
D03*
X669015D02*
D03*
X662515D02*
D03*
X656015D02*
D03*
X649515D02*
D03*
Y373634D02*
D03*
X656015D02*
D03*
X662515D02*
D03*
X669015D02*
D03*
X675515D02*
D03*
X682015D02*
D03*
X688515D02*
D03*
X695015D02*
D03*
X701515D02*
D03*
X708015D02*
D03*
X714515D02*
D03*
X721015D02*
D03*
Y317246D02*
D03*
X714515D02*
D03*
X708015D02*
D03*
X701515D02*
D03*
X695015D02*
D03*
X688515D02*
D03*
X682015D02*
D03*
X675515D02*
D03*
X669015D02*
D03*
X662515D02*
D03*
X656015D02*
D03*
X649515D02*
D03*
Y788546D02*
D03*
X656015D02*
D03*
X662515D02*
D03*
X669015D02*
D03*
X675515D02*
D03*
X682015D02*
D03*
X688515D02*
D03*
X695015D02*
D03*
X701515D02*
D03*
X708015D02*
D03*
X714515D02*
D03*
X721015D02*
D03*
Y732158D02*
D03*
X714515D02*
D03*
X708015D02*
D03*
X701515D02*
D03*
X695015D02*
D03*
X688515D02*
D03*
X682015D02*
D03*
X675515D02*
D03*
X669015D02*
D03*
X662515D02*
D03*
X656015D02*
D03*
X649515D02*
D03*
D55*
X763435Y628480D02*
D03*
Y640980D02*
D03*
Y653480D02*
D03*
Y665980D02*
D03*
Y678480D02*
D03*
Y690980D02*
D03*
Y703480D02*
D03*
Y715980D02*
D03*
D56*
X792435Y602980D02*
D03*
Y741480D02*
D03*
D57*
X135187Y258930D02*
D03*
X116187Y232729D02*
D03*
X135187D02*
D03*
X125687D02*
D03*
X116137Y258930D02*
D03*
X116188Y108350D02*
D03*
X125738Y82150D02*
D03*
X135238D02*
D03*
X116238D02*
D03*
X135238Y108350D02*
D03*
D58*
X158189Y255098D02*
D03*
X158188Y236940D02*
D03*
X178924Y255098D02*
D03*
X178923Y236940D02*
D03*
X199658Y255098D02*
D03*
X199657Y236940D02*
D03*
X356820Y198159D02*
D03*
X356819Y180000D02*
D03*
X250189D02*
D03*
X250190Y198159D02*
D03*
X140968Y179622D02*
D03*
X140969Y197780D02*
D03*
X356820Y29421D02*
D03*
X356821Y47580D02*
D03*
X250190Y29421D02*
D03*
X250191Y47580D02*
D03*
X140969Y29042D02*
D03*
X140970Y47201D02*
D03*
X158191Y104519D02*
D03*
X158189Y86360D02*
D03*
X178925Y104519D02*
D03*
X178924Y86360D02*
D03*
X199659Y104519D02*
D03*
X199658Y86360D02*
D03*
X220401Y47580D02*
D03*
X220400Y29421D02*
D03*
X332740Y29042D02*
D03*
X332741Y47201D02*
D03*
X332739Y227454D02*
D03*
X332740Y245613D02*
D03*
X332739Y179622D02*
D03*
X332740Y197780D02*
D03*
X616319Y313931D02*
D03*
X616320Y332090D02*
D03*
X633730Y415072D02*
D03*
X633729Y396914D02*
D03*
Y479896D02*
D03*
X633730Y498055D02*
D03*
Y581037D02*
D03*
X633729Y562878D02*
D03*
X633730Y664020D02*
D03*
X633729Y645861D02*
D03*
X633730Y332090D02*
D03*
X633729Y313931D02*
D03*
X356820Y146587D02*
D03*
X356819Y128428D02*
D03*
X332741Y95034D02*
D03*
X332740Y76875D02*
D03*
X356819Y297167D02*
D03*
X356818Y279008D02*
D03*
X220399Y180000D02*
D03*
X220400Y198159D02*
D03*
X570229Y102491D02*
D03*
X570230Y120650D02*
D03*
X570231Y164209D02*
D03*
X570230Y146050D02*
D03*
X633729Y358411D02*
D03*
X633730Y376570D02*
D03*
X633729Y441394D02*
D03*
X633730Y459552D02*
D03*
X633729Y524376D02*
D03*
X633730Y542535D02*
D03*
X633729Y607358D02*
D03*
X633730Y625517D02*
D03*
X633729Y690341D02*
D03*
X633730Y708500D02*
D03*
X633729Y751083D02*
D03*
X633730Y769242D02*
D03*
D59*
X246069Y228050D02*
D03*
Y240749D02*
D03*
Y253449D02*
D03*
Y266150D02*
D03*
X302569Y228050D02*
D03*
Y240749D02*
D03*
Y253449D02*
D03*
Y266150D02*
D03*
X246070Y77470D02*
D03*
Y90170D02*
D03*
Y102870D02*
D03*
Y115570D02*
D03*
X302570Y77470D02*
D03*
Y90170D02*
D03*
Y102870D02*
D03*
Y115570D02*
D03*
X659880Y162560D02*
D03*
Y149860D02*
D03*
Y137160D02*
D03*
Y124460D02*
D03*
X603380Y162560D02*
D03*
Y149860D02*
D03*
Y137160D02*
D03*
Y124460D02*
D03*
D60*
X558931Y272002D02*
D03*
X549431Y297002D02*
D03*
X539931Y272002D02*
D03*
X672440Y271980D02*
D03*
X662940Y296980D02*
D03*
X653440Y271980D02*
D03*
X616320D02*
D03*
X606820Y296980D02*
D03*
X597320Y271980D02*
D03*
X558931Y227530D02*
D03*
X549431Y252530D02*
D03*
X539931Y227530D02*
D03*
X672440D02*
D03*
X662940Y252530D02*
D03*
X653440Y227530D02*
D03*
D61*
X506198Y295910D02*
D03*
X488198D02*
D03*
X455084D02*
D03*
X437084D02*
D03*
X133569Y295889D02*
D03*
X115569D02*
D03*
X176721D02*
D03*
X158721D02*
D03*
X219874D02*
D03*
X201874D02*
D03*
X133570Y145309D02*
D03*
X115570D02*
D03*
X176723D02*
D03*
X158722D02*
D03*
X201875D02*
D03*
X219875D02*
D03*
X454449Y191770D02*
D03*
X436449D02*
D03*
X288179Y295889D02*
D03*
X306179D02*
D03*
X245026D02*
D03*
X263026D02*
D03*
X263027Y145309D02*
D03*
X245028D02*
D03*
X306180D02*
D03*
X288180D02*
D03*
X385970Y295910D02*
D03*
X403970D02*
D03*
Y269240D02*
D03*
X385970D02*
D03*
X384700Y191770D02*
D03*
X402700D02*
D03*
X622630Y102870D02*
D03*
X640630D02*
D03*
D62*
X192839Y179681D02*
D03*
X167839Y189181D02*
D03*
X192839Y198681D02*
D03*
X192840Y29101D02*
D03*
X167840Y38601D02*
D03*
X192840Y48102D02*
D03*
X302060D02*
D03*
X277060Y38601D02*
D03*
X302060Y29101D02*
D03*
X302059Y179681D02*
D03*
X277059Y189181D02*
D03*
X302059Y198681D02*
D03*
X767280Y548030D02*
D03*
X792280Y557530D02*
D03*
X767280Y567030D02*
D03*
Y505697D02*
D03*
X792280Y515197D02*
D03*
X767280Y524697D02*
D03*
Y463363D02*
D03*
X792280Y472863D02*
D03*
X767280Y482363D02*
D03*
Y421030D02*
D03*
X792280Y430530D02*
D03*
X767280Y440030D02*
D03*
D63*
X610870Y634953D02*
D03*
Y717911D02*
D03*
X85090Y292997D02*
D03*
Y210342D02*
D03*
Y127687D02*
D03*
Y169015D02*
D03*
Y251669D02*
D03*
X610870Y350520D02*
D03*
X85090Y86360D02*
D03*
X528320Y751840D02*
D03*
X610870Y469038D02*
D03*
X569595Y788546D02*
D03*
X528320D02*
D03*
X610870Y551995D02*
D03*
Y788546D02*
D03*
Y386080D02*
D03*
D64*
X736470Y522732D02*
D03*
Y540732D02*
D03*
X332740Y295469D02*
D03*
Y277469D02*
D03*
X736470Y417095D02*
D03*
Y399095D02*
D03*
Y439749D02*
D03*
Y457749D02*
D03*
Y500078D02*
D03*
Y482078D02*
D03*
Y583060D02*
D03*
Y565060D02*
D03*
Y623714D02*
D03*
Y605714D02*
D03*
Y666043D02*
D03*
Y648043D02*
D03*
Y706696D02*
D03*
Y688697D02*
D03*
Y334113D02*
D03*
Y316113D02*
D03*
Y374767D02*
D03*
Y356767D02*
D03*
X220400Y104250D02*
D03*
Y86250D02*
D03*
X356819Y227723D02*
D03*
Y245723D02*
D03*
X220399Y254830D02*
D03*
Y236829D02*
D03*
X356820Y77144D02*
D03*
Y95144D02*
D03*
X332741Y126890D02*
D03*
Y144890D02*
D03*
X488188Y163940D02*
D03*
Y145940D02*
D03*
X514858D02*
D03*
Y163940D02*
D03*
X488188Y120760D02*
D03*
Y102760D02*
D03*
X541528D02*
D03*
Y120760D02*
D03*
X514858Y102760D02*
D03*
Y120760D02*
D03*
X541528Y189247D02*
D03*
Y207247D02*
D03*
X570230D02*
D03*
Y189247D02*
D03*
X541528Y145940D02*
D03*
Y163940D02*
D03*
X736470Y731025D02*
D03*
Y749025D02*
D03*
Y771679D02*
D03*
Y789679D02*
D03*
D65*
X118954Y180000D02*
D03*
X111117D02*
D03*
X111118Y198159D02*
D03*
X118956D02*
D03*
X111120Y47580D02*
D03*
X118957D02*
D03*
X111118Y29421D02*
D03*
X118956D02*
D03*
D66*
X447040Y159643D02*
D03*
D67*
X421640Y99437D02*
D03*
X434340D02*
D03*
X447040D02*
D03*
X459740D02*
D03*
X472440D02*
D03*
D68*
X115037Y29421D02*
D03*
X115038Y47580D02*
D03*
X115036Y180000D02*
D03*
X115037Y198159D02*
D03*
D69*
X631630Y143510D02*
D03*
D70*
X751840Y40640D02*
D03*
Y57940D02*
D03*
D71*
X713170Y71700D02*
D03*
Y31060D02*
D03*
D72*
X505770Y274770D02*
D03*
Y268270D02*
D03*
Y261770D02*
D03*
Y255270D02*
D03*
Y248770D02*
D03*
Y242270D02*
D03*
Y235770D02*
D03*
X449270Y274770D02*
D03*
Y268270D02*
D03*
Y261770D02*
D03*
Y255270D02*
D03*
Y248770D02*
D03*
Y242270D02*
D03*
Y235770D02*
D03*
D73*
X659130Y54610D02*
D03*
X604130D02*
D03*
D74*
X393700Y223140D02*
D03*
Y239140D02*
D03*
D75*
X436815Y215901D02*
D03*
X454974Y215900D02*
D03*
X487929Y214631D02*
D03*
X506088Y214630D02*
D03*
X487929Y191771D02*
D03*
X506088Y191770D02*
D03*
D76*
X389254Y98298D02*
D03*
Y143002D02*
D03*
X502920Y73152D02*
D03*
Y28448D02*
D03*
X553720Y73240D02*
D03*
Y28536D02*
D03*
D77*
X615370Y195580D02*
D03*
X660074D02*
D03*
D78*
X458410Y391840D02*
D03*
X491110D02*
D03*
X551750D02*
D03*
X584450D02*
D03*
X551750Y463840D02*
D03*
X584450D02*
D03*
X458410D02*
D03*
X491110D02*
D03*
X458410Y535840D02*
D03*
X491110D02*
D03*
X551750D02*
D03*
X584450D02*
D03*
X551750Y607840D02*
D03*
X584450D02*
D03*
X458410D02*
D03*
X491110D02*
D03*
X365070D02*
D03*
X397770D02*
D03*
X365070Y535840D02*
D03*
X397770D02*
D03*
X365070Y463840D02*
D03*
X397770D02*
D03*
X365070Y391840D02*
D03*
X397770D02*
D03*
X271730D02*
D03*
X304430D02*
D03*
X271730Y463840D02*
D03*
X304430D02*
D03*
X271730Y535840D02*
D03*
X304430D02*
D03*
X178390Y607840D02*
D03*
X211090D02*
D03*
X271730D02*
D03*
X304430D02*
D03*
X178390Y535840D02*
D03*
X211090D02*
D03*
X178390Y463840D02*
D03*
X211090D02*
D03*
X178390Y391840D02*
D03*
X211090D02*
D03*
X85050D02*
D03*
X117750D02*
D03*
X85050Y463840D02*
D03*
X117750D02*
D03*
X85050Y535840D02*
D03*
X117750D02*
D03*
X85050Y607840D02*
D03*
X117750D02*
D03*
X85050Y679840D02*
D03*
X117750D02*
D03*
X178390D02*
D03*
X211090D02*
D03*
X271730D02*
D03*
X304430D02*
D03*
X365070D02*
D03*
X397770D02*
D03*
X458410D02*
D03*
X491110D02*
D03*
X551750D02*
D03*
X584450D02*
D03*
X551750Y751840D02*
D03*
X584450D02*
D03*
X458410D02*
D03*
X491110D02*
D03*
X365070D02*
D03*
X397770D02*
D03*
X271730D02*
D03*
X304430D02*
D03*
X178390D02*
D03*
X211090D02*
D03*
X85050D02*
D03*
X117750D02*
D03*
M02*
