G04*
G04 #@! TF.GenerationSoftware,Altium Limited,Altium Designer,25.8.1 (18)*
G04*
G04 Layer_Physical_Order=1*
G04 Layer_Color=255*
%FSLAX44Y44*%
%MOMM*%
G71*
G04*
G04 #@! TF.SameCoordinates,BFC9A3CF-D512-4AF0-A6F7-44F261463DCD*
G04*
G04*
G04 #@! TF.FilePolarity,Positive*
G04*
G01*
G75*
%ADD14C,1.2000*%
%ADD23C,1.2700*%
%ADD24C,0.3810*%
%ADD25C,0.6096*%
%ADD26C,0.3501*%
%ADD27C,0.8890*%
%ADD28C,0.3500*%
%ADD29C,0.3302*%
%ADD30R,2.1673X2.4556*%
%ADD31R,2.2016X1.9106*%
%ADD32R,2.0376X6.5196*%
%ADD33R,2.2860X2.0320*%
%ADD34C,0.6000*%
%ADD35C,1.2000*%
%ADD36C,6.0000*%
%ADD37C,1.0668*%
%ADD38C,0.8890*%
G36*
X841431Y850805D02*
X844628Y849480D01*
X847374Y847374D01*
X849480Y844628D01*
X850805Y841431D01*
X851233Y838180D01*
X851197Y838000D01*
Y781251D01*
X851197Y780099D01*
X851198Y780000D01*
X851079Y778779D01*
X850857Y777091D01*
X849734Y774380D01*
X847948Y772053D01*
X845621Y770267D01*
X842910Y769144D01*
X841222Y768922D01*
X840762Y768877D01*
X839981Y768803D01*
X837722Y768505D01*
X835598Y767626D01*
X833775Y766226D01*
X832375Y764403D01*
X831496Y762279D01*
X831196Y760000D01*
X831196D01*
X831197Y759903D01*
Y420000D01*
X831195D01*
X831495Y417721D01*
X832374Y415597D01*
X833774Y413774D01*
X835597Y412374D01*
X837721Y411495D01*
X840000Y411195D01*
X841222Y411078D01*
X842909Y410856D01*
X845620Y409733D01*
X847947Y407947D01*
X849734Y405620D01*
X850856Y402909D01*
X851222Y400128D01*
X851197Y400000D01*
X851197Y11960D01*
X851233Y11781D01*
X850806Y8539D01*
X849485Y5352D01*
X847385Y2615D01*
X844648Y515D01*
X841461Y-806D01*
X838235Y-1230D01*
X838067Y-1197D01*
X13251Y-1197D01*
X12000Y-1197D01*
X10772Y-1095D01*
X8569Y-805D01*
X5372Y520D01*
X2626Y2626D01*
X520Y5372D01*
X-805Y8569D01*
X-1092Y10753D01*
X-1198Y11979D01*
X-1197Y12000D01*
X-1197Y13226D01*
X-1197Y391176D01*
X-1197Y392430D01*
X-1198Y392445D01*
X-1077Y393665D01*
X-856Y395339D01*
X267Y398050D01*
X2053Y400377D01*
X4380Y402163D01*
X7091Y403286D01*
X8778Y403508D01*
X10000Y403625D01*
X12279Y403925D01*
X14403Y404804D01*
X16226Y406204D01*
X17626Y408027D01*
X18505Y410151D01*
X18805Y412430D01*
X18803D01*
Y766130D01*
X18805D01*
X18505Y768409D01*
X17626Y770533D01*
X16226Y772356D01*
X14403Y773756D01*
X12279Y774635D01*
X10000Y774935D01*
X8778Y775052D01*
X7091Y775274D01*
X4380Y776397D01*
X2053Y778183D01*
X267Y780510D01*
X-856Y783221D01*
X-1222Y786002D01*
X-1197Y786130D01*
Y838000D01*
X-1233Y838180D01*
X-805Y841431D01*
X520Y844628D01*
X2626Y847374D01*
X5372Y849480D01*
X8569Y850805D01*
X10758Y851093D01*
X11985Y851198D01*
X12000Y851197D01*
X13232Y851197D01*
X78730Y851197D01*
X79977Y851197D01*
X80000Y851197D01*
X81228Y851095D01*
X82969Y850924D01*
X85823Y850058D01*
X88454Y848652D01*
X90759Y846759D01*
X92652Y844454D01*
X94058Y841823D01*
X94924Y838969D01*
X95094Y837243D01*
X95160Y836000D01*
X95319Y834794D01*
X95598Y832677D01*
X96880Y829580D01*
X98921Y826921D01*
X101580Y824880D01*
X104677Y823598D01*
X108000Y823160D01*
Y823197D01*
X405300D01*
Y823160D01*
X408623Y823598D01*
X411720Y824880D01*
X414379Y826921D01*
X416420Y829580D01*
X417702Y832677D01*
X417981Y834794D01*
X418140Y836000D01*
X418206Y837243D01*
X418376Y838969D01*
X419242Y841823D01*
X420648Y844454D01*
X422541Y846759D01*
X424846Y848652D01*
X427477Y850058D01*
X430331Y850924D01*
X433103Y851197D01*
X497300D01*
X497365Y851210D01*
X500269Y850924D01*
X503123Y850058D01*
X505754Y848652D01*
X508060Y846759D01*
X509952Y844454D01*
X511358Y841823D01*
X512224Y838969D01*
X512394Y837243D01*
X512460Y836000D01*
X512619Y834794D01*
X512898Y832677D01*
X514180Y829580D01*
X516221Y826921D01*
X518880Y824880D01*
X521977Y823598D01*
X525300Y823160D01*
Y823197D01*
X742000D01*
Y823160D01*
X745323Y823598D01*
X748420Y824880D01*
X751079Y826921D01*
X753120Y829580D01*
X754402Y832677D01*
X754681Y834794D01*
X754840Y836000D01*
X754906Y837243D01*
X755076Y838969D01*
X755942Y841823D01*
X757348Y844454D01*
X759240Y846759D01*
X761546Y848652D01*
X764177Y850058D01*
X767031Y850924D01*
X769935Y851210D01*
X770000Y851197D01*
X838000D01*
X838180Y851233D01*
X841431Y850805D01*
D02*
G37*
%LPC*%
G36*
X528725Y768849D02*
X526935D01*
X525281Y768164D01*
X525070Y767953D01*
X523993Y767879D01*
X523703Y767878D01*
X523568Y767821D01*
X96329D01*
X95001Y767557D01*
X93874Y766804D01*
X86245Y759175D01*
X85493Y758049D01*
X85228Y756720D01*
Y723363D01*
X85172Y723241D01*
X85156Y722793D01*
X85115Y722425D01*
X85048Y722076D01*
X84956Y721744D01*
X84839Y721426D01*
X84695Y721120D01*
X84524Y720822D01*
X84324Y720532D01*
X84093Y720248D01*
X83788Y719926D01*
X83680Y719645D01*
X83231Y719196D01*
X82332Y717638D01*
X81866Y715900D01*
Y714100D01*
X82332Y712362D01*
X83231Y710804D01*
X84504Y709531D01*
X86062Y708632D01*
X87800Y708166D01*
X89600D01*
X91338Y708632D01*
X92896Y709531D01*
X94169Y710804D01*
X95068Y712362D01*
X95534Y714100D01*
Y715900D01*
X95068Y717638D01*
X94169Y719196D01*
X93720Y719645D01*
X93612Y719926D01*
X93307Y720248D01*
X93076Y720532D01*
X92876Y720822D01*
X92705Y721120D01*
X92561Y721426D01*
X92444Y721743D01*
X92352Y722076D01*
X92285Y722425D01*
X92244Y722793D01*
X92228Y723241D01*
X92172Y723363D01*
Y755282D01*
X97767Y760878D01*
X188806D01*
X188958Y760448D01*
X189017Y759607D01*
X188085Y758985D01*
X179585Y750485D01*
X178833Y749359D01*
X178568Y748030D01*
Y723363D01*
X178512Y723241D01*
X178496Y722793D01*
X178455Y722425D01*
X178388Y722076D01*
X178296Y721744D01*
X178179Y721426D01*
X178035Y721120D01*
X177864Y720822D01*
X177664Y720532D01*
X177433Y720248D01*
X177128Y719926D01*
X177020Y719645D01*
X176571Y719196D01*
X175672Y717638D01*
X175206Y715900D01*
Y714100D01*
X175672Y712362D01*
X176571Y710804D01*
X177844Y709531D01*
X179402Y708632D01*
X181140Y708166D01*
X182940D01*
X184678Y708632D01*
X186236Y709531D01*
X187509Y710804D01*
X188408Y712362D01*
X188874Y714100D01*
Y715900D01*
X188408Y717638D01*
X187509Y719196D01*
X187060Y719645D01*
X186952Y719926D01*
X186647Y720248D01*
X186416Y720532D01*
X186216Y720822D01*
X186045Y721120D01*
X185901Y721426D01*
X185784Y721743D01*
X185692Y722076D01*
X185625Y722425D01*
X185584Y722793D01*
X185567Y723241D01*
X185512Y723363D01*
Y746592D01*
X191978Y753058D01*
X283494D01*
X283619Y751788D01*
X282624Y751590D01*
X281498Y750838D01*
X272925Y742265D01*
X272173Y741139D01*
X271908Y739810D01*
Y723363D01*
X271852Y723241D01*
X271836Y722793D01*
X271795Y722425D01*
X271728Y722076D01*
X271636Y721744D01*
X271519Y721426D01*
X271375Y721120D01*
X271204Y720822D01*
X271004Y720532D01*
X270773Y720248D01*
X270468Y719926D01*
X270360Y719645D01*
X269911Y719196D01*
X269012Y717638D01*
X268546Y715900D01*
Y714100D01*
X269012Y712362D01*
X269911Y710804D01*
X271184Y709531D01*
X272742Y708632D01*
X274480Y708166D01*
X276280D01*
X278018Y708632D01*
X279576Y709531D01*
X280849Y710804D01*
X281748Y712362D01*
X282214Y714100D01*
Y715900D01*
X281748Y717638D01*
X280849Y719196D01*
X280400Y719645D01*
X280292Y719926D01*
X279987Y720248D01*
X279755Y720532D01*
X279556Y720822D01*
X279385Y721120D01*
X279241Y721426D01*
X279124Y721743D01*
X279032Y722076D01*
X278965Y722425D01*
X278924Y722793D01*
X278908Y723241D01*
X278852Y723363D01*
Y738372D01*
X285391Y744911D01*
X484383D01*
X484609Y744714D01*
X484942Y743641D01*
X484808Y743549D01*
X484703Y743549D01*
X484568Y743492D01*
X376800D01*
X375471Y743227D01*
X374345Y742475D01*
X366265Y734395D01*
X365513Y733269D01*
X365248Y731940D01*
Y723363D01*
X365192Y723241D01*
X365176Y722793D01*
X365135Y722425D01*
X365068Y722076D01*
X364976Y721744D01*
X364859Y721426D01*
X364715Y721120D01*
X364544Y720822D01*
X364344Y720532D01*
X364113Y720248D01*
X363808Y719926D01*
X363700Y719645D01*
X363251Y719196D01*
X362352Y717638D01*
X361886Y715900D01*
Y714100D01*
X362352Y712362D01*
X363251Y710804D01*
X364524Y709531D01*
X366082Y708632D01*
X367820Y708166D01*
X369620D01*
X371358Y708632D01*
X372916Y709531D01*
X374189Y710804D01*
X375088Y712362D01*
X375554Y714100D01*
Y715900D01*
X375088Y717638D01*
X374189Y719196D01*
X373740Y719645D01*
X373632Y719926D01*
X373327Y720248D01*
X373096Y720532D01*
X372896Y720822D01*
X372725Y721120D01*
X372581Y721426D01*
X372464Y721743D01*
X372372Y722076D01*
X372305Y722425D01*
X372264Y722793D01*
X372248Y723241D01*
X372192Y723363D01*
Y730502D01*
X378238Y736548D01*
X484561D01*
X484693Y736491D01*
X485316Y736484D01*
X485769Y736464D01*
X486050Y736436D01*
X486281Y736205D01*
X487935Y735520D01*
X489725D01*
X491379Y736205D01*
X492645Y737471D01*
X493330Y739125D01*
Y740915D01*
X492645Y742569D01*
X491573Y743641D01*
X491770Y744557D01*
X491962Y744911D01*
X497380D01*
X497513Y744855D01*
X498136Y744847D01*
X498589Y744827D01*
X498870Y744799D01*
X499101Y744568D01*
X500755Y743883D01*
X502545D01*
X504199Y744568D01*
X505465Y745834D01*
X506150Y747488D01*
Y749278D01*
X505465Y750932D01*
X504609Y751788D01*
X505135Y753058D01*
X510560D01*
X510693Y753001D01*
X511316Y752994D01*
X511769Y752974D01*
X512050Y752946D01*
X512281Y752715D01*
X513935Y752030D01*
X515725D01*
X517379Y752715D01*
X518645Y753981D01*
X519330Y755635D01*
Y757425D01*
X518645Y759079D01*
X518116Y759607D01*
X518643Y760878D01*
X523560D01*
X523693Y760821D01*
X524316Y760813D01*
X524769Y760793D01*
X525050Y760765D01*
X525281Y760534D01*
X526935Y759849D01*
X528725D01*
X530379Y760534D01*
X531645Y761800D01*
X532330Y763454D01*
Y765244D01*
X531645Y766898D01*
X530379Y768164D01*
X528725Y768849D01*
D02*
G37*
G36*
X585495Y730486D02*
X583705D01*
X582051Y729801D01*
X581839Y729589D01*
X580764Y729516D01*
X580473Y729515D01*
X580338Y729458D01*
X479986D01*
X479857Y729514D01*
X478732Y729538D01*
X478481Y729557D01*
X478379Y729659D01*
X476725Y730344D01*
X474935D01*
X473281Y729659D01*
X472015Y728393D01*
X471330Y726739D01*
Y724949D01*
X472015Y723295D01*
X473281Y722029D01*
X474935Y721344D01*
X476725D01*
X478379Y722029D01*
X478736Y722386D01*
X479777Y722456D01*
X480068Y722458D01*
X480112Y722476D01*
X480157Y722460D01*
X480267Y722514D01*
X580331D01*
X580463Y722458D01*
X581086Y722450D01*
X581539Y722430D01*
X581820Y722402D01*
X582051Y722171D01*
X583705Y721486D01*
X585495D01*
X587149Y722171D01*
X588415Y723437D01*
X589100Y725091D01*
Y726881D01*
X588415Y728535D01*
X587149Y729801D01*
X585495Y730486D01*
D02*
G37*
G36*
X455555Y723320D02*
X453765D01*
X452111Y722635D01*
X450850Y721374D01*
X449589Y722635D01*
X447935Y723320D01*
X446145D01*
X444491Y722635D01*
X443225Y721369D01*
X442540Y719715D01*
Y717925D01*
X443225Y716271D01*
X444491Y715005D01*
X446145Y714320D01*
X447935D01*
X449589Y715005D01*
X450850Y716266D01*
X452111Y715005D01*
X453765Y714320D01*
X455555D01*
X457209Y715005D01*
X458475Y716271D01*
X459160Y717925D01*
Y719715D01*
X458475Y721369D01*
X457209Y722635D01*
X455555Y723320D01*
D02*
G37*
G36*
X382320Y734534D02*
X380520D01*
X378782Y734068D01*
X377224Y733168D01*
X375951Y731896D01*
X375052Y730338D01*
X374586Y728600D01*
Y726800D01*
X375052Y725062D01*
X375951Y723504D01*
X377224Y722231D01*
X378782Y721332D01*
X380520Y720866D01*
X382320D01*
X384058Y721332D01*
X385616Y722231D01*
X386889Y723504D01*
X387788Y725062D01*
X388254Y726800D01*
Y728600D01*
X387788Y730338D01*
X386889Y731896D01*
X385616Y733168D01*
X384058Y734068D01*
X382320Y734534D01*
D02*
G37*
G36*
X288980D02*
X287180D01*
X285442Y734068D01*
X283884Y733168D01*
X282611Y731896D01*
X281712Y730338D01*
X281246Y728600D01*
Y726800D01*
X281712Y725062D01*
X282611Y723504D01*
X283884Y722231D01*
X285442Y721332D01*
X287180Y720866D01*
X288980D01*
X290718Y721332D01*
X292276Y722231D01*
X293549Y723504D01*
X294448Y725062D01*
X294914Y726800D01*
Y728600D01*
X294448Y730338D01*
X293549Y731896D01*
X292276Y733168D01*
X290718Y734068D01*
X288980Y734534D01*
D02*
G37*
G36*
X195640D02*
X193840D01*
X192102Y734068D01*
X190544Y733168D01*
X189271Y731896D01*
X188372Y730338D01*
X187906Y728600D01*
Y726800D01*
X188372Y725062D01*
X189271Y723504D01*
X190544Y722231D01*
X192102Y721332D01*
X193840Y720866D01*
X195640D01*
X197378Y721332D01*
X198936Y722231D01*
X200209Y723504D01*
X201108Y725062D01*
X201574Y726800D01*
Y728600D01*
X201108Y730338D01*
X200209Y731896D01*
X198936Y733168D01*
X197378Y734068D01*
X195640Y734534D01*
D02*
G37*
G36*
X102300D02*
X100500D01*
X98762Y734068D01*
X97204Y733168D01*
X95931Y731896D01*
X95032Y730338D01*
X94566Y728600D01*
Y726800D01*
X95032Y725062D01*
X95931Y723504D01*
X97204Y722231D01*
X98762Y721332D01*
X100500Y720866D01*
X102300D01*
X104038Y721332D01*
X105596Y722231D01*
X106869Y723504D01*
X107768Y725062D01*
X108234Y726800D01*
Y728600D01*
X107768Y730338D01*
X106869Y731896D01*
X105596Y733168D01*
X104038Y734068D01*
X102300Y734534D01*
D02*
G37*
G36*
X735873Y723320D02*
X734083D01*
X732429Y722635D01*
X731163Y721369D01*
X730478Y719715D01*
Y717925D01*
X731163Y716271D01*
X732429Y715005D01*
X734083Y714320D01*
X735873D01*
X737527Y715005D01*
X738793Y716271D01*
X739478Y717925D01*
Y719715D01*
X738793Y721369D01*
X737527Y722635D01*
X735873Y723320D01*
D02*
G37*
G36*
X701650D02*
X699860D01*
X698206Y722635D01*
X696940Y721369D01*
X696255Y719715D01*
Y717925D01*
X696940Y716271D01*
X698206Y715005D01*
X699860Y714320D01*
X701650D01*
X703304Y715005D01*
X704570Y716271D01*
X705255Y717925D01*
Y719715D01*
X704570Y721369D01*
X703304Y722635D01*
X701650Y723320D01*
D02*
G37*
G36*
X682650D02*
X680860D01*
X679206Y722635D01*
X677940Y721369D01*
X677255Y719715D01*
Y717925D01*
X677940Y716271D01*
X679206Y715005D01*
X680860Y714320D01*
X682650D01*
X684304Y715005D01*
X685570Y716271D01*
X686255Y717925D01*
Y719715D01*
X685570Y721369D01*
X684304Y722635D01*
X682650Y723320D01*
D02*
G37*
G36*
X667426D02*
X665636D01*
X663982Y722635D01*
X662716Y721369D01*
X662031Y719715D01*
Y717925D01*
X662716Y716271D01*
X663982Y715005D01*
X665636Y714320D01*
X667426D01*
X669080Y715005D01*
X670346Y716271D01*
X671031Y717925D01*
Y719715D01*
X670346Y721369D01*
X669080Y722635D01*
X667426Y723320D01*
D02*
G37*
G36*
X597045D02*
X595255D01*
X593601Y722635D01*
X592335Y721369D01*
X591650Y719715D01*
Y717925D01*
X592335Y716271D01*
X593601Y715005D01*
X595255Y714320D01*
X597045D01*
X598699Y715005D01*
X599965Y716271D01*
X600650Y717925D01*
Y719715D01*
X599965Y721369D01*
X598699Y722635D01*
X597045Y723320D01*
D02*
G37*
G36*
X427945D02*
X426155D01*
X424501Y722635D01*
X423235Y721369D01*
X422550Y719715D01*
Y717925D01*
X423235Y716271D01*
X424501Y715005D01*
X426155Y714320D01*
X427945D01*
X429599Y715005D01*
X430865Y716271D01*
X431550Y717925D01*
Y719715D01*
X430865Y721369D01*
X429599Y722635D01*
X427945Y723320D01*
D02*
G37*
G36*
X772160Y801724D02*
X543560D01*
X542412Y801248D01*
X539872Y798708D01*
X539396Y797560D01*
Y746760D01*
X539872Y745612D01*
X541020Y745136D01*
X576580D01*
X577728Y745612D01*
X578204Y746760D01*
Y771488D01*
X579793Y773076D01*
X746087D01*
X747676Y771488D01*
Y713740D01*
X748152Y712592D01*
X750692Y710052D01*
X751840Y709576D01*
X772160D01*
X773308Y710052D01*
X775848Y712592D01*
X776324Y713740D01*
X776324Y797560D01*
X775848Y798708D01*
X773308Y801248D01*
X772160Y801724D01*
D02*
G37*
G36*
X395020Y721834D02*
X393220D01*
X391482Y721368D01*
X389924Y720469D01*
X388651Y719196D01*
X387752Y717638D01*
X387286Y715900D01*
Y714100D01*
X387752Y712362D01*
X388651Y710804D01*
X389924Y709531D01*
X391482Y708632D01*
X393220Y708166D01*
X395020D01*
X396758Y708632D01*
X398316Y709531D01*
X399589Y710804D01*
X400488Y712362D01*
X400954Y714100D01*
Y715900D01*
X400488Y717638D01*
X399589Y719196D01*
X398316Y720469D01*
X396758Y721368D01*
X395020Y721834D01*
D02*
G37*
G36*
X301680D02*
X299880D01*
X298142Y721368D01*
X296584Y720469D01*
X295311Y719196D01*
X294412Y717638D01*
X293946Y715900D01*
Y714100D01*
X294412Y712362D01*
X295311Y710804D01*
X296584Y709531D01*
X298142Y708632D01*
X299880Y708166D01*
X301680D01*
X303418Y708632D01*
X304976Y709531D01*
X306249Y710804D01*
X307148Y712362D01*
X307614Y714100D01*
Y715900D01*
X307148Y717638D01*
X306249Y719196D01*
X304976Y720469D01*
X303418Y721368D01*
X301680Y721834D01*
D02*
G37*
G36*
X208340D02*
X206540D01*
X204802Y721368D01*
X203244Y720469D01*
X201971Y719196D01*
X201072Y717638D01*
X200606Y715900D01*
Y714100D01*
X201072Y712362D01*
X201971Y710804D01*
X203244Y709531D01*
X204802Y708632D01*
X206540Y708166D01*
X208340D01*
X210078Y708632D01*
X211636Y709531D01*
X212909Y710804D01*
X213808Y712362D01*
X214274Y714100D01*
Y715900D01*
X213808Y717638D01*
X212909Y719196D01*
X211636Y720469D01*
X210078Y721368D01*
X208340Y721834D01*
D02*
G37*
G36*
X115000D02*
X113200D01*
X111462Y721368D01*
X109904Y720469D01*
X108631Y719196D01*
X107732Y717638D01*
X107266Y715900D01*
Y714100D01*
X107732Y712362D01*
X108631Y710804D01*
X109904Y709531D01*
X111462Y708632D01*
X113200Y708166D01*
X115000D01*
X116738Y708632D01*
X118296Y709531D01*
X119569Y710804D01*
X120468Y712362D01*
X120934Y714100D01*
Y715900D01*
X120468Y717638D01*
X119569Y719196D01*
X118296Y720469D01*
X116738Y721368D01*
X115000Y721834D01*
D02*
G37*
G36*
X383920Y709223D02*
Y704800D01*
X388343D01*
X388254Y705131D01*
X387289Y706803D01*
X385923Y708169D01*
X384251Y709134D01*
X383920Y709223D01*
D02*
G37*
G36*
X378920D02*
X378589Y709134D01*
X376917Y708169D01*
X375551Y706803D01*
X374586Y705131D01*
X374497Y704800D01*
X378920D01*
Y709223D01*
D02*
G37*
G36*
X290580D02*
Y704800D01*
X295003D01*
X294914Y705131D01*
X293949Y706803D01*
X292583Y708169D01*
X290911Y709134D01*
X290580Y709223D01*
D02*
G37*
G36*
X285580D02*
X285249Y709134D01*
X283577Y708169D01*
X282211Y706803D01*
X281246Y705131D01*
X281157Y704800D01*
X285580D01*
Y709223D01*
D02*
G37*
G36*
X197240D02*
Y704800D01*
X201663D01*
X201574Y705131D01*
X200609Y706803D01*
X199243Y708169D01*
X197571Y709134D01*
X197240Y709223D01*
D02*
G37*
G36*
X192240D02*
X191909Y709134D01*
X190237Y708169D01*
X188871Y706803D01*
X187906Y705131D01*
X187817Y704800D01*
X192240D01*
Y709223D01*
D02*
G37*
G36*
X103900D02*
Y704800D01*
X108323D01*
X108234Y705131D01*
X107269Y706803D01*
X105903Y708169D01*
X104231Y709134D01*
X103900Y709223D01*
D02*
G37*
G36*
X98900D02*
X98569Y709134D01*
X96897Y708169D01*
X95531Y706803D01*
X94566Y705131D01*
X94477Y704800D01*
X98900D01*
Y709223D01*
D02*
G37*
G36*
X388343Y699800D02*
X374497D01*
X374586Y699469D01*
X375551Y697797D01*
X376257Y697091D01*
X375731Y695821D01*
X293769D01*
X293243Y697091D01*
X293949Y697797D01*
X294914Y699469D01*
X295003Y699800D01*
X281157D01*
X281246Y699469D01*
X282211Y697797D01*
X282917Y697091D01*
X282391Y695821D01*
X200429D01*
X199903Y697091D01*
X200609Y697797D01*
X201574Y699469D01*
X201663Y699800D01*
X187817D01*
X187906Y699469D01*
X188871Y697797D01*
X189577Y697091D01*
X189051Y695821D01*
X107089D01*
X106563Y697091D01*
X107269Y697797D01*
X108234Y699469D01*
X108323Y699800D01*
X94477D01*
X94566Y699469D01*
X95531Y697797D01*
X96264Y697064D01*
X96271Y696929D01*
X95814Y695718D01*
X95001Y695557D01*
X93874Y694804D01*
X86245Y687175D01*
X85493Y686049D01*
X85228Y684720D01*
Y651363D01*
X85172Y651241D01*
X85156Y650793D01*
X85115Y650425D01*
X85048Y650076D01*
X84956Y649744D01*
X84839Y649426D01*
X84695Y649120D01*
X84524Y648822D01*
X84324Y648532D01*
X84093Y648248D01*
X83788Y647926D01*
X83680Y647645D01*
X83231Y647196D01*
X82332Y645638D01*
X81866Y643900D01*
Y642100D01*
X82332Y640362D01*
X83231Y638804D01*
X84504Y637531D01*
X86062Y636632D01*
X87800Y636166D01*
X89600D01*
X91338Y636632D01*
X92896Y637531D01*
X94169Y638804D01*
X95068Y640362D01*
X95534Y642100D01*
Y643900D01*
X95068Y645638D01*
X94169Y647196D01*
X93720Y647645D01*
X93612Y647926D01*
X93307Y648248D01*
X93076Y648532D01*
X92876Y648822D01*
X92705Y649120D01*
X92561Y649426D01*
X92444Y649743D01*
X92352Y650076D01*
X92285Y650425D01*
X92244Y650793D01*
X92228Y651241D01*
X92172Y651363D01*
Y683282D01*
X97767Y688877D01*
X188806D01*
X188958Y688448D01*
X189017Y687607D01*
X188085Y686985D01*
X179585Y678485D01*
X178833Y677359D01*
X178568Y676030D01*
Y651363D01*
X178512Y651241D01*
X178496Y650793D01*
X178455Y650425D01*
X178388Y650076D01*
X178296Y649744D01*
X178179Y649426D01*
X178035Y649120D01*
X177864Y648822D01*
X177664Y648532D01*
X177433Y648248D01*
X177128Y647926D01*
X177020Y647645D01*
X176571Y647196D01*
X175672Y645638D01*
X175206Y643900D01*
Y642100D01*
X175672Y640362D01*
X176571Y638804D01*
X177844Y637531D01*
X179402Y636632D01*
X181140Y636166D01*
X182940D01*
X184678Y636632D01*
X186236Y637531D01*
X187509Y638804D01*
X188408Y640362D01*
X188874Y642100D01*
Y643900D01*
X188408Y645638D01*
X187509Y647196D01*
X187060Y647645D01*
X186952Y647926D01*
X186647Y648248D01*
X186416Y648532D01*
X186216Y648822D01*
X186045Y649120D01*
X185901Y649426D01*
X185784Y649743D01*
X185692Y650076D01*
X185625Y650425D01*
X185584Y650793D01*
X185567Y651241D01*
X185512Y651363D01*
Y674592D01*
X191978Y681058D01*
X283494D01*
X283619Y679788D01*
X282624Y679591D01*
X281498Y678838D01*
X272925Y670265D01*
X272173Y669139D01*
X271908Y667810D01*
Y651363D01*
X271852Y651241D01*
X271836Y650793D01*
X271795Y650425D01*
X271728Y650076D01*
X271636Y649744D01*
X271519Y649426D01*
X271375Y649120D01*
X271204Y648822D01*
X271004Y648532D01*
X270773Y648248D01*
X270468Y647926D01*
X270360Y647645D01*
X269911Y647196D01*
X269012Y645638D01*
X268546Y643900D01*
Y642100D01*
X269012Y640362D01*
X269911Y638804D01*
X271184Y637531D01*
X272742Y636632D01*
X274480Y636166D01*
X276280D01*
X278018Y636632D01*
X279576Y637531D01*
X280849Y638804D01*
X281748Y640362D01*
X282214Y642100D01*
Y643900D01*
X281748Y645638D01*
X280849Y647196D01*
X280400Y647645D01*
X280292Y647926D01*
X279987Y648248D01*
X279755Y648532D01*
X279556Y648822D01*
X279385Y649120D01*
X279241Y649426D01*
X279124Y649743D01*
X279032Y650076D01*
X278965Y650425D01*
X278924Y650793D01*
X278908Y651241D01*
X278852Y651363D01*
Y666372D01*
X285391Y672911D01*
X484383D01*
X484609Y672714D01*
X484942Y671641D01*
X484808Y671549D01*
X484703Y671549D01*
X484568Y671492D01*
X376800D01*
X375471Y671227D01*
X374345Y670475D01*
X366265Y662395D01*
X365513Y661269D01*
X365248Y659940D01*
Y651363D01*
X365192Y651241D01*
X365176Y650793D01*
X365135Y650425D01*
X365068Y650076D01*
X364976Y649744D01*
X364859Y649426D01*
X364715Y649120D01*
X364544Y648822D01*
X364344Y648532D01*
X364113Y648248D01*
X363808Y647926D01*
X363700Y647645D01*
X363251Y647196D01*
X362352Y645638D01*
X361886Y643900D01*
Y642100D01*
X362352Y640362D01*
X363251Y638804D01*
X364524Y637531D01*
X366082Y636632D01*
X367820Y636166D01*
X369620D01*
X371358Y636632D01*
X372916Y637531D01*
X374189Y638804D01*
X375088Y640362D01*
X375554Y642100D01*
Y643900D01*
X375088Y645638D01*
X374189Y647196D01*
X373740Y647645D01*
X373632Y647926D01*
X373327Y648248D01*
X373096Y648532D01*
X372896Y648822D01*
X372725Y649120D01*
X372581Y649426D01*
X372464Y649743D01*
X372372Y650076D01*
X372305Y650425D01*
X372264Y650793D01*
X372248Y651241D01*
X372192Y651363D01*
Y658502D01*
X378238Y664548D01*
X484561D01*
X484693Y664492D01*
X485316Y664484D01*
X485769Y664464D01*
X486050Y664436D01*
X486281Y664205D01*
X487935Y663520D01*
X489725D01*
X491379Y664205D01*
X492645Y665471D01*
X493330Y667125D01*
Y668915D01*
X492645Y670569D01*
X491573Y671641D01*
X491770Y672557D01*
X491962Y672911D01*
X497514D01*
X497646Y672855D01*
X498269Y672847D01*
X498722Y672827D01*
X499003Y672799D01*
X499234Y672568D01*
X500888Y671883D01*
X502678D01*
X504332Y672568D01*
X505598Y673834D01*
X506283Y675488D01*
Y677278D01*
X505598Y678932D01*
X504742Y679788D01*
X505268Y681058D01*
X510560D01*
X510693Y681002D01*
X511316Y680994D01*
X511769Y680974D01*
X512050Y680946D01*
X512281Y680715D01*
X513935Y680030D01*
X515725D01*
X517379Y680715D01*
X518645Y681981D01*
X519330Y683635D01*
Y685425D01*
X518645Y687079D01*
X518116Y687607D01*
X518643Y688877D01*
X523560D01*
X523693Y688821D01*
X524316Y688813D01*
X524769Y688793D01*
X525050Y688765D01*
X525281Y688534D01*
X526935Y687849D01*
X528725D01*
X530379Y688534D01*
X531645Y689800D01*
X532330Y691454D01*
Y693244D01*
X531645Y694898D01*
X530379Y696164D01*
X528725Y696849D01*
X526935D01*
X525281Y696164D01*
X525070Y695953D01*
X523993Y695879D01*
X523703Y695878D01*
X523568Y695821D01*
X387109D01*
X386583Y697091D01*
X387289Y697797D01*
X388254Y699469D01*
X388343Y699800D01*
D02*
G37*
G36*
X620655Y669980D02*
X618865D01*
X617211Y669295D01*
X615945Y668029D01*
X615260Y666375D01*
Y664585D01*
X615945Y662931D01*
X617211Y661665D01*
X618865Y660980D01*
X620655D01*
X622309Y661665D01*
X623575Y662931D01*
X624260Y664585D01*
Y666375D01*
X623575Y668029D01*
X622309Y669295D01*
X620655Y669980D01*
D02*
G37*
G36*
X613035Y662732D02*
X611245D01*
X609591Y662047D01*
X608325Y660781D01*
X607640Y659127D01*
Y657337D01*
X608325Y655683D01*
X609061Y654947D01*
X608993Y654588D01*
X608894Y654313D01*
X608571Y653868D01*
X607292Y653832D01*
X607069Y654055D01*
X605415Y654740D01*
X603625D01*
X601971Y654055D01*
X600705Y652789D01*
X600020Y651135D01*
Y649345D01*
X600705Y647691D01*
X601971Y646425D01*
X603625Y645740D01*
X605415D01*
X607069Y646425D01*
X607250Y646606D01*
X608324Y646675D01*
X608618Y646677D01*
X608753Y646734D01*
X716914D01*
X717046Y646677D01*
X717048Y646678D01*
X717049Y646677D01*
X717672Y646669D01*
X718120Y646648D01*
X718404Y646619D01*
X718666Y646356D01*
X720320Y645671D01*
X722111D01*
X723764Y646356D01*
X725030Y647622D01*
X725715Y649276D01*
Y651066D01*
X725030Y652720D01*
X723764Y653986D01*
X722111Y654671D01*
X720320D01*
X718666Y653986D01*
X718486Y653805D01*
X717411Y653736D01*
X717118Y653734D01*
X716983Y653677D01*
X615745D01*
X615219Y654947D01*
X615955Y655683D01*
X616640Y657337D01*
Y659127D01*
X615955Y660781D01*
X614689Y662047D01*
X613035Y662732D01*
D02*
G37*
G36*
X382320Y662534D02*
X380520D01*
X378782Y662068D01*
X377224Y661169D01*
X375951Y659896D01*
X375052Y658338D01*
X374586Y656600D01*
Y654800D01*
X375052Y653062D01*
X375951Y651504D01*
X377224Y650231D01*
X378782Y649332D01*
X380520Y648866D01*
X382320D01*
X384058Y649332D01*
X385616Y650231D01*
X386889Y651504D01*
X387788Y653062D01*
X388254Y654800D01*
Y656600D01*
X387788Y658338D01*
X386889Y659896D01*
X385616Y661169D01*
X384058Y662068D01*
X382320Y662534D01*
D02*
G37*
G36*
X288980D02*
X287180D01*
X285442Y662068D01*
X283884Y661169D01*
X282611Y659896D01*
X281712Y658338D01*
X281246Y656600D01*
Y654800D01*
X281712Y653062D01*
X282611Y651504D01*
X283884Y650231D01*
X285442Y649332D01*
X287180Y648866D01*
X288980D01*
X290718Y649332D01*
X292276Y650231D01*
X293549Y651504D01*
X294448Y653062D01*
X294914Y654800D01*
Y656600D01*
X294448Y658338D01*
X293549Y659896D01*
X292276Y661169D01*
X290718Y662068D01*
X288980Y662534D01*
D02*
G37*
G36*
X195640D02*
X193840D01*
X192102Y662068D01*
X190544Y661169D01*
X189271Y659896D01*
X188372Y658338D01*
X187906Y656600D01*
Y654800D01*
X188372Y653062D01*
X189271Y651504D01*
X190544Y650231D01*
X192102Y649332D01*
X193840Y648866D01*
X195640D01*
X197378Y649332D01*
X198936Y650231D01*
X200209Y651504D01*
X201108Y653062D01*
X201574Y654800D01*
Y656600D01*
X201108Y658338D01*
X200209Y659896D01*
X198936Y661169D01*
X197378Y662068D01*
X195640Y662534D01*
D02*
G37*
G36*
X102300D02*
X100500D01*
X98762Y662068D01*
X97204Y661169D01*
X95931Y659896D01*
X95032Y658338D01*
X94566Y656600D01*
Y654800D01*
X95032Y653062D01*
X95931Y651504D01*
X97204Y650231D01*
X98762Y649332D01*
X100500Y648866D01*
X102300D01*
X104038Y649332D01*
X105596Y650231D01*
X106869Y651504D01*
X107768Y653062D01*
X108234Y654800D01*
Y656600D01*
X107768Y658338D01*
X106869Y659896D01*
X105596Y661169D01*
X104038Y662068D01*
X102300Y662534D01*
D02*
G37*
G36*
X395020Y649834D02*
X393220D01*
X391482Y649368D01*
X389924Y648468D01*
X388651Y647196D01*
X387752Y645638D01*
X387286Y643900D01*
Y642100D01*
X387752Y640362D01*
X388651Y638804D01*
X389924Y637531D01*
X391482Y636632D01*
X393220Y636166D01*
X395020D01*
X396758Y636632D01*
X398316Y637531D01*
X399589Y638804D01*
X400488Y640362D01*
X400954Y642100D01*
Y643900D01*
X400488Y645638D01*
X399589Y647196D01*
X398316Y648468D01*
X396758Y649368D01*
X395020Y649834D01*
D02*
G37*
G36*
X301680D02*
X299880D01*
X298142Y649368D01*
X296584Y648468D01*
X295311Y647196D01*
X294412Y645638D01*
X293946Y643900D01*
Y642100D01*
X294412Y640362D01*
X295311Y638804D01*
X296584Y637531D01*
X298142Y636632D01*
X299880Y636166D01*
X301680D01*
X303418Y636632D01*
X304976Y637531D01*
X306249Y638804D01*
X307148Y640362D01*
X307614Y642100D01*
Y643900D01*
X307148Y645638D01*
X306249Y647196D01*
X304976Y648468D01*
X303418Y649368D01*
X301680Y649834D01*
D02*
G37*
G36*
X208340D02*
X206540D01*
X204802Y649368D01*
X203244Y648468D01*
X201971Y647196D01*
X201072Y645638D01*
X200606Y643900D01*
Y642100D01*
X201072Y640362D01*
X201971Y638804D01*
X203244Y637531D01*
X204802Y636632D01*
X206540Y636166D01*
X208340D01*
X210078Y636632D01*
X211636Y637531D01*
X212909Y638804D01*
X213808Y640362D01*
X214274Y642100D01*
Y643900D01*
X213808Y645638D01*
X212909Y647196D01*
X211636Y648468D01*
X210078Y649368D01*
X208340Y649834D01*
D02*
G37*
G36*
X115000D02*
X113200D01*
X111462Y649368D01*
X109904Y648468D01*
X108631Y647196D01*
X107732Y645638D01*
X107266Y643900D01*
Y642100D01*
X107732Y640362D01*
X108631Y638804D01*
X109904Y637531D01*
X111462Y636632D01*
X113200Y636166D01*
X115000D01*
X116738Y636632D01*
X118296Y637531D01*
X119569Y638804D01*
X120468Y640362D01*
X120934Y642100D01*
Y643900D01*
X120468Y645638D01*
X119569Y647196D01*
X118296Y648468D01*
X116738Y649368D01*
X115000Y649834D01*
D02*
G37*
G36*
X628275Y636960D02*
X626485D01*
X624831Y636275D01*
X624368Y635812D01*
X623349Y635737D01*
X623063Y635735D01*
X622981Y635700D01*
X622896Y635725D01*
X622811Y635678D01*
X583354D01*
X583222Y635734D01*
X582599Y635742D01*
X582146Y635762D01*
X581865Y635790D01*
X581634Y636021D01*
X579980Y636706D01*
X578190D01*
X576536Y636021D01*
X575270Y634755D01*
X574585Y633101D01*
Y631311D01*
X575270Y629657D01*
X576536Y628391D01*
X578190Y627706D01*
X579980D01*
X581634Y628391D01*
X581845Y628603D01*
X582921Y628676D01*
X583212Y628677D01*
X583347Y628734D01*
X623351D01*
X623485Y628677D01*
X624115Y628673D01*
X624778Y628651D01*
X624829Y628647D01*
X624831Y628645D01*
X626485Y627960D01*
X628275D01*
X629929Y628645D01*
X630000Y628716D01*
X631085Y628786D01*
X631378Y628787D01*
X631513Y628844D01*
X716920D01*
X717029Y628790D01*
X717062Y628801D01*
X717094Y628787D01*
X717973Y628767D01*
X718339Y628737D01*
X718428Y628725D01*
X718445Y628722D01*
X718811Y628356D01*
X720465Y627671D01*
X722255D01*
X723909Y628356D01*
X725175Y629622D01*
X725860Y631276D01*
Y633066D01*
X725175Y634720D01*
X723909Y635986D01*
X722255Y636671D01*
X720465D01*
X718811Y635986D01*
X718740Y635915D01*
X717655Y635845D01*
X717362Y635844D01*
X717226Y635787D01*
X631820D01*
X631711Y635841D01*
X631678Y635830D01*
X631646Y635844D01*
X630767Y635863D01*
X630401Y635893D01*
X630312Y635906D01*
X630295Y635909D01*
X629929Y636275D01*
X628275Y636960D01*
D02*
G37*
G36*
X447945Y643310D02*
X446155D01*
X444501Y642625D01*
X443235Y641359D01*
X442550Y639705D01*
Y637915D01*
X443235Y636261D01*
X444501Y634995D01*
X446155Y634310D01*
X447945D01*
X449599Y634995D01*
X450865Y636261D01*
X451550Y637915D01*
Y639705D01*
X450865Y641359D01*
X449599Y642625D01*
X447945Y643310D01*
D02*
G37*
G36*
X383920Y637223D02*
Y632800D01*
X388343D01*
X388254Y633131D01*
X387289Y634803D01*
X385923Y636169D01*
X384251Y637134D01*
X383920Y637223D01*
D02*
G37*
G36*
X378920D02*
X378589Y637134D01*
X376917Y636169D01*
X375551Y634803D01*
X374586Y633131D01*
X374497Y632800D01*
X378920D01*
Y637223D01*
D02*
G37*
G36*
X290580D02*
Y632800D01*
X295003D01*
X294914Y633131D01*
X293949Y634803D01*
X292583Y636169D01*
X290911Y637134D01*
X290580Y637223D01*
D02*
G37*
G36*
X285580D02*
X285249Y637134D01*
X283577Y636169D01*
X282211Y634803D01*
X281246Y633131D01*
X281157Y632800D01*
X285580D01*
Y637223D01*
D02*
G37*
G36*
X197240D02*
Y632800D01*
X201663D01*
X201574Y633131D01*
X200609Y634803D01*
X199243Y636169D01*
X197571Y637134D01*
X197240Y637223D01*
D02*
G37*
G36*
X192240D02*
X191909Y637134D01*
X190237Y636169D01*
X188871Y634803D01*
X187906Y633131D01*
X187817Y632800D01*
X192240D01*
Y637223D01*
D02*
G37*
G36*
X103900D02*
Y632800D01*
X108323D01*
X108234Y633131D01*
X107269Y634803D01*
X105903Y636169D01*
X104231Y637134D01*
X103900Y637223D01*
D02*
G37*
G36*
X98900D02*
X98569Y637134D01*
X96897Y636169D01*
X95531Y634803D01*
X94566Y633131D01*
X94477Y632800D01*
X98900D01*
Y637223D01*
D02*
G37*
G36*
X463725Y636960D02*
X461935D01*
X460281Y636275D01*
X459015Y635009D01*
X458330Y633355D01*
Y631565D01*
X459015Y629911D01*
X460281Y628645D01*
X461935Y627960D01*
X463725D01*
X465379Y628645D01*
X466645Y629911D01*
X467330Y631565D01*
Y633355D01*
X466645Y635009D01*
X465379Y636275D01*
X463725Y636960D01*
D02*
G37*
G36*
X388343Y627800D02*
X374497D01*
X374586Y627469D01*
X375551Y625797D01*
X376257Y625091D01*
X375731Y623821D01*
X293769D01*
X293243Y625091D01*
X293949Y625797D01*
X294914Y627469D01*
X295003Y627800D01*
X281157D01*
X281246Y627469D01*
X282211Y625797D01*
X282917Y625091D01*
X282391Y623821D01*
X200429D01*
X199903Y625091D01*
X200609Y625797D01*
X201574Y627469D01*
X201663Y627800D01*
X187817D01*
X187906Y627469D01*
X188871Y625797D01*
X189577Y625091D01*
X189051Y623821D01*
X107089D01*
X106563Y625091D01*
X107269Y625797D01*
X108234Y627469D01*
X108323Y627800D01*
X94477D01*
X94566Y627469D01*
X95531Y625797D01*
X96264Y625064D01*
X96271Y624929D01*
X95814Y623718D01*
X95001Y623557D01*
X93874Y622804D01*
X86245Y615175D01*
X85493Y614049D01*
X85228Y612720D01*
Y579363D01*
X85172Y579241D01*
X85156Y578793D01*
X85115Y578425D01*
X85048Y578076D01*
X84956Y577744D01*
X84839Y577426D01*
X84695Y577120D01*
X84524Y576822D01*
X84324Y576532D01*
X84093Y576248D01*
X83788Y575926D01*
X83680Y575645D01*
X83231Y575196D01*
X82332Y573638D01*
X81866Y571900D01*
Y570100D01*
X82332Y568362D01*
X83231Y566804D01*
X84504Y565531D01*
X86062Y564632D01*
X87800Y564166D01*
X89600D01*
X91338Y564632D01*
X92896Y565531D01*
X94169Y566804D01*
X95068Y568362D01*
X95534Y570100D01*
Y571900D01*
X95068Y573638D01*
X94169Y575196D01*
X93720Y575645D01*
X93612Y575926D01*
X93307Y576248D01*
X93076Y576532D01*
X92876Y576822D01*
X92705Y577120D01*
X92561Y577426D01*
X92444Y577743D01*
X92352Y578076D01*
X92285Y578425D01*
X92244Y578793D01*
X92228Y579241D01*
X92172Y579363D01*
Y611282D01*
X97767Y616878D01*
X188806D01*
X188958Y616448D01*
X189017Y615607D01*
X188085Y614985D01*
X179585Y606485D01*
X178833Y605359D01*
X178568Y604030D01*
Y579363D01*
X178512Y579241D01*
X178496Y578793D01*
X178455Y578425D01*
X178388Y578076D01*
X178296Y577744D01*
X178179Y577426D01*
X178035Y577120D01*
X177864Y576822D01*
X177664Y576532D01*
X177433Y576248D01*
X177128Y575926D01*
X177020Y575645D01*
X176571Y575196D01*
X175672Y573638D01*
X175206Y571900D01*
Y570100D01*
X175672Y568362D01*
X176571Y566804D01*
X177844Y565531D01*
X179402Y564632D01*
X181140Y564166D01*
X182940D01*
X184678Y564632D01*
X186236Y565531D01*
X187509Y566804D01*
X188408Y568362D01*
X188874Y570100D01*
Y571900D01*
X188408Y573638D01*
X187509Y575196D01*
X187060Y575645D01*
X186952Y575926D01*
X186647Y576248D01*
X186416Y576532D01*
X186216Y576822D01*
X186045Y577120D01*
X185901Y577426D01*
X185784Y577743D01*
X185692Y578076D01*
X185625Y578425D01*
X185584Y578793D01*
X185567Y579241D01*
X185512Y579363D01*
Y602592D01*
X191978Y609058D01*
X283494D01*
X283619Y607788D01*
X282624Y607590D01*
X281498Y606838D01*
X272925Y598265D01*
X272173Y597139D01*
X271908Y595810D01*
Y579363D01*
X271852Y579241D01*
X271836Y578793D01*
X271795Y578425D01*
X271728Y578076D01*
X271636Y577744D01*
X271519Y577426D01*
X271375Y577120D01*
X271204Y576822D01*
X271004Y576532D01*
X270773Y576248D01*
X270468Y575926D01*
X270360Y575645D01*
X269911Y575196D01*
X269012Y573638D01*
X268546Y571900D01*
Y570100D01*
X269012Y568362D01*
X269911Y566804D01*
X271184Y565531D01*
X272742Y564632D01*
X274480Y564166D01*
X276280D01*
X278018Y564632D01*
X279576Y565531D01*
X280849Y566804D01*
X281748Y568362D01*
X282214Y570100D01*
Y571900D01*
X281748Y573638D01*
X280849Y575196D01*
X280400Y575645D01*
X280292Y575926D01*
X279987Y576248D01*
X279755Y576532D01*
X279556Y576822D01*
X279385Y577120D01*
X279241Y577426D01*
X279124Y577743D01*
X279032Y578076D01*
X278965Y578425D01*
X278924Y578793D01*
X278908Y579241D01*
X278852Y579363D01*
Y594372D01*
X285391Y600911D01*
X484383D01*
X484609Y600714D01*
X484942Y599641D01*
X484808Y599549D01*
X484703Y599549D01*
X484568Y599492D01*
X376800D01*
X375471Y599227D01*
X374345Y598475D01*
X366265Y590395D01*
X365513Y589269D01*
X365248Y587940D01*
Y579363D01*
X365192Y579241D01*
X365176Y578793D01*
X365135Y578425D01*
X365068Y578076D01*
X364976Y577744D01*
X364859Y577426D01*
X364715Y577120D01*
X364544Y576822D01*
X364344Y576532D01*
X364113Y576248D01*
X363808Y575926D01*
X363700Y575645D01*
X363251Y575196D01*
X362352Y573638D01*
X361886Y571900D01*
Y570100D01*
X362352Y568362D01*
X363251Y566804D01*
X364524Y565531D01*
X366082Y564632D01*
X367820Y564166D01*
X369620D01*
X371358Y564632D01*
X372916Y565531D01*
X374189Y566804D01*
X375088Y568362D01*
X375554Y570100D01*
Y571900D01*
X375088Y573638D01*
X374189Y575196D01*
X373740Y575645D01*
X373632Y575926D01*
X373327Y576248D01*
X373096Y576532D01*
X372896Y576822D01*
X372725Y577120D01*
X372581Y577426D01*
X372464Y577743D01*
X372372Y578076D01*
X372305Y578425D01*
X372264Y578793D01*
X372248Y579241D01*
X372192Y579363D01*
Y586502D01*
X378238Y592548D01*
X484561D01*
X484693Y592492D01*
X485316Y592484D01*
X485769Y592464D01*
X486050Y592436D01*
X486281Y592205D01*
X487935Y591520D01*
X489725D01*
X491379Y592205D01*
X492645Y593471D01*
X493330Y595125D01*
Y596915D01*
X492645Y598569D01*
X491573Y599641D01*
X491770Y600557D01*
X491962Y600911D01*
X497514D01*
X497646Y600855D01*
X498269Y600847D01*
X498722Y600827D01*
X499003Y600799D01*
X499234Y600568D01*
X500888Y599883D01*
X502678D01*
X504332Y600568D01*
X505598Y601834D01*
X506283Y603488D01*
Y605278D01*
X505598Y606932D01*
X504742Y607788D01*
X505268Y609058D01*
X510560D01*
X510693Y609002D01*
X511316Y608994D01*
X511769Y608974D01*
X512050Y608946D01*
X512281Y608715D01*
X513935Y608030D01*
X515725D01*
X517379Y608715D01*
X518645Y609981D01*
X519330Y611635D01*
Y613425D01*
X518645Y615079D01*
X518116Y615607D01*
X518643Y616878D01*
X523560D01*
X523693Y616821D01*
X524316Y616813D01*
X524769Y616793D01*
X525050Y616765D01*
X525281Y616534D01*
X526935Y615849D01*
X528725D01*
X530379Y616534D01*
X531645Y617800D01*
X532330Y619454D01*
Y621244D01*
X531645Y622898D01*
X530379Y624164D01*
X528725Y624849D01*
X526935D01*
X525281Y624164D01*
X525070Y623953D01*
X523993Y623879D01*
X523703Y623878D01*
X523568Y623821D01*
X387109D01*
X386583Y625091D01*
X387289Y625797D01*
X388254Y627469D01*
X388343Y627800D01*
D02*
G37*
G36*
X597045Y621466D02*
X595255D01*
X593601Y620781D01*
X592335Y619515D01*
X591650Y617861D01*
Y616071D01*
X592335Y614417D01*
X593601Y613151D01*
X595255Y612466D01*
X597045D01*
X598699Y613151D01*
X598910Y613363D01*
X599986Y613436D01*
X600277Y613437D01*
X600412Y613494D01*
X717368D01*
X717500Y613438D01*
X718122Y613430D01*
X718574Y613409D01*
X718856Y613381D01*
X719104Y613133D01*
X720758Y612448D01*
X722548D01*
X724202Y613133D01*
X725468Y614399D01*
X726153Y616053D01*
Y617843D01*
X725468Y619497D01*
X724202Y620762D01*
X722548Y621448D01*
X720758D01*
X719104Y620762D01*
X718909Y620567D01*
X717833Y620496D01*
X717541Y620495D01*
X717406Y620438D01*
X600420D01*
X600287Y620494D01*
X599664Y620502D01*
X599211Y620522D01*
X598930Y620550D01*
X598699Y620781D01*
X597045Y621466D01*
D02*
G37*
G36*
X682663Y602448D02*
X680872D01*
X679219Y601763D01*
X679007Y601551D01*
X677931Y601478D01*
X677641Y601476D01*
X677506Y601419D01*
X676798D01*
X675469Y601155D01*
X674343Y600402D01*
X593395Y519454D01*
X591009D01*
X590877Y519511D01*
X590254Y519519D01*
X589801Y519539D01*
X589520Y519567D01*
X589289Y519798D01*
X587635Y520483D01*
X585845D01*
X584191Y519798D01*
X582925Y518532D01*
X582240Y516878D01*
Y515088D01*
X582925Y513434D01*
X584191Y512168D01*
X585845Y511483D01*
X587635D01*
X589289Y512168D01*
X589501Y512379D01*
X590577Y512453D01*
X590867Y512454D01*
X591002Y512511D01*
X594833D01*
X596161Y512775D01*
X597288Y513528D01*
X678172Y594413D01*
X678254Y594412D01*
X678706Y594391D01*
X678988Y594364D01*
X679219Y594133D01*
X680872Y593448D01*
X682663D01*
X684317Y594133D01*
X685583Y595399D01*
X686268Y597052D01*
Y598843D01*
X685583Y600497D01*
X684317Y601763D01*
X682663Y602448D01*
D02*
G37*
G36*
X455555Y579810D02*
X453765D01*
X452111Y579125D01*
X450855Y577869D01*
X449599Y579125D01*
X447945Y579810D01*
X446155D01*
X444501Y579125D01*
X443235Y577859D01*
X442550Y576205D01*
Y574415D01*
X443235Y572761D01*
X444501Y571495D01*
X446155Y570810D01*
X447945D01*
X449599Y571495D01*
X450855Y572751D01*
X452111Y571495D01*
X453765Y570810D01*
X455555D01*
X457209Y571495D01*
X458475Y572761D01*
X459160Y574415D01*
Y576205D01*
X458475Y577859D01*
X457209Y579125D01*
X455555Y579810D01*
D02*
G37*
G36*
X382320Y590534D02*
X380520D01*
X378782Y590068D01*
X377224Y589169D01*
X375951Y587896D01*
X375052Y586338D01*
X374586Y584600D01*
Y582800D01*
X375052Y581062D01*
X375951Y579504D01*
X377224Y578231D01*
X378782Y577332D01*
X380520Y576866D01*
X382320D01*
X384058Y577332D01*
X385616Y578231D01*
X386889Y579504D01*
X387788Y581062D01*
X388254Y582800D01*
Y584600D01*
X387788Y586338D01*
X386889Y587896D01*
X385616Y589169D01*
X384058Y590068D01*
X382320Y590534D01*
D02*
G37*
G36*
X288980D02*
X287180D01*
X285442Y590068D01*
X283884Y589169D01*
X282611Y587896D01*
X281712Y586338D01*
X281246Y584600D01*
Y582800D01*
X281712Y581062D01*
X282611Y579504D01*
X283884Y578231D01*
X285442Y577332D01*
X287180Y576866D01*
X288980D01*
X290718Y577332D01*
X292276Y578231D01*
X293549Y579504D01*
X294448Y581062D01*
X294914Y582800D01*
Y584600D01*
X294448Y586338D01*
X293549Y587896D01*
X292276Y589169D01*
X290718Y590068D01*
X288980Y590534D01*
D02*
G37*
G36*
X195640D02*
X193840D01*
X192102Y590068D01*
X190544Y589169D01*
X189271Y587896D01*
X188372Y586338D01*
X187906Y584600D01*
Y582800D01*
X188372Y581062D01*
X189271Y579504D01*
X190544Y578231D01*
X192102Y577332D01*
X193840Y576866D01*
X195640D01*
X197378Y577332D01*
X198936Y578231D01*
X200209Y579504D01*
X201108Y581062D01*
X201574Y582800D01*
Y584600D01*
X201108Y586338D01*
X200209Y587896D01*
X198936Y589169D01*
X197378Y590068D01*
X195640Y590534D01*
D02*
G37*
G36*
X102300D02*
X100500D01*
X98762Y590068D01*
X97204Y589169D01*
X95931Y587896D01*
X95032Y586338D01*
X94566Y584600D01*
Y582800D01*
X95032Y581062D01*
X95931Y579504D01*
X97204Y578231D01*
X98762Y577332D01*
X100500Y576866D01*
X102300D01*
X104038Y577332D01*
X105596Y578231D01*
X106869Y579504D01*
X107768Y581062D01*
X108234Y582800D01*
Y584600D01*
X107768Y586338D01*
X106869Y587896D01*
X105596Y589169D01*
X104038Y590068D01*
X102300Y590534D01*
D02*
G37*
G36*
X735873Y580081D02*
X734083D01*
X732429Y579396D01*
X731163Y578130D01*
X730478Y576476D01*
Y574686D01*
X731163Y573032D01*
X732429Y571766D01*
X734083Y571081D01*
X735873D01*
X737527Y571766D01*
X738793Y573032D01*
X739478Y574686D01*
Y576476D01*
X738793Y578130D01*
X737527Y579396D01*
X735873Y580081D01*
D02*
G37*
G36*
X427945Y579810D02*
X426155D01*
X424501Y579125D01*
X423235Y577859D01*
X422550Y576205D01*
Y574415D01*
X423235Y572761D01*
X424501Y571495D01*
X426155Y570810D01*
X427945D01*
X429599Y571495D01*
X430865Y572761D01*
X431550Y574415D01*
Y576205D01*
X430865Y577859D01*
X429599Y579125D01*
X427945Y579810D01*
D02*
G37*
G36*
X701650Y578430D02*
X699860D01*
X698206Y577745D01*
X696940Y576479D01*
X696255Y574825D01*
Y573035D01*
X696940Y571381D01*
X698206Y570115D01*
X699860Y569430D01*
X701650D01*
X703304Y570115D01*
X704570Y571381D01*
X705255Y573035D01*
Y574825D01*
X704570Y576479D01*
X703304Y577745D01*
X701650Y578430D01*
D02*
G37*
G36*
X597287Y575274D02*
X595497D01*
X593843Y574589D01*
X592577Y573323D01*
X591892Y571669D01*
Y569879D01*
X592577Y568225D01*
X593843Y566959D01*
X595497Y566274D01*
X597287D01*
X598941Y566959D01*
X600207Y568225D01*
X600892Y569879D01*
Y571669D01*
X600207Y573323D01*
X598941Y574589D01*
X597287Y575274D01*
D02*
G37*
G36*
X395020Y577834D02*
X393220D01*
X391482Y577368D01*
X389924Y576469D01*
X388651Y575196D01*
X387752Y573638D01*
X387286Y571900D01*
Y570100D01*
X387752Y568362D01*
X388651Y566804D01*
X389924Y565531D01*
X391482Y564632D01*
X393220Y564166D01*
X395020D01*
X396758Y564632D01*
X398316Y565531D01*
X399589Y566804D01*
X400488Y568362D01*
X400954Y570100D01*
Y571900D01*
X400488Y573638D01*
X399589Y575196D01*
X398316Y576469D01*
X396758Y577368D01*
X395020Y577834D01*
D02*
G37*
G36*
X301680D02*
X299880D01*
X298142Y577368D01*
X296584Y576469D01*
X295311Y575196D01*
X294412Y573638D01*
X293946Y571900D01*
Y570100D01*
X294412Y568362D01*
X295311Y566804D01*
X296584Y565531D01*
X298142Y564632D01*
X299880Y564166D01*
X301680D01*
X303418Y564632D01*
X304976Y565531D01*
X306249Y566804D01*
X307148Y568362D01*
X307614Y570100D01*
Y571900D01*
X307148Y573638D01*
X306249Y575196D01*
X304976Y576469D01*
X303418Y577368D01*
X301680Y577834D01*
D02*
G37*
G36*
X208340D02*
X206540D01*
X204802Y577368D01*
X203244Y576469D01*
X201971Y575196D01*
X201072Y573638D01*
X200606Y571900D01*
Y570100D01*
X201072Y568362D01*
X201971Y566804D01*
X203244Y565531D01*
X204802Y564632D01*
X206540Y564166D01*
X208340D01*
X210078Y564632D01*
X211636Y565531D01*
X212909Y566804D01*
X213808Y568362D01*
X214274Y570100D01*
Y571900D01*
X213808Y573638D01*
X212909Y575196D01*
X211636Y576469D01*
X210078Y577368D01*
X208340Y577834D01*
D02*
G37*
G36*
X115000D02*
X113200D01*
X111462Y577368D01*
X109904Y576469D01*
X108631Y575196D01*
X107732Y573638D01*
X107266Y571900D01*
Y570100D01*
X107732Y568362D01*
X108631Y566804D01*
X109904Y565531D01*
X111462Y564632D01*
X113200Y564166D01*
X115000D01*
X116738Y564632D01*
X118296Y565531D01*
X119569Y566804D01*
X120468Y568362D01*
X120934Y570100D01*
Y571900D01*
X120468Y573638D01*
X119569Y575196D01*
X118296Y576469D01*
X116738Y577368D01*
X115000Y577834D01*
D02*
G37*
G36*
X383920Y565223D02*
Y560800D01*
X388343D01*
X388254Y561131D01*
X387289Y562803D01*
X385923Y564169D01*
X384251Y565134D01*
X383920Y565223D01*
D02*
G37*
G36*
X378920D02*
X378589Y565134D01*
X376917Y564169D01*
X375551Y562803D01*
X374586Y561131D01*
X374497Y560800D01*
X378920D01*
Y565223D01*
D02*
G37*
G36*
X290580D02*
Y560800D01*
X295003D01*
X294914Y561131D01*
X293949Y562803D01*
X292583Y564169D01*
X290911Y565134D01*
X290580Y565223D01*
D02*
G37*
G36*
X285580D02*
X285249Y565134D01*
X283577Y564169D01*
X282211Y562803D01*
X281246Y561131D01*
X281157Y560800D01*
X285580D01*
Y565223D01*
D02*
G37*
G36*
X197240D02*
Y560800D01*
X201663D01*
X201574Y561131D01*
X200609Y562803D01*
X199243Y564169D01*
X197571Y565134D01*
X197240Y565223D01*
D02*
G37*
G36*
X192240D02*
X191909Y565134D01*
X190237Y564169D01*
X188871Y562803D01*
X187906Y561131D01*
X187817Y560800D01*
X192240D01*
Y565223D01*
D02*
G37*
G36*
X103900D02*
Y560800D01*
X108323D01*
X108234Y561131D01*
X107269Y562803D01*
X105903Y564169D01*
X104231Y565134D01*
X103900Y565223D01*
D02*
G37*
G36*
X98900D02*
X98569Y565134D01*
X96897Y564169D01*
X95531Y562803D01*
X94566Y561131D01*
X94477Y560800D01*
X98900D01*
Y565223D01*
D02*
G37*
G36*
X388343Y555800D02*
X374497D01*
X374586Y555469D01*
X375551Y553797D01*
X376257Y553091D01*
X375731Y551821D01*
X293769D01*
X293243Y553091D01*
X293949Y553797D01*
X294914Y555469D01*
X295003Y555800D01*
X281157D01*
X281246Y555469D01*
X282211Y553797D01*
X282917Y553091D01*
X282391Y551821D01*
X200429D01*
X199903Y553091D01*
X200609Y553797D01*
X201574Y555469D01*
X201663Y555800D01*
X187817D01*
X187906Y555469D01*
X188871Y553797D01*
X189577Y553091D01*
X189051Y551821D01*
X107089D01*
X106563Y553091D01*
X107269Y553797D01*
X108234Y555469D01*
X108323Y555800D01*
X94477D01*
X94566Y555469D01*
X95531Y553797D01*
X96264Y553064D01*
X96271Y552929D01*
X95814Y551718D01*
X95001Y551557D01*
X93874Y550804D01*
X86245Y543175D01*
X85493Y542049D01*
X85228Y540720D01*
Y507363D01*
X85172Y507241D01*
X85156Y506793D01*
X85115Y506425D01*
X85048Y506076D01*
X84956Y505744D01*
X84839Y505426D01*
X84695Y505120D01*
X84524Y504822D01*
X84324Y504532D01*
X84093Y504248D01*
X83788Y503926D01*
X83680Y503645D01*
X83231Y503196D01*
X82332Y501638D01*
X81866Y499900D01*
Y498100D01*
X82332Y496362D01*
X83231Y494804D01*
X84504Y493531D01*
X86062Y492632D01*
X87800Y492166D01*
X89600D01*
X91338Y492632D01*
X92896Y493531D01*
X94169Y494804D01*
X95068Y496362D01*
X95534Y498100D01*
Y499900D01*
X95068Y501638D01*
X94169Y503196D01*
X93720Y503645D01*
X93612Y503926D01*
X93307Y504248D01*
X93076Y504532D01*
X92876Y504822D01*
X92705Y505120D01*
X92561Y505426D01*
X92444Y505744D01*
X92352Y506076D01*
X92285Y506425D01*
X92244Y506793D01*
X92228Y507241D01*
X92172Y507363D01*
Y539282D01*
X97767Y544878D01*
X188806D01*
X188958Y544448D01*
X189017Y543607D01*
X188085Y542985D01*
X179585Y534485D01*
X178833Y533359D01*
X178568Y532030D01*
Y507363D01*
X178512Y507241D01*
X178496Y506793D01*
X178455Y506425D01*
X178388Y506076D01*
X178296Y505744D01*
X178179Y505426D01*
X178035Y505120D01*
X177864Y504822D01*
X177664Y504532D01*
X177433Y504248D01*
X177128Y503926D01*
X177020Y503645D01*
X176571Y503196D01*
X175672Y501638D01*
X175206Y499900D01*
Y498100D01*
X175672Y496362D01*
X176571Y494804D01*
X177844Y493531D01*
X179402Y492632D01*
X181140Y492166D01*
X182940D01*
X184678Y492632D01*
X186236Y493531D01*
X187509Y494804D01*
X188408Y496362D01*
X188874Y498100D01*
Y499900D01*
X188408Y501638D01*
X187509Y503196D01*
X187060Y503645D01*
X186952Y503926D01*
X186647Y504248D01*
X186416Y504532D01*
X186216Y504822D01*
X186045Y505120D01*
X185901Y505426D01*
X185784Y505744D01*
X185692Y506076D01*
X185625Y506425D01*
X185584Y506793D01*
X185567Y507241D01*
X185512Y507363D01*
Y530592D01*
X191978Y537058D01*
X283494D01*
X283619Y535788D01*
X282624Y535591D01*
X281498Y534838D01*
X272925Y526265D01*
X272173Y525139D01*
X271908Y523810D01*
Y507363D01*
X271852Y507241D01*
X271836Y506793D01*
X271795Y506425D01*
X271728Y506076D01*
X271636Y505744D01*
X271519Y505426D01*
X271375Y505120D01*
X271204Y504822D01*
X271004Y504532D01*
X270773Y504248D01*
X270468Y503926D01*
X270360Y503645D01*
X269911Y503196D01*
X269012Y501638D01*
X268546Y499900D01*
Y498100D01*
X269012Y496362D01*
X269911Y494804D01*
X271184Y493531D01*
X272742Y492632D01*
X274480Y492166D01*
X276280D01*
X278018Y492632D01*
X279576Y493531D01*
X280849Y494804D01*
X281748Y496362D01*
X282214Y498100D01*
Y499900D01*
X281748Y501638D01*
X280849Y503196D01*
X280400Y503645D01*
X280292Y503926D01*
X279987Y504248D01*
X279755Y504532D01*
X279556Y504822D01*
X279385Y505120D01*
X279241Y505426D01*
X279124Y505744D01*
X279032Y506076D01*
X278965Y506425D01*
X278924Y506793D01*
X278908Y507241D01*
X278852Y507363D01*
Y522372D01*
X285391Y528911D01*
X484383D01*
X484609Y528714D01*
X484942Y527641D01*
X484808Y527549D01*
X484703Y527549D01*
X484568Y527492D01*
X376800D01*
X375471Y527228D01*
X374345Y526475D01*
X366265Y518395D01*
X365513Y517269D01*
X365248Y515940D01*
Y507363D01*
X365192Y507241D01*
X365176Y506793D01*
X365135Y506425D01*
X365068Y506076D01*
X364976Y505744D01*
X364859Y505426D01*
X364715Y505120D01*
X364544Y504822D01*
X364344Y504532D01*
X364113Y504248D01*
X363808Y503926D01*
X363700Y503645D01*
X363251Y503196D01*
X362352Y501638D01*
X361886Y499900D01*
Y498100D01*
X362352Y496362D01*
X363251Y494804D01*
X364524Y493531D01*
X366082Y492632D01*
X367820Y492166D01*
X369620D01*
X371358Y492632D01*
X372916Y493531D01*
X374189Y494804D01*
X375088Y496362D01*
X375554Y498100D01*
Y499900D01*
X375088Y501638D01*
X374189Y503196D01*
X373740Y503645D01*
X373632Y503926D01*
X373327Y504248D01*
X373096Y504532D01*
X372896Y504822D01*
X372725Y505120D01*
X372581Y505426D01*
X372464Y505744D01*
X372372Y506076D01*
X372305Y506425D01*
X372264Y506793D01*
X372248Y507241D01*
X372192Y507363D01*
Y514502D01*
X378238Y520548D01*
X484561D01*
X484693Y520492D01*
X485316Y520484D01*
X485769Y520464D01*
X486050Y520436D01*
X486281Y520205D01*
X487935Y519520D01*
X489725D01*
X491379Y520205D01*
X492645Y521471D01*
X493330Y523125D01*
Y524915D01*
X492645Y526569D01*
X491573Y527641D01*
X491770Y528557D01*
X491962Y528911D01*
X497380D01*
X497513Y528855D01*
X498136Y528847D01*
X498589Y528827D01*
X498870Y528799D01*
X499101Y528568D01*
X500755Y527883D01*
X502545D01*
X504199Y528568D01*
X505465Y529834D01*
X506150Y531488D01*
Y533278D01*
X505465Y534932D01*
X504609Y535788D01*
X505135Y537058D01*
X510560D01*
X510693Y537002D01*
X511316Y536994D01*
X511769Y536974D01*
X512050Y536946D01*
X512281Y536715D01*
X513935Y536030D01*
X515725D01*
X517379Y536715D01*
X518645Y537981D01*
X519330Y539635D01*
Y541425D01*
X518645Y543079D01*
X518116Y543607D01*
X518643Y544878D01*
X523560D01*
X523693Y544821D01*
X524316Y544813D01*
X524769Y544793D01*
X525050Y544765D01*
X525281Y544534D01*
X526935Y543849D01*
X528725D01*
X530379Y544534D01*
X531645Y545800D01*
X532330Y547454D01*
Y549244D01*
X531645Y550898D01*
X530379Y552164D01*
X528725Y552849D01*
X526935D01*
X525281Y552164D01*
X525070Y551953D01*
X523993Y551880D01*
X523703Y551878D01*
X523568Y551821D01*
X387109D01*
X386583Y553091D01*
X387289Y553797D01*
X388254Y555469D01*
X388343Y555800D01*
D02*
G37*
G36*
X752735Y550490D02*
X750945D01*
X749291Y549805D01*
X748025Y548539D01*
X747340Y546885D01*
Y545095D01*
X748025Y543441D01*
X749291Y542175D01*
X750945Y541490D01*
X752735D01*
X754389Y542175D01*
X755655Y543441D01*
X756340Y545095D01*
Y546885D01*
X755655Y548539D01*
X754389Y549805D01*
X752735Y550490D01*
D02*
G37*
G36*
X682650D02*
X680860D01*
X679206Y549805D01*
X677940Y548539D01*
X677255Y546885D01*
Y545095D01*
X677940Y543441D01*
X679206Y542175D01*
X680860Y541490D01*
X682650D01*
X684304Y542175D01*
X685570Y543441D01*
X686255Y545095D01*
Y546885D01*
X685570Y548539D01*
X684304Y549805D01*
X682650Y550490D01*
D02*
G37*
G36*
X477145Y588700D02*
X475355D01*
X473701Y588015D01*
X472435Y586749D01*
X471750Y585095D01*
Y583305D01*
X472435Y581651D01*
X473701Y580385D01*
X475355Y579700D01*
X477145D01*
X478799Y580385D01*
X479122Y580708D01*
X479159Y580707D01*
X479225Y580732D01*
X479238Y580735D01*
X479242Y580736D01*
X479245Y580737D01*
X479262Y580742D01*
X479309Y580751D01*
X480222Y580823D01*
X480503Y580826D01*
X480644Y580886D01*
X544546D01*
X581280Y544151D01*
X581334Y544013D01*
X581748Y543581D01*
X582032Y543249D01*
X582111Y543144D01*
X582165Y543063D01*
X582173Y543048D01*
X582174Y543045D01*
X582178Y543041D01*
X582184Y543030D01*
X582213Y542965D01*
X582240Y542940D01*
Y542483D01*
X582925Y540830D01*
X584191Y539564D01*
X585845Y538879D01*
X587635D01*
X589289Y539564D01*
X590555Y540830D01*
X591240Y542483D01*
Y544274D01*
X590555Y545928D01*
X589289Y547193D01*
X587635Y547878D01*
X587179D01*
X587153Y547906D01*
X587089Y547935D01*
X587078Y547941D01*
X587074Y547944D01*
X587070Y547945D01*
X587056Y547954D01*
X587016Y547980D01*
X586319Y548575D01*
X586118Y548772D01*
X585977Y548829D01*
X548262Y586544D01*
X547187Y587262D01*
X545919Y587514D01*
X480657D01*
X480522Y587574D01*
X479924Y587587D01*
X479488Y587621D01*
X479358Y587639D01*
X479262Y587658D01*
X479245Y587663D01*
X479242Y587664D01*
X479238Y587665D01*
X479225Y587668D01*
X479159Y587693D01*
X479122Y587692D01*
X478799Y588015D01*
X477145Y588700D01*
D02*
G37*
G36*
X382320Y518534D02*
X380520D01*
X378782Y518068D01*
X377224Y517169D01*
X375951Y515896D01*
X375052Y514338D01*
X374586Y512600D01*
Y510800D01*
X375052Y509062D01*
X375951Y507504D01*
X377224Y506231D01*
X378782Y505332D01*
X380520Y504866D01*
X382320D01*
X384058Y505332D01*
X385616Y506231D01*
X386889Y507504D01*
X387788Y509062D01*
X388254Y510800D01*
Y512600D01*
X387788Y514338D01*
X386889Y515896D01*
X385616Y517169D01*
X384058Y518068D01*
X382320Y518534D01*
D02*
G37*
G36*
X288980D02*
X287180D01*
X285442Y518068D01*
X283884Y517169D01*
X282611Y515896D01*
X281712Y514338D01*
X281246Y512600D01*
Y510800D01*
X281712Y509062D01*
X282611Y507504D01*
X283884Y506231D01*
X285442Y505332D01*
X287180Y504866D01*
X288980D01*
X290718Y505332D01*
X292276Y506231D01*
X293549Y507504D01*
X294448Y509062D01*
X294914Y510800D01*
Y512600D01*
X294448Y514338D01*
X293549Y515896D01*
X292276Y517169D01*
X290718Y518068D01*
X288980Y518534D01*
D02*
G37*
G36*
X195640D02*
X193840D01*
X192102Y518068D01*
X190544Y517169D01*
X189271Y515896D01*
X188372Y514338D01*
X187906Y512600D01*
Y510800D01*
X188372Y509062D01*
X189271Y507504D01*
X190544Y506231D01*
X192102Y505332D01*
X193840Y504866D01*
X195640D01*
X197378Y505332D01*
X198936Y506231D01*
X200209Y507504D01*
X201108Y509062D01*
X201574Y510800D01*
Y512600D01*
X201108Y514338D01*
X200209Y515896D01*
X198936Y517169D01*
X197378Y518068D01*
X195640Y518534D01*
D02*
G37*
G36*
X102300D02*
X100500D01*
X98762Y518068D01*
X97204Y517169D01*
X95931Y515896D01*
X95032Y514338D01*
X94566Y512600D01*
Y510800D01*
X95032Y509062D01*
X95931Y507504D01*
X97204Y506231D01*
X98762Y505332D01*
X100500Y504866D01*
X102300D01*
X104038Y505332D01*
X105596Y506231D01*
X106869Y507504D01*
X107768Y509062D01*
X108234Y510800D01*
Y512600D01*
X107768Y514338D01*
X106869Y515896D01*
X105596Y517169D01*
X104038Y518068D01*
X102300Y518534D01*
D02*
G37*
G36*
X667645Y493450D02*
X665855D01*
X664201Y492765D01*
X663989Y492553D01*
X662914Y492480D01*
X662623Y492479D01*
X662488Y492422D01*
X590654D01*
X590521Y492478D01*
X589386Y492490D01*
X589035Y492507D01*
X587635Y493087D01*
X585845D01*
X584529Y492542D01*
X582911Y492477D01*
X582791Y492422D01*
X467099D01*
X466967Y492478D01*
X466344Y492486D01*
X465891Y492506D01*
X465610Y492534D01*
X465379Y492765D01*
X463725Y493450D01*
X461935D01*
X460281Y492765D01*
X459015Y491499D01*
X458330Y489845D01*
Y488055D01*
X459015Y486401D01*
X460281Y485135D01*
X461935Y484450D01*
X463725D01*
X465379Y485135D01*
X465591Y485347D01*
X466667Y485420D01*
X466957Y485421D01*
X467092Y485478D01*
X582051D01*
X582110Y485442D01*
X582235Y485471D01*
X582353Y485421D01*
X582668Y485419D01*
X583181Y485399D01*
X583537Y485364D01*
X583609Y485352D01*
X583612Y485351D01*
X584191Y484772D01*
X585845Y484087D01*
X587635D01*
X589289Y484772D01*
X589868Y485351D01*
X589871Y485352D01*
X589916Y485359D01*
X590833Y485419D01*
X591127Y485421D01*
X591245Y485471D01*
X591370Y485442D01*
X591429Y485478D01*
X662480D01*
X662613Y485421D01*
X663236Y485414D01*
X663689Y485394D01*
X663970Y485366D01*
X664201Y485135D01*
X665855Y484450D01*
X667645D01*
X669299Y485135D01*
X670565Y486401D01*
X671250Y488055D01*
Y489845D01*
X670565Y491499D01*
X669299Y492765D01*
X667645Y493450D01*
D02*
G37*
G36*
X395020Y505834D02*
X393220D01*
X391482Y505368D01*
X389924Y504468D01*
X388651Y503196D01*
X387752Y501638D01*
X387286Y499900D01*
Y498100D01*
X387752Y496362D01*
X388651Y494804D01*
X389924Y493531D01*
X391482Y492632D01*
X393220Y492166D01*
X395020D01*
X396758Y492632D01*
X398316Y493531D01*
X399589Y494804D01*
X400488Y496362D01*
X400954Y498100D01*
Y499900D01*
X400488Y501638D01*
X399589Y503196D01*
X398316Y504468D01*
X396758Y505368D01*
X395020Y505834D01*
D02*
G37*
G36*
X301680D02*
X299880D01*
X298142Y505368D01*
X296584Y504468D01*
X295311Y503196D01*
X294412Y501638D01*
X293946Y499900D01*
Y498100D01*
X294412Y496362D01*
X295311Y494804D01*
X296584Y493531D01*
X298142Y492632D01*
X299880Y492166D01*
X301680D01*
X303418Y492632D01*
X304976Y493531D01*
X306249Y494804D01*
X307148Y496362D01*
X307614Y498100D01*
Y499900D01*
X307148Y501638D01*
X306249Y503196D01*
X304976Y504468D01*
X303418Y505368D01*
X301680Y505834D01*
D02*
G37*
G36*
X208340D02*
X206540D01*
X204802Y505368D01*
X203244Y504468D01*
X201971Y503196D01*
X201072Y501638D01*
X200606Y499900D01*
Y498100D01*
X201072Y496362D01*
X201971Y494804D01*
X203244Y493531D01*
X204802Y492632D01*
X206540Y492166D01*
X208340D01*
X210078Y492632D01*
X211636Y493531D01*
X212909Y494804D01*
X213808Y496362D01*
X214274Y498100D01*
Y499900D01*
X213808Y501638D01*
X212909Y503196D01*
X211636Y504468D01*
X210078Y505368D01*
X208340Y505834D01*
D02*
G37*
G36*
X115000D02*
X113200D01*
X111462Y505368D01*
X109904Y504468D01*
X108631Y503196D01*
X107732Y501638D01*
X107266Y499900D01*
Y498100D01*
X107732Y496362D01*
X108631Y494804D01*
X109904Y493531D01*
X111462Y492632D01*
X113200Y492166D01*
X115000D01*
X116738Y492632D01*
X118296Y493531D01*
X119569Y494804D01*
X120468Y496362D01*
X120934Y498100D01*
Y499900D01*
X120468Y501638D01*
X119569Y503196D01*
X118296Y504468D01*
X116738Y505368D01*
X115000Y505834D01*
D02*
G37*
G36*
X447935Y499800D02*
X446145D01*
X444491Y499115D01*
X443225Y497849D01*
X442540Y496195D01*
Y494405D01*
X443225Y492751D01*
X444491Y491485D01*
X446145Y490800D01*
X447935D01*
X449589Y491485D01*
X450855Y492751D01*
X451540Y494405D01*
Y496195D01*
X450855Y497849D01*
X449589Y499115D01*
X447935Y499800D01*
D02*
G37*
G36*
X383920Y493223D02*
Y488800D01*
X388343D01*
X388254Y489131D01*
X387289Y490803D01*
X385923Y492169D01*
X384251Y493134D01*
X383920Y493223D01*
D02*
G37*
G36*
X378920D02*
X378589Y493134D01*
X376917Y492169D01*
X375551Y490803D01*
X374586Y489131D01*
X374497Y488800D01*
X378920D01*
Y493223D01*
D02*
G37*
G36*
X290580D02*
Y488800D01*
X295003D01*
X294914Y489131D01*
X293949Y490803D01*
X292583Y492169D01*
X290911Y493134D01*
X290580Y493223D01*
D02*
G37*
G36*
X285580D02*
X285249Y493134D01*
X283577Y492169D01*
X282211Y490803D01*
X281246Y489131D01*
X281157Y488800D01*
X285580D01*
Y493223D01*
D02*
G37*
G36*
X197240D02*
Y488800D01*
X201663D01*
X201574Y489131D01*
X200609Y490803D01*
X199243Y492169D01*
X197571Y493134D01*
X197240Y493223D01*
D02*
G37*
G36*
X192240D02*
X191909Y493134D01*
X190237Y492169D01*
X188871Y490803D01*
X187906Y489131D01*
X187817Y488800D01*
X192240D01*
Y493223D01*
D02*
G37*
G36*
X103900D02*
Y488800D01*
X108323D01*
X108234Y489131D01*
X107269Y490803D01*
X105903Y492169D01*
X104231Y493134D01*
X103900Y493223D01*
D02*
G37*
G36*
X98900D02*
X98569Y493134D01*
X96897Y492169D01*
X95531Y490803D01*
X94566Y489131D01*
X94477Y488800D01*
X98900D01*
Y493223D01*
D02*
G37*
G36*
X388343Y483800D02*
X374497D01*
X374586Y483469D01*
X375551Y481797D01*
X376257Y481091D01*
X375731Y479821D01*
X293769D01*
X293243Y481091D01*
X293949Y481797D01*
X294914Y483469D01*
X295003Y483800D01*
X281157D01*
X281246Y483469D01*
X282211Y481797D01*
X282917Y481091D01*
X282391Y479821D01*
X200429D01*
X199903Y481091D01*
X200609Y481797D01*
X201574Y483469D01*
X201663Y483800D01*
X187817D01*
X187906Y483469D01*
X188871Y481797D01*
X189577Y481091D01*
X189051Y479821D01*
X107089D01*
X106563Y481091D01*
X107269Y481797D01*
X108234Y483469D01*
X108323Y483800D01*
X94477D01*
X94566Y483469D01*
X95531Y481797D01*
X96264Y481064D01*
X96271Y480929D01*
X95814Y479718D01*
X95001Y479557D01*
X93874Y478804D01*
X86245Y471175D01*
X85493Y470049D01*
X85228Y468720D01*
Y435363D01*
X85172Y435241D01*
X85156Y434794D01*
X85115Y434425D01*
X85048Y434076D01*
X84956Y433744D01*
X84839Y433426D01*
X84695Y433120D01*
X84524Y432822D01*
X84324Y432532D01*
X84093Y432248D01*
X83788Y431926D01*
X83680Y431645D01*
X83231Y431196D01*
X82332Y429638D01*
X81866Y427900D01*
Y426100D01*
X82332Y424362D01*
X83231Y422804D01*
X84504Y421531D01*
X86062Y420632D01*
X87800Y420166D01*
X89600D01*
X91338Y420632D01*
X92896Y421531D01*
X94169Y422804D01*
X95068Y424362D01*
X95534Y426100D01*
Y427900D01*
X95068Y429638D01*
X94169Y431196D01*
X93720Y431645D01*
X93612Y431926D01*
X93307Y432248D01*
X93076Y432532D01*
X92876Y432822D01*
X92705Y433120D01*
X92561Y433426D01*
X92444Y433744D01*
X92352Y434076D01*
X92285Y434425D01*
X92244Y434794D01*
X92228Y435241D01*
X92172Y435363D01*
Y467282D01*
X97767Y472878D01*
X188806D01*
X188958Y472448D01*
X189017Y471608D01*
X188085Y470985D01*
X179585Y462485D01*
X178833Y461359D01*
X178568Y460030D01*
Y435363D01*
X178512Y435241D01*
X178496Y434794D01*
X178455Y434425D01*
X178388Y434076D01*
X178296Y433744D01*
X178179Y433426D01*
X178035Y433120D01*
X177864Y432822D01*
X177664Y432532D01*
X177433Y432248D01*
X177128Y431926D01*
X177020Y431645D01*
X176571Y431196D01*
X175672Y429638D01*
X175206Y427900D01*
Y426100D01*
X175672Y424362D01*
X176571Y422804D01*
X177844Y421531D01*
X179402Y420632D01*
X181140Y420166D01*
X182940D01*
X184678Y420632D01*
X186236Y421531D01*
X187509Y422804D01*
X188408Y424362D01*
X188874Y426100D01*
Y427900D01*
X188408Y429638D01*
X187509Y431196D01*
X187060Y431645D01*
X186952Y431926D01*
X186647Y432248D01*
X186416Y432532D01*
X186216Y432822D01*
X186045Y433120D01*
X185901Y433426D01*
X185784Y433744D01*
X185692Y434076D01*
X185625Y434425D01*
X185584Y434794D01*
X185567Y435241D01*
X185512Y435363D01*
Y458592D01*
X191978Y465058D01*
X283494D01*
X283619Y463788D01*
X282624Y463591D01*
X281498Y462838D01*
X272925Y454265D01*
X272173Y453139D01*
X271908Y451810D01*
Y435363D01*
X271852Y435241D01*
X271836Y434794D01*
X271795Y434425D01*
X271728Y434076D01*
X271636Y433744D01*
X271519Y433426D01*
X271375Y433120D01*
X271204Y432822D01*
X271004Y432532D01*
X270773Y432248D01*
X270468Y431926D01*
X270360Y431645D01*
X269911Y431196D01*
X269012Y429638D01*
X268546Y427900D01*
Y426100D01*
X269012Y424362D01*
X269911Y422804D01*
X271184Y421531D01*
X272742Y420632D01*
X274480Y420166D01*
X276280D01*
X278018Y420632D01*
X279576Y421531D01*
X280849Y422804D01*
X281748Y424362D01*
X282214Y426100D01*
Y427900D01*
X281748Y429638D01*
X280849Y431196D01*
X280400Y431645D01*
X280292Y431926D01*
X279987Y432248D01*
X279755Y432532D01*
X279556Y432822D01*
X279385Y433120D01*
X279241Y433426D01*
X279124Y433744D01*
X279032Y434076D01*
X278965Y434425D01*
X278924Y434794D01*
X278908Y435241D01*
X278852Y435363D01*
Y450372D01*
X285391Y456911D01*
X484383D01*
X484609Y456714D01*
X484942Y455641D01*
X484808Y455549D01*
X484703Y455549D01*
X484568Y455492D01*
X376800D01*
X375471Y455228D01*
X374345Y454475D01*
X366265Y446395D01*
X365513Y445269D01*
X365248Y443940D01*
Y435363D01*
X365192Y435241D01*
X365176Y434794D01*
X365135Y434425D01*
X365068Y434076D01*
X364976Y433744D01*
X364859Y433426D01*
X364715Y433120D01*
X364544Y432822D01*
X364344Y432532D01*
X364113Y432248D01*
X363808Y431926D01*
X363700Y431645D01*
X363251Y431196D01*
X362352Y429638D01*
X361886Y427900D01*
Y426100D01*
X362352Y424362D01*
X363251Y422804D01*
X364524Y421531D01*
X366082Y420632D01*
X367820Y420166D01*
X369620D01*
X371358Y420632D01*
X372916Y421531D01*
X374189Y422804D01*
X375088Y424362D01*
X375554Y426100D01*
Y427900D01*
X375088Y429638D01*
X374189Y431196D01*
X373740Y431645D01*
X373632Y431926D01*
X373327Y432248D01*
X373096Y432532D01*
X372896Y432822D01*
X372725Y433120D01*
X372581Y433426D01*
X372464Y433744D01*
X372372Y434076D01*
X372305Y434425D01*
X372264Y434794D01*
X372248Y435241D01*
X372192Y435363D01*
Y442502D01*
X378238Y448548D01*
X474834D01*
X474935Y447320D01*
X473281Y446635D01*
X472015Y445369D01*
X471330Y443715D01*
Y441925D01*
X472015Y440271D01*
X473281Y439005D01*
X474935Y438320D01*
X476725D01*
X478379Y439005D01*
X478702Y439328D01*
X478739Y439327D01*
X478805Y439352D01*
X478818Y439355D01*
X478822Y439356D01*
X478825Y439357D01*
X478842Y439362D01*
X478889Y439371D01*
X479802Y439443D01*
X480083Y439446D01*
X480224Y439506D01*
X568369D01*
X569637Y439758D01*
X570712Y440476D01*
X585967Y455732D01*
X586105Y455785D01*
X586537Y456199D01*
X586870Y456483D01*
X586975Y456562D01*
X587056Y456616D01*
X587071Y456625D01*
X587074Y456626D01*
X587078Y456629D01*
X587089Y456635D01*
X587153Y456665D01*
X587179Y456691D01*
X587635D01*
X589289Y457377D01*
X590555Y458642D01*
X591240Y460296D01*
Y462086D01*
X590555Y463741D01*
X589289Y465006D01*
X587635Y465691D01*
X585845D01*
X584191Y465006D01*
X582925Y463741D01*
X582240Y462086D01*
Y461630D01*
X582213Y461605D01*
X582184Y461540D01*
X582178Y461529D01*
X582174Y461525D01*
X582173Y461522D01*
X582165Y461507D01*
X582138Y461468D01*
X581543Y460770D01*
X581347Y460570D01*
X581290Y460428D01*
X566996Y446134D01*
X480237D01*
X480102Y446194D01*
X479504Y446207D01*
X479068Y446241D01*
X478938Y446259D01*
X478842Y446278D01*
X478825Y446283D01*
X478822Y446284D01*
X478818Y446285D01*
X478805Y446288D01*
X478739Y446313D01*
X478702Y446312D01*
X478379Y446635D01*
X476725Y447320D01*
X476826Y448548D01*
X484561D01*
X484693Y448492D01*
X485316Y448484D01*
X485769Y448464D01*
X486050Y448436D01*
X486281Y448205D01*
X487935Y447520D01*
X489725D01*
X491379Y448205D01*
X492645Y449471D01*
X493330Y451125D01*
Y452915D01*
X492645Y454569D01*
X491573Y455641D01*
X491770Y456557D01*
X491962Y456911D01*
X497514D01*
X497646Y456855D01*
X498269Y456847D01*
X498722Y456827D01*
X499003Y456799D01*
X499234Y456568D01*
X500888Y455883D01*
X502678D01*
X504332Y456568D01*
X505598Y457834D01*
X506283Y459488D01*
Y461278D01*
X505598Y462932D01*
X504742Y463788D01*
X505268Y465058D01*
X510560D01*
X510693Y465002D01*
X511316Y464994D01*
X511769Y464974D01*
X512050Y464946D01*
X512281Y464715D01*
X513935Y464030D01*
X515725D01*
X517379Y464715D01*
X518645Y465981D01*
X519330Y467635D01*
Y469425D01*
X518645Y471079D01*
X518116Y471608D01*
X518643Y472878D01*
X523560D01*
X523693Y472821D01*
X524316Y472813D01*
X524769Y472793D01*
X525050Y472765D01*
X525281Y472534D01*
X526935Y471849D01*
X528725D01*
X530379Y472534D01*
X531645Y473800D01*
X532330Y475454D01*
Y477244D01*
X531645Y478898D01*
X530379Y480164D01*
X528725Y480849D01*
X526935D01*
X525281Y480164D01*
X525070Y479953D01*
X523993Y479879D01*
X523703Y479878D01*
X523568Y479821D01*
X387109D01*
X386583Y481091D01*
X387289Y481797D01*
X388254Y483469D01*
X388343Y483800D01*
D02*
G37*
G36*
X605415Y435030D02*
X603625D01*
X601971Y434345D01*
X601759Y434133D01*
X600684Y434060D01*
X600393Y434059D01*
X600258Y434002D01*
X591009D01*
X590877Y434058D01*
X590254Y434066D01*
X589801Y434086D01*
X589520Y434114D01*
X589289Y434345D01*
X587635Y435030D01*
X585845D01*
X584191Y434345D01*
X583960Y434114D01*
X583678Y434086D01*
X583226Y434066D01*
X582603Y434058D01*
X582471Y434002D01*
X458929D01*
X458797Y434058D01*
X458174Y434066D01*
X457721Y434086D01*
X457440Y434114D01*
X457209Y434345D01*
X455555Y435030D01*
X453765D01*
X452111Y434345D01*
X450850Y433084D01*
X449589Y434345D01*
X447935Y435030D01*
X446145D01*
X444491Y434345D01*
X443225Y433079D01*
X442540Y431425D01*
Y429635D01*
X443225Y427981D01*
X444491Y426715D01*
X446145Y426030D01*
X447935D01*
X449589Y426715D01*
X450850Y427976D01*
X452111Y426715D01*
X453765Y426030D01*
X455555D01*
X457209Y426715D01*
X457421Y426927D01*
X458497Y427000D01*
X458787Y427001D01*
X458922Y427058D01*
X582478D01*
X582613Y427001D01*
X582904Y427000D01*
X583979Y426927D01*
X584191Y426715D01*
X585845Y426030D01*
X587635D01*
X589289Y426715D01*
X589501Y426927D01*
X590577Y427000D01*
X590867Y427001D01*
X591002Y427058D01*
X600251D01*
X600383Y427001D01*
X601006Y426994D01*
X601459Y426974D01*
X601740Y426946D01*
X601971Y426715D01*
X603625Y426030D01*
X605415D01*
X607069Y426715D01*
X608335Y427981D01*
X609020Y429635D01*
Y431425D01*
X608335Y433079D01*
X607069Y434345D01*
X605415Y435030D01*
D02*
G37*
G36*
X382320Y446534D02*
X380520D01*
X378782Y446068D01*
X377224Y445169D01*
X375951Y443896D01*
X375052Y442338D01*
X374586Y440600D01*
Y438800D01*
X375052Y437062D01*
X375951Y435504D01*
X377224Y434231D01*
X378782Y433332D01*
X380520Y432866D01*
X382320D01*
X384058Y433332D01*
X385616Y434231D01*
X386889Y435504D01*
X387788Y437062D01*
X388254Y438800D01*
Y440600D01*
X387788Y442338D01*
X386889Y443896D01*
X385616Y445169D01*
X384058Y446068D01*
X382320Y446534D01*
D02*
G37*
G36*
X288980D02*
X287180D01*
X285442Y446068D01*
X283884Y445169D01*
X282611Y443896D01*
X281712Y442338D01*
X281246Y440600D01*
Y438800D01*
X281712Y437062D01*
X282611Y435504D01*
X283884Y434231D01*
X285442Y433332D01*
X287180Y432866D01*
X288980D01*
X290718Y433332D01*
X292276Y434231D01*
X293549Y435504D01*
X294448Y437062D01*
X294914Y438800D01*
Y440600D01*
X294448Y442338D01*
X293549Y443896D01*
X292276Y445169D01*
X290718Y446068D01*
X288980Y446534D01*
D02*
G37*
G36*
X195640D02*
X193840D01*
X192102Y446068D01*
X190544Y445169D01*
X189271Y443896D01*
X188372Y442338D01*
X187906Y440600D01*
Y438800D01*
X188372Y437062D01*
X189271Y435504D01*
X190544Y434231D01*
X192102Y433332D01*
X193840Y432866D01*
X195640D01*
X197378Y433332D01*
X198936Y434231D01*
X200209Y435504D01*
X201108Y437062D01*
X201574Y438800D01*
Y440600D01*
X201108Y442338D01*
X200209Y443896D01*
X198936Y445169D01*
X197378Y446068D01*
X195640Y446534D01*
D02*
G37*
G36*
X102300D02*
X100500D01*
X98762Y446068D01*
X97204Y445169D01*
X95931Y443896D01*
X95032Y442338D01*
X94566Y440600D01*
Y438800D01*
X95032Y437062D01*
X95931Y435504D01*
X97204Y434231D01*
X98762Y433332D01*
X100500Y432866D01*
X102300D01*
X104038Y433332D01*
X105596Y434231D01*
X106869Y435504D01*
X107768Y437062D01*
X108234Y438800D01*
Y440600D01*
X107768Y442338D01*
X106869Y443896D01*
X105596Y445169D01*
X104038Y446068D01*
X102300Y446534D01*
D02*
G37*
G36*
X427945Y434650D02*
X426155D01*
X424501Y433965D01*
X423235Y432699D01*
X422550Y431045D01*
Y429255D01*
X423235Y427601D01*
X424501Y426335D01*
X426155Y425650D01*
X427945D01*
X429599Y426335D01*
X430865Y427601D01*
X431550Y429255D01*
Y431045D01*
X430865Y432699D01*
X429599Y433965D01*
X427945Y434650D01*
D02*
G37*
G36*
X395020Y433834D02*
X393220D01*
X391482Y433368D01*
X389924Y432469D01*
X388651Y431196D01*
X387752Y429638D01*
X387286Y427900D01*
Y426100D01*
X387752Y424362D01*
X388651Y422804D01*
X389924Y421531D01*
X391482Y420632D01*
X393220Y420166D01*
X395020D01*
X396758Y420632D01*
X398316Y421531D01*
X399589Y422804D01*
X400488Y424362D01*
X400954Y426100D01*
Y427900D01*
X400488Y429638D01*
X399589Y431196D01*
X398316Y432469D01*
X396758Y433368D01*
X395020Y433834D01*
D02*
G37*
G36*
X301680D02*
X299880D01*
X298142Y433368D01*
X296584Y432469D01*
X295311Y431196D01*
X294412Y429638D01*
X293946Y427900D01*
Y426100D01*
X294412Y424362D01*
X295311Y422804D01*
X296584Y421531D01*
X298142Y420632D01*
X299880Y420166D01*
X301680D01*
X303418Y420632D01*
X304976Y421531D01*
X306249Y422804D01*
X307148Y424362D01*
X307614Y426100D01*
Y427900D01*
X307148Y429638D01*
X306249Y431196D01*
X304976Y432469D01*
X303418Y433368D01*
X301680Y433834D01*
D02*
G37*
G36*
X208340D02*
X206540D01*
X204802Y433368D01*
X203244Y432469D01*
X201971Y431196D01*
X201072Y429638D01*
X200606Y427900D01*
Y426100D01*
X201072Y424362D01*
X201971Y422804D01*
X203244Y421531D01*
X204802Y420632D01*
X206540Y420166D01*
X208340D01*
X210078Y420632D01*
X211636Y421531D01*
X212909Y422804D01*
X213808Y424362D01*
X214274Y426100D01*
Y427900D01*
X213808Y429638D01*
X212909Y431196D01*
X211636Y432469D01*
X210078Y433368D01*
X208340Y433834D01*
D02*
G37*
G36*
X115000D02*
X113200D01*
X111462Y433368D01*
X109904Y432469D01*
X108631Y431196D01*
X107732Y429638D01*
X107266Y427900D01*
Y426100D01*
X107732Y424362D01*
X108631Y422804D01*
X109904Y421531D01*
X111462Y420632D01*
X113200Y420166D01*
X115000D01*
X116738Y420632D01*
X118296Y421531D01*
X119569Y422804D01*
X120468Y424362D01*
X120934Y426100D01*
Y427900D01*
X120468Y429638D01*
X119569Y431196D01*
X118296Y432469D01*
X116738Y433368D01*
X115000Y433834D01*
D02*
G37*
G36*
X383920Y421223D02*
Y416800D01*
X388343D01*
X388254Y417131D01*
X387289Y418803D01*
X385923Y420169D01*
X384251Y421134D01*
X383920Y421223D01*
D02*
G37*
G36*
X378920D02*
X378589Y421134D01*
X376917Y420169D01*
X375551Y418803D01*
X374586Y417131D01*
X374497Y416800D01*
X378920D01*
Y421223D01*
D02*
G37*
G36*
X290580D02*
Y416800D01*
X295003D01*
X294914Y417131D01*
X293949Y418803D01*
X292583Y420169D01*
X290911Y421134D01*
X290580Y421223D01*
D02*
G37*
G36*
X285580D02*
X285249Y421134D01*
X283577Y420169D01*
X282211Y418803D01*
X281246Y417131D01*
X281157Y416800D01*
X285580D01*
Y421223D01*
D02*
G37*
G36*
X197240D02*
Y416800D01*
X201663D01*
X201574Y417131D01*
X200609Y418803D01*
X199243Y420169D01*
X197571Y421134D01*
X197240Y421223D01*
D02*
G37*
G36*
X192240D02*
X191909Y421134D01*
X190237Y420169D01*
X188871Y418803D01*
X187906Y417131D01*
X187817Y416800D01*
X192240D01*
Y421223D01*
D02*
G37*
G36*
X103900D02*
Y416800D01*
X108323D01*
X108234Y417131D01*
X107269Y418803D01*
X105903Y420169D01*
X104231Y421134D01*
X103900Y421223D01*
D02*
G37*
G36*
X98900D02*
X98569Y421134D01*
X96897Y420169D01*
X95531Y418803D01*
X94566Y417131D01*
X94477Y416800D01*
X98900D01*
Y421223D01*
D02*
G37*
G36*
X388343Y411800D02*
X374497D01*
X374586Y411469D01*
X375551Y409797D01*
X376257Y409091D01*
X375731Y407821D01*
X293769D01*
X293243Y409091D01*
X293949Y409797D01*
X294914Y411469D01*
X295003Y411800D01*
X281157D01*
X281246Y411469D01*
X282211Y409797D01*
X282917Y409091D01*
X282391Y407821D01*
X200429D01*
X199903Y409091D01*
X200609Y409797D01*
X201574Y411469D01*
X201663Y411800D01*
X187817D01*
X187906Y411469D01*
X188871Y409797D01*
X189577Y409091D01*
X189051Y407821D01*
X107089D01*
X106563Y409091D01*
X107269Y409797D01*
X108234Y411469D01*
X108323Y411800D01*
X94477D01*
X94566Y411469D01*
X95531Y409797D01*
X96264Y409064D01*
X96271Y408929D01*
X95814Y407718D01*
X95001Y407557D01*
X93874Y406804D01*
X86245Y399175D01*
X85493Y398049D01*
X85228Y396720D01*
Y363363D01*
X85172Y363241D01*
X85156Y362794D01*
X85115Y362425D01*
X85048Y362076D01*
X84956Y361744D01*
X84839Y361426D01*
X84695Y361120D01*
X84524Y360822D01*
X84324Y360532D01*
X84093Y360248D01*
X83788Y359926D01*
X83680Y359645D01*
X83231Y359196D01*
X82332Y357638D01*
X81866Y355900D01*
Y354100D01*
X82332Y352362D01*
X83231Y350804D01*
X84504Y349531D01*
X86062Y348632D01*
X87800Y348166D01*
X89600D01*
X91338Y348632D01*
X92896Y349531D01*
X94169Y350804D01*
X95068Y352362D01*
X95534Y354100D01*
Y355900D01*
X95068Y357638D01*
X94169Y359196D01*
X93720Y359645D01*
X93612Y359926D01*
X93307Y360248D01*
X93076Y360532D01*
X92876Y360822D01*
X92705Y361120D01*
X92561Y361426D01*
X92444Y361744D01*
X92352Y362076D01*
X92285Y362425D01*
X92244Y362794D01*
X92228Y363241D01*
X92172Y363363D01*
Y395282D01*
X97767Y400878D01*
X188806D01*
X188958Y400448D01*
X189017Y399608D01*
X188085Y398985D01*
X179585Y390485D01*
X178833Y389359D01*
X178568Y388030D01*
Y363363D01*
X178512Y363241D01*
X178496Y362794D01*
X178455Y362425D01*
X178388Y362076D01*
X178296Y361744D01*
X178179Y361426D01*
X178035Y361120D01*
X177864Y360822D01*
X177664Y360532D01*
X177433Y360248D01*
X177128Y359926D01*
X177020Y359645D01*
X176571Y359196D01*
X175672Y357638D01*
X175206Y355900D01*
Y354100D01*
X175672Y352362D01*
X176571Y350804D01*
X177844Y349531D01*
X179402Y348632D01*
X181140Y348166D01*
X182940D01*
X184678Y348632D01*
X186236Y349531D01*
X187509Y350804D01*
X188408Y352362D01*
X188874Y354100D01*
Y355900D01*
X188408Y357638D01*
X187509Y359196D01*
X187060Y359645D01*
X186952Y359926D01*
X186647Y360248D01*
X186416Y360532D01*
X186216Y360822D01*
X186045Y361120D01*
X185901Y361426D01*
X185784Y361744D01*
X185692Y362076D01*
X185625Y362425D01*
X185584Y362794D01*
X185567Y363241D01*
X185512Y363363D01*
Y386592D01*
X191978Y393058D01*
X283494D01*
X283619Y391788D01*
X282624Y391590D01*
X281498Y390838D01*
X272925Y382265D01*
X272173Y381139D01*
X271908Y379810D01*
Y363363D01*
X271852Y363241D01*
X271836Y362794D01*
X271795Y362425D01*
X271728Y362076D01*
X271636Y361744D01*
X271519Y361426D01*
X271375Y361120D01*
X271204Y360822D01*
X271004Y360532D01*
X270773Y360248D01*
X270468Y359926D01*
X270360Y359645D01*
X269911Y359196D01*
X269012Y357638D01*
X268546Y355900D01*
Y354100D01*
X269012Y352362D01*
X269911Y350804D01*
X271184Y349531D01*
X272742Y348632D01*
X274480Y348166D01*
X276280D01*
X278018Y348632D01*
X279576Y349531D01*
X280849Y350804D01*
X281748Y352362D01*
X282214Y354100D01*
Y355900D01*
X281748Y357638D01*
X280849Y359196D01*
X280400Y359645D01*
X280292Y359926D01*
X279987Y360248D01*
X279755Y360532D01*
X279556Y360822D01*
X279385Y361120D01*
X279241Y361426D01*
X279124Y361744D01*
X279032Y362076D01*
X278965Y362425D01*
X278924Y362794D01*
X278908Y363241D01*
X278852Y363363D01*
Y378372D01*
X285391Y384911D01*
X484383D01*
X484609Y384714D01*
X484942Y383641D01*
X484808Y383549D01*
X484703Y383549D01*
X484568Y383492D01*
X376800D01*
X375471Y383228D01*
X374345Y382475D01*
X366265Y374395D01*
X365513Y373269D01*
X365248Y371940D01*
Y363363D01*
X365192Y363241D01*
X365176Y362794D01*
X365135Y362425D01*
X365068Y362076D01*
X364976Y361744D01*
X364859Y361426D01*
X364715Y361120D01*
X364544Y360822D01*
X364344Y360532D01*
X364113Y360248D01*
X363808Y359926D01*
X363700Y359645D01*
X363251Y359196D01*
X362352Y357638D01*
X361886Y355900D01*
Y354100D01*
X362352Y352362D01*
X363251Y350804D01*
X364524Y349531D01*
X366082Y348632D01*
X367820Y348166D01*
X369620D01*
X371358Y348632D01*
X372916Y349531D01*
X374189Y350804D01*
X375088Y352362D01*
X375554Y354100D01*
Y355900D01*
X375088Y357638D01*
X374189Y359196D01*
X373740Y359645D01*
X373632Y359926D01*
X373327Y360248D01*
X373096Y360532D01*
X372896Y360822D01*
X372725Y361120D01*
X372581Y361426D01*
X372464Y361744D01*
X372372Y362076D01*
X372305Y362425D01*
X372264Y362794D01*
X372248Y363241D01*
X372192Y363363D01*
Y370502D01*
X378238Y376548D01*
X484561D01*
X484693Y376492D01*
X485316Y376484D01*
X485769Y376464D01*
X486050Y376436D01*
X486281Y376205D01*
X487935Y375520D01*
X489725D01*
X491379Y376205D01*
X492645Y377471D01*
X493330Y379125D01*
Y380915D01*
X492645Y382569D01*
X491573Y383641D01*
X491770Y384557D01*
X491962Y384911D01*
X497380D01*
X497513Y384855D01*
X498136Y384847D01*
X498589Y384827D01*
X498870Y384799D01*
X499101Y384568D01*
X500755Y383883D01*
X502545D01*
X504199Y384568D01*
X505465Y385834D01*
X506150Y387488D01*
Y389278D01*
X505465Y390932D01*
X504609Y391788D01*
X505135Y393058D01*
X510560D01*
X510693Y393002D01*
X511316Y392994D01*
X511769Y392974D01*
X512050Y392946D01*
X512281Y392715D01*
X513935Y392030D01*
X515725D01*
X517379Y392715D01*
X518645Y393981D01*
X519330Y395635D01*
Y397425D01*
X518645Y399079D01*
X518116Y399608D01*
X518643Y400878D01*
X523560D01*
X523693Y400821D01*
X524316Y400813D01*
X524769Y400793D01*
X525050Y400765D01*
X525281Y400534D01*
X526935Y399849D01*
X528725D01*
X530379Y400534D01*
X531645Y401800D01*
X532330Y403454D01*
Y405244D01*
X531645Y406898D01*
X530379Y408164D01*
X528725Y408849D01*
X526935D01*
X525281Y408164D01*
X525070Y407953D01*
X523993Y407879D01*
X523703Y407878D01*
X523568Y407821D01*
X387109D01*
X386583Y409091D01*
X387289Y409797D01*
X388254Y411469D01*
X388343Y411800D01*
D02*
G37*
G36*
X382320Y374534D02*
X380520D01*
X378782Y374068D01*
X377224Y373169D01*
X375951Y371896D01*
X375052Y370338D01*
X374586Y368600D01*
Y366800D01*
X375052Y365062D01*
X375951Y363504D01*
X377224Y362231D01*
X378782Y361332D01*
X380520Y360866D01*
X382320D01*
X384058Y361332D01*
X385616Y362231D01*
X386889Y363504D01*
X387788Y365062D01*
X388254Y366800D01*
Y368600D01*
X387788Y370338D01*
X386889Y371896D01*
X385616Y373169D01*
X384058Y374068D01*
X382320Y374534D01*
D02*
G37*
G36*
X288980D02*
X287180D01*
X285442Y374068D01*
X283884Y373169D01*
X282611Y371896D01*
X281712Y370338D01*
X281246Y368600D01*
Y366800D01*
X281712Y365062D01*
X282611Y363504D01*
X283884Y362231D01*
X285442Y361332D01*
X287180Y360866D01*
X288980D01*
X290718Y361332D01*
X292276Y362231D01*
X293549Y363504D01*
X294448Y365062D01*
X294914Y366800D01*
Y368600D01*
X294448Y370338D01*
X293549Y371896D01*
X292276Y373169D01*
X290718Y374068D01*
X288980Y374534D01*
D02*
G37*
G36*
X195640D02*
X193840D01*
X192102Y374068D01*
X190544Y373169D01*
X189271Y371896D01*
X188372Y370338D01*
X187906Y368600D01*
Y366800D01*
X188372Y365062D01*
X189271Y363504D01*
X190544Y362231D01*
X192102Y361332D01*
X193840Y360866D01*
X195640D01*
X197378Y361332D01*
X198936Y362231D01*
X200209Y363504D01*
X201108Y365062D01*
X201574Y366800D01*
Y368600D01*
X201108Y370338D01*
X200209Y371896D01*
X198936Y373169D01*
X197378Y374068D01*
X195640Y374534D01*
D02*
G37*
G36*
X102300D02*
X100500D01*
X98762Y374068D01*
X97204Y373169D01*
X95931Y371896D01*
X95032Y370338D01*
X94566Y368600D01*
Y366800D01*
X95032Y365062D01*
X95931Y363504D01*
X97204Y362231D01*
X98762Y361332D01*
X100500Y360866D01*
X102300D01*
X104038Y361332D01*
X105596Y362231D01*
X106869Y363504D01*
X107768Y365062D01*
X108234Y366800D01*
Y368600D01*
X107768Y370338D01*
X106869Y371896D01*
X105596Y373169D01*
X104038Y374068D01*
X102300Y374534D01*
D02*
G37*
G36*
X395020Y361834D02*
X393220D01*
X391482Y361368D01*
X389924Y360469D01*
X388651Y359196D01*
X387752Y357638D01*
X387286Y355900D01*
Y354100D01*
X387752Y352362D01*
X388651Y350804D01*
X389924Y349531D01*
X391482Y348632D01*
X393220Y348166D01*
X395020D01*
X396758Y348632D01*
X398316Y349531D01*
X399589Y350804D01*
X400488Y352362D01*
X400954Y354100D01*
Y355900D01*
X400488Y357638D01*
X399589Y359196D01*
X398316Y360469D01*
X396758Y361368D01*
X395020Y361834D01*
D02*
G37*
G36*
X301680D02*
X299880D01*
X298142Y361368D01*
X296584Y360469D01*
X295311Y359196D01*
X294412Y357638D01*
X293946Y355900D01*
Y354100D01*
X294412Y352362D01*
X295311Y350804D01*
X296584Y349531D01*
X298142Y348632D01*
X299880Y348166D01*
X301680D01*
X303418Y348632D01*
X304976Y349531D01*
X306249Y350804D01*
X307148Y352362D01*
X307614Y354100D01*
Y355900D01*
X307148Y357638D01*
X306249Y359196D01*
X304976Y360469D01*
X303418Y361368D01*
X301680Y361834D01*
D02*
G37*
G36*
X208340D02*
X206540D01*
X204802Y361368D01*
X203244Y360469D01*
X201971Y359196D01*
X201072Y357638D01*
X200606Y355900D01*
Y354100D01*
X201072Y352362D01*
X201971Y350804D01*
X203244Y349531D01*
X204802Y348632D01*
X206540Y348166D01*
X208340D01*
X210078Y348632D01*
X211636Y349531D01*
X212909Y350804D01*
X213808Y352362D01*
X214274Y354100D01*
Y355900D01*
X213808Y357638D01*
X212909Y359196D01*
X211636Y360469D01*
X210078Y361368D01*
X208340Y361834D01*
D02*
G37*
G36*
X115000D02*
X113200D01*
X111462Y361368D01*
X109904Y360469D01*
X108631Y359196D01*
X107732Y357638D01*
X107266Y355900D01*
Y354100D01*
X107732Y352362D01*
X108631Y350804D01*
X109904Y349531D01*
X111462Y348632D01*
X113200Y348166D01*
X115000D01*
X116738Y348632D01*
X118296Y349531D01*
X119569Y350804D01*
X120468Y352362D01*
X120934Y354100D01*
Y355900D01*
X120468Y357638D01*
X119569Y359196D01*
X118296Y360469D01*
X116738Y361368D01*
X115000Y361834D01*
D02*
G37*
G36*
X463725Y355020D02*
X461935D01*
X460281Y354335D01*
X459015Y353069D01*
X458330Y351415D01*
Y349625D01*
X459015Y347971D01*
X460281Y346705D01*
X461935Y346020D01*
X463725D01*
X465379Y346705D01*
X466645Y347971D01*
X467330Y349625D01*
Y351415D01*
X466645Y353069D01*
X465379Y354335D01*
X463725Y355020D01*
D02*
G37*
G36*
X447942D02*
X446151D01*
X444497Y354335D01*
X443232Y353069D01*
X442547Y351415D01*
Y349625D01*
X443232Y347971D01*
X444497Y346705D01*
X446151Y346020D01*
X447942D01*
X449595Y346705D01*
X450861Y347971D01*
X451547Y349625D01*
Y351415D01*
X450861Y353069D01*
X449595Y354335D01*
X447942Y355020D01*
D02*
G37*
G36*
X383920Y349223D02*
Y344800D01*
X388343D01*
X388254Y345131D01*
X387289Y346803D01*
X385923Y348169D01*
X384251Y349134D01*
X383920Y349223D01*
D02*
G37*
G36*
X378920D02*
X378589Y349134D01*
X376917Y348169D01*
X375551Y346803D01*
X374586Y345131D01*
X374497Y344800D01*
X378920D01*
Y349223D01*
D02*
G37*
G36*
X290580D02*
Y344800D01*
X295003D01*
X294914Y345131D01*
X293949Y346803D01*
X292583Y348169D01*
X290911Y349134D01*
X290580Y349223D01*
D02*
G37*
G36*
X285580D02*
X285249Y349134D01*
X283577Y348169D01*
X282211Y346803D01*
X281246Y345131D01*
X281157Y344800D01*
X285580D01*
Y349223D01*
D02*
G37*
G36*
X197240D02*
Y344800D01*
X201663D01*
X201574Y345131D01*
X200609Y346803D01*
X199243Y348169D01*
X197571Y349134D01*
X197240Y349223D01*
D02*
G37*
G36*
X192240D02*
X191909Y349134D01*
X190237Y348169D01*
X188871Y346803D01*
X187906Y345131D01*
X187817Y344800D01*
X192240D01*
Y349223D01*
D02*
G37*
G36*
X103900D02*
Y344800D01*
X108323D01*
X108234Y345131D01*
X107269Y346803D01*
X105903Y348169D01*
X104231Y349134D01*
X103900Y349223D01*
D02*
G37*
G36*
X98900D02*
X98569Y349134D01*
X96897Y348169D01*
X95531Y346803D01*
X94566Y345131D01*
X94477Y344800D01*
X98900D01*
Y349223D01*
D02*
G37*
G36*
X201663Y339800D02*
X197240D01*
Y335377D01*
X197571Y335466D01*
X199243Y336431D01*
X200609Y337797D01*
X201574Y339469D01*
X201663Y339800D01*
D02*
G37*
G36*
X192240D02*
X187817D01*
X187906Y339469D01*
X188871Y337797D01*
X190237Y336431D01*
X191909Y335466D01*
X192240Y335377D01*
Y339800D01*
D02*
G37*
G36*
X108323D02*
X103900D01*
Y335377D01*
X104231Y335466D01*
X105903Y336431D01*
X107269Y337797D01*
X108234Y339469D01*
X108323Y339800D01*
D02*
G37*
G36*
X98900D02*
X94477D01*
X94566Y339469D01*
X95531Y337797D01*
X96897Y336431D01*
X98569Y335466D01*
X98900Y335377D01*
Y339800D01*
D02*
G37*
G36*
X388343D02*
X374497D01*
X374586Y339469D01*
X375551Y337797D01*
X376917Y336431D01*
X378298Y335634D01*
X377972Y334364D01*
X291528D01*
X291201Y335634D01*
X292583Y336431D01*
X293949Y337797D01*
X294914Y339469D01*
X295003Y339800D01*
X281157D01*
X281246Y339469D01*
X282211Y337797D01*
X283577Y336431D01*
X284958Y335634D01*
X284632Y334364D01*
X205740D01*
X204592Y333888D01*
X204116Y332740D01*
Y304800D01*
X204592Y303652D01*
X205740Y303176D01*
X571500D01*
X572648Y303652D01*
X573124Y304800D01*
Y320328D01*
X694964D01*
X695184Y320108D01*
X696974Y319075D01*
X698970Y318540D01*
X701038D01*
X703034Y319075D01*
X704824Y320108D01*
X706286Y321570D01*
X707319Y323360D01*
X707854Y325356D01*
Y327424D01*
X707319Y329420D01*
X706286Y331210D01*
X704824Y332672D01*
X703034Y333705D01*
X701038Y334240D01*
X698970D01*
X696974Y333705D01*
X695184Y332672D01*
X694964Y332452D01*
X573124D01*
Y332740D01*
X572648Y333888D01*
X571500Y334364D01*
X384868D01*
X384542Y335634D01*
X385923Y336431D01*
X387289Y337797D01*
X388254Y339469D01*
X388343Y339800D01*
D02*
G37*
G36*
X332956Y288457D02*
X330591D01*
X328406Y287552D01*
X326734Y285880D01*
X325829Y283695D01*
Y281330D01*
X326734Y279145D01*
X328406Y277472D01*
X330591Y276567D01*
X332956D01*
X335141Y277472D01*
X336814Y279145D01*
X337719Y281330D01*
Y283695D01*
X336814Y285880D01*
X335141Y287552D01*
X332956Y288457D01*
D02*
G37*
G36*
X681755Y292001D02*
X413170D01*
X412480Y291864D01*
X412274D01*
X412084Y291785D01*
X411395Y291648D01*
X410811Y291258D01*
X410620Y291179D01*
X410475Y291034D01*
X409891Y290643D01*
X409500Y290059D01*
X409355Y289913D01*
X409276Y289723D01*
X408885Y289139D01*
X408748Y288449D01*
X408670Y288259D01*
Y288053D01*
X408532Y287364D01*
X408670Y286675D01*
Y286469D01*
X408748Y286279D01*
X408885Y285590D01*
X409276Y285005D01*
X409355Y284815D01*
X409500Y284670D01*
X409891Y284085D01*
X410475Y283695D01*
X410620Y283549D01*
X410811Y283470D01*
X411395Y283080D01*
X412084Y282943D01*
X412274Y282864D01*
X412480D01*
X413170Y282727D01*
X553587D01*
X554124Y281991D01*
X554239Y281489D01*
X554160Y281299D01*
X553770Y280715D01*
X553633Y280025D01*
X553554Y279835D01*
Y279629D01*
X553417Y278940D01*
X553554Y278251D01*
Y278045D01*
X553633Y277855D01*
X553770Y277166D01*
X554160Y276581D01*
X554239Y276391D01*
X554385Y276246D01*
X554775Y275661D01*
X555360Y275271D01*
X555505Y275125D01*
X555695Y275047D01*
X556280Y274656D01*
X556969Y274519D01*
X557159Y274440D01*
X557365D01*
X558054Y274303D01*
X751840D01*
X752529Y274440D01*
X752735D01*
X752925Y274519D01*
X753615Y274656D01*
X754199Y275047D01*
X754389Y275125D01*
X754535Y275271D01*
X755119Y275661D01*
X755509Y276246D01*
X755655Y276391D01*
X755734Y276581D01*
X756124Y277166D01*
X756261Y277855D01*
X756340Y278045D01*
Y278251D01*
X756477Y278940D01*
X756340Y279629D01*
Y279835D01*
X756261Y280025D01*
X756124Y280715D01*
X755734Y281299D01*
X755655Y281489D01*
X755509Y281635D01*
X755119Y282219D01*
X754535Y282610D01*
X754389Y282755D01*
X754199Y282834D01*
X753615Y283224D01*
X752925Y283361D01*
X752735Y283440D01*
X752529D01*
X751840Y283577D01*
X686222D01*
X685685Y284313D01*
X685570Y284815D01*
X685648Y285005D01*
X686039Y285590D01*
X686176Y286279D01*
X686255Y286469D01*
Y286675D01*
X686392Y287364D01*
X686255Y288053D01*
Y288259D01*
X686176Y288449D01*
X686039Y289139D01*
X685648Y289723D01*
X685570Y289913D01*
X685424Y290059D01*
X685034Y290643D01*
X684449Y291034D01*
X684304Y291179D01*
X684114Y291258D01*
X683529Y291648D01*
X682840Y291785D01*
X682650Y291864D01*
X682444D01*
X681755Y292001D01*
D02*
G37*
G36*
X542958Y257665D02*
X374026Y257665D01*
X373337Y257528D01*
X373131D01*
X372941Y257449D01*
X372252Y257312D01*
X371668Y256921D01*
X371477Y256842D01*
X371332Y256697D01*
X370747Y256306D01*
X370357Y255722D01*
X370212Y255577D01*
X370133Y255387D01*
X369742Y254802D01*
X369605Y254113D01*
X369526Y253923D01*
Y253717D01*
X369389Y253028D01*
X369526Y252338D01*
Y252132D01*
X369605Y251942D01*
X369742Y251253D01*
X370133Y250669D01*
X370212Y250479D01*
X370357Y250333D01*
X370747Y249749D01*
X371332Y249358D01*
X371477Y249213D01*
X371668Y249134D01*
X372252Y248743D01*
X372941Y248606D01*
X373131Y248528D01*
X373337D01*
X374026Y248391D01*
X542958Y248391D01*
X543647Y248528D01*
X543853D01*
X544043Y248606D01*
X544733Y248743D01*
X545317Y249134D01*
X545507Y249213D01*
X545653Y249358D01*
X546237Y249749D01*
X546628Y250333D01*
X546773Y250479D01*
X546852Y250669D01*
X547242Y251253D01*
X547379Y251942D01*
X547458Y252132D01*
Y252338D01*
X547595Y253028D01*
X547458Y253717D01*
Y253923D01*
X547379Y254113D01*
X547242Y254802D01*
X546852Y255387D01*
X546773Y255577D01*
X546628Y255722D01*
X546237Y256307D01*
X545653Y256697D01*
X545507Y256842D01*
X545317Y256921D01*
X544733Y257312D01*
X544043Y257449D01*
X543853Y257528D01*
X543647D01*
X542958Y257665D01*
D02*
G37*
G36*
X745742Y230188D02*
X743674D01*
X741678Y229653D01*
X739888Y228620D01*
X739501Y228232D01*
X736123Y228178D01*
X736107Y228171D01*
X736082D01*
X736068Y228176D01*
X736057Y228171D01*
X598796D01*
X598576Y228391D01*
X596786Y229424D01*
X594790Y229959D01*
X592723D01*
X590726Y229424D01*
X588936Y228391D01*
X588723Y228178D01*
X585411D01*
X585394Y228171D01*
X350621Y228171D01*
X350401Y228391D01*
X348611Y229424D01*
X346614Y229959D01*
X344547D01*
X342551Y229424D01*
X340761Y228391D01*
X339299Y226929D01*
X338266Y225139D01*
X337731Y223143D01*
Y221076D01*
X338266Y219079D01*
X339299Y217289D01*
X340761Y215828D01*
X342551Y214794D01*
X344547Y214259D01*
X346614D01*
X348611Y214794D01*
X350401Y215828D01*
X350621Y216048D01*
X585394Y216048D01*
X585411Y216041D01*
X588723D01*
X588936Y215828D01*
X590726Y214794D01*
X592723Y214259D01*
X594790D01*
X596786Y214794D01*
X598576Y215828D01*
X598796Y216048D01*
X736612D01*
X736629Y216041D01*
X737004Y216048D01*
X739903D01*
X741678Y215023D01*
X743674Y214488D01*
X745742D01*
X747738Y215023D01*
X749528Y216057D01*
X750990Y217518D01*
X752023Y219308D01*
X752558Y221305D01*
Y223372D01*
X752023Y225368D01*
X750990Y227158D01*
X749528Y228620D01*
X747738Y229653D01*
X745742Y230188D01*
D02*
G37*
G36*
X613035Y179760D02*
X611245D01*
X609591Y179075D01*
X609295Y178779D01*
X608248Y178714D01*
X607952Y178712D01*
X607930Y178703D01*
X607909Y178711D01*
X607785Y178655D01*
X425218D01*
X425082Y178712D01*
X424762Y178714D01*
X423998Y178738D01*
X423731Y178761D01*
X423570Y178923D01*
X421916Y179608D01*
X420126D01*
X418472Y178923D01*
X417206Y177657D01*
X416521Y176003D01*
Y174212D01*
X417206Y172558D01*
X418472Y171293D01*
X420126Y170608D01*
X421916D01*
X423570Y171293D01*
X423867Y171589D01*
X424914Y171653D01*
X425210Y171655D01*
X425231Y171664D01*
X425253Y171656D01*
X425376Y171712D01*
X607944D01*
X608079Y171655D01*
X608399Y171654D01*
X609163Y171630D01*
X609430Y171606D01*
X609591Y171445D01*
X611245Y170760D01*
X613035D01*
X614689Y171445D01*
X615955Y172711D01*
X616640Y174365D01*
Y176155D01*
X615955Y177809D01*
X614689Y179075D01*
X613035Y179760D01*
D02*
G37*
G36*
X620655Y169600D02*
X618865D01*
X617211Y168915D01*
X617000Y168703D01*
X615924Y168630D01*
X615633Y168629D01*
X615498Y168572D01*
X453849D01*
X453717Y168629D01*
X453094Y168636D01*
X452641Y168656D01*
X452360Y168684D01*
X452129Y168915D01*
X450475Y169600D01*
X448685D01*
X447031Y168915D01*
X445765Y167649D01*
X445080Y165995D01*
Y164205D01*
X445765Y162551D01*
X447031Y161285D01*
X448685Y160600D01*
X450475D01*
X452129Y161285D01*
X452341Y161497D01*
X453416Y161570D01*
X453707Y161571D01*
X453842Y161628D01*
X615490D01*
X615623Y161572D01*
X616246Y161564D01*
X616699Y161544D01*
X616980Y161516D01*
X617211Y161285D01*
X618865Y160600D01*
X620655D01*
X622309Y161285D01*
X623575Y162551D01*
X624260Y164205D01*
Y165995D01*
X623575Y167649D01*
X622309Y168915D01*
X620655Y169600D01*
D02*
G37*
G36*
X628275Y156900D02*
X626485D01*
X624831Y156215D01*
X624619Y156003D01*
X623544Y155930D01*
X623253Y155929D01*
X623118Y155872D01*
X408130D01*
X407997Y155928D01*
X407374Y155936D01*
X406921Y155956D01*
X406640Y155984D01*
X406409Y156215D01*
X404755Y156900D01*
X402965D01*
X401311Y156215D01*
X400045Y154949D01*
X399360Y153295D01*
Y151505D01*
X400045Y149851D01*
X401311Y148585D01*
X402965Y147900D01*
X404755D01*
X406409Y148585D01*
X406620Y148797D01*
X407696Y148870D01*
X407987Y148871D01*
X408122Y148928D01*
X434451D01*
X434474Y148894D01*
X434840Y147658D01*
X433841Y146659D01*
X433156Y145005D01*
Y143215D01*
X433700Y141902D01*
X433111Y140632D01*
X408130D01*
X407997Y140688D01*
X407374Y140696D01*
X406921Y140716D01*
X406640Y140744D01*
X406409Y140975D01*
X404755Y141660D01*
X402965D01*
X401311Y140975D01*
X400045Y139709D01*
X399360Y138055D01*
Y136265D01*
X400045Y134611D01*
X401311Y133345D01*
X402965Y132660D01*
X404755D01*
X406409Y133345D01*
X406620Y133557D01*
X407696Y133630D01*
X407987Y133631D01*
X408122Y133688D01*
X600251D01*
X600383Y133631D01*
X601006Y133624D01*
X601459Y133604D01*
X601740Y133576D01*
X601971Y133345D01*
X603625Y132660D01*
X605415D01*
X607069Y133345D01*
X608335Y134611D01*
X609020Y136265D01*
Y138055D01*
X608335Y139709D01*
X608244Y139800D01*
X608730Y140973D01*
X620888D01*
X621019Y140917D01*
X622351Y140896D01*
X622479Y140887D01*
X623945Y140280D01*
X625735D01*
X627389Y140965D01*
X628655Y142231D01*
X629340Y143885D01*
Y145675D01*
X628655Y147329D01*
X629410Y148370D01*
X629929Y148585D01*
X631195Y149851D01*
X631880Y151505D01*
Y153295D01*
X631195Y154949D01*
X629929Y156215D01*
X628275Y156900D01*
D02*
G37*
G36*
X345440Y270864D02*
X81280D01*
X80132Y270388D01*
X77592Y267848D01*
X77116Y266700D01*
Y139700D01*
X77592Y138552D01*
X80132Y136012D01*
X81280Y135536D01*
X106680D01*
X107828Y136012D01*
X110368Y138552D01*
X110844Y139700D01*
Y235548D01*
X112432Y237136D01*
X345440D01*
X346588Y237612D01*
X349128Y240152D01*
X349604Y241300D01*
Y266700D01*
X349128Y267848D01*
X346588Y270388D01*
X345440Y270864D01*
D02*
G37*
G36*
X728605Y130230D02*
X726815D01*
X725161Y129545D01*
X723895Y128279D01*
X723210Y126625D01*
Y124835D01*
X723895Y123181D01*
X725161Y121915D01*
X726815Y121230D01*
X728605D01*
X730259Y121915D01*
X731525Y123181D01*
X732210Y124835D01*
Y126625D01*
X731525Y128279D01*
X730259Y129545D01*
X728605Y130230D01*
D02*
G37*
G36*
X577475D02*
X575685D01*
X574031Y129545D01*
X572765Y128279D01*
X572080Y126625D01*
Y124835D01*
X572765Y123181D01*
X574031Y121915D01*
X575685Y121230D01*
X577475D01*
X579129Y121915D01*
X580395Y123181D01*
X581080Y124835D01*
Y126625D01*
X580395Y128279D01*
X579129Y129545D01*
X577475Y130230D01*
D02*
G37*
G36*
X379288Y106710D02*
X377497D01*
X375844Y106025D01*
X374578Y104759D01*
X373893Y103105D01*
Y101315D01*
X374578Y99661D01*
X375844Y98395D01*
X377497Y97710D01*
X379288D01*
X380942Y98395D01*
X382207Y99661D01*
X382893Y101315D01*
Y103105D01*
X382207Y104759D01*
X380942Y106025D01*
X379288Y106710D01*
D02*
G37*
G36*
X783215Y686490D02*
X781425D01*
X780613Y686154D01*
X759460D01*
X758312Y685678D01*
X757836Y684530D01*
Y94653D01*
X756247Y93064D01*
X714809D01*
Y94412D01*
X714124Y96066D01*
X712858Y97332D01*
X711204Y98017D01*
X709414D01*
X707760Y97332D01*
X706494Y96066D01*
X705809Y94412D01*
Y93064D01*
X563857D01*
Y94475D01*
X563172Y96129D01*
X561906Y97395D01*
X560252Y98080D01*
X558462D01*
X556808Y97395D01*
X555542Y96129D01*
X554857Y94475D01*
Y93064D01*
X343573D01*
X341984Y94653D01*
Y96520D01*
X341508Y97668D01*
X338968Y100208D01*
X337820Y100684D01*
X320040Y100684D01*
X318892Y100208D01*
X316352Y97668D01*
X315876Y96520D01*
Y73660D01*
X316352Y72512D01*
X318892Y69972D01*
X320040Y69496D01*
X774700D01*
X775848Y69972D01*
X778388Y72512D01*
X778864Y73660D01*
Y670206D01*
X784860D01*
X786008Y670682D01*
X787278Y671952D01*
X787754Y673100D01*
Y683260D01*
X787278Y684408D01*
X786008Y685678D01*
X784860Y686154D01*
X784027D01*
X783215Y686490D01*
D02*
G37*
G36*
X379288Y57912D02*
X377497D01*
X375844Y57227D01*
X374578Y55961D01*
X373893Y54307D01*
Y52517D01*
X374578Y50863D01*
X375844Y49597D01*
X377497Y48912D01*
X379288D01*
X380942Y49597D01*
X382207Y50863D01*
X382893Y52517D01*
Y54307D01*
X382207Y55961D01*
X380942Y57227D01*
X379288Y57912D01*
D02*
G37*
%LPD*%
G36*
X525688Y762249D02*
X525633Y762286D01*
X525547Y762319D01*
X525429Y762349D01*
X525280Y762374D01*
X524885Y762413D01*
X524362Y762436D01*
X523713Y762444D01*
Y766254D01*
X524053Y766256D01*
X525429Y766350D01*
X525547Y766379D01*
X525633Y766412D01*
X525688Y766449D01*
Y762249D01*
D02*
G37*
G36*
X512688Y754430D02*
X512633Y754467D01*
X512547Y754500D01*
X512430Y754529D01*
X512280Y754555D01*
X511885Y754594D01*
X511362Y754617D01*
X510713Y754625D01*
Y758435D01*
X511053Y758437D01*
X512430Y758531D01*
X512547Y758560D01*
X512633Y758593D01*
X512688Y758630D01*
Y754430D01*
D02*
G37*
G36*
X499508Y746283D02*
X499453Y746320D01*
X499367Y746353D01*
X499249Y746383D01*
X499100Y746408D01*
X498705Y746447D01*
X498182Y746470D01*
X497533Y746478D01*
Y750288D01*
X497873Y750290D01*
X499249Y750384D01*
X499367Y750413D01*
X499453Y750446D01*
X499508Y750483D01*
Y746283D01*
D02*
G37*
G36*
X486688Y737920D02*
X486633Y737957D01*
X486547Y737990D01*
X486430Y738019D01*
X486280Y738045D01*
X485885Y738084D01*
X485362Y738107D01*
X484712Y738115D01*
Y741925D01*
X485053Y741927D01*
X486430Y742020D01*
X486547Y742050D01*
X486633Y742083D01*
X486688Y742120D01*
Y737920D01*
D02*
G37*
G36*
X370643Y722674D02*
X370698Y722182D01*
X370790Y721705D01*
X370918Y721244D01*
X371082Y720799D01*
X371283Y720369D01*
X371521Y719956D01*
X371795Y719558D01*
X372106Y719175D01*
X372454Y718809D01*
X364986D01*
X365334Y719175D01*
X365645Y719558D01*
X365919Y719956D01*
X366157Y720369D01*
X366358Y720799D01*
X366522Y721244D01*
X366650Y721705D01*
X366742Y722182D01*
X366797Y722674D01*
X366815Y723183D01*
X370625D01*
X370643Y722674D01*
D02*
G37*
G36*
X277303D02*
X277358Y722182D01*
X277450Y721705D01*
X277578Y721244D01*
X277742Y720799D01*
X277943Y720369D01*
X278181Y719956D01*
X278455Y719558D01*
X278766Y719175D01*
X279114Y718809D01*
X271646D01*
X271994Y719175D01*
X272305Y719558D01*
X272579Y719956D01*
X272817Y720369D01*
X273018Y720799D01*
X273182Y721244D01*
X273310Y721705D01*
X273402Y722182D01*
X273457Y722674D01*
X273475Y723183D01*
X277285D01*
X277303Y722674D01*
D02*
G37*
G36*
X183963D02*
X184018Y722182D01*
X184110Y721705D01*
X184238Y721244D01*
X184402Y720799D01*
X184603Y720369D01*
X184841Y719956D01*
X185115Y719558D01*
X185426Y719175D01*
X185774Y718809D01*
X178306D01*
X178654Y719175D01*
X178965Y719558D01*
X179239Y719956D01*
X179477Y720369D01*
X179678Y720799D01*
X179842Y721244D01*
X179970Y721705D01*
X180062Y722182D01*
X180117Y722674D01*
X180135Y723183D01*
X183945D01*
X183963Y722674D01*
D02*
G37*
G36*
X90623D02*
X90678Y722182D01*
X90770Y721705D01*
X90898Y721244D01*
X91062Y720799D01*
X91263Y720369D01*
X91501Y719956D01*
X91775Y719558D01*
X92086Y719175D01*
X92434Y718809D01*
X84966D01*
X85314Y719175D01*
X85625Y719558D01*
X85899Y719956D01*
X86137Y720369D01*
X86338Y720799D01*
X86502Y721244D01*
X86630Y721705D01*
X86722Y722182D01*
X86777Y722674D01*
X86795Y723183D01*
X90605D01*
X90623Y722674D01*
D02*
G37*
G36*
X582458Y723886D02*
X582403Y723923D01*
X582317Y723956D01*
X582200Y723985D01*
X582050Y724011D01*
X581655Y724050D01*
X581132Y724073D01*
X580482Y724081D01*
Y727891D01*
X580823Y727893D01*
X582200Y727987D01*
X582317Y728016D01*
X582403Y728049D01*
X582458Y728086D01*
Y723886D01*
D02*
G37*
G36*
X477920Y728014D02*
X478001Y727988D01*
X478115Y727965D01*
X478262Y727946D01*
X478652Y727915D01*
X479823Y727891D01*
X480057Y724081D01*
X479717Y724079D01*
X478487Y723997D01*
X478336Y723967D01*
X478215Y723932D01*
X478127Y723892D01*
X478069Y723848D01*
X477871Y728043D01*
X477920Y728014D01*
D02*
G37*
G36*
X774700Y797560D02*
X774700Y713740D01*
X772160Y711200D01*
X751840D01*
X749300Y713740D01*
Y772160D01*
X746760Y774700D01*
X579120D01*
X576580Y772160D01*
Y746760D01*
X541020D01*
Y797560D01*
X543560Y800100D01*
X772160D01*
X774700Y797560D01*
D02*
G37*
G36*
X525688Y690249D02*
X525633Y690286D01*
X525547Y690319D01*
X525429Y690349D01*
X525280Y690374D01*
X524885Y690413D01*
X524362Y690436D01*
X523713Y690444D01*
Y694254D01*
X524053Y694256D01*
X525429Y694350D01*
X525547Y694379D01*
X525633Y694412D01*
X525688Y694449D01*
Y690249D01*
D02*
G37*
G36*
X512688Y682430D02*
X512633Y682467D01*
X512547Y682500D01*
X512430Y682529D01*
X512280Y682555D01*
X511885Y682594D01*
X511362Y682617D01*
X510713Y682625D01*
Y686435D01*
X511053Y686437D01*
X512430Y686531D01*
X512547Y686560D01*
X512633Y686593D01*
X512688Y686630D01*
Y682430D01*
D02*
G37*
G36*
X499641Y674283D02*
X499586Y674320D01*
X499500Y674353D01*
X499383Y674382D01*
X499233Y674408D01*
X498838Y674447D01*
X498315Y674470D01*
X497665Y674478D01*
Y678288D01*
X498006Y678290D01*
X499383Y678384D01*
X499500Y678413D01*
X499586Y678446D01*
X499641Y678483D01*
Y674283D01*
D02*
G37*
G36*
X486688Y665920D02*
X486633Y665957D01*
X486547Y665990D01*
X486430Y666019D01*
X486280Y666045D01*
X485885Y666084D01*
X485362Y666107D01*
X484712Y666115D01*
Y669925D01*
X485053Y669927D01*
X486430Y670021D01*
X486547Y670050D01*
X486633Y670083D01*
X486688Y670120D01*
Y665920D01*
D02*
G37*
G36*
X370643Y650674D02*
X370698Y650182D01*
X370790Y649705D01*
X370918Y649244D01*
X371082Y648799D01*
X371283Y648369D01*
X371521Y647956D01*
X371795Y647558D01*
X372106Y647176D01*
X372454Y646809D01*
X364986D01*
X365334Y647176D01*
X365645Y647558D01*
X365919Y647956D01*
X366157Y648369D01*
X366358Y648799D01*
X366522Y649244D01*
X366650Y649705D01*
X366742Y650182D01*
X366797Y650674D01*
X366815Y651182D01*
X370625D01*
X370643Y650674D01*
D02*
G37*
G36*
X277303D02*
X277358Y650182D01*
X277450Y649705D01*
X277578Y649244D01*
X277742Y648799D01*
X277943Y648369D01*
X278181Y647956D01*
X278455Y647558D01*
X278766Y647176D01*
X279114Y646809D01*
X271646D01*
X271994Y647176D01*
X272305Y647558D01*
X272579Y647956D01*
X272817Y648369D01*
X273018Y648799D01*
X273182Y649244D01*
X273310Y649705D01*
X273402Y650182D01*
X273457Y650674D01*
X273475Y651182D01*
X277285D01*
X277303Y650674D01*
D02*
G37*
G36*
X183963D02*
X184018Y650182D01*
X184110Y649705D01*
X184238Y649244D01*
X184402Y648799D01*
X184603Y648369D01*
X184841Y647956D01*
X185115Y647558D01*
X185426Y647176D01*
X185774Y646809D01*
X178306D01*
X178654Y647176D01*
X178965Y647558D01*
X179239Y647956D01*
X179477Y648369D01*
X179678Y648799D01*
X179842Y649244D01*
X179970Y649705D01*
X180062Y650182D01*
X180117Y650674D01*
X180135Y651182D01*
X183945D01*
X183963Y650674D01*
D02*
G37*
G36*
X90623D02*
X90678Y650182D01*
X90770Y649705D01*
X90898Y649244D01*
X91062Y648799D01*
X91263Y648369D01*
X91501Y647956D01*
X91775Y647558D01*
X92086Y647176D01*
X92434Y646809D01*
X84966D01*
X85314Y647176D01*
X85625Y647558D01*
X85899Y647956D01*
X86137Y648369D01*
X86338Y648799D01*
X86502Y649244D01*
X86630Y649705D01*
X86722Y650182D01*
X86777Y650674D01*
X86795Y651182D01*
X90605D01*
X90623Y650674D01*
D02*
G37*
G36*
X606742Y652276D02*
X606828Y652241D01*
X606947Y652211D01*
X607097Y652184D01*
X607493Y652143D01*
X608016Y652119D01*
X608666Y652110D01*
X608609Y648300D01*
X608268Y648299D01*
X606893Y648210D01*
X606776Y648182D01*
X606691Y648151D01*
X606638Y648115D01*
X606687Y652315D01*
X606742Y652276D01*
D02*
G37*
G36*
X719049Y648096D02*
X718994Y648135D01*
X718907Y648169D01*
X718788Y648200D01*
X718638Y648227D01*
X718242Y648268D01*
X717720Y648292D01*
X717070Y648300D01*
X717127Y652110D01*
X717468Y652112D01*
X718842Y652201D01*
X718959Y652229D01*
X719044Y652260D01*
X719097Y652295D01*
X719049Y648096D01*
D02*
G37*
G36*
X629678Y634410D02*
X629767Y634370D01*
X629888Y634335D01*
X630039Y634305D01*
X630222Y634279D01*
X630683Y634241D01*
X631609Y634220D01*
X631371Y630410D01*
X631029Y630409D01*
X629549Y630314D01*
X629468Y630288D01*
X629419Y630259D01*
X629621Y634454D01*
X629678Y634410D01*
D02*
G37*
G36*
X625423Y630186D02*
X625380Y630208D01*
X625303Y630228D01*
X625194Y630245D01*
X624875Y630272D01*
X624148Y630296D01*
X623497Y630301D01*
X623075Y634111D01*
X623415Y634114D01*
X624646Y634205D01*
X624798Y634239D01*
X624919Y634277D01*
X625009Y634322D01*
X625067Y634371D01*
X625423Y630186D01*
D02*
G37*
G36*
X719119Y630177D02*
X719062Y630221D01*
X718973Y630261D01*
X718852Y630296D01*
X718701Y630326D01*
X718518Y630352D01*
X718057Y630389D01*
X717131Y630410D01*
X717369Y634220D01*
X717711Y634222D01*
X719191Y634317D01*
X719272Y634343D01*
X719321Y634372D01*
X719119Y630177D01*
D02*
G37*
G36*
X581281Y634269D02*
X581367Y634236D01*
X581485Y634207D01*
X581635Y634181D01*
X582030Y634142D01*
X582552Y634119D01*
X583202Y634111D01*
X583202Y630301D01*
X582861Y630299D01*
X581485Y630205D01*
X581367Y630176D01*
X581281Y630143D01*
X581227Y630106D01*
X581227Y634306D01*
X581281Y634269D01*
D02*
G37*
G36*
X525688Y618249D02*
X525633Y618286D01*
X525547Y618319D01*
X525429Y618349D01*
X525280Y618374D01*
X524885Y618413D01*
X524362Y618436D01*
X523713Y618444D01*
Y622254D01*
X524053Y622256D01*
X525429Y622350D01*
X525547Y622379D01*
X525633Y622412D01*
X525688Y622449D01*
Y618249D01*
D02*
G37*
G36*
X512688Y610430D02*
X512633Y610467D01*
X512547Y610500D01*
X512430Y610530D01*
X512280Y610555D01*
X511885Y610594D01*
X511362Y610617D01*
X510713Y610625D01*
Y614435D01*
X511053Y614437D01*
X512430Y614531D01*
X512547Y614560D01*
X512633Y614593D01*
X512688Y614630D01*
Y610430D01*
D02*
G37*
G36*
X499641Y602283D02*
X499586Y602320D01*
X499500Y602353D01*
X499383Y602383D01*
X499233Y602408D01*
X498838Y602447D01*
X498315Y602470D01*
X497665Y602478D01*
Y606288D01*
X498006Y606290D01*
X499383Y606384D01*
X499500Y606413D01*
X499586Y606446D01*
X499641Y606483D01*
Y602283D01*
D02*
G37*
G36*
X486688Y593920D02*
X486633Y593957D01*
X486547Y593990D01*
X486430Y594020D01*
X486280Y594045D01*
X485885Y594084D01*
X485362Y594107D01*
X484712Y594115D01*
Y597925D01*
X485053Y597927D01*
X486430Y598021D01*
X486547Y598050D01*
X486633Y598083D01*
X486688Y598120D01*
Y593920D01*
D02*
G37*
G36*
X370643Y578674D02*
X370698Y578182D01*
X370790Y577705D01*
X370918Y577244D01*
X371082Y576799D01*
X371283Y576369D01*
X371521Y575956D01*
X371795Y575558D01*
X372106Y575176D01*
X372454Y574809D01*
X364986D01*
X365334Y575176D01*
X365645Y575558D01*
X365919Y575956D01*
X366157Y576369D01*
X366358Y576799D01*
X366522Y577244D01*
X366650Y577705D01*
X366742Y578182D01*
X366797Y578674D01*
X366815Y579183D01*
X370625D01*
X370643Y578674D01*
D02*
G37*
G36*
X277303D02*
X277358Y578182D01*
X277450Y577705D01*
X277578Y577244D01*
X277742Y576799D01*
X277943Y576369D01*
X278181Y575956D01*
X278455Y575558D01*
X278766Y575176D01*
X279114Y574809D01*
X271646D01*
X271994Y575176D01*
X272305Y575558D01*
X272579Y575956D01*
X272817Y576369D01*
X273018Y576799D01*
X273182Y577244D01*
X273310Y577705D01*
X273402Y578182D01*
X273457Y578674D01*
X273475Y579183D01*
X277285D01*
X277303Y578674D01*
D02*
G37*
G36*
X183963D02*
X184018Y578182D01*
X184110Y577705D01*
X184238Y577244D01*
X184402Y576799D01*
X184603Y576369D01*
X184841Y575956D01*
X185115Y575558D01*
X185426Y575176D01*
X185774Y574809D01*
X178306D01*
X178654Y575176D01*
X178965Y575558D01*
X179239Y575956D01*
X179477Y576369D01*
X179678Y576799D01*
X179842Y577244D01*
X179970Y577705D01*
X180062Y578182D01*
X180117Y578674D01*
X180135Y579183D01*
X183945D01*
X183963Y578674D01*
D02*
G37*
G36*
X90623D02*
X90678Y578182D01*
X90770Y577705D01*
X90898Y577244D01*
X91062Y576799D01*
X91263Y576369D01*
X91501Y575956D01*
X91775Y575558D01*
X92086Y575176D01*
X92434Y574809D01*
X84966D01*
X85314Y575176D01*
X85625Y575558D01*
X85899Y575956D01*
X86137Y576369D01*
X86338Y576799D01*
X86502Y577244D01*
X86630Y577705D01*
X86722Y578182D01*
X86777Y578674D01*
X86795Y579183D01*
X90605D01*
X90623Y578674D01*
D02*
G37*
G36*
X598347Y619029D02*
X598433Y618996D01*
X598550Y618967D01*
X598700Y618941D01*
X599095Y618902D01*
X599618Y618879D01*
X600267Y618871D01*
Y615061D01*
X599927Y615059D01*
X598550Y614965D01*
X598433Y614936D01*
X598347Y614903D01*
X598292Y614866D01*
Y619066D01*
X598347Y619029D01*
D02*
G37*
G36*
X719498Y614861D02*
X719443Y614899D01*
X719356Y614933D01*
X719238Y614963D01*
X719088Y614989D01*
X718693Y615029D01*
X718170Y615053D01*
X717520Y615061D01*
X717551Y618871D01*
X717891Y618873D01*
X719267Y618964D01*
X719384Y618992D01*
X719470Y619025D01*
X719523Y619061D01*
X719498Y614861D01*
D02*
G37*
G36*
X679625Y595848D02*
X679571Y595885D01*
X679485Y595918D01*
X679367Y595947D01*
X679217Y595972D01*
X678822Y596011D01*
X678300Y596035D01*
X677650Y596043D01*
Y599853D01*
X677991Y599855D01*
X679367Y599948D01*
X679485Y599977D01*
X679571Y600010D01*
X679625Y600048D01*
Y595848D01*
D02*
G37*
G36*
X588937Y518046D02*
X589023Y518013D01*
X589141Y517983D01*
X589290Y517958D01*
X589685Y517919D01*
X590208Y517896D01*
X590858Y517888D01*
Y514078D01*
X590517Y514076D01*
X589141Y513982D01*
X589023Y513953D01*
X588937Y513920D01*
X588882Y513883D01*
Y518083D01*
X588937Y518046D01*
D02*
G37*
G36*
X525688Y546249D02*
X525633Y546286D01*
X525547Y546319D01*
X525429Y546349D01*
X525280Y546374D01*
X524885Y546413D01*
X524362Y546436D01*
X523713Y546444D01*
Y550254D01*
X524053Y550256D01*
X525429Y550350D01*
X525547Y550379D01*
X525633Y550412D01*
X525688Y550449D01*
Y546249D01*
D02*
G37*
G36*
X512688Y538430D02*
X512633Y538467D01*
X512547Y538500D01*
X512430Y538530D01*
X512280Y538555D01*
X511885Y538594D01*
X511362Y538617D01*
X510713Y538625D01*
Y542435D01*
X511053Y542437D01*
X512430Y542531D01*
X512547Y542560D01*
X512633Y542593D01*
X512688Y542630D01*
Y538430D01*
D02*
G37*
G36*
X499508Y530283D02*
X499453Y530320D01*
X499367Y530353D01*
X499249Y530382D01*
X499100Y530408D01*
X498705Y530447D01*
X498182Y530470D01*
X497533Y530478D01*
Y534288D01*
X497873Y534290D01*
X499249Y534384D01*
X499367Y534413D01*
X499453Y534446D01*
X499508Y534483D01*
Y530283D01*
D02*
G37*
G36*
X486688Y521920D02*
X486633Y521957D01*
X486547Y521990D01*
X486430Y522020D01*
X486280Y522045D01*
X485885Y522084D01*
X485362Y522107D01*
X484712Y522115D01*
Y525925D01*
X485053Y525927D01*
X486430Y526021D01*
X486547Y526050D01*
X486633Y526083D01*
X486688Y526120D01*
Y521920D01*
D02*
G37*
G36*
X370643Y506674D02*
X370698Y506182D01*
X370790Y505705D01*
X370918Y505244D01*
X371082Y504799D01*
X371283Y504369D01*
X371521Y503956D01*
X371795Y503558D01*
X372106Y503176D01*
X372454Y502809D01*
X364986D01*
X365334Y503176D01*
X365645Y503558D01*
X365919Y503956D01*
X366157Y504369D01*
X366358Y504799D01*
X366522Y505244D01*
X366650Y505705D01*
X366742Y506182D01*
X366797Y506674D01*
X366815Y507183D01*
X370625D01*
X370643Y506674D01*
D02*
G37*
G36*
X277303D02*
X277358Y506182D01*
X277450Y505705D01*
X277578Y505244D01*
X277742Y504799D01*
X277943Y504369D01*
X278181Y503956D01*
X278455Y503558D01*
X278766Y503176D01*
X279114Y502809D01*
X271646D01*
X271994Y503176D01*
X272305Y503558D01*
X272579Y503956D01*
X272817Y504369D01*
X273018Y504799D01*
X273182Y505244D01*
X273310Y505705D01*
X273402Y506182D01*
X273457Y506674D01*
X273475Y507183D01*
X277285D01*
X277303Y506674D01*
D02*
G37*
G36*
X183963D02*
X184018Y506182D01*
X184110Y505705D01*
X184238Y505244D01*
X184402Y504799D01*
X184603Y504369D01*
X184841Y503956D01*
X185115Y503558D01*
X185426Y503176D01*
X185774Y502809D01*
X178306D01*
X178654Y503176D01*
X178965Y503558D01*
X179239Y503956D01*
X179477Y504369D01*
X179678Y504799D01*
X179842Y505244D01*
X179970Y505705D01*
X180062Y506182D01*
X180117Y506674D01*
X180135Y507183D01*
X183945D01*
X183963Y506674D01*
D02*
G37*
G36*
X90623D02*
X90678Y506182D01*
X90770Y505705D01*
X90898Y505244D01*
X91062Y504799D01*
X91263Y504369D01*
X91501Y503956D01*
X91775Y503558D01*
X92086Y503176D01*
X92434Y502809D01*
X84966D01*
X85314Y503176D01*
X85625Y503558D01*
X85899Y503956D01*
X86137Y504369D01*
X86338Y504799D01*
X86502Y505244D01*
X86630Y505705D01*
X86722Y506182D01*
X86777Y506674D01*
X86795Y507183D01*
X90605D01*
X90623Y506674D01*
D02*
G37*
G36*
X478475Y586234D02*
X478586Y586174D01*
X478725Y586122D01*
X478892Y586076D01*
X479087Y586038D01*
X479311Y586007D01*
X479842Y585965D01*
X480486Y585951D01*
Y582449D01*
X480150Y582446D01*
X479087Y582362D01*
X478892Y582324D01*
X478725Y582278D01*
X478586Y582226D01*
X478475Y582166D01*
X478392Y582100D01*
Y586300D01*
X478475Y586234D01*
D02*
G37*
G36*
X585223Y547377D02*
X586033Y546684D01*
X586199Y546573D01*
X586349Y546487D01*
X586484Y546426D01*
X586605Y546390D01*
X586710Y546378D01*
X583740Y543409D01*
X583729Y543514D01*
X583692Y543634D01*
X583631Y543769D01*
X583545Y543920D01*
X583434Y544085D01*
X583298Y544265D01*
X582952Y544671D01*
X582507Y545136D01*
X584982Y547612D01*
X585223Y547377D01*
D02*
G37*
G36*
X664608Y486850D02*
X664553Y486887D01*
X664467Y486920D01*
X664350Y486949D01*
X664200Y486975D01*
X663805Y487014D01*
X663282Y487037D01*
X662633Y487045D01*
Y490855D01*
X662973Y490857D01*
X664350Y490951D01*
X664467Y490980D01*
X664553Y491013D01*
X664608Y491050D01*
Y486850D01*
D02*
G37*
G36*
X465027Y491013D02*
X465113Y490980D01*
X465230Y490951D01*
X465380Y490925D01*
X465775Y490886D01*
X466298Y490863D01*
X466948Y490855D01*
Y487045D01*
X466607Y487043D01*
X465230Y486949D01*
X465113Y486920D01*
X465027Y486887D01*
X464972Y486850D01*
Y491050D01*
X465027Y491013D01*
D02*
G37*
G36*
X588649Y490916D02*
X588719Y490904D01*
X588823Y490892D01*
X589339Y490867D01*
X590504Y490855D01*
X591113Y487045D01*
X590774Y487042D01*
X589727Y486974D01*
X589544Y486943D01*
X589391Y486906D01*
X589270Y486864D01*
X589180Y486815D01*
X589121Y486762D01*
X588613Y490931D01*
X588649Y490916D01*
D02*
G37*
G36*
X584359Y486762D02*
X584300Y486815D01*
X584210Y486864D01*
X584089Y486906D01*
X583936Y486943D01*
X583753Y486974D01*
X583292Y487020D01*
X582706Y487042D01*
X582367Y487045D01*
X582976Y490855D01*
X584867Y490931D01*
X584359Y486762D01*
D02*
G37*
G36*
X525688Y474249D02*
X525633Y474286D01*
X525547Y474319D01*
X525429Y474349D01*
X525280Y474374D01*
X524885Y474413D01*
X524362Y474436D01*
X523713Y474444D01*
Y478254D01*
X524053Y478256D01*
X525429Y478350D01*
X525547Y478379D01*
X525633Y478412D01*
X525688Y478449D01*
Y474249D01*
D02*
G37*
G36*
X512688Y466430D02*
X512633Y466467D01*
X512547Y466500D01*
X512430Y466530D01*
X512280Y466555D01*
X511885Y466594D01*
X511362Y466617D01*
X510713Y466625D01*
Y470435D01*
X511053Y470437D01*
X512430Y470531D01*
X512547Y470560D01*
X512633Y470593D01*
X512688Y470630D01*
Y466430D01*
D02*
G37*
G36*
X499641Y458283D02*
X499586Y458320D01*
X499500Y458353D01*
X499383Y458382D01*
X499233Y458408D01*
X498838Y458447D01*
X498315Y458470D01*
X497665Y458478D01*
Y462288D01*
X498006Y462290D01*
X499383Y462384D01*
X499500Y462413D01*
X499586Y462446D01*
X499641Y462483D01*
Y458283D01*
D02*
G37*
G36*
X586710Y458192D02*
X586605Y458180D01*
X586484Y458144D01*
X586349Y458083D01*
X586199Y457997D01*
X586033Y457886D01*
X585853Y457750D01*
X585448Y457404D01*
X584982Y456958D01*
X582507Y459434D01*
X582742Y459674D01*
X583434Y460485D01*
X583545Y460650D01*
X583631Y460800D01*
X583692Y460936D01*
X583729Y461056D01*
X583740Y461161D01*
X586710Y458192D01*
D02*
G37*
G36*
X486688Y449920D02*
X486633Y449957D01*
X486547Y449990D01*
X486430Y450019D01*
X486280Y450045D01*
X485885Y450084D01*
X485362Y450107D01*
X484712Y450115D01*
Y453925D01*
X485053Y453927D01*
X486430Y454021D01*
X486547Y454050D01*
X486633Y454083D01*
X486688Y454120D01*
Y449920D01*
D02*
G37*
G36*
X478055Y444854D02*
X478166Y444794D01*
X478305Y444742D01*
X478472Y444696D01*
X478667Y444658D01*
X478891Y444627D01*
X479422Y444585D01*
X480066Y444571D01*
Y441069D01*
X479730Y441066D01*
X478667Y440982D01*
X478472Y440944D01*
X478305Y440898D01*
X478166Y440846D01*
X478055Y440786D01*
X477972Y440720D01*
Y444920D01*
X478055Y444854D01*
D02*
G37*
G36*
X370643Y434674D02*
X370698Y434182D01*
X370790Y433705D01*
X370918Y433244D01*
X371082Y432799D01*
X371283Y432369D01*
X371521Y431956D01*
X371795Y431558D01*
X372106Y431176D01*
X372454Y430809D01*
X364986D01*
X365334Y431176D01*
X365645Y431558D01*
X365919Y431956D01*
X366157Y432369D01*
X366358Y432799D01*
X366522Y433244D01*
X366650Y433705D01*
X366742Y434182D01*
X366797Y434674D01*
X366815Y435183D01*
X370625D01*
X370643Y434674D01*
D02*
G37*
G36*
X277303D02*
X277358Y434182D01*
X277450Y433705D01*
X277578Y433244D01*
X277742Y432799D01*
X277943Y432369D01*
X278181Y431956D01*
X278455Y431558D01*
X278766Y431176D01*
X279114Y430809D01*
X271646D01*
X271994Y431176D01*
X272305Y431558D01*
X272579Y431956D01*
X272817Y432369D01*
X273018Y432799D01*
X273182Y433244D01*
X273310Y433705D01*
X273402Y434182D01*
X273457Y434674D01*
X273475Y435183D01*
X277285D01*
X277303Y434674D01*
D02*
G37*
G36*
X183963D02*
X184018Y434182D01*
X184110Y433705D01*
X184238Y433244D01*
X184402Y432799D01*
X184603Y432369D01*
X184841Y431956D01*
X185115Y431558D01*
X185426Y431176D01*
X185774Y430809D01*
X178306D01*
X178654Y431176D01*
X178965Y431558D01*
X179239Y431956D01*
X179477Y432369D01*
X179678Y432799D01*
X179842Y433244D01*
X179970Y433705D01*
X180062Y434182D01*
X180117Y434674D01*
X180135Y435183D01*
X183945D01*
X183963Y434674D01*
D02*
G37*
G36*
X90623D02*
X90678Y434182D01*
X90770Y433705D01*
X90898Y433244D01*
X91062Y432799D01*
X91263Y432369D01*
X91501Y431956D01*
X91775Y431558D01*
X92086Y431176D01*
X92434Y430809D01*
X84966D01*
X85314Y431176D01*
X85625Y431558D01*
X85899Y431956D01*
X86137Y432369D01*
X86338Y432799D01*
X86502Y433244D01*
X86630Y433705D01*
X86722Y434182D01*
X86777Y434674D01*
X86795Y435183D01*
X90605D01*
X90623Y434674D01*
D02*
G37*
G36*
X602378Y428430D02*
X602323Y428467D01*
X602237Y428500D01*
X602119Y428529D01*
X601970Y428555D01*
X601575Y428594D01*
X601052Y428617D01*
X600402Y428625D01*
Y432435D01*
X600743Y432437D01*
X602119Y432531D01*
X602237Y432560D01*
X602323Y432593D01*
X602378Y432630D01*
Y428430D01*
D02*
G37*
G36*
X588937Y432593D02*
X589023Y432560D01*
X589141Y432531D01*
X589290Y432505D01*
X589685Y432466D01*
X590208Y432443D01*
X590858Y432435D01*
Y428625D01*
X590517Y428623D01*
X589141Y428529D01*
X589023Y428500D01*
X588937Y428467D01*
X588882Y428430D01*
Y432630D01*
X588937Y432593D01*
D02*
G37*
G36*
X584598Y428430D02*
X584543Y428467D01*
X584457Y428500D01*
X584339Y428529D01*
X582963Y428623D01*
X582622Y428625D01*
Y432435D01*
X583272Y432443D01*
X583795Y432466D01*
X584190Y432505D01*
X584339Y432531D01*
X584457Y432560D01*
X584543Y432593D01*
X584598Y432630D01*
Y428430D01*
D02*
G37*
G36*
X456857Y432593D02*
X456943Y432560D01*
X457061Y432531D01*
X457210Y432505D01*
X457605Y432466D01*
X458128Y432443D01*
X458778Y432435D01*
Y428625D01*
X458437Y428623D01*
X457061Y428529D01*
X456943Y428500D01*
X456857Y428467D01*
X456802Y428430D01*
Y432630D01*
X456857Y432593D01*
D02*
G37*
G36*
X525688Y402249D02*
X525633Y402286D01*
X525547Y402319D01*
X525429Y402349D01*
X525280Y402374D01*
X524885Y402413D01*
X524362Y402436D01*
X523713Y402444D01*
Y406254D01*
X524053Y406256D01*
X525429Y406350D01*
X525547Y406379D01*
X525633Y406412D01*
X525688Y406449D01*
Y402249D01*
D02*
G37*
G36*
X512688Y394430D02*
X512633Y394467D01*
X512547Y394500D01*
X512430Y394529D01*
X512280Y394555D01*
X511885Y394594D01*
X511362Y394617D01*
X510713Y394625D01*
Y398435D01*
X511053Y398437D01*
X512430Y398531D01*
X512547Y398560D01*
X512633Y398593D01*
X512688Y398630D01*
Y394430D01*
D02*
G37*
G36*
X499508Y386283D02*
X499453Y386320D01*
X499367Y386353D01*
X499249Y386382D01*
X499100Y386408D01*
X498705Y386447D01*
X498182Y386470D01*
X497533Y386478D01*
Y390288D01*
X497873Y390290D01*
X499249Y390384D01*
X499367Y390413D01*
X499453Y390446D01*
X499508Y390483D01*
Y386283D01*
D02*
G37*
G36*
X486688Y377920D02*
X486633Y377957D01*
X486547Y377990D01*
X486430Y378019D01*
X486280Y378045D01*
X485885Y378084D01*
X485362Y378107D01*
X484712Y378115D01*
Y381925D01*
X485053Y381927D01*
X486430Y382021D01*
X486547Y382050D01*
X486633Y382083D01*
X486688Y382120D01*
Y377920D01*
D02*
G37*
G36*
X370643Y362674D02*
X370698Y362182D01*
X370790Y361705D01*
X370918Y361244D01*
X371082Y360799D01*
X371283Y360369D01*
X371521Y359956D01*
X371795Y359558D01*
X372106Y359176D01*
X372454Y358809D01*
X364986D01*
X365334Y359176D01*
X365645Y359558D01*
X365919Y359956D01*
X366157Y360369D01*
X366358Y360799D01*
X366522Y361244D01*
X366650Y361705D01*
X366742Y362182D01*
X366797Y362674D01*
X366815Y363183D01*
X370625D01*
X370643Y362674D01*
D02*
G37*
G36*
X277303D02*
X277358Y362182D01*
X277450Y361705D01*
X277578Y361244D01*
X277742Y360799D01*
X277943Y360369D01*
X278181Y359956D01*
X278455Y359558D01*
X278766Y359176D01*
X279114Y358809D01*
X271646D01*
X271994Y359176D01*
X272305Y359558D01*
X272579Y359956D01*
X272817Y360369D01*
X273018Y360799D01*
X273182Y361244D01*
X273310Y361705D01*
X273402Y362182D01*
X273457Y362674D01*
X273475Y363183D01*
X277285D01*
X277303Y362674D01*
D02*
G37*
G36*
X183963D02*
X184018Y362182D01*
X184110Y361705D01*
X184238Y361244D01*
X184402Y360799D01*
X184603Y360369D01*
X184841Y359956D01*
X185115Y359558D01*
X185426Y359176D01*
X185774Y358809D01*
X178306D01*
X178654Y359176D01*
X178965Y359558D01*
X179239Y359956D01*
X179477Y360369D01*
X179678Y360799D01*
X179842Y361244D01*
X179970Y361705D01*
X180062Y362182D01*
X180117Y362674D01*
X180135Y363183D01*
X183945D01*
X183963Y362674D01*
D02*
G37*
G36*
X90623D02*
X90678Y362182D01*
X90770Y361705D01*
X90898Y361244D01*
X91062Y360799D01*
X91263Y360369D01*
X91501Y359956D01*
X91775Y359558D01*
X92086Y359176D01*
X92434Y358809D01*
X84966D01*
X85314Y359176D01*
X85625Y359558D01*
X85899Y359956D01*
X86137Y360369D01*
X86338Y360799D01*
X86502Y361244D01*
X86630Y361705D01*
X86722Y362182D01*
X86777Y362674D01*
X86795Y363183D01*
X90605D01*
X90623Y362674D01*
D02*
G37*
G36*
X571500Y304800D02*
X205740D01*
Y332740D01*
X571500D01*
Y304800D01*
D02*
G37*
G36*
X740336Y217733D02*
X736599Y217664D01*
X736150Y226554D01*
X740016Y226617D01*
X740336Y217733D01*
D02*
G37*
G36*
X589221Y217664D02*
X585411D01*
Y226554D01*
X589221D01*
Y217664D01*
D02*
G37*
G36*
X610052Y173106D02*
X610000Y173139D01*
X609916Y173168D01*
X609800Y173194D01*
X609652Y173217D01*
X609259Y173251D01*
X608428Y173277D01*
X608087Y173279D01*
X607962Y177089D01*
X608302Y177091D01*
X609531Y177167D01*
X609682Y177195D01*
X609801Y177227D01*
X609889Y177264D01*
X609945Y177305D01*
X610052Y173106D01*
D02*
G37*
G36*
X423161Y177229D02*
X423245Y177199D01*
X423361Y177173D01*
X423509Y177151D01*
X423902Y177116D01*
X424733Y177090D01*
X425074Y177089D01*
X425199Y173279D01*
X424859Y173277D01*
X423630Y173201D01*
X423479Y173173D01*
X423360Y173141D01*
X423272Y173104D01*
X423216Y173063D01*
X423110Y177261D01*
X423161Y177229D01*
D02*
G37*
G36*
X617618Y163000D02*
X617563Y163037D01*
X617477Y163070D01*
X617360Y163099D01*
X617210Y163125D01*
X616815Y163164D01*
X616292Y163187D01*
X615643Y163195D01*
Y167005D01*
X615983Y167007D01*
X617360Y167101D01*
X617477Y167130D01*
X617563Y167163D01*
X617618Y167200D01*
Y163000D01*
D02*
G37*
G36*
X451777Y167163D02*
X451863Y167130D01*
X451981Y167101D01*
X452130Y167075D01*
X452525Y167036D01*
X453048Y167013D01*
X453698Y167005D01*
Y163195D01*
X453357Y163193D01*
X451981Y163099D01*
X451863Y163070D01*
X451777Y163037D01*
X451722Y163000D01*
Y167200D01*
X451777Y167163D01*
D02*
G37*
G36*
X625238Y150300D02*
X625183Y150337D01*
X625097Y150370D01*
X624980Y150399D01*
X624830Y150425D01*
X624435Y150464D01*
X623912Y150487D01*
X623262Y150495D01*
Y154305D01*
X623603Y154307D01*
X624980Y154401D01*
X625097Y154430D01*
X625183Y154463D01*
X625238Y154500D01*
Y150300D01*
D02*
G37*
G36*
X406057Y154463D02*
X406143Y154430D01*
X406260Y154401D01*
X406410Y154375D01*
X406805Y154336D01*
X407328Y154313D01*
X407977Y154305D01*
Y150495D01*
X407637Y150493D01*
X406260Y150399D01*
X406143Y150370D01*
X406057Y150337D01*
X406002Y150300D01*
Y154500D01*
X406057Y154463D01*
D02*
G37*
G36*
X622946Y142454D02*
X622907Y142470D01*
X622836Y142485D01*
X622730Y142498D01*
X622417Y142519D01*
X621044Y142540D01*
X620484Y146350D01*
X620823Y146353D01*
X621870Y146419D01*
X622053Y146450D01*
X622206Y146486D01*
X622327Y146528D01*
X622417Y146575D01*
X622477Y146628D01*
X622946Y142454D01*
D02*
G37*
G36*
X439589Y146420D02*
X439660Y146405D01*
X439766Y146392D01*
X440079Y146371D01*
X441452Y146350D01*
X442012Y142540D01*
X441673Y142537D01*
X440626Y142471D01*
X440443Y142440D01*
X440290Y142404D01*
X440169Y142362D01*
X440079Y142315D01*
X440020Y142262D01*
X439551Y146436D01*
X439589Y146420D01*
D02*
G37*
G36*
X602378Y135060D02*
X602323Y135097D01*
X602237Y135130D01*
X602119Y135159D01*
X601970Y135185D01*
X601575Y135224D01*
X601052Y135247D01*
X600402Y135255D01*
Y139065D01*
X600743Y139067D01*
X602119Y139161D01*
X602237Y139190D01*
X602323Y139223D01*
X602378Y139260D01*
Y135060D01*
D02*
G37*
G36*
X406057Y139223D02*
X406143Y139190D01*
X406260Y139161D01*
X406410Y139135D01*
X406805Y139096D01*
X407328Y139073D01*
X407977Y139065D01*
Y135255D01*
X407637Y135253D01*
X406260Y135159D01*
X406143Y135130D01*
X406057Y135097D01*
X406002Y135060D01*
Y139260D01*
X406057Y139223D01*
D02*
G37*
G36*
X347980Y266700D02*
Y241300D01*
X345440Y238760D01*
X111760D01*
X109220Y236220D01*
Y139700D01*
X106680Y137160D01*
X81280D01*
X78740Y139700D01*
Y266700D01*
X81280Y269240D01*
X345440D01*
X347980Y266700D01*
D02*
G37*
G36*
X786130Y683260D02*
Y673100D01*
X784860Y671830D01*
X777240D01*
Y73660D01*
X774700Y71120D01*
X320040D01*
X317500Y73660D01*
Y96520D01*
X320040Y99060D01*
X337820Y99060D01*
X337820D01*
X340360Y96520D01*
Y93980D01*
X342900Y91440D01*
X555375D01*
X556113Y90336D01*
X557602Y89341D01*
X559357Y88992D01*
X561113Y89341D01*
X562602Y90336D01*
X563339Y91440D01*
X706285D01*
X707065Y90273D01*
X708553Y89278D01*
X710309Y88929D01*
X712065Y89278D01*
X713553Y90273D01*
X714334Y91440D01*
X756920D01*
X759460Y93980D01*
Y684530D01*
X784860D01*
X786130Y683260D01*
D02*
G37*
D14*
X844960Y838000D02*
X844430Y840664D01*
X842922Y842922D01*
X840664Y844430D01*
X838000Y844960D01*
X770000D02*
X767682Y844655D01*
X765523Y843761D01*
X763667Y842339D01*
X762243Y840485D01*
X761347Y838326D01*
X761040Y836009D01*
X742000Y816960D02*
X744485Y817123D01*
X746928Y817609D01*
X749286Y818409D01*
X751520Y819511D01*
X753591Y820895D01*
X755463Y822537D01*
X757105Y824409D01*
X758489Y826480D01*
X759591Y828714D01*
X760391Y831072D01*
X760877Y833515D01*
X761040Y836000D01*
X824960Y420000D02*
X825189Y417388D01*
X825867Y414856D01*
X826975Y412480D01*
X828479Y410332D01*
X830332Y408479D01*
X832480Y406975D01*
X834856Y405867D01*
X837388Y405188D01*
X840000Y404960D01*
X506260Y836009D02*
X505953Y838326D01*
X505057Y840485D01*
X503633Y842339D01*
X501777Y843761D01*
X499618Y844655D01*
X497300Y844960D01*
X506260Y836000D02*
X506423Y833515D01*
X506909Y831072D01*
X507709Y828714D01*
X508811Y826480D01*
X510195Y824409D01*
X511837Y822537D01*
X513709Y820895D01*
X515780Y819511D01*
X518014Y818409D01*
X520372Y817609D01*
X522815Y817123D01*
X525300Y816960D01*
X433300Y844960D02*
X430982Y844655D01*
X428823Y843761D01*
X426967Y842339D01*
X425543Y840485D01*
X424647Y838326D01*
X424340Y836009D01*
X405300Y816960D02*
X407785Y817123D01*
X410228Y817609D01*
X412586Y818409D01*
X414820Y819511D01*
X416891Y820895D01*
X418763Y822537D01*
X420405Y824409D01*
X421789Y826480D01*
X422891Y828714D01*
X423691Y831072D01*
X424177Y833515D01*
X424340Y836000D01*
X844960Y400000D02*
X844296Y402480D01*
X842480Y404296D01*
X840000Y404960D01*
X88960Y836000D02*
X89123Y833515D01*
X89609Y831072D01*
X90409Y828714D01*
X91511Y826480D01*
X92895Y824409D01*
X94537Y822537D01*
X96409Y820895D01*
X98480Y819511D01*
X100714Y818409D01*
X103072Y817609D01*
X105515Y817123D01*
X108000Y816960D01*
X11992Y844960D02*
X9331Y844428D01*
X7076Y842919D01*
X5569Y840662D01*
X5040Y838000D01*
X25040Y766130D02*
X24812Y768742D01*
X24133Y771274D01*
X23025Y773650D01*
X21521Y775798D01*
X19668Y777651D01*
X17520Y779155D01*
X15144Y780263D01*
X12612Y780941D01*
X10000Y781170D01*
X5040Y786130D02*
X5705Y783650D01*
X7520Y781834D01*
X10000Y781170D01*
X10000Y397390D02*
X12612Y397618D01*
X15144Y398297D01*
X17520Y399405D01*
X19668Y400909D01*
X21521Y402762D01*
X23025Y404910D01*
X24133Y407286D01*
X24812Y409818D01*
X25040Y412430D01*
X10000Y397390D02*
X7522Y396727D01*
X5707Y394914D01*
X5040Y392436D01*
X840010Y775040D02*
X842476Y775702D01*
X844286Y777503D01*
X844961Y779965D01*
X839967Y775040D02*
X837364Y774807D01*
X834841Y774127D01*
X832474Y773021D01*
X830334Y771522D01*
X828485Y769674D01*
X826985Y767535D01*
X825877Y765168D01*
X825195Y762646D01*
X824961Y760043D01*
X838011Y5040D02*
X840669Y5572D01*
X842923Y7080D01*
X844429Y9334D01*
X844960Y11992D01*
X88960Y836009D02*
X88653Y838324D01*
X87759Y840482D01*
X86337Y842335D01*
X84484Y843757D01*
X82327Y844653D01*
X80011Y844960D01*
X5040Y11989D02*
X5572Y9331D01*
X7080Y7078D01*
X9334Y5571D01*
X11992Y5040D01*
X844960Y820322D02*
Y838000D01*
Y806322D02*
Y820322D01*
Y780099D02*
Y806322D01*
X824960Y745153D02*
Y759903D01*
Y717153D02*
Y745153D01*
Y661153D02*
Y717153D01*
Y633153D02*
Y661153D01*
Y605154D02*
Y633153D01*
Y563153D02*
Y605154D01*
Y465154D02*
Y563153D01*
X814000Y844960D02*
X838000D01*
X793945D02*
X814000D01*
X770000D02*
X793945D01*
X723989Y816960D02*
X742000D01*
X824960Y451153D02*
Y465154D01*
Y420000D02*
Y451153D01*
X681989Y816960D02*
X723989D01*
X653989D02*
X681989D01*
X639989D02*
X653989D01*
X597989D02*
X639989D01*
X525300D02*
X597989D01*
X471698Y844960D02*
X497300D01*
X457698D02*
X471698D01*
X433300D02*
X457698D01*
X390420Y816960D02*
X405300D01*
X362421D02*
X390420D01*
X844960Y389910D02*
X844960Y400000D01*
X844960Y375910D02*
X844960Y389910D01*
X844960Y364000D02*
X844960Y375910D01*
X844960Y347910D02*
Y364000D01*
Y319910D02*
Y347910D01*
Y249910D02*
Y319910D01*
Y221910D02*
Y249910D01*
Y179910D02*
Y221910D01*
Y123910D02*
Y179910D01*
Y95910D02*
Y123910D01*
Y53910D02*
Y95910D01*
Y36000D02*
Y53910D01*
Y12016D02*
Y36000D01*
X818820Y5040D02*
X837988D01*
X790820D02*
X818820D01*
X734820D02*
X790820D01*
X678820D02*
X734820D01*
X650820D02*
X678820D01*
X608820D02*
X650820D01*
X566820D02*
X608820D01*
X496820D02*
X566820D01*
X454820D02*
X496820D01*
X370820D02*
X454820D01*
X356820Y5040D02*
X370820Y5040D01*
X306420Y816960D02*
X362421D01*
X250420D02*
X306420D01*
X208421D02*
X250420D01*
X180420D02*
X208421D01*
X138420D02*
X180420D01*
X108000D02*
X138420D01*
X54067Y844960D02*
X79977D01*
X26067Y844960D02*
X36000D01*
X40067D02*
X54067Y844960D01*
X36000Y844960D02*
X40067D01*
X12067Y844960D02*
X26067Y844960D01*
X12004Y844960D02*
X12067D01*
X5040Y818915D02*
Y838000D01*
Y786130D02*
Y818915D01*
X25040Y755855D02*
Y766130D01*
Y699855D02*
Y755855D01*
Y671855D02*
Y699855D01*
Y587855D02*
Y671855D01*
X328820Y5040D02*
X356820D01*
X286820D02*
X328820D01*
X230820D02*
X286820D01*
X174820D02*
X230820D01*
X146820D02*
X174820D01*
X90820Y5040D02*
X132820D01*
X48820D02*
X90820D01*
X20820D02*
X48820D01*
X132820D02*
X146820Y5040D01*
X36000Y364000D02*
Y386860D01*
X25040Y531855D02*
Y587855D01*
Y517855D02*
Y531855D01*
Y475855D02*
Y517855D01*
Y433855D02*
Y475855D01*
Y412430D02*
Y433855D01*
X5040Y384984D02*
X5040Y392427D01*
X5040Y258984D02*
Y342984D01*
Y256000D02*
Y258984D01*
Y224080D02*
Y256000D01*
Y364000D02*
Y384984D01*
Y342984D02*
Y364000D01*
X12016Y5040D02*
X20820Y5040D01*
X5040Y202984D02*
Y224080D01*
Y118984D02*
Y202984D01*
Y104984D02*
Y118984D01*
Y34984D02*
Y104984D01*
Y12012D02*
Y34984D01*
D23*
X700004Y326390D02*
D03*
X563880D02*
D03*
Y312420D02*
D03*
X548640D02*
D03*
Y326390D02*
D03*
X212090Y325120D02*
D03*
X227330D02*
D03*
Y311150D02*
D03*
X212090D02*
D03*
X345581Y222109D02*
D03*
X744708Y222338D02*
D03*
X593756Y222109D02*
D03*
D24*
X403860Y152400D02*
X627380D01*
X368720Y715000D02*
Y731940D01*
X376800Y740020D01*
X488830D01*
X275380Y739810D02*
X283953Y748383D01*
X275380Y715000D02*
Y739810D01*
X283953Y748383D02*
X501650D01*
X190540Y756530D02*
X514830D01*
X182040Y715000D02*
Y748030D01*
X190540Y756530D01*
X376800Y668020D02*
X488830D01*
X368720Y659940D02*
X376800Y668020D01*
X368720Y643000D02*
Y659940D01*
X88700Y643000D02*
Y684720D01*
X96329Y692349D01*
X527830D01*
X275380Y643000D02*
Y667810D01*
X283953Y676383D01*
X501783D01*
X182040Y676030D02*
X190540Y684530D01*
X182040Y643000D02*
Y676030D01*
X190540Y684530D02*
X514830D01*
X376800Y596020D02*
X488830D01*
X368720Y587940D02*
X376800Y596020D01*
X368720Y571000D02*
Y587940D01*
X283953Y604383D02*
X501783D01*
X275380Y571000D02*
Y595810D01*
X283953Y604383D01*
X182040Y604030D02*
X190540Y612530D01*
X182040Y571000D02*
Y604030D01*
X190540Y612530D02*
X514830D01*
X88700Y571000D02*
Y612720D01*
X96329Y620349D01*
X527830D01*
X376800Y524020D02*
X488830D01*
X368720Y515940D02*
X376800Y524020D01*
X368720Y499000D02*
Y515940D01*
X88700Y499000D02*
Y540720D01*
X96329Y548349D01*
X527830D01*
X283953Y532383D02*
X501650D01*
X275380Y499000D02*
Y523810D01*
X283953Y532383D01*
X182040Y532030D02*
X190540Y540530D01*
X182040Y499000D02*
Y532030D01*
X190540Y540530D02*
X514830D01*
X376800Y452020D02*
X488830D01*
X368720Y443940D02*
X376800Y452020D01*
X368720Y427000D02*
Y443940D01*
X283953Y460383D02*
X501783D01*
X275380Y427000D02*
Y451810D01*
X283953Y460383D01*
X182040Y460030D02*
X190540Y468530D01*
X182040Y427000D02*
Y460030D01*
X190540Y468530D02*
X514830D01*
X88700Y427000D02*
Y468720D01*
X96329Y476349D01*
X527830D01*
X376800Y380020D02*
X488830D01*
X368720Y371940D02*
X376800Y380020D01*
X368720Y355000D02*
Y371940D01*
X96329Y404349D02*
X527830D01*
X88700Y355000D02*
Y396720D01*
X96329Y404349D01*
X283953Y388383D02*
X501650D01*
X275380Y355000D02*
Y379810D01*
X283953Y388383D01*
X182040Y388030D02*
X190540Y396530D01*
X182040Y355000D02*
Y388030D01*
X190540Y396530D02*
X514830D01*
X676798Y597948D02*
X681768D01*
X594833Y515983D02*
X676798Y597948D01*
X586740Y515983D02*
X594833D01*
X586740Y488587D02*
X587103Y488950D01*
X666750D01*
X586377D02*
X586740Y488587D01*
X462830Y488950D02*
X586377D01*
X627489Y632315D02*
X721215D01*
X721360Y632171D01*
X579085Y632206D02*
X627380D01*
X627489Y632315D01*
X579085Y632206D02*
X579085Y632206D01*
X475972Y725986D02*
X584600D01*
X596150Y616966D02*
X721634D01*
X604520Y650240D02*
X604555Y650205D01*
X721181D02*
X721215Y650171D01*
X604555Y650205D02*
X721181D01*
X454660Y430530D02*
X604520D01*
X403860Y137160D02*
X604520D01*
X421097Y175184D02*
X612064D01*
X449580Y165100D02*
X619760D01*
X96329Y764349D02*
X527830D01*
X88700Y756720D02*
X96329Y764349D01*
X88700Y715000D02*
Y756720D01*
X437991Y144445D02*
X624505D01*
D25*
X374026Y253028D02*
X542958Y253028D01*
X413170Y287364D02*
X681755D01*
X558054Y278940D02*
X751840D01*
D26*
X545919Y584200D02*
X586740Y543378D01*
X476250Y584200D02*
X545919D01*
X568369Y442820D02*
X586740Y461191D01*
X475830Y442820D02*
X568369D01*
D27*
X563880Y326390D02*
X700004D01*
X345581Y222109D02*
X593756Y222109D01*
X744479D01*
D28*
X612064Y175184D02*
X612140Y175260D01*
X421021Y175108D02*
X421097Y175184D01*
D29*
X437656Y144110D02*
X437991Y144445D01*
X624505D02*
X624840Y144780D01*
D30*
X834140Y832698D02*
D03*
D31*
X833968Y14577D02*
D03*
D32*
X15212Y812378D02*
D03*
D33*
X15240Y16510D02*
D03*
D34*
X5000Y272984D02*
D03*
X825000Y745153D02*
D03*
Y535154D02*
D03*
Y549154D02*
D03*
X825438Y759147D02*
D03*
X821945Y845000D02*
D03*
X807945D02*
D03*
X832680Y771128D02*
D03*
X844688Y778326D02*
D03*
X845000Y806322D02*
D03*
X835945Y845000D02*
D03*
X845000Y820322D02*
D03*
Y834322D02*
D03*
Y792322D02*
D03*
X527989Y817000D02*
D03*
X555989D02*
D03*
X541989D02*
D03*
X597989D02*
D03*
X611989D02*
D03*
X583989D02*
D03*
X569989D02*
D03*
X667989D02*
D03*
X681989D02*
D03*
X625989D02*
D03*
X653989D02*
D03*
X639989D02*
D03*
X737989D02*
D03*
X695989D02*
D03*
X723989D02*
D03*
X709989D02*
D03*
X457698Y845000D02*
D03*
X471698D02*
D03*
X433227Y845007D02*
D03*
X443698Y845000D02*
D03*
X485698D02*
D03*
X499694Y844649D02*
D03*
X514549Y820922D02*
D03*
X751625Y820170D02*
D03*
X506867Y832626D02*
D03*
X760086Y831324D02*
D03*
X765980Y844023D02*
D03*
X793945Y845000D02*
D03*
X779946D02*
D03*
X825000Y577154D02*
D03*
Y563153D02*
D03*
Y591153D02*
D03*
Y689154D02*
D03*
Y675154D02*
D03*
Y731153D02*
D03*
Y703154D02*
D03*
Y717153D02*
D03*
Y619154D02*
D03*
Y605154D02*
D03*
Y661153D02*
D03*
Y633153D02*
D03*
Y647153D02*
D03*
Y465154D02*
D03*
Y451153D02*
D03*
Y493153D02*
D03*
Y479154D02*
D03*
X830854Y410376D02*
D03*
X843212Y403795D02*
D03*
X825000Y437154D02*
D03*
X825135Y423154D02*
D03*
X825000Y521153D02*
D03*
Y507154D02*
D03*
X762820Y5000D02*
D03*
X720820D02*
D03*
X734820D02*
D03*
X818820D02*
D03*
X832820D02*
D03*
X776820D02*
D03*
X804820D02*
D03*
X790820D02*
D03*
X706820D02*
D03*
X844996Y11910D02*
D03*
X845000Y39910D02*
D03*
Y53910D02*
D03*
Y25910D02*
D03*
Y95910D02*
D03*
Y81910D02*
D03*
Y137910D02*
D03*
Y109910D02*
D03*
Y123910D02*
D03*
Y67910D02*
D03*
X845000Y151910D02*
D03*
Y179910D02*
D03*
Y165910D02*
D03*
Y221910D02*
D03*
Y207910D02*
D03*
Y249910D02*
D03*
Y235910D02*
D03*
Y193910D02*
D03*
Y263910D02*
D03*
X845000Y389910D02*
D03*
Y375910D02*
D03*
Y277910D02*
D03*
Y319910D02*
D03*
Y305910D02*
D03*
Y361910D02*
D03*
Y333910D02*
D03*
Y347910D02*
D03*
Y291910D02*
D03*
X89513Y832894D02*
D03*
X54067Y845000D02*
D03*
X68067Y845000D02*
D03*
X12067Y845000D02*
D03*
X40067Y845000D02*
D03*
X26067Y845000D02*
D03*
X82065Y844748D02*
D03*
X166420Y817000D02*
D03*
X306420D02*
D03*
X334421D02*
D03*
X320420D02*
D03*
X390420D02*
D03*
X264421D02*
D03*
X152421D02*
D03*
X180420D02*
D03*
X110421D02*
D03*
X138420D02*
D03*
X124420D02*
D03*
X236420D02*
D03*
X250420D02*
D03*
X194421D02*
D03*
X222421D02*
D03*
X208421D02*
D03*
X362421D02*
D03*
X376421D02*
D03*
X278421D02*
D03*
X348420D02*
D03*
X292421D02*
D03*
X404421Y817014D02*
D03*
X417475Y822071D02*
D03*
X424061Y834425D02*
D03*
X608820Y5000D02*
D03*
X622820D02*
D03*
X580820D02*
D03*
X594820D02*
D03*
X678820D02*
D03*
X692820D02*
D03*
X636820D02*
D03*
X664820D02*
D03*
X650820D02*
D03*
X496820Y5000D02*
D03*
X510820D02*
D03*
X482820D02*
D03*
X468820D02*
D03*
X552820D02*
D03*
X566820Y5000D02*
D03*
X524820Y5000D02*
D03*
X538820D02*
D03*
X748820Y5000D02*
D03*
X5000Y244984D02*
D03*
Y230984D02*
D03*
Y258984D02*
D03*
Y202984D02*
D03*
Y216984D02*
D03*
Y34984D02*
D03*
Y104984D02*
D03*
Y118984D02*
D03*
Y48984D02*
D03*
Y90984D02*
D03*
Y146984D02*
D03*
Y132984D02*
D03*
Y188984D02*
D03*
Y160984D02*
D03*
Y174984D02*
D03*
X6982Y7125D02*
D03*
X20820Y5000D02*
D03*
X34820D02*
D03*
X48820D02*
D03*
X5000Y20984D02*
D03*
Y76984D02*
D03*
Y62984D02*
D03*
Y300984D02*
D03*
Y286984D02*
D03*
Y328984D02*
D03*
Y314984D02*
D03*
Y356984D02*
D03*
Y342984D02*
D03*
Y370984D02*
D03*
X25000Y475855D02*
D03*
Y685855D02*
D03*
Y699855D02*
D03*
X5000Y790915D02*
D03*
X13392Y779709D02*
D03*
X23223Y769742D02*
D03*
X25000Y559855D02*
D03*
Y545855D02*
D03*
Y587855D02*
D03*
Y573855D02*
D03*
Y503855D02*
D03*
Y461855D02*
D03*
Y531855D02*
D03*
Y517855D02*
D03*
Y629855D02*
D03*
Y615855D02*
D03*
Y671855D02*
D03*
Y643855D02*
D03*
Y657855D02*
D03*
Y601855D02*
D03*
X5000Y804915D02*
D03*
Y832915D02*
D03*
Y818915D02*
D03*
X97029Y821082D02*
D03*
X5000Y384984D02*
D03*
X10583Y397822D02*
D03*
X21777Y406231D02*
D03*
X25000Y447855D02*
D03*
Y419855D02*
D03*
Y433855D02*
D03*
X160820Y5000D02*
D03*
X174820D02*
D03*
X132820D02*
D03*
X146820D02*
D03*
X188820D02*
D03*
X62820D02*
D03*
X104820D02*
D03*
X118820D02*
D03*
X76820D02*
D03*
X90820D02*
D03*
X328820Y5000D02*
D03*
X342820D02*
D03*
X300820D02*
D03*
X314820D02*
D03*
X384820D02*
D03*
X356820D02*
D03*
X370820D02*
D03*
X244820Y5000D02*
D03*
X258820D02*
D03*
X202820D02*
D03*
X230820D02*
D03*
X216820D02*
D03*
X272820D02*
D03*
X286820Y5000D02*
D03*
X25000Y727855D02*
D03*
Y713855D02*
D03*
Y755855D02*
D03*
Y741855D02*
D03*
Y489855D02*
D03*
X176022Y184658D02*
D03*
X159512D02*
D03*
X176276Y206248D02*
D03*
X159418Y206430D02*
D03*
X274066Y157988D02*
D03*
X256794D02*
D03*
X274066Y183642D02*
D03*
X256794D02*
D03*
X727710Y125730D02*
D03*
X576580D02*
D03*
X559357Y93580D02*
D03*
X710309Y93517D02*
D03*
X833431Y784081D02*
D03*
X823431Y404080D02*
D03*
Y324080D02*
D03*
X833431Y304080D02*
D03*
Y224080D02*
D03*
X823431Y204080D02*
D03*
X833431Y184080D02*
D03*
X823431Y164080D02*
D03*
X833431Y144080D02*
D03*
X823431Y124080D02*
D03*
X833431Y104080D02*
D03*
X823431Y84080D02*
D03*
X803431Y764081D02*
D03*
Y724081D02*
D03*
X813431Y704081D02*
D03*
X803431Y684081D02*
D03*
X813431Y664081D02*
D03*
X803431Y644081D02*
D03*
X813431Y624081D02*
D03*
Y584081D02*
D03*
X803431Y564081D02*
D03*
X813431Y544081D02*
D03*
X803431Y524081D02*
D03*
X813431Y504081D02*
D03*
X803431Y484081D02*
D03*
X813431Y464081D02*
D03*
X803431Y444080D02*
D03*
X813431Y424080D02*
D03*
X803431Y404080D02*
D03*
Y324080D02*
D03*
X813431Y304080D02*
D03*
X803431Y204080D02*
D03*
X813431Y184080D02*
D03*
X803431Y164080D02*
D03*
X813431Y144080D02*
D03*
X803431Y124080D02*
D03*
X813431Y104080D02*
D03*
X803431Y84080D02*
D03*
X793431Y784081D02*
D03*
X783431Y764081D02*
D03*
Y724081D02*
D03*
X793431Y704081D02*
D03*
Y664081D02*
D03*
X783431Y644081D02*
D03*
X793431Y624081D02*
D03*
Y584081D02*
D03*
X783431Y564081D02*
D03*
X793431Y544081D02*
D03*
X783431Y524081D02*
D03*
X793431Y504081D02*
D03*
X783431Y484081D02*
D03*
X793431Y464081D02*
D03*
X783431Y444080D02*
D03*
X793431Y424080D02*
D03*
X783431Y404080D02*
D03*
Y324080D02*
D03*
X793431Y304080D02*
D03*
X783431Y284080D02*
D03*
X793431Y224080D02*
D03*
X783431Y204080D02*
D03*
X793431Y184080D02*
D03*
X783431Y164080D02*
D03*
X793431Y144080D02*
D03*
X783431Y124080D02*
D03*
X793431Y104080D02*
D03*
X783431Y84080D02*
D03*
X773431Y824081D02*
D03*
Y64080D02*
D03*
X763431Y44080D02*
D03*
X773431Y24080D02*
D03*
X753431Y64080D02*
D03*
X743431Y44080D02*
D03*
X753431Y24080D02*
D03*
X733431Y744081D02*
D03*
X723431Y524081D02*
D03*
X733431Y504081D02*
D03*
X723431Y484081D02*
D03*
X733431Y464081D02*
D03*
X723431Y444080D02*
D03*
X733431Y424080D02*
D03*
X723431Y404080D02*
D03*
X733431Y384080D02*
D03*
X723431Y364080D02*
D03*
X733431Y344080D02*
D03*
X723431Y324080D02*
D03*
X733431Y304080D02*
D03*
Y264080D02*
D03*
X723431Y244080D02*
D03*
Y204080D02*
D03*
X733431Y144080D02*
D03*
Y64080D02*
D03*
X723431Y44080D02*
D03*
X733431Y24080D02*
D03*
X713431Y704081D02*
D03*
Y584081D02*
D03*
X703431Y524081D02*
D03*
X713431Y504081D02*
D03*
X703431Y484081D02*
D03*
X713431Y464081D02*
D03*
X703431Y444080D02*
D03*
X713431Y424080D02*
D03*
X703431Y404080D02*
D03*
X713431Y384080D02*
D03*
X703431Y364080D02*
D03*
X713431Y344080D02*
D03*
Y304080D02*
D03*
Y64080D02*
D03*
X703431Y44080D02*
D03*
X713431Y24080D02*
D03*
X693431Y504081D02*
D03*
Y464081D02*
D03*
Y424080D02*
D03*
Y384080D02*
D03*
Y344080D02*
D03*
Y64080D02*
D03*
X683431Y44080D02*
D03*
X693431Y24080D02*
D03*
X673431Y264080D02*
D03*
Y64080D02*
D03*
X663431Y44080D02*
D03*
X673431Y24080D02*
D03*
X643431Y604081D02*
D03*
Y524081D02*
D03*
Y444080D02*
D03*
Y404080D02*
D03*
Y364080D02*
D03*
X653431Y144080D02*
D03*
Y64080D02*
D03*
X643431Y44080D02*
D03*
X653431Y24080D02*
D03*
X633431Y664081D02*
D03*
Y64080D02*
D03*
Y24080D02*
D03*
X603431Y124080D02*
D03*
X613431Y104080D02*
D03*
X603431Y44080D02*
D03*
X613431Y24080D02*
D03*
X593431Y504081D02*
D03*
Y384080D02*
D03*
X583431Y364080D02*
D03*
X593431Y64080D02*
D03*
X583431Y44080D02*
D03*
X593431Y24080D02*
D03*
X573431Y64080D02*
D03*
X563431Y44080D02*
D03*
X573431Y24080D02*
D03*
X553431Y264080D02*
D03*
Y64080D02*
D03*
Y24080D02*
D03*
X523431Y804081D02*
D03*
Y44080D02*
D03*
X533431Y24080D02*
D03*
X503430Y804081D02*
D03*
X513430Y784081D02*
D03*
Y264080D02*
D03*
Y64080D02*
D03*
X503430Y44080D02*
D03*
X513430Y24080D02*
D03*
X493430Y784081D02*
D03*
Y64080D02*
D03*
X483430Y44080D02*
D03*
X493430Y24080D02*
D03*
X473430Y784081D02*
D03*
Y344080D02*
D03*
Y64080D02*
D03*
Y24080D02*
D03*
X453430Y784081D02*
D03*
X443430Y204080D02*
D03*
X453430Y184080D02*
D03*
Y104080D02*
D03*
X423430Y804081D02*
D03*
X433430Y784081D02*
D03*
Y64080D02*
D03*
X403430Y804081D02*
D03*
X413430Y784081D02*
D03*
X403430Y724081D02*
D03*
X413430Y704081D02*
D03*
Y584081D02*
D03*
X403430Y564081D02*
D03*
X413430Y504081D02*
D03*
Y424080D02*
D03*
X403430Y364080D02*
D03*
X413430Y344080D02*
D03*
X403430Y284080D02*
D03*
Y164080D02*
D03*
X413430Y64080D02*
D03*
X383430Y804081D02*
D03*
X393430Y784081D02*
D03*
Y584081D02*
D03*
X383430Y284080D02*
D03*
X393430Y264080D02*
D03*
X383430Y204080D02*
D03*
X393430Y64080D02*
D03*
X363430Y804081D02*
D03*
X373430Y784081D02*
D03*
X363430Y204080D02*
D03*
Y44080D02*
D03*
X373430Y24080D02*
D03*
X343430Y804081D02*
D03*
X353430Y784081D02*
D03*
X343430Y724081D02*
D03*
X353430Y704081D02*
D03*
Y664081D02*
D03*
X343430Y644081D02*
D03*
X353430Y584081D02*
D03*
X343430Y564081D02*
D03*
Y524081D02*
D03*
X353430Y504081D02*
D03*
X343430Y444080D02*
D03*
X353430Y424080D02*
D03*
X343430Y364080D02*
D03*
X353430Y344080D02*
D03*
X343430Y204080D02*
D03*
X353430Y64080D02*
D03*
X343430Y44080D02*
D03*
X353430Y24080D02*
D03*
X323430Y804081D02*
D03*
X333430Y784081D02*
D03*
X323430Y724081D02*
D03*
X333430Y704081D02*
D03*
Y664081D02*
D03*
X323430Y644081D02*
D03*
X333430Y584081D02*
D03*
X323430Y564081D02*
D03*
Y524081D02*
D03*
X333430Y504081D02*
D03*
X323430Y444080D02*
D03*
X333430Y424080D02*
D03*
X323430Y364080D02*
D03*
X333430Y344080D02*
D03*
X323430Y44080D02*
D03*
X333430Y24080D02*
D03*
X303430Y804081D02*
D03*
X313430Y784081D02*
D03*
Y704081D02*
D03*
Y664081D02*
D03*
Y584081D02*
D03*
X303430Y524081D02*
D03*
X313430Y504081D02*
D03*
X303430Y444080D02*
D03*
X313430Y424080D02*
D03*
Y344080D02*
D03*
X303430Y284080D02*
D03*
Y204080D02*
D03*
Y164080D02*
D03*
Y124080D02*
D03*
X313430Y64080D02*
D03*
X303430Y44080D02*
D03*
X313430Y24080D02*
D03*
X283430Y804081D02*
D03*
X293430Y784081D02*
D03*
X283430Y204080D02*
D03*
X293430Y184080D02*
D03*
X283430Y164080D02*
D03*
X293430Y144080D02*
D03*
Y64080D02*
D03*
X283430Y44080D02*
D03*
X293430Y24080D02*
D03*
X263430Y804081D02*
D03*
X273430Y784081D02*
D03*
X263430Y724081D02*
D03*
Y644081D02*
D03*
Y564081D02*
D03*
Y524081D02*
D03*
Y444080D02*
D03*
Y364080D02*
D03*
Y284080D02*
D03*
Y204080D02*
D03*
X273430Y144080D02*
D03*
X263430Y124080D02*
D03*
Y84080D02*
D03*
X273430Y64080D02*
D03*
X263430Y44080D02*
D03*
X273430Y24080D02*
D03*
X243430Y804081D02*
D03*
X253430Y784081D02*
D03*
Y744081D02*
D03*
X243430Y724081D02*
D03*
X253430Y704081D02*
D03*
Y664081D02*
D03*
X243430Y644081D02*
D03*
Y604081D02*
D03*
X253430Y584081D02*
D03*
X243430Y564081D02*
D03*
Y524081D02*
D03*
X253430Y504081D02*
D03*
X243430Y444080D02*
D03*
X253430Y424080D02*
D03*
Y384080D02*
D03*
X243430Y364080D02*
D03*
X253430Y344080D02*
D03*
X243430Y284080D02*
D03*
X253430Y224080D02*
D03*
X243430Y204080D02*
D03*
X253430Y144080D02*
D03*
Y104080D02*
D03*
X243430Y44080D02*
D03*
X253430Y24080D02*
D03*
X223430Y804081D02*
D03*
X233430Y784081D02*
D03*
Y744081D02*
D03*
X223430Y724081D02*
D03*
X233430Y704081D02*
D03*
Y664081D02*
D03*
X223430Y644081D02*
D03*
Y604081D02*
D03*
X233430Y584081D02*
D03*
X223430Y564081D02*
D03*
Y524081D02*
D03*
X233430Y504081D02*
D03*
X223430Y444080D02*
D03*
X233430Y424080D02*
D03*
Y384080D02*
D03*
X223430Y364080D02*
D03*
X233430Y344080D02*
D03*
Y224080D02*
D03*
Y144080D02*
D03*
X223430Y44080D02*
D03*
X233430Y24080D02*
D03*
X203430Y804081D02*
D03*
X213430Y784081D02*
D03*
Y704081D02*
D03*
Y664081D02*
D03*
Y584081D02*
D03*
X203430Y524081D02*
D03*
X213430Y344080D02*
D03*
X203430Y44080D02*
D03*
X213430Y24080D02*
D03*
X183430Y804081D02*
D03*
X193430Y784081D02*
D03*
Y744081D02*
D03*
Y384080D02*
D03*
X183430Y324080D02*
D03*
Y284080D02*
D03*
X193430Y224080D02*
D03*
X183430Y44080D02*
D03*
X193430Y24080D02*
D03*
X163430Y804081D02*
D03*
X173430Y784081D02*
D03*
X163430Y724081D02*
D03*
X173430Y704081D02*
D03*
X163430Y684081D02*
D03*
Y644081D02*
D03*
Y604081D02*
D03*
Y564081D02*
D03*
Y524081D02*
D03*
Y444080D02*
D03*
Y364080D02*
D03*
X173430Y344080D02*
D03*
X163430Y324080D02*
D03*
Y284080D02*
D03*
X173430Y224080D02*
D03*
X163430Y84080D02*
D03*
Y44080D02*
D03*
X173430Y24080D02*
D03*
X143430Y804081D02*
D03*
X153430Y784081D02*
D03*
Y744081D02*
D03*
X143430Y724081D02*
D03*
X153430Y704081D02*
D03*
X143430Y684081D02*
D03*
X153430Y664081D02*
D03*
X143430Y644081D02*
D03*
Y604081D02*
D03*
X153430Y584081D02*
D03*
X143430Y564081D02*
D03*
Y524081D02*
D03*
X153430Y504081D02*
D03*
Y464081D02*
D03*
X143430Y444080D02*
D03*
X153430Y424080D02*
D03*
Y384080D02*
D03*
X143430Y364080D02*
D03*
X153430Y344080D02*
D03*
X143430Y324080D02*
D03*
Y284080D02*
D03*
X153430Y224080D02*
D03*
Y64080D02*
D03*
X143430Y44080D02*
D03*
X153430Y24080D02*
D03*
X123430Y804081D02*
D03*
X133430Y784081D02*
D03*
Y744081D02*
D03*
X123430Y724081D02*
D03*
X133430Y704081D02*
D03*
Y664081D02*
D03*
Y584081D02*
D03*
X123430Y564081D02*
D03*
Y524081D02*
D03*
X133430Y504081D02*
D03*
Y464081D02*
D03*
X123430Y444080D02*
D03*
X133430Y424080D02*
D03*
Y384080D02*
D03*
X123430Y364080D02*
D03*
X133430Y344080D02*
D03*
X123430Y324080D02*
D03*
Y284080D02*
D03*
X133430Y224080D02*
D03*
X123430Y204080D02*
D03*
Y164080D02*
D03*
X133430Y64080D02*
D03*
X123430Y44080D02*
D03*
X133430Y24080D02*
D03*
X103430Y804081D02*
D03*
X113430Y784081D02*
D03*
X103430Y684081D02*
D03*
X113430Y664081D02*
D03*
X103430Y604081D02*
D03*
X113430Y584081D02*
D03*
X103430Y524081D02*
D03*
Y324080D02*
D03*
X113430Y64080D02*
D03*
X103430Y44080D02*
D03*
X113430Y24080D02*
D03*
X83430Y804081D02*
D03*
X93430Y784081D02*
D03*
X83430Y764081D02*
D03*
Y484081D02*
D03*
Y404080D02*
D03*
Y324080D02*
D03*
X93430Y64080D02*
D03*
X83430Y44080D02*
D03*
X93430Y24080D02*
D03*
X73430Y824081D02*
D03*
Y784081D02*
D03*
X63430Y764081D02*
D03*
X73430Y744081D02*
D03*
X63430Y724081D02*
D03*
X73430Y704081D02*
D03*
X63430Y684081D02*
D03*
X73430Y664081D02*
D03*
X63430Y644081D02*
D03*
X73430Y624081D02*
D03*
X63430Y604081D02*
D03*
X73430Y584081D02*
D03*
X63430Y564081D02*
D03*
X73430Y544081D02*
D03*
X63430Y524081D02*
D03*
X73430Y504081D02*
D03*
X63430Y484081D02*
D03*
X73430Y464081D02*
D03*
X63430Y444080D02*
D03*
X73430Y424080D02*
D03*
X63430Y404080D02*
D03*
X73430Y384080D02*
D03*
Y344080D02*
D03*
X63430Y324080D02*
D03*
X73430Y304080D02*
D03*
X63430Y284080D02*
D03*
X73430Y104080D02*
D03*
X63430Y84080D02*
D03*
X73430Y64080D02*
D03*
Y24080D02*
D03*
X43430Y764081D02*
D03*
X53430Y744081D02*
D03*
X43430Y724081D02*
D03*
X53430Y704081D02*
D03*
X43430Y684081D02*
D03*
X53430Y664081D02*
D03*
X43430Y644081D02*
D03*
X53430Y624081D02*
D03*
X43430Y604081D02*
D03*
X53430Y584081D02*
D03*
X43430Y564081D02*
D03*
X53430Y544081D02*
D03*
X43430Y524081D02*
D03*
X53430Y504081D02*
D03*
X43430Y484081D02*
D03*
X53430Y464081D02*
D03*
X43430Y444080D02*
D03*
X53430Y424080D02*
D03*
X43430Y404080D02*
D03*
Y324080D02*
D03*
X53430Y304080D02*
D03*
Y224080D02*
D03*
Y104080D02*
D03*
X43430Y84080D02*
D03*
X33430Y744081D02*
D03*
Y704081D02*
D03*
Y664081D02*
D03*
Y624081D02*
D03*
Y584081D02*
D03*
Y544081D02*
D03*
Y504081D02*
D03*
Y464081D02*
D03*
Y424080D02*
D03*
X23430Y324080D02*
D03*
X33430Y304080D02*
D03*
X23430Y204080D02*
D03*
Y164080D02*
D03*
Y124080D02*
D03*
X33430Y104080D02*
D03*
X23430Y84080D02*
D03*
X13430Y304080D02*
D03*
Y224080D02*
D03*
Y184080D02*
D03*
Y144080D02*
D03*
Y104080D02*
D03*
Y64080D02*
D03*
X403860Y152400D02*
D03*
X335280Y93980D02*
D03*
X327660D02*
D03*
X335280Y86360D02*
D03*
X327660D02*
D03*
X488830Y740020D02*
D03*
X501650Y748383D02*
D03*
X514830Y756530D02*
D03*
X488830Y668020D02*
D03*
X527830Y692349D02*
D03*
X501783Y676383D02*
D03*
X514830Y684530D02*
D03*
X488830Y596020D02*
D03*
X501783Y604383D02*
D03*
X514830Y612530D02*
D03*
X527830Y620349D02*
D03*
X488830Y524020D02*
D03*
X527830Y548349D02*
D03*
X501650Y532383D02*
D03*
X514830Y540530D02*
D03*
X488830Y452020D02*
D03*
X501783Y460383D02*
D03*
X514830Y468530D02*
D03*
X527830Y476349D02*
D03*
X488830Y380020D02*
D03*
X527830Y404349D02*
D03*
X501650Y388383D02*
D03*
X514830Y396530D02*
D03*
X374026Y253028D02*
D03*
X586740Y515983D02*
D03*
Y543378D02*
D03*
Y461191D02*
D03*
X475830Y442820D02*
D03*
X462830Y488950D02*
D03*
X666750D02*
D03*
X586740Y488587D02*
D03*
Y430530D02*
D03*
X596392Y570774D02*
D03*
X782320Y681990D02*
D03*
Y675640D02*
D03*
X378393Y102210D02*
D03*
X721360Y632171D02*
D03*
X627380Y632460D02*
D03*
Y152400D02*
D03*
X584600Y725986D02*
D03*
X475830Y725844D02*
D03*
X579085Y632206D02*
D03*
X596150Y616966D02*
D03*
X721653Y616948D02*
D03*
X596150Y718820D02*
D03*
X721215Y650171D02*
D03*
X604520Y137160D02*
D03*
Y650240D02*
D03*
Y430530D02*
D03*
X454660Y718820D02*
D03*
Y575310D02*
D03*
Y430530D02*
D03*
X403860Y137160D02*
D03*
X476250Y584200D02*
D03*
X447047Y350520D02*
D03*
X734978Y575581D02*
D03*
X700755Y573930D02*
D03*
Y718820D02*
D03*
X734978D02*
D03*
X751840Y278940D02*
D03*
X681755Y287364D02*
D03*
X751840Y545990D02*
D03*
X681755D02*
D03*
X754380Y731520D02*
D03*
X762000D02*
D03*
X769620D02*
D03*
Y723900D02*
D03*
X762000D02*
D03*
X754380D02*
D03*
X546100Y751840D02*
D03*
X553720D02*
D03*
X561340D02*
D03*
Y759460D02*
D03*
X553720D02*
D03*
X546100D02*
D03*
X666531Y718820D02*
D03*
X427050Y327660D02*
D03*
X462830Y632460D02*
D03*
X619760Y665480D02*
D03*
X612140Y658232D02*
D03*
X681768Y597948D02*
D03*
X681755Y718820D02*
D03*
X619760Y165100D02*
D03*
X612140Y175260D02*
D03*
X462830Y350520D02*
D03*
X527830Y764349D02*
D03*
X452161Y311276D02*
D03*
X427050Y718820D02*
D03*
Y575310D02*
D03*
Y430150D02*
D03*
X342900Y250675D02*
D03*
Y257246D02*
D03*
X542958Y253028D02*
D03*
X413170Y287364D02*
D03*
X437656Y144110D02*
D03*
X624840Y144780D02*
D03*
X449580Y165100D02*
D03*
X378393Y53412D02*
D03*
X558054Y278940D02*
D03*
X342900Y264160D02*
D03*
Y243840D02*
D03*
X104140Y142240D02*
D03*
X97305D02*
D03*
X90734D02*
D03*
X83820D02*
D03*
X447040Y430530D02*
D03*
X421021Y175108D02*
D03*
X447040Y495300D02*
D03*
X447050Y638810D02*
D03*
Y575310D02*
D03*
X447040Y718820D02*
D03*
D35*
X814000Y791140D02*
D03*
X830164Y797835D02*
D03*
Y830164D02*
D03*
X814000Y836860D02*
D03*
X836860Y814000D02*
D03*
X465298Y801140D02*
D03*
X449133Y807835D02*
D03*
X481462D02*
D03*
X797835Y797835D02*
D03*
X791140Y814000D02*
D03*
X442438Y824000D02*
D03*
X488158D02*
D03*
X449133Y840164D02*
D03*
X481462D02*
D03*
X465298Y846860D02*
D03*
X797835Y830164D02*
D03*
X814000Y13140D02*
D03*
X791140Y36000D02*
D03*
X830164Y19835D02*
D03*
X797835D02*
D03*
X836860Y36000D02*
D03*
X797835Y52165D02*
D03*
X814000Y233140D02*
D03*
X791140Y256000D02*
D03*
X797835Y239835D02*
D03*
X814000Y58860D02*
D03*
X830164Y52165D02*
D03*
Y272164D02*
D03*
Y239835D02*
D03*
X836860Y256000D02*
D03*
X797835Y347836D02*
D03*
Y272164D02*
D03*
X791140Y364000D02*
D03*
X797835Y380164D02*
D03*
X814000Y386860D02*
D03*
Y341140D02*
D03*
Y278860D02*
D03*
X830164Y380164D02*
D03*
Y347836D02*
D03*
X836860Y364000D02*
D03*
X52165Y830164D02*
D03*
X36000Y13140D02*
D03*
X13140Y36000D02*
D03*
X19835Y239835D02*
D03*
Y52165D02*
D03*
Y19835D02*
D03*
X36000Y233140D02*
D03*
Y58860D02*
D03*
X52165Y239835D02*
D03*
X36000Y791140D02*
D03*
X52165Y797835D02*
D03*
X13140Y814000D02*
D03*
X19835Y830164D02*
D03*
Y797835D02*
D03*
X58860Y814000D02*
D03*
X36000Y836860D02*
D03*
X13140Y256000D02*
D03*
X19835Y347836D02*
D03*
X13140Y364000D02*
D03*
X19835Y380164D02*
D03*
Y272164D02*
D03*
X36000Y278860D02*
D03*
Y341140D02*
D03*
Y386860D02*
D03*
X52165Y19835D02*
D03*
X58860Y36000D02*
D03*
X52165Y52165D02*
D03*
X58860Y256000D02*
D03*
X52165Y272164D02*
D03*
Y347836D02*
D03*
X58860Y364000D02*
D03*
X52165Y380164D02*
D03*
D36*
X425000Y21000D02*
D03*
X36000Y364000D02*
D03*
Y256000D02*
D03*
Y36000D02*
D03*
X814000D02*
D03*
Y256000D02*
D03*
Y364000D02*
D03*
Y814000D02*
D03*
X465298Y824000D02*
D03*
X36000Y814000D02*
D03*
D37*
X381420Y702300D02*
D03*
Y558300D02*
D03*
Y486300D02*
D03*
Y630300D02*
D03*
X288080D02*
D03*
Y702300D02*
D03*
X194740Y630300D02*
D03*
Y702300D02*
D03*
X288080Y558300D02*
D03*
X194740Y486300D02*
D03*
X288080D02*
D03*
X194740Y558300D02*
D03*
X101400Y486300D02*
D03*
Y702300D02*
D03*
Y630300D02*
D03*
Y558300D02*
D03*
X381420Y342300D02*
D03*
Y414300D02*
D03*
X288080D02*
D03*
Y342300D02*
D03*
X194740Y414300D02*
D03*
Y342300D02*
D03*
X101400D02*
D03*
Y414300D02*
D03*
X275380Y643000D02*
D03*
X368720Y715000D02*
D03*
X88700Y643000D02*
D03*
Y715000D02*
D03*
X182040Y643000D02*
D03*
X275380Y715000D02*
D03*
X368720Y643000D02*
D03*
X182040Y715000D02*
D03*
X275380Y355000D02*
D03*
X288080Y367700D02*
D03*
X300780Y355000D02*
D03*
X182040D02*
D03*
X194740Y367700D02*
D03*
X207440Y355000D02*
D03*
X88700D02*
D03*
X381420Y727700D02*
D03*
X394120Y715000D02*
D03*
X300780Y571000D02*
D03*
X288080Y583700D02*
D03*
X275380Y571000D02*
D03*
X207440D02*
D03*
X194740Y583700D02*
D03*
X182040Y571000D02*
D03*
X114100D02*
D03*
X101400Y583700D02*
D03*
X88700Y571000D02*
D03*
X394120Y499000D02*
D03*
X381420Y511700D02*
D03*
X368720Y499000D02*
D03*
X114100D02*
D03*
X101400Y511700D02*
D03*
X88700Y499000D02*
D03*
X300780D02*
D03*
X288080Y511700D02*
D03*
X275380Y499000D02*
D03*
X182040D02*
D03*
X194740Y511700D02*
D03*
X207440Y499000D02*
D03*
X394120Y427000D02*
D03*
X381420Y439700D02*
D03*
X368720Y427000D02*
D03*
X300780D02*
D03*
X288080Y439700D02*
D03*
X275380Y427000D02*
D03*
X182040D02*
D03*
X194740Y439700D02*
D03*
X207440Y427000D02*
D03*
X288080Y727700D02*
D03*
X300780Y715000D02*
D03*
X88700Y427000D02*
D03*
X101400Y439700D02*
D03*
X114100Y427000D02*
D03*
X368720Y355000D02*
D03*
X381420Y367700D02*
D03*
X394120Y355000D02*
D03*
X101400Y367700D02*
D03*
X114100Y355000D02*
D03*
X207440Y715000D02*
D03*
X194740Y727700D02*
D03*
X381420Y655700D02*
D03*
X394120Y643000D02*
D03*
X114100D02*
D03*
X101400Y655700D02*
D03*
X207440Y643000D02*
D03*
X194740Y655700D02*
D03*
X368720Y571000D02*
D03*
X381420Y583700D02*
D03*
X394120Y571000D02*
D03*
X300780Y643000D02*
D03*
X288080Y655700D02*
D03*
X114100Y715000D02*
D03*
X101400Y727700D02*
D03*
D38*
X331774Y282512D02*
D03*
M02*
