M48
;Layer_Color=9474304
;FILE_FORMAT=4:2
METRIC,TZ
;TYPE=PLATED
T01F00S00C0.30
T02F00S00C0.30
T03F00S00C0.51
T04F00S00C0.60
T05F00S00C0.64
T06F00S00C3.30
%
T01
X7103Y935
X7277Y1257
X7518Y2789
X6818Y2874
X5581Y2789
X5430Y2530
X6121Y1753
X6198Y1651
X6274Y1524
X6248Y1448
X6045Y1372
X5766Y1257
X5594Y936
X4377Y1441
X4496Y1651
X4210Y1751
X4039Y1524
Y1372
X3784Y1022
Y534
X3353Y864
Y940
X3277
Y864
X3429Y2438
Y2507
Y2572
Y2642
X3740Y2530
X4132Y2874
X4271Y3277
X4522Y3113
X4470Y3505
X4628
X4888Y3800
X5017Y3884
X5148Y3965
X5278Y4043
X2741Y1836
X2568
Y1580
X2741
X1760Y1847
X1595
X1594Y2064
X1763Y2062
X1041Y1422
X973
X907
X838
X4271Y4301
X4470Y4305
X4547
X4758Y4428
X4888Y4520
X5018Y4604
X5148Y4685
X5278Y4763
X5867Y4886
Y5160
Y5434
X5964Y5708
X5962Y6170
X5791Y6322
X6045Y6502
X6121Y6582
X6198Y6655
X6274Y6325
X6818Y5979
X6818Y5460
X6668Y4890
X5867Y4612
Y4305
X6045
X5278Y5483
X5148Y5405
X5017Y5324
X4888Y5240
X4628Y4890
X4470Y4953
X4471Y5753
X4547
X4271
X4762Y5842
X4888Y5960
X5018Y6044
X5148Y6125
X5278Y6203
Y6923
X5148Y6845
X5018Y6764
X4888Y6680
X4628Y6325
X4471Y6388
X4470Y7188
X4547
X4271
X4758Y7258
X4888Y7400
X5017Y7484
X5148Y7565
X5278Y7643
X5461Y7595
Y7518
X5537
X5613
Y7595
X5537
X5846Y7260
X5962Y7188
X6665
X6818
X7008
X7350
X7544Y7239
Y7315
X7620
X7696
Y7239
X7620
X7823Y6820
Y6756
X7212Y6502
X7214Y6322
X7217Y6169
X7350Y5756
X7008Y5739
X7518Y5460
T02
X70Y71
X208Y50
X348
X488
X628
X768
X908
X1048
X1188
X1328
X1468
X1608
X1748
X1888
X2028
X2168
X2308
X2448
X2588
X2728
X2868Y50
X3008
X3148
X3288
X3428
X3568
X3708
X3848
X4688
X4828
X4968
X5108
X5248
X5388
X5528
X5668Y50
X5808
X5948
X6088
X6228
X6368
X6508
X6648
X6788
X6928
X7068
X7208
X7348
X7488
X7628
X7768
X7908
X8048
X8188
X8328
X8450Y119
X8450Y259
Y399
Y539
Y679
Y819
Y959
Y1099
Y1239
Y1379
X8450Y1519
Y1659
Y1799
Y1939
Y2079
Y2219
X8334Y2241
X8450Y2359
Y2499
Y2639
X8450Y2779
Y2919
Y3059
X8334Y3041
X8134
X7934
X8034Y3241
X8234
X8450Y3199
Y3339
Y3479
Y3619
Y3759
Y3899
X8432Y4038
X8309Y4104
X8234Y4041
X8034
X7834
X7234
X7034
X7134Y3841
X7334
X7234Y3641
X7034
X7134Y3441
X7334
X7234Y3241
X7334Y3041
X7134
X7334Y2641
X7234Y2441
Y2041
X7834
X8034
X8234
X8334Y1841
X8134
X7934
X8034Y1641
X8234
X8334Y1441
X8134
X7934
X8034Y1241
X8234
X8334Y1041
X8134
X7934
X8034Y841
X8234
X7834
X7734Y641
X7534
X7334
X7134
X7234Y441
X7434
X7634
X7734Y241
X7534
X7334
X7134
X7034Y441
X7334Y1441
X7834Y1641
Y1241
X7934Y2241
X7834Y2841
Y3241
X6934Y3441
Y3841
X6434Y4041
Y3641
X5834
X5934Y3841
X5534Y2641
X5134
X4734Y3441
X4134
X4034Y3641
X3434
X3234
X3334Y3441
X3534
X3134
X3034Y2841
X3834
X4034
X3934Y2641
X3834Y2041
X3634
X3434
X3034
Y1641
Y1241
X3134Y641
X3234Y441
X3434
X3634
X3734Y241
X3534
X3334
X3134
X3034Y441
X3534Y641
X3934
X4134
X4334
X4734
X4934
X5134
X5234Y441
X5034
X4834
X4934Y241
X5134
X5334
X5534
X5734
X5934
X6134
X6334
X6534
X6734
X6934
X6834Y441
X6634
X6434
X6534Y641
X6734
X6934
X6334
X5934
X5734
X5534
X5634Y441
X5834
X6034
X6134Y1041
X6034Y1241
X6534Y1441
X6734Y2641
X4434Y2041
X4534Y1841
X4034Y1641
X4534Y1041
X4734Y241
X2934
X2734
X2534
X2334
X2134
X1934
X1734
X1534
X1334
X1134
X934
X734
X834Y441
X1034
X1234
X1434
X1634
X1834
X2034
X2234
X2434
X2634
X2834
X2934Y641
X2734
X2634Y841
X2534Y1041
X2634Y1241
X2734Y1441
X2934
X2834Y1641
X2934Y1841
X2834Y2041
X2634
X2434
X2534Y2241
X2334
X1934
X1734
X1534
X1334
X1234Y2041
Y1641
X234
X50Y1610
Y1470
X134Y1441
X50Y1330
Y1190
Y1050
X134Y1041
X334
X534
X734
X634Y841
X434
X234
X50Y910
Y770
Y630
X134Y641
X50Y490
Y350
Y210
X734Y641
X934
X1134
X1334
X1534
X1634Y841
X2334Y1441
X2534
X2634Y2841
X2434
X1834
X1634
X1434
X1234
Y3241
X1434
X1634
X1834
X1734Y3441
X1534
X1334
X1434Y3641
X1634
X1534Y3841
X1334
X1234Y3641
X1034Y3241
X834
X634
X434
X234
X50Y3290
Y3150
Y3010
X134Y3041
X334
X534
X734
X634Y2841
X50Y2870
Y2730
Y2590
Y2450
Y2310
Y2170
Y2030
Y1890
X134Y1841
X50Y1750
X234Y2041
X134Y2241
X534
X234Y1241
X50Y3430
Y3570
Y3710
Y3850
X106Y3978
X218Y4062
X434Y4041
X634
X834
X734Y3841
Y3441
X2134
X2334
X2534
X2634Y3641
X2434
X2234
X2334Y3841
X2534
X1934
X2334Y4241
X2534
X2634Y4441
X2434
X2234
X1634
X1434
X1234
X1334Y4641
X1534
Y5041
X1334
X1434Y5241
X1634
X2034
X2234
X2434
X2634
X2534Y5041
X2334
X2434Y5641
X2634
X2534Y5841
X2334
X2134
X2234Y6041
X2434
Y6441
X2634
X2534Y6641
X2334
X2134
X2234Y6441
X1634
X1434
X1534Y6641
X1334
X1134
X1034Y6841
X1434
X1634
X1734Y7041
X1534
X1334
X1434Y7241
X1634
X1534Y7441
X1334
X1234Y7241
X634
X434
X250Y7279
Y7139
Y6999
X334Y7041
X534
X734
X634Y6841
X434
X250Y6859
Y6719
Y6579
Y6439
Y6299
Y6159
Y6019
Y5879
X334Y5841
X250Y5739
Y5599
Y5459
X334Y5441
X534
X734
X634Y5641
X434
X534Y5841
X734
X634Y6041
X434
X534Y6241
X734
X634Y6441
X434
X534Y6641
X734
X334
Y6241
X1034Y6041
X1134Y5841
X1334
X1534
X1634Y6041
X1434
Y5641
X1634
X1234
Y5241
X1034
X634
X434
X250Y5179
Y5039
X334Y5041
X534
X734
X834Y4841
X634
X434
X250Y4899
Y4759
Y4619
X334Y4641
X534
X734
X634Y4441
X434
X250Y4479
Y4339
Y4199
X334Y4241
X534
X734
X1334
X1534
X2234Y5641
X2334Y7041
X2534
X2634Y7241
X2434
X2234
X2334Y7441
X2534
Y7841
X2734
X2934
X2834Y8041
X2634
X2434
X2234
X2034
X1834
X1634
X1434
X1234
X1034
X834
X934Y7841
X1134
X1334
X1534
X1734
X1934
X2134
X2334
X1934Y7441
X2134Y7041
X734Y7441
X534
X334
X250Y7419
Y7559
X232Y7697
X134Y7797
X50Y7909
Y8049
X434Y7641
X634
X834
X734Y7841
X250Y5319
X3034Y5241
X3234
X3434
X3534Y5041
X3334
X3134
X3234Y5641
X3434
X3534Y5841
X3334
X3134
X3234Y6441
X3434
X3534Y6641
X3334
X3134
Y7041
X3334
X3534
X3434Y7241
X3234
X3334Y7841
X3534
X3734
X3934
X4134
X4334
X4534
X4734
X4934
X5134
X5234Y8041
X5034
X4234
X4034
X3834
X3634
X3434
X3234
X3034
X3134Y7841
X4034Y7241
X4134Y7041
Y5841
X3934
X4034Y5641
X4134Y5041
Y4241
X3534
X3334
X3134
X3234Y4441
X3434
X3034
X6434
X6934Y4641
Y5041
X6434Y5241
X5934Y5041
X6434Y6041
X6334Y6641
X6934Y4241
X7134
X7334
X7234Y4441
X7034
X7134Y4641
X7334
X7234Y4841
X7034
X7134Y5041
X7334
X7234Y5241
X7034
X7134Y5841
X7934
X8134
X8250Y5772
Y5632
Y5492
Y5352
Y5212
Y5072
Y4932
Y4792
Y4652
X8134Y4641
X7934
X8034Y4841
X7834
X7934Y5041
X8134
X8034Y5241
X7834
X7934Y5441
X8134
X8034Y5641
X7834
X8250Y5912
Y6052
Y6192
Y6332
Y6472
Y6612
Y6752
Y6892
Y7032
X8134Y7041
X7934
X8034Y7241
X7834
Y7641
X8034
X8254Y7591
X8250Y7452
Y7312
Y7172
X8034Y6841
X8134Y6641
X7934
X8034Y6441
X7834
X7934Y6241
X8134
X8327Y7711
X8334Y7841
X8447Y7783
X8450Y7923
Y8063
X7934Y7841
X7334Y7441
X7134Y7041
X7834Y4441
X8034
X8250Y4372
Y4512
X8251Y4232
X8134Y4241
X7934
X7734Y8241
X7601Y8313
X7660Y8440
X7799Y8450
X7939
X8079
X8219
X8359
X8450Y8343
Y8203
X7516Y8202
X7380Y8170
X7240
X7100
X6960
X6820
X6680
X6540
X6400
X6260
X6120
X5980
X5840
X5700
X5560
X5420
X5280
X5145Y8209
X5069Y8326
X4997Y8446
X4857Y8450
X4717
X4577
X4437
X4332Y8450
X4241Y8344
X4175Y8221
X4044Y8170
X3904Y8170
X3764
X3624
X3484
X3344
X3204
X3064
X2924
X2784
X2644
X2504
X2364
X2224
X2084
X1944
X1804
X1664
X1524
X1384
X1244
X1104
X970Y8211
X895Y8329
X821Y8447
X681Y8450
X541Y8450
X401
X261Y8450
X121
X50Y8329
Y8189
X734Y8241
T03
X3318Y2825
T04
X198Y198
X360Y131
X522Y198
X7978
X8140Y131
X8302Y198
X8369Y360
X8302Y522
X8140Y589
X7978Y522
X7911Y360
X7978Y2398
X8140Y2331
X8302Y2398
X8369Y2560
X8302Y2722
X8140Y2789
X7978Y2722
X7911Y2560
X7978Y3478
X7911Y3640
X7978Y3802
X8140Y3869
X8302Y3802
X8369Y3640
X8302Y3478
X8140Y3411
X3814Y3423
X3687Y3550
X3814Y3677
X3941Y3550
X3814Y4143
X3008Y3550
X2881Y3423
X2754Y3550
X2881Y3677
Y4143
X1947
Y3677
Y3423
X1820Y3550
X2074
X1141
X1014Y3423
X887Y3550
X1014Y3677
X589Y3640
X522Y3478
X360Y3411
X198Y3478
X131Y3640
X198Y3802
X360Y3869
X522Y3802
X1014Y4143
X522Y2722
X360Y2789
X198Y2722
X131Y2560
X198Y2398
X360Y2331
X522Y2398
X589Y2560
X522Y522
X360Y589
X198Y522
X131Y360
X589
X887Y4270
X1014Y4397
X1141Y4270
X1820
X1947Y4397
X2074Y4270
X2754
X2881Y4397
Y4863
Y5117
X2754Y4990
X2074
X1947Y4863
X1820Y4990
X1947Y5117
Y5583
X2074Y5710
X1947Y5837
X1820Y5710
X1141
X1014Y5583
Y5837
X887Y5710
X1014Y6303
X887Y6430
X1141
X1014Y6557
Y7023
X887Y7150
X1141
X1014Y7277
X1820Y7150
X1947Y7023
X2074Y7150
X1947Y7277
Y6557
Y6303
X1820Y6430
X2074
X2754
X2881Y6303
Y6557
Y7023
X2754Y7150
X2881Y7277
Y5837
Y5583
X2754Y5710
X1141Y4990
X1014Y4863
Y5117
X887Y4990
X522Y7978
X360Y7911
X198Y7978
X131Y8140
X589
X3008Y7150
X3687
X3814Y7023
Y7277
X3941Y7150
X3814Y6557
Y6303
X3687Y6430
X3941
X3814Y5837
Y5583
X3687Y5710
X3941
Y4990
X3814Y4863
Y5117
X3687Y4990
X3008
Y4270
X3687
X3941
X3814Y4397
X3008Y5710
Y6430
X4491Y8078
X4653Y8011
X4815Y8078
X7911Y8140
X7978Y7978
X8140Y7911
X8302Y7978
X8369Y8140
X8302Y8302
X8140Y8369
X7978Y8302
X4882Y8240
X4815Y8402
X4653Y8469
X4491Y8402
X4424Y8240
X522Y8302
X360Y8369
X198Y8302
T05
X7447Y2223
X7000Y3264
X5639
Y3124
X5486
Y3264
X5938Y2221
X3456
X2273Y3111
Y3251
X2121
Y3111
T06
X8140Y360
Y2560
Y3640
X4250Y210
X360Y360
Y2560
Y3640
Y8140
X8140
X4653Y8240
M30
