G04*
G04 #@! TF.GenerationSoftware,Altium Limited,Altium Designer,25.8.1 (18)*
G04*
G04 Layer_Color=0*
%FSLAX44Y44*%
%MOMM*%
G71*
G04*
G04 #@! TF.SameCoordinates,2A5453E3-354D-4B83-B7DC-91B48DEC4409*
G04*
G04*
G04 #@! TF.FilePolarity,Positive*
G04*
G01*
G75*
%ADD120C,0.0254*%
D120*
X-5000Y11973D02*
X-5000Y392430D01*
X-5000Y392449D01*
D02*
G02*
X10000Y407430I15000J-19D01*
G01*
D02*
G03*
X15000Y412430I0J5000D01*
G01*
Y766130D01*
D02*
G03*
X10000Y771130I-5000J0D01*
G01*
D02*
G02*
X-5000Y786130I-0J15000D01*
G01*
Y838000D01*
D02*
G02*
X11981Y855000I17000J0D01*
G01*
X12000Y855000D01*
X79977Y855000D01*
X80000Y855000D01*
D02*
G02*
X99000Y836019I0J-19000D01*
G01*
X99000Y836000D01*
D02*
G03*
X108000Y827000I9000J0D01*
G01*
X405300D01*
D02*
G03*
X414300Y836000I0J9000D01*
G01*
X414300Y836019D01*
D02*
G02*
X433300Y855000I19000J-19D01*
G01*
X497300D01*
D02*
G02*
X516300Y836019I0J-19000D01*
G01*
X516300Y836000D01*
D02*
G03*
X525300Y827000I9000J0D01*
G01*
X742000D01*
D02*
G03*
X751000Y836000I0J9000D01*
G01*
X751000Y836019D01*
D02*
G02*
X770000Y855000I19000J-19D01*
G01*
X838000D01*
D02*
G02*
X855000Y838000I0J-17000D01*
G01*
Y780099D01*
X855001Y780000D01*
D02*
G02*
X840001Y765000I-15000J0D01*
G01*
X839990Y765000D01*
D02*
G03*
X835001Y760000I11J-5000D01*
G01*
X835000Y759903D01*
Y420000D01*
D02*
G03*
X840000Y415000I5000J0D01*
G01*
D02*
G02*
X855000Y400000I0J-15000D01*
G01*
X855000Y12016D01*
X855000Y12000D01*
D02*
G02*
X838027Y-5000I-17000J-0D01*
G01*
X838000Y-5000D01*
X12016Y-5000D01*
X12000Y-5000D01*
D02*
G02*
X-5000Y11973I-0J17000D01*
G01*
M02*
