G04*
G04 #@! TF.GenerationSoftware,Altium Limited,Altium Designer,24.1.2 (44)*
G04*
G04 Layer_Physical_Order=1*
G04 Layer_Color=255*
%FSLAX44Y44*%
%MOMM*%
G71*
G04*
G04 #@! TF.SameCoordinates,EA7915C2-BB38-46DF-888F-944F4F2BDD17*
G04*
G04*
G04 #@! TF.FilePolarity,Positive*
G04*
G01*
G75*
%ADD11C,0.4000*%
%ADD14C,1.0000*%
%ADD26C,0.3000*%
%ADD27C,0.3500*%
%ADD28C,0.6000*%
%ADD29C,0.5000*%
%ADD30R,2.2016X1.9106*%
%ADD31R,2.1673X2.4556*%
%ADD32R,2.0376X6.5196*%
%ADD33R,2.2860X2.0320*%
%ADD34C,1.6000*%
%ADD35R,1.6000X1.6000*%
%ADD36C,1.2000*%
%ADD37C,6.0000*%
%ADD38C,0.6000*%
%ADD39C,4.5000*%
%ADD40C,1.0000*%
%ADD41C,0.4000*%
G36*
X792586Y837134D02*
X789973Y834521D01*
X787059Y830510D01*
X784808Y826092D01*
X783276Y821376D01*
X782500Y816479D01*
Y811521D01*
X783276Y806624D01*
X784808Y801908D01*
X787059Y797490D01*
X789973Y793479D01*
X793479Y789973D01*
X797490Y787059D01*
X801908Y784808D01*
X806624Y783276D01*
X811521Y782500D01*
X816479D01*
X821376Y783276D01*
X826092Y784808D01*
X830510Y787059D01*
X834521Y789973D01*
X837134Y792586D01*
X838404Y792060D01*
Y781487D01*
X835778Y781228D01*
X831718Y779997D01*
X827976Y777997D01*
X824696Y775305D01*
X822004Y772025D01*
X820004Y768283D01*
X818773Y764223D01*
X818363Y760062D01*
X818363D01*
X818404Y758810D01*
Y420000D01*
X818356D01*
X818772Y415777D01*
X820003Y411717D01*
X822003Y407975D01*
X824695Y404695D01*
X827975Y402004D01*
X831717Y400003D01*
X835777Y398772D01*
X838404Y398513D01*
Y385940D01*
X837134Y385414D01*
X834521Y388027D01*
X830510Y390941D01*
X826092Y393192D01*
X821376Y394724D01*
X816479Y395500D01*
X811521D01*
X806624Y394724D01*
X801908Y393192D01*
X797490Y390941D01*
X793479Y388027D01*
X789973Y384521D01*
X787059Y380510D01*
X784808Y376092D01*
X783276Y371376D01*
X782500Y366479D01*
Y361521D01*
X783276Y356624D01*
X784808Y351908D01*
X787059Y347490D01*
X789973Y343479D01*
X793479Y339973D01*
X797490Y337059D01*
X801908Y334808D01*
X806624Y333276D01*
X811521Y332500D01*
X816479D01*
X821376Y333276D01*
X826092Y334808D01*
X830510Y337059D01*
X834521Y339973D01*
X837134Y342586D01*
X838404Y342060D01*
X838404Y277940D01*
X837134Y277414D01*
X834521Y280027D01*
X830510Y282941D01*
X826092Y285192D01*
X821376Y286724D01*
X816479Y287500D01*
X811521D01*
X806624Y286724D01*
X801908Y285192D01*
X797490Y282941D01*
X793479Y280027D01*
X789973Y276521D01*
X787059Y272510D01*
X784808Y268092D01*
X783276Y263376D01*
X782500Y258479D01*
Y253521D01*
X783276Y248624D01*
X784808Y243908D01*
X787059Y239490D01*
X789973Y235479D01*
X793479Y231973D01*
X797490Y229059D01*
X801908Y226808D01*
X806624Y225276D01*
X811521Y224500D01*
X816479D01*
X821376Y225276D01*
X826092Y226808D01*
X830510Y229059D01*
X834521Y231973D01*
X837134Y234586D01*
X838404Y234060D01*
X838404Y57940D01*
X837134Y57414D01*
X834521Y60027D01*
X830510Y62941D01*
X826092Y65192D01*
X821376Y66724D01*
X816479Y67500D01*
X811521D01*
X806624Y66724D01*
X801908Y65192D01*
X797490Y62941D01*
X793479Y60027D01*
X789973Y56521D01*
X787059Y52510D01*
X784808Y48092D01*
X783276Y43376D01*
X782500Y38479D01*
Y33521D01*
X783276Y28624D01*
X784808Y23908D01*
X787059Y19490D01*
X789973Y15479D01*
X792586Y12866D01*
X792060Y11596D01*
X456997Y11596D01*
X456224Y12604D01*
X456780Y14678D01*
X457333Y18881D01*
Y23119D01*
X456780Y27322D01*
X455683Y31416D01*
X454061Y35331D01*
X451942Y39002D01*
X449362Y42365D01*
X446365Y45362D01*
X443002Y47942D01*
X439331Y50061D01*
X435416Y51683D01*
X431321Y52780D01*
X427119Y53334D01*
X422881D01*
X418679Y52780D01*
X414584Y51683D01*
X410668Y50061D01*
X406998Y47942D01*
X403635Y45362D01*
X400638Y42365D01*
X398058Y39002D01*
X395939Y35331D01*
X394317Y31416D01*
X393220Y27322D01*
X392666Y23119D01*
Y18881D01*
X393220Y14678D01*
X393776Y12604D01*
X393003Y11596D01*
X57940Y11596D01*
X57414Y12866D01*
X60027Y15479D01*
X62941Y19490D01*
X65192Y23908D01*
X66724Y28624D01*
X67500Y33521D01*
Y38479D01*
X66724Y43376D01*
X65192Y48092D01*
X62941Y52510D01*
X60027Y56521D01*
X56521Y60027D01*
X52510Y62941D01*
X48092Y65192D01*
X43376Y66724D01*
X38479Y67500D01*
X33521D01*
X28624Y66724D01*
X23908Y65192D01*
X19490Y62941D01*
X15479Y60027D01*
X12866Y57414D01*
X11596Y57940D01*
X11596Y234060D01*
X12866Y234586D01*
X15479Y231973D01*
X19490Y229059D01*
X23908Y226808D01*
X28624Y225276D01*
X33521Y224500D01*
X38479D01*
X43376Y225276D01*
X48092Y226808D01*
X52510Y229059D01*
X56521Y231973D01*
X60027Y235479D01*
X62941Y239490D01*
X65192Y243908D01*
X66724Y248624D01*
X67500Y253521D01*
Y258479D01*
X66724Y263376D01*
X65192Y268092D01*
X62941Y272510D01*
X60027Y276521D01*
X56521Y280027D01*
X52510Y282941D01*
X48092Y285192D01*
X43376Y286724D01*
X38479Y287500D01*
X33521D01*
X28624Y286724D01*
X23908Y285192D01*
X19490Y282941D01*
X15479Y280027D01*
X12866Y277414D01*
X11596Y277940D01*
Y342060D01*
X12866Y342586D01*
X15479Y339973D01*
X19490Y337059D01*
X23908Y334808D01*
X28624Y333276D01*
X33521Y332500D01*
X38479D01*
X43376Y333276D01*
X48092Y334808D01*
X52510Y337059D01*
X56521Y339973D01*
X60027Y343479D01*
X62941Y347490D01*
X65192Y351908D01*
X66724Y356624D01*
X67500Y361521D01*
Y366479D01*
X66724Y371376D01*
X65192Y376092D01*
X62941Y380510D01*
X60027Y384521D01*
X56521Y388027D01*
X52510Y390941D01*
X48092Y393192D01*
X43376Y394724D01*
X38479Y395500D01*
X33521D01*
X28624Y394724D01*
X23908Y393192D01*
X19490Y390941D01*
X15479Y388027D01*
X12866Y385414D01*
X11596Y385940D01*
Y390943D01*
X14223Y391202D01*
X18283Y392433D01*
X22025Y394434D01*
X25305Y397125D01*
X27997Y400405D01*
X29997Y404147D01*
X31228Y408207D01*
X31644Y412430D01*
X31596D01*
Y766130D01*
X31644D01*
X31228Y770353D01*
X29997Y774413D01*
X27997Y778155D01*
X26903Y779488D01*
X27024Y779780D01*
Y782715D01*
X28051Y783462D01*
X28624Y783276D01*
X33521Y782500D01*
X38479D01*
X43376Y783276D01*
X48092Y784808D01*
X52510Y787059D01*
X56521Y789973D01*
X60027Y793479D01*
X62941Y797490D01*
X65192Y801908D01*
X66724Y806624D01*
X67500Y811521D01*
Y816479D01*
X66724Y821376D01*
X65192Y826092D01*
X62941Y830510D01*
X60027Y834521D01*
X57414Y837134D01*
X57940Y838404D01*
X78733Y838404D01*
X80003Y838378D01*
X80003Y838378D01*
X80910Y838198D01*
X81682Y837682D01*
X82039Y837147D01*
X82336Y836000D01*
X82337Y836000D01*
X82830Y830993D01*
X84290Y826179D01*
X86662Y821742D01*
X89853Y817853D01*
X93742Y814661D01*
X98179Y812290D01*
X102993Y810830D01*
X108000Y810337D01*
Y810404D01*
X405300D01*
Y810337D01*
X410307Y810830D01*
X415121Y812290D01*
X419558Y814661D01*
X423447Y817853D01*
X426638Y821742D01*
X429010Y826179D01*
X430470Y830993D01*
X430964Y836000D01*
X430964D01*
X431261Y837147D01*
X431618Y837682D01*
X432390Y838198D01*
X433300Y838379D01*
Y838404D01*
X434894D01*
X435743Y837134D01*
X434617Y834416D01*
X433520Y830322D01*
X432966Y826119D01*
Y821881D01*
X433520Y817679D01*
X434617Y813584D01*
X436239Y809669D01*
X438358Y805998D01*
X440938Y802635D01*
X443935Y799638D01*
X447298Y797058D01*
X450969Y794939D01*
X454884Y793317D01*
X458979Y792220D01*
X463181Y791666D01*
X467419D01*
X471622Y792220D01*
X475716Y793317D01*
X479632Y794939D01*
X483302Y797058D01*
X486665Y799638D01*
X489662Y802635D01*
X492242Y805998D01*
X494361Y809669D01*
X495983Y813584D01*
X497080Y817679D01*
X497634Y821881D01*
Y826119D01*
X497080Y830322D01*
X495983Y834416D01*
X494857Y837134D01*
X495706Y838404D01*
X497300D01*
Y838379D01*
X498210Y838198D01*
X498982Y837682D01*
X499339Y837147D01*
X499636Y836000D01*
X499636Y836000D01*
X500130Y830993D01*
X501590Y826179D01*
X503961Y821742D01*
X507153Y817853D01*
X511042Y814661D01*
X515479Y812290D01*
X520293Y810830D01*
X525300Y810337D01*
Y810404D01*
X742000D01*
Y810337D01*
X747007Y810830D01*
X751821Y812290D01*
X756258Y814661D01*
X760147Y817853D01*
X763338Y821742D01*
X765710Y826179D01*
X767170Y830993D01*
X767663Y836000D01*
X767664D01*
X767961Y837147D01*
X768318Y837682D01*
X769090Y838198D01*
X770000Y838379D01*
Y838404D01*
X792060D01*
X792586Y837134D01*
D02*
G37*
%LPC*%
G36*
X644586Y792046D02*
X643194D01*
X641907Y791513D01*
X640923Y790529D01*
X640390Y789242D01*
Y787850D01*
X640923Y786563D01*
X641907Y785579D01*
X643194Y785046D01*
X644586D01*
X645873Y785579D01*
X646857Y786563D01*
X647390Y787850D01*
Y789242D01*
X646857Y790529D01*
X645873Y791513D01*
X644586Y792046D01*
D02*
G37*
G36*
X634426Y760042D02*
X633034D01*
X631747Y759509D01*
X630763Y758525D01*
X630230Y757238D01*
Y755846D01*
X630763Y754559D01*
X631747Y753575D01*
X633034Y753042D01*
X634426D01*
X635713Y753575D01*
X636697Y754559D01*
X637230Y755846D01*
Y757238D01*
X636697Y758525D01*
X635713Y759509D01*
X634426Y760042D01*
D02*
G37*
G36*
X708742Y749751D02*
X633153D01*
X631787Y749480D01*
X630629Y748706D01*
X578959Y697036D01*
X575234D01*
X574501Y698306D01*
X575126Y699390D01*
X575566Y701030D01*
X560634D01*
X561074Y699390D01*
X561699Y698306D01*
X560966Y697036D01*
X481894D01*
X481161Y698306D01*
X481786Y699390D01*
X482226Y701030D01*
X467294D01*
X467734Y699390D01*
X468359Y698306D01*
X467626Y697036D01*
X388554D01*
X387821Y698306D01*
X388446Y699390D01*
X388886Y701030D01*
X373954D01*
X374394Y699390D01*
X375019Y698306D01*
X374286Y697036D01*
X295214D01*
X294480Y698306D01*
X295106Y699390D01*
X295546Y701030D01*
X280614D01*
X281054Y699390D01*
X281679Y698306D01*
X280946Y697036D01*
X201874D01*
X201140Y698306D01*
X201766Y699390D01*
X202206Y701030D01*
X187274D01*
X187714Y699390D01*
X187920Y699033D01*
X186903Y698253D01*
X185609Y699548D01*
Y709555D01*
X186031Y709799D01*
X187241Y711009D01*
X188097Y712491D01*
X188540Y714144D01*
Y715856D01*
X188097Y717509D01*
X187241Y718991D01*
X186031Y720201D01*
X184549Y721057D01*
X182896Y721500D01*
X181184D01*
X179531Y721057D01*
X178049Y720201D01*
X176839Y718991D01*
X175983Y717509D01*
X175540Y715856D01*
Y714144D01*
X175983Y712491D01*
X176839Y711009D01*
X178049Y709799D01*
X178471Y709555D01*
Y698070D01*
X178743Y696704D01*
X179517Y695547D01*
X182460Y692603D01*
X181974Y691430D01*
X98477D01*
X92269Y697638D01*
Y709555D01*
X92691Y709799D01*
X93901Y711009D01*
X94757Y712491D01*
X95200Y714144D01*
Y715856D01*
X94757Y717509D01*
X93901Y718991D01*
X92691Y720201D01*
X91209Y721057D01*
X89556Y721500D01*
X87844D01*
X86191Y721057D01*
X84709Y720201D01*
X83499Y718991D01*
X82643Y717509D01*
X82200Y715856D01*
Y714144D01*
X82643Y712491D01*
X83499Y711009D01*
X84709Y709799D01*
X85131Y709555D01*
Y696160D01*
X85403Y694794D01*
X86177Y693637D01*
X94475Y685338D01*
X95633Y684565D01*
X96999Y684293D01*
X287697D01*
X288183Y683120D01*
X272857Y667793D01*
X272083Y666636D01*
X271811Y665270D01*
Y648445D01*
X271389Y648201D01*
X270179Y646991D01*
X269323Y645509D01*
X268880Y643856D01*
Y642144D01*
X269323Y640491D01*
X270179Y639009D01*
X271389Y637799D01*
X272871Y636943D01*
X274524Y636500D01*
X276236D01*
X277889Y636943D01*
X279371Y637799D01*
X280581Y639009D01*
X281437Y640491D01*
X281880Y642144D01*
Y643856D01*
X281437Y645509D01*
X280581Y646991D01*
X279371Y648201D01*
X278949Y648445D01*
Y663792D01*
X293578Y678421D01*
X380035D01*
X380521Y677248D01*
X366197Y662923D01*
X365423Y661766D01*
X365151Y660400D01*
Y648445D01*
X364729Y648201D01*
X363519Y646991D01*
X362663Y645509D01*
X362220Y643856D01*
Y642144D01*
X362663Y640491D01*
X363519Y639009D01*
X364729Y637799D01*
X366211Y636943D01*
X367864Y636500D01*
X369576D01*
X371229Y636943D01*
X372711Y637799D01*
X373921Y639009D01*
X374777Y640491D01*
X375220Y642144D01*
Y643856D01*
X374777Y645509D01*
X373921Y646991D01*
X372711Y648201D01*
X372289Y648445D01*
Y658922D01*
X386160Y672793D01*
X467967D01*
X468453Y671620D01*
X459537Y662703D01*
X458763Y661546D01*
X458491Y660180D01*
Y648445D01*
X458069Y648201D01*
X456859Y646991D01*
X456003Y645509D01*
X455560Y643856D01*
Y642144D01*
X456003Y640491D01*
X456859Y639009D01*
X458069Y637799D01*
X459551Y636943D01*
X461204Y636500D01*
X462916D01*
X464569Y636943D01*
X466051Y637799D01*
X467261Y639009D01*
X468117Y640491D01*
X468560Y642144D01*
Y643856D01*
X468117Y645509D01*
X467261Y646991D01*
X466051Y648201D01*
X465629Y648445D01*
Y658702D01*
X473819Y666892D01*
X559388D01*
X559874Y665719D01*
X552877Y658721D01*
X552103Y657564D01*
X551831Y656198D01*
Y648445D01*
X551409Y648201D01*
X550199Y646991D01*
X549343Y645509D01*
X548900Y643856D01*
Y642144D01*
X549343Y640491D01*
X550199Y639009D01*
X551409Y637799D01*
X552891Y636943D01*
X554544Y636500D01*
X556256D01*
X557909Y636943D01*
X559391Y637799D01*
X560601Y639009D01*
X561457Y640491D01*
X561900Y642144D01*
Y643856D01*
X561457Y645509D01*
X560601Y646991D01*
X559391Y648201D01*
X558969Y648445D01*
Y654720D01*
X560330Y656081D01*
X561600Y655555D01*
Y654844D01*
X562043Y653191D01*
X562899Y651709D01*
X564109Y650499D01*
X565591Y649643D01*
X567244Y649200D01*
X568956D01*
X570609Y649643D01*
X572091Y650499D01*
X573301Y651709D01*
X574157Y653191D01*
X574600Y654844D01*
Y656556D01*
X574157Y658209D01*
X573301Y659691D01*
X572924Y660068D01*
X573450Y661338D01*
X595057D01*
X596422Y661610D01*
X597580Y662383D01*
X622886Y687689D01*
X633094D01*
X633144Y686440D01*
X631857Y685907D01*
X630873Y684923D01*
X630340Y683636D01*
Y682244D01*
X630873Y680957D01*
X631857Y679973D01*
X633144Y679440D01*
X634536D01*
X635822Y679973D01*
X636807Y680957D01*
X637340Y682244D01*
Y683636D01*
X636807Y684923D01*
X635822Y685907D01*
X634536Y686440D01*
X634586Y687689D01*
X675559D01*
X675904Y687758D01*
X676256D01*
X676580Y687893D01*
X676925Y687961D01*
X677217Y688156D01*
X677542Y688291D01*
X677791Y688539D01*
X678083Y688735D01*
X678278Y689027D01*
X678527Y689275D01*
X678661Y689600D01*
X678856Y689892D01*
X678925Y690237D01*
X679059Y690562D01*
Y690913D01*
X679128Y691258D01*
X679059Y691603D01*
Y691954D01*
X678982Y692142D01*
X679146Y692586D01*
X679588Y693200D01*
X679857Y693412D01*
X688492D01*
X688850Y693483D01*
X689191D01*
X689505Y693613D01*
X689857Y693683D01*
X690156Y693883D01*
X690477Y694016D01*
X690723Y694262D01*
X691015Y694457D01*
X691018Y694460D01*
X691213Y694752D01*
X691461Y695001D01*
X691596Y695325D01*
X691791Y695618D01*
X691860Y695962D01*
X691994Y696287D01*
Y696638D01*
X692063Y696983D01*
X691994Y697328D01*
Y697679D01*
X691860Y698004D01*
X691791Y698349D01*
X691596Y698641D01*
X691461Y698966D01*
X691213Y699214D01*
X691018Y699507D01*
X690725Y699702D01*
X690477Y699950D01*
X690152Y700085D01*
X689860Y700280D01*
X689515Y700349D01*
X689191Y700483D01*
X688839D01*
X688494Y700552D01*
X688480Y700549D01*
X620905D01*
X620419Y701722D01*
X629078Y710381D01*
X701616D01*
X701961Y710450D01*
X702312D01*
X702637Y710584D01*
X702982Y710653D01*
X703274Y710848D01*
X703599Y710983D01*
X703847Y711231D01*
X704139Y711426D01*
X704335Y711719D01*
X704583Y711967D01*
X704718Y712292D01*
X704913Y712584D01*
X704982Y712929D01*
X705116Y713253D01*
Y713605D01*
X705185Y713950D01*
X705116Y714295D01*
Y714646D01*
X705074Y714746D01*
X705344Y715405D01*
X705714Y715846D01*
X705970Y716016D01*
X714602D01*
X714947Y716085D01*
X715298D01*
X715623Y716219D01*
X715968Y716288D01*
X716260Y716483D01*
X716585Y716618D01*
X716833Y716866D01*
X717126Y717061D01*
X717321Y717354D01*
X717569Y717602D01*
X717704Y717927D01*
X717899Y718219D01*
X717968Y718564D01*
X718102Y718889D01*
Y719240D01*
X718171Y719585D01*
X718102Y719930D01*
Y720281D01*
X717968Y720606D01*
X717899Y720950D01*
X717704Y721243D01*
X717569Y721567D01*
X717321Y721816D01*
X717126Y722108D01*
X716833Y722303D01*
X716585Y722552D01*
X716260Y722686D01*
X715968Y722882D01*
X715623Y722950D01*
X715298Y723085D01*
X714947D01*
X714602Y723153D01*
X653843D01*
X652994Y724423D01*
X653015Y724474D01*
Y725866D01*
X652482Y727153D01*
X651498Y728137D01*
X650211Y728670D01*
X648819D01*
X647532Y728137D01*
X646548Y727153D01*
X646015Y725866D01*
Y724474D01*
X646036Y724423D01*
X645187Y723153D01*
X625856D01*
X625330Y724423D01*
X637748Y736841D01*
X701515D01*
X701860Y736910D01*
X702211D01*
X702536Y737045D01*
X702881Y737113D01*
X703173Y737308D01*
X703498Y737443D01*
X703746Y737691D01*
X704038Y737887D01*
X704234Y738179D01*
X704482Y738427D01*
X704617Y738752D01*
X704812Y739044D01*
X704881Y739389D01*
X705015Y739714D01*
Y740065D01*
X705084Y740410D01*
X705015Y740755D01*
Y741106D01*
X704881Y741431D01*
X705507Y742378D01*
X705779Y742614D01*
X707264D01*
X711992Y737887D01*
X712284Y737691D01*
X712532Y737443D01*
X712857Y737308D01*
X713149Y737113D01*
X713494Y737045D01*
X713819Y736910D01*
X714170D01*
X714515Y736841D01*
X714860Y736910D01*
X715211D01*
X715536Y737045D01*
X715881Y737113D01*
X716173Y737308D01*
X716498Y737443D01*
X716746Y737691D01*
X717038Y737887D01*
X717234Y738179D01*
X717482Y738427D01*
X717617Y738752D01*
X717812Y739044D01*
X717880Y739389D01*
X718015Y739714D01*
Y740065D01*
X718084Y740410D01*
X718015Y740755D01*
Y741106D01*
X717880Y741431D01*
X717812Y741776D01*
X717617Y742068D01*
X717482Y742393D01*
X717234Y742641D01*
X717038Y742933D01*
X711266Y748706D01*
X710108Y749480D01*
X708742Y749751D01*
D02*
G37*
G36*
X728406Y734525D02*
X727014D01*
X725727Y733992D01*
X724743Y733008D01*
X724210Y731721D01*
Y730329D01*
X724743Y729042D01*
X725727Y728058D01*
X727014Y727525D01*
X728406D01*
X729693Y728058D01*
X730677Y729042D01*
X731210Y730329D01*
Y731721D01*
X730677Y733008D01*
X729693Y733992D01*
X728406Y734525D01*
D02*
G37*
G36*
X568956Y734200D02*
X567244D01*
X565591Y733757D01*
X564109Y732901D01*
X562899Y731691D01*
X562043Y730209D01*
X561600Y728556D01*
Y726844D01*
X562043Y725191D01*
X562899Y723709D01*
X564109Y722499D01*
X565591Y721643D01*
X567244Y721200D01*
X568956D01*
X570609Y721643D01*
X572091Y722499D01*
X573301Y723709D01*
X574157Y725191D01*
X574600Y726844D01*
Y728556D01*
X574157Y730209D01*
X573301Y731691D01*
X572091Y732901D01*
X570609Y733757D01*
X568956Y734200D01*
D02*
G37*
G36*
X475616D02*
X473904D01*
X472251Y733757D01*
X470769Y732901D01*
X469559Y731691D01*
X468703Y730209D01*
X468260Y728556D01*
Y726844D01*
X468703Y725191D01*
X469559Y723709D01*
X470769Y722499D01*
X472251Y721643D01*
X473904Y721200D01*
X475616D01*
X477269Y721643D01*
X478751Y722499D01*
X479961Y723709D01*
X480817Y725191D01*
X481260Y726844D01*
Y728556D01*
X480817Y730209D01*
X479961Y731691D01*
X478751Y732901D01*
X477269Y733757D01*
X475616Y734200D01*
D02*
G37*
G36*
X382276D02*
X380564D01*
X378911Y733757D01*
X377429Y732901D01*
X376219Y731691D01*
X375363Y730209D01*
X374920Y728556D01*
Y726844D01*
X375363Y725191D01*
X376219Y723709D01*
X377429Y722499D01*
X378911Y721643D01*
X380564Y721200D01*
X382276D01*
X383929Y721643D01*
X385411Y722499D01*
X386621Y723709D01*
X387477Y725191D01*
X387920Y726844D01*
Y728556D01*
X387477Y730209D01*
X386621Y731691D01*
X385411Y732901D01*
X383929Y733757D01*
X382276Y734200D01*
D02*
G37*
G36*
X288936D02*
X287224D01*
X285571Y733757D01*
X284089Y732901D01*
X282879Y731691D01*
X282023Y730209D01*
X281580Y728556D01*
Y726844D01*
X282023Y725191D01*
X282879Y723709D01*
X284089Y722499D01*
X285571Y721643D01*
X287224Y721200D01*
X288936D01*
X290589Y721643D01*
X292071Y722499D01*
X293281Y723709D01*
X294137Y725191D01*
X294580Y726844D01*
Y728556D01*
X294137Y730209D01*
X293281Y731691D01*
X292071Y732901D01*
X290589Y733757D01*
X288936Y734200D01*
D02*
G37*
G36*
X195596D02*
X193884D01*
X192231Y733757D01*
X190749Y732901D01*
X189539Y731691D01*
X188683Y730209D01*
X188240Y728556D01*
Y726844D01*
X188683Y725191D01*
X189539Y723709D01*
X190749Y722499D01*
X192231Y721643D01*
X193884Y721200D01*
X195596D01*
X197249Y721643D01*
X198731Y722499D01*
X199941Y723709D01*
X200797Y725191D01*
X201240Y726844D01*
Y728556D01*
X200797Y730209D01*
X199941Y731691D01*
X198731Y732901D01*
X197249Y733757D01*
X195596Y734200D01*
D02*
G37*
G36*
X102256D02*
X100544D01*
X98891Y733757D01*
X97409Y732901D01*
X96199Y731691D01*
X95343Y730209D01*
X94900Y728556D01*
Y726844D01*
X95343Y725191D01*
X96199Y723709D01*
X97409Y722499D01*
X98891Y721643D01*
X100544Y721200D01*
X102256D01*
X103909Y721643D01*
X105391Y722499D01*
X106601Y723709D01*
X107457Y725191D01*
X107900Y726844D01*
Y728556D01*
X107457Y730209D01*
X106601Y731691D01*
X105391Y732901D01*
X103909Y733757D01*
X102256Y734200D01*
D02*
G37*
G36*
X581656Y721500D02*
X579944D01*
X578291Y721057D01*
X576809Y720201D01*
X575599Y718991D01*
X574743Y717509D01*
X574300Y715856D01*
Y714144D01*
X574743Y712491D01*
X575599Y711009D01*
X576809Y709799D01*
X578291Y708943D01*
X579944Y708500D01*
X581656D01*
X583309Y708943D01*
X584791Y709799D01*
X586001Y711009D01*
X586857Y712491D01*
X587300Y714144D01*
Y715856D01*
X586857Y717509D01*
X586001Y718991D01*
X584791Y720201D01*
X583309Y721057D01*
X581656Y721500D01*
D02*
G37*
G36*
X488316D02*
X486604D01*
X484951Y721057D01*
X483469Y720201D01*
X482259Y718991D01*
X481403Y717509D01*
X480960Y715856D01*
Y714144D01*
X481403Y712491D01*
X482259Y711009D01*
X483469Y709799D01*
X484951Y708943D01*
X486604Y708500D01*
X488316D01*
X489969Y708943D01*
X491451Y709799D01*
X492661Y711009D01*
X493517Y712491D01*
X493960Y714144D01*
Y715856D01*
X493517Y717509D01*
X492661Y718991D01*
X491451Y720201D01*
X489969Y721057D01*
X488316Y721500D01*
D02*
G37*
G36*
X394976D02*
X393264D01*
X391611Y721057D01*
X390129Y720201D01*
X388919Y718991D01*
X388063Y717509D01*
X387620Y715856D01*
Y714144D01*
X388063Y712491D01*
X388919Y711009D01*
X390129Y709799D01*
X391611Y708943D01*
X393264Y708500D01*
X394976D01*
X396629Y708943D01*
X398111Y709799D01*
X399321Y711009D01*
X400177Y712491D01*
X400620Y714144D01*
Y715856D01*
X400177Y717509D01*
X399321Y718991D01*
X398111Y720201D01*
X396629Y721057D01*
X394976Y721500D01*
D02*
G37*
G36*
X301636D02*
X299924D01*
X298271Y721057D01*
X296789Y720201D01*
X295579Y718991D01*
X294723Y717509D01*
X294280Y715856D01*
Y714144D01*
X294723Y712491D01*
X295579Y711009D01*
X296789Y709799D01*
X298271Y708943D01*
X299924Y708500D01*
X301636D01*
X303289Y708943D01*
X304771Y709799D01*
X305981Y711009D01*
X306837Y712491D01*
X307280Y714144D01*
Y715856D01*
X306837Y717509D01*
X305981Y718991D01*
X304771Y720201D01*
X303289Y721057D01*
X301636Y721500D01*
D02*
G37*
G36*
X208296D02*
X206584D01*
X204931Y721057D01*
X203449Y720201D01*
X202239Y718991D01*
X201383Y717509D01*
X200940Y715856D01*
Y714144D01*
X201383Y712491D01*
X202239Y711009D01*
X203449Y709799D01*
X204931Y708943D01*
X206584Y708500D01*
X208296D01*
X209949Y708943D01*
X211431Y709799D01*
X212641Y711009D01*
X213497Y712491D01*
X213940Y714144D01*
Y715856D01*
X213497Y717509D01*
X212641Y718991D01*
X211431Y720201D01*
X209949Y721057D01*
X208296Y721500D01*
D02*
G37*
G36*
X114956D02*
X113244D01*
X111591Y721057D01*
X110109Y720201D01*
X108899Y718991D01*
X108043Y717509D01*
X107600Y715856D01*
Y714144D01*
X108043Y712491D01*
X108899Y711009D01*
X110109Y709799D01*
X111591Y708943D01*
X113244Y708500D01*
X114956D01*
X116609Y708943D01*
X118091Y709799D01*
X119301Y711009D01*
X120157Y712491D01*
X120600Y714144D01*
Y715856D01*
X120157Y717509D01*
X119301Y718991D01*
X118091Y720201D01*
X116609Y721057D01*
X114956Y721500D01*
D02*
G37*
G36*
X569370Y709766D02*
Y703570D01*
X575566D01*
X575126Y705210D01*
X574133Y706930D01*
X572730Y708333D01*
X571010Y709326D01*
X569370Y709766D01*
D02*
G37*
G36*
X566830D02*
X565190Y709326D01*
X563470Y708333D01*
X562066Y706930D01*
X561074Y705210D01*
X560634Y703570D01*
X566830D01*
Y709766D01*
D02*
G37*
G36*
X476030D02*
Y703570D01*
X482226D01*
X481786Y705210D01*
X480793Y706930D01*
X479390Y708333D01*
X477670Y709326D01*
X476030Y709766D01*
D02*
G37*
G36*
X473490D02*
X471850Y709326D01*
X470130Y708333D01*
X468727Y706930D01*
X467734Y705210D01*
X467294Y703570D01*
X473490D01*
Y709766D01*
D02*
G37*
G36*
X382690D02*
Y703570D01*
X388886D01*
X388446Y705210D01*
X387453Y706930D01*
X386050Y708333D01*
X384330Y709326D01*
X382690Y709766D01*
D02*
G37*
G36*
X380150D02*
X378510Y709326D01*
X376790Y708333D01*
X375387Y706930D01*
X374394Y705210D01*
X373954Y703570D01*
X380150D01*
Y709766D01*
D02*
G37*
G36*
X289350D02*
Y703570D01*
X295546D01*
X295106Y705210D01*
X294114Y706930D01*
X292710Y708333D01*
X290990Y709326D01*
X289350Y709766D01*
D02*
G37*
G36*
X286810D02*
X285170Y709326D01*
X283450Y708333D01*
X282047Y706930D01*
X281054Y705210D01*
X280614Y703570D01*
X286810D01*
Y709766D01*
D02*
G37*
G36*
X196010D02*
Y703570D01*
X202206D01*
X201766Y705210D01*
X200774Y706930D01*
X199370Y708333D01*
X197650Y709326D01*
X196010Y709766D01*
D02*
G37*
G36*
X193470D02*
X191830Y709326D01*
X190110Y708333D01*
X188706Y706930D01*
X187714Y705210D01*
X187274Y703570D01*
X193470D01*
Y709766D01*
D02*
G37*
G36*
X102670D02*
Y703570D01*
X108866D01*
X108426Y705210D01*
X107434Y706930D01*
X106030Y708333D01*
X104310Y709326D01*
X102670Y709766D01*
D02*
G37*
G36*
X100130D02*
X98490Y709326D01*
X96770Y708333D01*
X95366Y706930D01*
X94374Y705210D01*
X93934Y703570D01*
X100130D01*
Y709766D01*
D02*
G37*
G36*
X644586Y709063D02*
X643194D01*
X641907Y708531D01*
X640923Y707546D01*
X640390Y706260D01*
Y704867D01*
X640923Y703581D01*
X641907Y702596D01*
X643194Y702064D01*
X644586D01*
X645873Y702596D01*
X646857Y703581D01*
X647390Y704867D01*
Y706260D01*
X646857Y707546D01*
X645873Y708531D01*
X644586Y709063D01*
D02*
G37*
G36*
X108866Y701030D02*
X102670D01*
Y694834D01*
X104310Y695274D01*
X106030Y696266D01*
X107434Y697670D01*
X108426Y699390D01*
X108866Y701030D01*
D02*
G37*
G36*
X100130D02*
X93934D01*
X94374Y699390D01*
X95366Y697670D01*
X96770Y696266D01*
X98490Y695274D01*
X100130Y694834D01*
Y701030D01*
D02*
G37*
G36*
X755076Y694480D02*
X753684D01*
X752397Y693947D01*
X751413Y692963D01*
X750880Y691676D01*
Y690284D01*
X751413Y688998D01*
X752397Y688013D01*
X753684Y687480D01*
X755076D01*
X756363Y688013D01*
X757347Y688998D01*
X757880Y690284D01*
Y691676D01*
X757347Y692963D01*
X756363Y693947D01*
X755076Y694480D01*
D02*
G37*
G36*
X661096Y684220D02*
X659704D01*
X658417Y683687D01*
X657433Y682703D01*
X656900Y681416D01*
Y680024D01*
X657433Y678737D01*
X658417Y677753D01*
X659704Y677220D01*
X661096D01*
X662383Y677753D01*
X663367Y678737D01*
X663900Y680024D01*
Y681416D01*
X663367Y682703D01*
X662383Y683687D01*
X661096Y684220D01*
D02*
G37*
G36*
X755076Y681980D02*
X753684D01*
X752397Y681447D01*
X751413Y680463D01*
X750880Y679176D01*
Y677784D01*
X751413Y676498D01*
X752397Y675513D01*
X753684Y674980D01*
X755076D01*
X756363Y675513D01*
X757347Y676498D01*
X757880Y677784D01*
Y679176D01*
X757347Y680463D01*
X756363Y681447D01*
X755076Y681980D01*
D02*
G37*
G36*
X714544Y807083D02*
X621904D01*
X620539Y806811D01*
X619381Y806038D01*
X601772Y788429D01*
X302260D01*
X300894Y788157D01*
X299737Y787383D01*
X272857Y760503D01*
X272083Y759346D01*
X271811Y757980D01*
Y720445D01*
X271389Y720201D01*
X270179Y718991D01*
X269323Y717509D01*
X268880Y715856D01*
Y714144D01*
X269323Y712491D01*
X270179Y711009D01*
X271389Y709799D01*
X272871Y708943D01*
X274524Y708500D01*
X276236D01*
X277889Y708943D01*
X279371Y709799D01*
X280581Y711009D01*
X281437Y712491D01*
X281880Y714144D01*
Y715856D01*
X281437Y717509D01*
X280581Y718991D01*
X279371Y720201D01*
X278949Y720445D01*
Y756502D01*
X303738Y781291D01*
X396656D01*
X397142Y780118D01*
X366197Y749173D01*
X365423Y748015D01*
X365151Y746649D01*
Y720445D01*
X364729Y720201D01*
X363519Y718991D01*
X362663Y717509D01*
X362220Y715856D01*
Y714144D01*
X362663Y712491D01*
X363519Y711009D01*
X364729Y709799D01*
X366211Y708943D01*
X367864Y708500D01*
X369576D01*
X371229Y708943D01*
X372711Y709799D01*
X373921Y711009D01*
X374777Y712491D01*
X375220Y714144D01*
Y715856D01*
X374777Y717509D01*
X373921Y718991D01*
X372711Y720201D01*
X372289Y720445D01*
Y745171D01*
X402849Y775732D01*
X487788D01*
X488274Y774558D01*
X459537Y745821D01*
X458763Y744663D01*
X458491Y743298D01*
Y720445D01*
X458069Y720201D01*
X456859Y718991D01*
X456003Y717509D01*
X455560Y715856D01*
Y714144D01*
X456003Y712491D01*
X456859Y711009D01*
X458069Y709799D01*
X459551Y708943D01*
X461204Y708500D01*
X462916D01*
X464569Y708943D01*
X466051Y709799D01*
X467261Y711009D01*
X468117Y712491D01*
X468560Y714144D01*
Y715856D01*
X468117Y717509D01*
X467261Y718991D01*
X466051Y720201D01*
X465629Y720445D01*
Y741820D01*
X493889Y770080D01*
X577954D01*
X578440Y768906D01*
X552877Y743343D01*
X552103Y742186D01*
X551831Y740820D01*
Y720445D01*
X551409Y720201D01*
X550199Y718991D01*
X549343Y717509D01*
X548900Y715856D01*
Y714144D01*
X549343Y712491D01*
X550199Y711009D01*
X551409Y709799D01*
X552891Y708943D01*
X554544Y708500D01*
X556256D01*
X557909Y708943D01*
X559391Y709799D01*
X560601Y711009D01*
X561457Y712491D01*
X561900Y714144D01*
Y715856D01*
X561457Y717509D01*
X560601Y718991D01*
X559391Y720201D01*
X558969Y720445D01*
Y739342D01*
X584140Y764513D01*
X660096D01*
X660425Y763614D01*
X660456Y763243D01*
X659548Y762335D01*
X659015Y761048D01*
Y759656D01*
X659548Y758369D01*
X660532Y757385D01*
X661819Y756852D01*
X663211D01*
X664498Y757385D01*
X665482Y758369D01*
X666015Y759656D01*
Y761048D01*
X665482Y762335D01*
X664574Y763243D01*
X664605Y763614D01*
X664934Y764513D01*
X675515D01*
X675860Y764582D01*
X676211D01*
X676536Y764716D01*
X676881Y764785D01*
X677173Y764980D01*
X677498Y765114D01*
X677746Y765363D01*
X678038Y765558D01*
X678234Y765850D01*
X678482Y766099D01*
X678617Y766424D01*
X678812Y766716D01*
X678880Y767061D01*
X679015Y767385D01*
Y767737D01*
X679084Y768082D01*
X679015Y768426D01*
Y768778D01*
X679002Y768810D01*
X679352Y769604D01*
X679697Y769970D01*
X679882Y770080D01*
X688515D01*
X688860Y770148D01*
X689211D01*
X689536Y770283D01*
X689881Y770351D01*
X690173Y770547D01*
X690498Y770681D01*
X690746Y770930D01*
X691038Y771125D01*
X691234Y771417D01*
X691482Y771666D01*
X691617Y771991D01*
X691812Y772283D01*
X691880Y772627D01*
X692015Y772952D01*
Y773304D01*
X692084Y773648D01*
X692015Y773993D01*
Y774344D01*
X691880Y774669D01*
X691812Y775014D01*
X691617Y775306D01*
X691482Y775631D01*
X691234Y775879D01*
X691038Y776172D01*
X690979Y776211D01*
X691077Y776908D01*
X691428Y777481D01*
X745282D01*
X780021Y742742D01*
Y668038D01*
X779630Y667830D01*
X778751Y667648D01*
X777953Y668447D01*
X776666Y668980D01*
X775274D01*
X773987Y668447D01*
X773003Y667463D01*
X772562Y666397D01*
X766187Y660023D01*
X765524Y659031D01*
X765291Y657860D01*
X765291Y657860D01*
Y625640D01*
X704420D01*
X704044Y626267D01*
X703967Y626910D01*
X704038Y626958D01*
X704234Y627250D01*
X704482Y627498D01*
X704617Y627823D01*
X704812Y628115D01*
X704881Y628460D01*
X705015Y628785D01*
Y629136D01*
X705084Y629481D01*
X705015Y629826D01*
Y630177D01*
X705418Y631027D01*
X705758Y631359D01*
X705892Y631431D01*
X714515D01*
X714860Y631500D01*
X715211D01*
X715536Y631634D01*
X715881Y631703D01*
X716173Y631898D01*
X716498Y632033D01*
X716746Y632281D01*
X717038Y632477D01*
X717234Y632769D01*
X717482Y633017D01*
X717617Y633342D01*
X717812Y633634D01*
X717880Y633979D01*
X718015Y634304D01*
Y634655D01*
X718084Y635000D01*
X718015Y635345D01*
Y635696D01*
X717880Y636021D01*
X717812Y636366D01*
X717617Y636658D01*
X717482Y636983D01*
X717234Y637231D01*
X717038Y637523D01*
X716746Y637719D01*
X716498Y637967D01*
X716173Y638102D01*
X715881Y638297D01*
X715536Y638366D01*
X715211Y638500D01*
X714860D01*
X714515Y638569D01*
X653343D01*
X652677Y639839D01*
X653015Y640654D01*
Y642046D01*
X652482Y643333D01*
X651498Y644317D01*
X650211Y644850D01*
X648819D01*
X647532Y644317D01*
X646548Y643333D01*
X646015Y642046D01*
Y640654D01*
X646353Y639839D01*
X645687Y638569D01*
X627380D01*
X626014Y638297D01*
X624857Y637523D01*
X601502Y614169D01*
X585255D01*
X584769Y615342D01*
X625228Y655801D01*
X632085D01*
X632337Y654531D01*
X631747Y654287D01*
X630763Y653302D01*
X630230Y652016D01*
Y650623D01*
X630763Y649337D01*
X631747Y648352D01*
X633034Y647820D01*
X634426D01*
X635713Y648352D01*
X636697Y649337D01*
X637230Y650623D01*
Y652016D01*
X636697Y653302D01*
X635713Y654287D01*
X635123Y654531D01*
X635376Y655801D01*
X701515D01*
X701860Y655870D01*
X702211D01*
X702536Y656004D01*
X702881Y656073D01*
X703173Y656268D01*
X703498Y656402D01*
X703746Y656651D01*
X704038Y656846D01*
X704234Y657138D01*
X704482Y657387D01*
X704617Y657712D01*
X704812Y658004D01*
X704881Y658349D01*
X705015Y658673D01*
Y659025D01*
X705084Y659370D01*
X705015Y659714D01*
Y660066D01*
X704881Y660390D01*
X704831Y660641D01*
X704840Y660791D01*
X705254Y661611D01*
X705582Y661911D01*
X706926D01*
X711992Y656846D01*
X712284Y656651D01*
X712532Y656402D01*
X712857Y656268D01*
X713149Y656073D01*
X713494Y656004D01*
X713819Y655870D01*
X714170D01*
X714515Y655801D01*
X714860Y655870D01*
X715211D01*
X715536Y656004D01*
X715881Y656073D01*
X716173Y656268D01*
X716498Y656402D01*
X716746Y656651D01*
X717038Y656846D01*
X717234Y657138D01*
X717482Y657387D01*
X717617Y657712D01*
X717812Y658004D01*
X717880Y658349D01*
X718015Y658673D01*
Y659025D01*
X718084Y659370D01*
X718015Y659714D01*
Y660066D01*
X717880Y660390D01*
X717812Y660735D01*
X717617Y661027D01*
X717482Y661352D01*
X717234Y661601D01*
X717038Y661893D01*
X710928Y668003D01*
X709770Y668777D01*
X708405Y669049D01*
X621030D01*
X619664Y668777D01*
X618507Y668003D01*
X576427Y625923D01*
X575793Y626005D01*
X575116Y627372D01*
X575126Y627390D01*
X575566Y629030D01*
X560634D01*
X561074Y627390D01*
X561580Y626512D01*
X560847Y625243D01*
X482013D01*
X481280Y626512D01*
X481786Y627390D01*
X482226Y629030D01*
X467294D01*
X467734Y627390D01*
X468240Y626512D01*
X467507Y625243D01*
X388673D01*
X387940Y626512D01*
X388446Y627390D01*
X388886Y629030D01*
X373954D01*
X374394Y627390D01*
X374900Y626512D01*
X374167Y625243D01*
X295333D01*
X294600Y626512D01*
X295106Y627390D01*
X295546Y629030D01*
X280614D01*
X281054Y627390D01*
X281560Y626512D01*
X280827Y625243D01*
X201993D01*
X201260Y626512D01*
X201766Y627390D01*
X202206Y629030D01*
X194740D01*
Y630300D01*
X193470D01*
Y637766D01*
X191830Y637326D01*
X190110Y636333D01*
X188706Y634930D01*
X187714Y633210D01*
X187200Y631293D01*
Y631082D01*
X185930Y630404D01*
X185609Y630618D01*
Y637555D01*
X186031Y637799D01*
X187241Y639009D01*
X188097Y640491D01*
X188540Y642144D01*
Y643856D01*
X188097Y645509D01*
X187241Y646991D01*
X186031Y648201D01*
X184549Y649057D01*
X182896Y649500D01*
X181184D01*
X179531Y649057D01*
X178049Y648201D01*
X176839Y646991D01*
X175983Y645509D01*
X175540Y643856D01*
Y642144D01*
X175983Y640491D01*
X176839Y639009D01*
X178049Y637799D01*
X178471Y637555D01*
Y628220D01*
X178743Y626854D01*
X179517Y625697D01*
X184371Y620842D01*
X183885Y619669D01*
X100388D01*
X98179Y621878D01*
X98225Y622058D01*
X99733Y622940D01*
X100130Y622834D01*
Y629030D01*
X93934D01*
X94041Y628633D01*
X93210Y627213D01*
X92269Y628013D01*
Y637555D01*
X92691Y637799D01*
X93901Y639009D01*
X94757Y640491D01*
X95200Y642144D01*
Y643856D01*
X94757Y645509D01*
X93901Y646991D01*
X92691Y648201D01*
X91209Y649057D01*
X89556Y649500D01*
X87844D01*
X86191Y649057D01*
X84709Y648201D01*
X83499Y646991D01*
X82643Y645509D01*
X82200Y643856D01*
Y642144D01*
X82643Y640491D01*
X83499Y639009D01*
X84709Y637799D01*
X85131Y637555D01*
Y626310D01*
X85403Y624944D01*
X86177Y623787D01*
X96387Y613577D01*
X97544Y612803D01*
X98910Y612531D01*
X287055D01*
X287541Y611358D01*
X272857Y596673D01*
X272083Y595516D01*
X271811Y594150D01*
Y576445D01*
X271389Y576201D01*
X270179Y574991D01*
X269323Y573509D01*
X268880Y571856D01*
Y570144D01*
X269323Y568491D01*
X270179Y567009D01*
X271389Y565799D01*
X272871Y564943D01*
X274524Y564500D01*
X276236D01*
X277889Y564943D01*
X279371Y565799D01*
X280581Y567009D01*
X281437Y568491D01*
X281880Y570144D01*
Y571856D01*
X281437Y573509D01*
X280581Y574991D01*
X279371Y576201D01*
X278949Y576445D01*
Y592672D01*
X293308Y607031D01*
X381885D01*
X382371Y605858D01*
X366197Y589683D01*
X365423Y588526D01*
X365151Y587160D01*
Y576445D01*
X364729Y576201D01*
X363519Y574991D01*
X362663Y573509D01*
X362220Y571856D01*
Y570144D01*
X362663Y568491D01*
X363519Y567009D01*
X364729Y565799D01*
X366211Y564943D01*
X367864Y564500D01*
X369576D01*
X371229Y564943D01*
X372711Y565799D01*
X373921Y567009D01*
X374777Y568491D01*
X375220Y570144D01*
Y571856D01*
X374777Y573509D01*
X373921Y574991D01*
X372711Y576201D01*
X372289Y576445D01*
Y585682D01*
X387951Y601344D01*
X472581D01*
X473107Y600074D01*
X459537Y586503D01*
X458763Y585346D01*
X458491Y583980D01*
Y576445D01*
X458069Y576201D01*
X456859Y574991D01*
X456003Y573509D01*
X455560Y571856D01*
Y570144D01*
X456003Y568491D01*
X456859Y567009D01*
X458069Y565799D01*
X459551Y564943D01*
X461204Y564500D01*
X462916D01*
X464569Y564943D01*
X466051Y565799D01*
X467261Y567009D01*
X468117Y568491D01*
X468560Y570144D01*
Y571856D01*
X468117Y573509D01*
X467261Y574991D01*
X466051Y576201D01*
X465629Y576445D01*
Y582502D01*
X466990Y583863D01*
X468260Y583337D01*
Y582844D01*
X468703Y581191D01*
X469559Y579709D01*
X470769Y578499D01*
X472251Y577643D01*
X473904Y577200D01*
X475616D01*
X477269Y577643D01*
X478751Y578499D01*
X479961Y579709D01*
X480817Y581191D01*
X481260Y582844D01*
Y584556D01*
X480817Y586209D01*
X479961Y587691D01*
X478751Y588901D01*
X477269Y589757D01*
X475616Y590200D01*
X475123D01*
X474597Y591470D01*
X478290Y595163D01*
X559247D01*
X559733Y593990D01*
X552877Y587133D01*
X552103Y585976D01*
X551831Y584610D01*
Y576445D01*
X551409Y576201D01*
X550199Y574991D01*
X549343Y573509D01*
X548900Y571856D01*
Y570144D01*
X549343Y568491D01*
X550199Y567009D01*
X551409Y565799D01*
X552891Y564943D01*
X554544Y564500D01*
X556256D01*
X557909Y564943D01*
X559391Y565799D01*
X560601Y567009D01*
X561457Y568491D01*
X561900Y570144D01*
Y571856D01*
X561457Y573509D01*
X560601Y574991D01*
X559391Y576201D01*
X558969Y576445D01*
Y583132D01*
X560330Y584493D01*
X561600Y583967D01*
Y582844D01*
X562043Y581191D01*
X562899Y579709D01*
X564109Y578499D01*
X565591Y577643D01*
X567244Y577200D01*
X568956D01*
X570609Y577643D01*
X572091Y578499D01*
X573301Y579709D01*
X574157Y581191D01*
X574600Y582844D01*
Y584556D01*
X574157Y586209D01*
X573301Y587691D01*
X572741Y588251D01*
X573267Y589521D01*
X609875D01*
X611241Y589793D01*
X612399Y590567D01*
X618287Y596455D01*
X619755D01*
X620007Y595185D01*
X619047Y594787D01*
X618063Y593803D01*
X617530Y592516D01*
Y591124D01*
X618063Y589837D01*
X619047Y588853D01*
X620113Y588412D01*
X623393Y585131D01*
X622975Y583753D01*
X622644Y583687D01*
X621487Y582913D01*
X591638Y553065D01*
X575250D01*
X574517Y554335D01*
X575126Y555390D01*
X575566Y557030D01*
X560634D01*
X561074Y555390D01*
X561683Y554335D01*
X560950Y553065D01*
X481910D01*
X481177Y554335D01*
X481786Y555390D01*
X482226Y557030D01*
X467294D01*
X467734Y555390D01*
X468343Y554335D01*
X467610Y553065D01*
X388570D01*
X387837Y554335D01*
X388446Y555390D01*
X388886Y557030D01*
X373954D01*
X374394Y555390D01*
X375003Y554335D01*
X374270Y553065D01*
X295230D01*
X294497Y554335D01*
X295106Y555390D01*
X295546Y557030D01*
X280614D01*
X281054Y555390D01*
X281663Y554335D01*
X280930Y553065D01*
X201890D01*
X201157Y554335D01*
X201766Y555390D01*
X202206Y557030D01*
X194740D01*
Y558300D01*
X193470D01*
Y565766D01*
X191830Y565326D01*
X190110Y564333D01*
X188706Y562930D01*
X187714Y561210D01*
X187352Y559861D01*
X186163Y559285D01*
X185930Y559283D01*
X185609Y559498D01*
Y565555D01*
X186031Y565799D01*
X187241Y567009D01*
X188097Y568491D01*
X188540Y570144D01*
Y571856D01*
X188097Y573509D01*
X187241Y574991D01*
X186031Y576201D01*
X184549Y577057D01*
X182896Y577500D01*
X181184D01*
X179531Y577057D01*
X178049Y576201D01*
X176839Y574991D01*
X175983Y573509D01*
X175540Y571856D01*
Y570144D01*
X175983Y568491D01*
X176839Y567009D01*
X178049Y565799D01*
X178471Y565555D01*
Y557100D01*
X178743Y555734D01*
X179517Y554577D01*
X185630Y548463D01*
X185144Y547290D01*
X102166D01*
X99866Y549590D01*
X100130Y550161D01*
Y558300D01*
Y565766D01*
X98490Y565326D01*
X96770Y564333D01*
X95366Y562930D01*
X94374Y561210D01*
X93860Y559293D01*
Y558449D01*
X92590Y557761D01*
X92269Y557970D01*
Y565555D01*
X92691Y565799D01*
X93901Y567009D01*
X94757Y568491D01*
X95200Y570144D01*
Y571856D01*
X94757Y573509D01*
X93901Y574991D01*
X92691Y576201D01*
X91209Y577057D01*
X89556Y577500D01*
X87844D01*
X86191Y577057D01*
X84709Y576201D01*
X83499Y574991D01*
X82643Y573509D01*
X82200Y571856D01*
Y570144D01*
X82643Y568491D01*
X83499Y567009D01*
X84709Y565799D01*
X85131Y565555D01*
Y555709D01*
X85403Y554344D01*
X86177Y553186D01*
X98165Y541198D01*
X99323Y540424D01*
X100688Y540153D01*
X283047D01*
X283533Y538979D01*
X272857Y528303D01*
X272083Y527146D01*
X271811Y525780D01*
Y504445D01*
X271389Y504201D01*
X270179Y502991D01*
X269323Y501509D01*
X268880Y499856D01*
Y498144D01*
X269323Y496491D01*
X270179Y495009D01*
X271389Y493799D01*
X272871Y492943D01*
X274524Y492500D01*
X276236D01*
X277889Y492943D01*
X279371Y493799D01*
X280581Y495009D01*
X281437Y496491D01*
X281880Y498144D01*
Y499856D01*
X281437Y501509D01*
X280581Y502991D01*
X279371Y504201D01*
X278949Y504445D01*
Y524302D01*
X289300Y534653D01*
X381047D01*
X381533Y533479D01*
X366197Y518143D01*
X365423Y516986D01*
X365151Y515620D01*
Y504445D01*
X364729Y504201D01*
X363519Y502991D01*
X362663Y501509D01*
X362220Y499856D01*
Y498144D01*
X362663Y496491D01*
X363519Y495009D01*
X364729Y493799D01*
X366211Y492943D01*
X367864Y492500D01*
X369576D01*
X371229Y492943D01*
X372711Y493799D01*
X373921Y495009D01*
X374777Y496491D01*
X375220Y498144D01*
Y499856D01*
X374777Y501509D01*
X373921Y502991D01*
X372711Y504201D01*
X372289Y504445D01*
Y514142D01*
X386763Y528616D01*
X469840D01*
X470326Y527443D01*
X459537Y516653D01*
X458763Y515496D01*
X458491Y514130D01*
Y504445D01*
X458069Y504201D01*
X456859Y502991D01*
X456003Y501509D01*
X455560Y499856D01*
Y498144D01*
X456003Y496491D01*
X456859Y495009D01*
X458069Y493799D01*
X459551Y492943D01*
X461204Y492500D01*
X462916D01*
X464569Y492943D01*
X466051Y493799D01*
X467261Y495009D01*
X468117Y496491D01*
X468560Y498144D01*
Y499856D01*
X468117Y501509D01*
X467261Y502991D01*
X466051Y504201D01*
X465629Y504445D01*
Y512652D01*
X467462Y514486D01*
X468601Y513828D01*
X468260Y512556D01*
Y510844D01*
X468703Y509191D01*
X469559Y507709D01*
X470769Y506499D01*
X472251Y505643D01*
X473904Y505200D01*
X475616D01*
X477269Y505643D01*
X478751Y506499D01*
X479961Y507709D01*
X480817Y509191D01*
X481260Y510844D01*
Y512556D01*
X480817Y514209D01*
X479961Y515691D01*
X478751Y516901D01*
X477269Y517757D01*
X475616Y518200D01*
X473904D01*
X472632Y517859D01*
X471974Y518998D01*
X475626Y522649D01*
X557853D01*
X558339Y521476D01*
X552877Y516013D01*
X552103Y514856D01*
X551831Y513490D01*
Y504445D01*
X551409Y504201D01*
X550199Y502991D01*
X549343Y501509D01*
X548900Y499856D01*
Y498144D01*
X549343Y496491D01*
X550199Y495009D01*
X551409Y493799D01*
X552891Y492943D01*
X554544Y492500D01*
X556256D01*
X557909Y492943D01*
X559391Y493799D01*
X560601Y495009D01*
X561457Y496491D01*
X561900Y498144D01*
Y499856D01*
X561457Y501509D01*
X560601Y502991D01*
X559391Y504201D01*
X558969Y504445D01*
Y512012D01*
X560568Y513611D01*
X561707Y512954D01*
X561600Y512556D01*
Y510844D01*
X562043Y509191D01*
X562899Y507709D01*
X564109Y506499D01*
X565591Y505643D01*
X567244Y505200D01*
X568956D01*
X570609Y505643D01*
X572091Y506499D01*
X573301Y507709D01*
X574157Y509191D01*
X574600Y510844D01*
Y512556D01*
X574157Y514209D01*
X573379Y515557D01*
X573693Y516636D01*
X573772Y516827D01*
X615647D01*
X617623Y514851D01*
X618781Y514078D01*
X620146Y513806D01*
X675515D01*
X675860Y513875D01*
X676211D01*
X676536Y514009D01*
X676881Y514078D01*
X677173Y514273D01*
X677498Y514408D01*
X677746Y514656D01*
X678038Y514851D01*
X678234Y515144D01*
X678482Y515392D01*
X678617Y515717D01*
X678812Y516009D01*
X678880Y516354D01*
X679015Y516679D01*
Y517030D01*
X679084Y517375D01*
X679015Y517720D01*
Y518071D01*
X678995Y518118D01*
X679328Y518884D01*
X679678Y519266D01*
X679879Y519389D01*
X688515D01*
X688860Y519457D01*
X689211D01*
X689536Y519591D01*
X689881Y519660D01*
X690173Y519855D01*
X690498Y519990D01*
X690746Y520238D01*
X691038Y520434D01*
X691234Y520726D01*
X691482Y520974D01*
X691617Y521299D01*
X691812Y521591D01*
X691880Y521936D01*
X692015Y522261D01*
Y522612D01*
X692084Y522957D01*
X692015Y523302D01*
Y523653D01*
X691880Y523978D01*
X691812Y524323D01*
X691617Y524615D01*
X691482Y524940D01*
X691234Y525188D01*
X691038Y525480D01*
X690746Y525676D01*
X690498Y525924D01*
X690173Y526059D01*
X689881Y526254D01*
X689536Y526323D01*
X689211Y526457D01*
X688860D01*
X688515Y526526D01*
X637167D01*
X636641Y527796D01*
X636697Y527852D01*
X637230Y529139D01*
Y530531D01*
X636697Y531817D01*
X635713Y532802D01*
X634426Y533335D01*
X633034D01*
X631747Y532802D01*
X630763Y531817D01*
X630230Y530531D01*
Y529139D01*
X630763Y527852D01*
X630819Y527796D01*
X630293Y526526D01*
X624061D01*
X621846Y528741D01*
X620688Y529515D01*
X619322Y529786D01*
X606342D01*
X605856Y530960D01*
X618299Y543402D01*
X640797D01*
X641323Y542132D01*
X640923Y541733D01*
X640390Y540446D01*
Y539054D01*
X640923Y537767D01*
X641907Y536783D01*
X643194Y536250D01*
X644586D01*
X645873Y536783D01*
X646857Y537767D01*
X647390Y539054D01*
Y540446D01*
X646857Y541733D01*
X646457Y542132D01*
X646983Y543402D01*
X701515D01*
X701860Y543471D01*
X702211D01*
X702536Y543605D01*
X702881Y543674D01*
X703173Y543869D01*
X703498Y544004D01*
X703746Y544252D01*
X704038Y544448D01*
X704234Y544740D01*
X704482Y544988D01*
X704617Y545313D01*
X704812Y545605D01*
X704881Y545950D01*
X705015Y546275D01*
Y546626D01*
X705084Y546971D01*
X705015Y547316D01*
Y547667D01*
X705408Y548516D01*
X705745Y548852D01*
X705890Y548932D01*
X714534D01*
X714879Y549001D01*
X715231D01*
X715555Y549135D01*
X715900Y549204D01*
X716192Y549399D01*
X716517Y549533D01*
X716766Y549782D01*
X717058Y549977D01*
X717253Y550270D01*
X717502Y550518D01*
X717636Y550843D01*
X717831Y551135D01*
X717900Y551480D01*
X718034Y551804D01*
Y552156D01*
X718103Y552501D01*
X718034Y552845D01*
Y553197D01*
X717900Y553521D01*
X717831Y553866D01*
X717636Y554159D01*
X717502Y554483D01*
X717253Y554732D01*
X717058Y555024D01*
X716766Y555219D01*
X716517Y555468D01*
X716192Y555602D01*
X715900Y555798D01*
X715555Y555866D01*
X715231Y556001D01*
X714879D01*
X714534Y556069D01*
X653393D01*
X652698Y557339D01*
X653015Y558104D01*
Y559496D01*
X652482Y560783D01*
X651498Y561767D01*
X650211Y562300D01*
X648819D01*
X647532Y561767D01*
X646548Y560783D01*
X646015Y559496D01*
Y558104D01*
X646332Y557339D01*
X645637Y556069D01*
X615007D01*
X614481Y557339D01*
X627614Y570471D01*
X629451D01*
X630300Y569201D01*
X630230Y569033D01*
Y567641D01*
X630763Y566355D01*
X631747Y565370D01*
X633034Y564837D01*
X634426D01*
X635713Y565370D01*
X636697Y566355D01*
X637230Y567641D01*
Y569033D01*
X637160Y569201D01*
X638009Y570471D01*
X701515D01*
X701860Y570540D01*
X702211D01*
X702536Y570675D01*
X702881Y570743D01*
X703173Y570938D01*
X703498Y571073D01*
X703746Y571321D01*
X704038Y571517D01*
X704234Y571809D01*
X704482Y572057D01*
X704617Y572382D01*
X704812Y572674D01*
X704881Y573019D01*
X705015Y573344D01*
Y573695D01*
X705084Y574040D01*
X705015Y574385D01*
Y574736D01*
X704881Y575061D01*
X704812Y575406D01*
X704715Y575551D01*
X704846Y576052D01*
X705247Y576673D01*
X705421Y576821D01*
X706687D01*
X711992Y571517D01*
X712284Y571321D01*
X712532Y571073D01*
X712857Y570938D01*
X713149Y570743D01*
X713494Y570675D01*
X713819Y570540D01*
X714170D01*
X714515Y570471D01*
X714860Y570540D01*
X715211D01*
X715536Y570675D01*
X715881Y570743D01*
X716173Y570938D01*
X716498Y571073D01*
X716746Y571321D01*
X717038Y571517D01*
X717234Y571809D01*
X717482Y572057D01*
X717617Y572382D01*
X717812Y572674D01*
X717880Y573019D01*
X718015Y573344D01*
Y573695D01*
X718084Y574040D01*
X718015Y574385D01*
Y574736D01*
X717880Y575061D01*
X717812Y575406D01*
X717617Y575698D01*
X717482Y576023D01*
X717234Y576271D01*
X717038Y576563D01*
X711679Y581923D01*
X712205Y583193D01*
X739921D01*
X739921Y583193D01*
X741092Y583425D01*
X742084Y584089D01*
X752757Y594762D01*
X753823Y595203D01*
X754807Y596187D01*
X755340Y597474D01*
Y598866D01*
X754807Y600153D01*
X753823Y601137D01*
X752536Y601670D01*
X751144D01*
X749857Y601137D01*
X748873Y600153D01*
X748432Y599087D01*
X738654Y589310D01*
X662096D01*
X661570Y590580D01*
X662097Y591107D01*
X662630Y592394D01*
Y593786D01*
X662097Y595073D01*
X661985Y595185D01*
X662511Y596455D01*
X675515D01*
X675860Y596523D01*
X676211D01*
X676536Y596658D01*
X676881Y596726D01*
X677173Y596922D01*
X677498Y597056D01*
X677746Y597305D01*
X678038Y597500D01*
X678234Y597792D01*
X678482Y598041D01*
X678617Y598366D01*
X678812Y598658D01*
X678880Y599002D01*
X679015Y599327D01*
Y599679D01*
X679084Y600023D01*
X679015Y600368D01*
Y600720D01*
X678944Y600891D01*
X679127Y601378D01*
X679556Y601957D01*
X679823Y602161D01*
X688515D01*
X688860Y602230D01*
X689211D01*
X689536Y602365D01*
X689881Y602433D01*
X690173Y602628D01*
X690498Y602763D01*
X690746Y603011D01*
X691038Y603207D01*
X691234Y603499D01*
X691482Y603747D01*
X691617Y604072D01*
X691812Y604364D01*
X691880Y604709D01*
X692015Y605034D01*
Y605385D01*
X692084Y605730D01*
X692015Y606075D01*
Y606426D01*
X691880Y606751D01*
X691812Y607096D01*
X691617Y607388D01*
X691482Y607713D01*
X691234Y607961D01*
X691038Y608253D01*
X690746Y608449D01*
X690498Y608697D01*
X690173Y608832D01*
X689881Y609027D01*
X689536Y609095D01*
X689211Y609230D01*
X688860D01*
X688515Y609299D01*
X636957D01*
X636431Y610569D01*
X636697Y610835D01*
X637230Y612121D01*
Y613513D01*
X636697Y614800D01*
X635713Y615784D01*
X634426Y616317D01*
X633034D01*
X631747Y615784D01*
X630763Y614800D01*
X630230Y613513D01*
Y612121D01*
X630763Y610835D01*
X631029Y610569D01*
X630503Y609299D01*
X616631D01*
X616145Y610472D01*
X631585Y625912D01*
X640475D01*
X641001Y624642D01*
X640923Y624564D01*
X640390Y623277D01*
Y621885D01*
X640923Y620599D01*
X641907Y619614D01*
X643194Y619081D01*
X644586D01*
X645651Y619522D01*
X766802D01*
X772033Y614291D01*
Y500532D01*
X757273Y485772D01*
X756207Y485331D01*
X755223Y484346D01*
X754690Y483060D01*
Y481667D01*
X755223Y480381D01*
X756207Y479396D01*
X757494Y478863D01*
X758886D01*
X760173Y479396D01*
X761157Y480381D01*
X761598Y481446D01*
X777254Y497102D01*
X777254Y497102D01*
X777917Y498094D01*
X778150Y499265D01*
Y615558D01*
X778150Y615558D01*
X777917Y616729D01*
X777254Y617721D01*
X771409Y623567D01*
Y656593D01*
X776887Y662072D01*
X777953Y662513D01*
X778751Y663312D01*
X779630Y663130D01*
X780021Y662922D01*
Y653480D01*
Y480246D01*
X766707Y466932D01*
X758190D01*
X757845Y466863D01*
X757494D01*
X757169Y466729D01*
X756824Y466660D01*
X756532Y466465D01*
X756207Y466330D01*
X755959Y466082D01*
X755667Y465887D01*
X755471Y465594D01*
X755223Y465346D01*
X755088Y465021D01*
X754893Y464729D01*
X754825Y464384D01*
X754690Y464059D01*
Y463708D01*
X754621Y463363D01*
X754690Y463019D01*
Y462667D01*
X754825Y462342D01*
X754893Y461998D01*
X755088Y461706D01*
X755223Y461381D01*
X755471Y461132D01*
X755667Y460840D01*
X755959Y460645D01*
X756207Y460396D01*
X756532Y460262D01*
X756824Y460066D01*
X757169Y459998D01*
X757494Y459863D01*
X757845D01*
X758190Y459795D01*
X768185D01*
X769551Y460066D01*
X770709Y460840D01*
X786113Y476245D01*
X786887Y477402D01*
X787159Y478768D01*
Y653480D01*
Y744220D01*
X786887Y745586D01*
X786113Y746743D01*
X749283Y783573D01*
X748126Y784347D01*
X746760Y784619D01*
X662515D01*
X662170Y784550D01*
X661819D01*
X661494Y784416D01*
X661149Y784347D01*
X660857Y784152D01*
X660532Y784017D01*
X660284Y783769D01*
X659992Y783573D01*
X659796Y783281D01*
X659548Y783033D01*
X659413Y782708D01*
X659218Y782416D01*
X659149Y782071D01*
X659015Y781746D01*
Y781395D01*
X658946Y781050D01*
X659015Y780705D01*
Y780354D01*
X659149Y780029D01*
X659218Y779684D01*
X659413Y779392D01*
X659548Y779067D01*
X659796Y778819D01*
X659992Y778527D01*
X660051Y778487D01*
X659953Y777791D01*
X659602Y777217D01*
X610220D01*
X609734Y778390D01*
X625764Y794420D01*
X701679D01*
X702024Y794489D01*
X702211D01*
X702384Y794561D01*
X703045Y794692D01*
X704203Y795466D01*
X704976Y796623D01*
X705248Y797989D01*
X705111Y798676D01*
X705992Y799946D01*
X714544D01*
X714889Y800014D01*
X715211D01*
X715509Y800138D01*
X715910Y800217D01*
X716249Y800444D01*
X716498Y800547D01*
X716688Y800738D01*
X717067Y800991D01*
X717321Y801370D01*
X717482Y801532D01*
X717570Y801743D01*
X717841Y802149D01*
X717936Y802628D01*
X718015Y802818D01*
Y803024D01*
X718112Y803514D01*
X718015Y804004D01*
Y804211D01*
X717936Y804401D01*
X717841Y804880D01*
X717570Y805286D01*
X717482Y805497D01*
X717321Y805658D01*
X717067Y806038D01*
X716688Y806291D01*
X716498Y806481D01*
X716249Y806584D01*
X715910Y806811D01*
X715509Y806891D01*
X715211Y807014D01*
X714889D01*
X714544Y807083D01*
D02*
G37*
G36*
X475616Y662200D02*
X473904D01*
X472251Y661757D01*
X470769Y660901D01*
X469559Y659691D01*
X468703Y658209D01*
X468260Y656556D01*
Y654844D01*
X468703Y653191D01*
X469559Y651709D01*
X470769Y650499D01*
X472251Y649643D01*
X473904Y649200D01*
X475616D01*
X477269Y649643D01*
X478751Y650499D01*
X479961Y651709D01*
X480817Y653191D01*
X481260Y654844D01*
Y656556D01*
X480817Y658209D01*
X479961Y659691D01*
X478751Y660901D01*
X477269Y661757D01*
X475616Y662200D01*
D02*
G37*
G36*
X382276D02*
X380564D01*
X378911Y661757D01*
X377429Y660901D01*
X376219Y659691D01*
X375363Y658209D01*
X374920Y656556D01*
Y654844D01*
X375363Y653191D01*
X376219Y651709D01*
X377429Y650499D01*
X378911Y649643D01*
X380564Y649200D01*
X382276D01*
X383929Y649643D01*
X385411Y650499D01*
X386621Y651709D01*
X387477Y653191D01*
X387920Y654844D01*
Y656556D01*
X387477Y658209D01*
X386621Y659691D01*
X385411Y660901D01*
X383929Y661757D01*
X382276Y662200D01*
D02*
G37*
G36*
X288936D02*
X287224D01*
X285571Y661757D01*
X284089Y660901D01*
X282879Y659691D01*
X282023Y658209D01*
X281580Y656556D01*
Y654844D01*
X282023Y653191D01*
X282879Y651709D01*
X284089Y650499D01*
X285571Y649643D01*
X287224Y649200D01*
X288936D01*
X290589Y649643D01*
X292071Y650499D01*
X293281Y651709D01*
X294137Y653191D01*
X294580Y654844D01*
Y656556D01*
X294137Y658209D01*
X293281Y659691D01*
X292071Y660901D01*
X290589Y661757D01*
X288936Y662200D01*
D02*
G37*
G36*
X195596D02*
X193884D01*
X192231Y661757D01*
X190749Y660901D01*
X189539Y659691D01*
X188683Y658209D01*
X188240Y656556D01*
Y654844D01*
X188683Y653191D01*
X189539Y651709D01*
X190749Y650499D01*
X192231Y649643D01*
X193884Y649200D01*
X195596D01*
X197249Y649643D01*
X198731Y650499D01*
X199941Y651709D01*
X200797Y653191D01*
X201240Y654844D01*
Y656556D01*
X200797Y658209D01*
X199941Y659691D01*
X198731Y660901D01*
X197249Y661757D01*
X195596Y662200D01*
D02*
G37*
G36*
X102256D02*
X100544D01*
X98891Y661757D01*
X97409Y660901D01*
X96199Y659691D01*
X95343Y658209D01*
X94900Y656556D01*
Y654844D01*
X95343Y653191D01*
X96199Y651709D01*
X97409Y650499D01*
X98891Y649643D01*
X100544Y649200D01*
X102256D01*
X103909Y649643D01*
X105391Y650499D01*
X106601Y651709D01*
X107457Y653191D01*
X107900Y654844D01*
Y656556D01*
X107457Y658209D01*
X106601Y659691D01*
X105391Y660901D01*
X103909Y661757D01*
X102256Y662200D01*
D02*
G37*
G36*
X728406Y651543D02*
X727014D01*
X725727Y651010D01*
X724743Y650025D01*
X724210Y648739D01*
Y647346D01*
X724743Y646060D01*
X725727Y645075D01*
X727014Y644543D01*
X728406D01*
X729693Y645075D01*
X730677Y646060D01*
X731210Y647346D01*
Y648739D01*
X730677Y650025D01*
X729693Y651010D01*
X728406Y651543D01*
D02*
G37*
G36*
X746186Y651200D02*
X744794D01*
X743507Y650667D01*
X742523Y649683D01*
X741990Y648396D01*
Y647004D01*
X742523Y645717D01*
X743507Y644733D01*
X744794Y644200D01*
X746186D01*
X747473Y644733D01*
X748457Y645717D01*
X748990Y647004D01*
Y648396D01*
X748457Y649683D01*
X747473Y650667D01*
X746186Y651200D01*
D02*
G37*
G36*
X581656Y649500D02*
X579944D01*
X578291Y649057D01*
X576809Y648201D01*
X575599Y646991D01*
X574743Y645509D01*
X574300Y643856D01*
Y642144D01*
X574743Y640491D01*
X575599Y639009D01*
X576809Y637799D01*
X578291Y636943D01*
X579944Y636500D01*
X581656D01*
X583309Y636943D01*
X584791Y637799D01*
X586001Y639009D01*
X586857Y640491D01*
X587300Y642144D01*
Y643856D01*
X586857Y645509D01*
X586001Y646991D01*
X584791Y648201D01*
X583309Y649057D01*
X581656Y649500D01*
D02*
G37*
G36*
X488316D02*
X486604D01*
X484951Y649057D01*
X483469Y648201D01*
X482259Y646991D01*
X481403Y645509D01*
X480960Y643856D01*
Y642144D01*
X481403Y640491D01*
X482259Y639009D01*
X483469Y637799D01*
X484951Y636943D01*
X486604Y636500D01*
X488316D01*
X489969Y636943D01*
X491451Y637799D01*
X492661Y639009D01*
X493517Y640491D01*
X493960Y642144D01*
Y643856D01*
X493517Y645509D01*
X492661Y646991D01*
X491451Y648201D01*
X489969Y649057D01*
X488316Y649500D01*
D02*
G37*
G36*
X394976D02*
X393264D01*
X391611Y649057D01*
X390129Y648201D01*
X388919Y646991D01*
X388063Y645509D01*
X387620Y643856D01*
Y642144D01*
X388063Y640491D01*
X388919Y639009D01*
X390129Y637799D01*
X391611Y636943D01*
X393264Y636500D01*
X394976D01*
X396629Y636943D01*
X398111Y637799D01*
X399321Y639009D01*
X400177Y640491D01*
X400620Y642144D01*
Y643856D01*
X400177Y645509D01*
X399321Y646991D01*
X398111Y648201D01*
X396629Y649057D01*
X394976Y649500D01*
D02*
G37*
G36*
X301636D02*
X299924D01*
X298271Y649057D01*
X296789Y648201D01*
X295579Y646991D01*
X294723Y645509D01*
X294280Y643856D01*
Y642144D01*
X294723Y640491D01*
X295579Y639009D01*
X296789Y637799D01*
X298271Y636943D01*
X299924Y636500D01*
X301636D01*
X303289Y636943D01*
X304771Y637799D01*
X305981Y639009D01*
X306837Y640491D01*
X307280Y642144D01*
Y643856D01*
X306837Y645509D01*
X305981Y646991D01*
X304771Y648201D01*
X303289Y649057D01*
X301636Y649500D01*
D02*
G37*
G36*
X208296D02*
X206584D01*
X204931Y649057D01*
X203449Y648201D01*
X202239Y646991D01*
X201383Y645509D01*
X200940Y643856D01*
Y642144D01*
X201383Y640491D01*
X202239Y639009D01*
X203449Y637799D01*
X204931Y636943D01*
X206584Y636500D01*
X208296D01*
X209949Y636943D01*
X211431Y637799D01*
X212641Y639009D01*
X213497Y640491D01*
X213940Y642144D01*
Y643856D01*
X213497Y645509D01*
X212641Y646991D01*
X211431Y648201D01*
X209949Y649057D01*
X208296Y649500D01*
D02*
G37*
G36*
X114956D02*
X113244D01*
X111591Y649057D01*
X110109Y648201D01*
X108899Y646991D01*
X108043Y645509D01*
X107600Y643856D01*
Y642144D01*
X108043Y640491D01*
X108899Y639009D01*
X110109Y637799D01*
X111591Y636943D01*
X113244Y636500D01*
X114956D01*
X116609Y636943D01*
X118091Y637799D01*
X119301Y639009D01*
X120157Y640491D01*
X120600Y642144D01*
Y643856D01*
X120157Y645509D01*
X119301Y646991D01*
X118091Y648201D01*
X116609Y649057D01*
X114956Y649500D01*
D02*
G37*
G36*
X569370Y637766D02*
Y631570D01*
X575566D01*
X575126Y633210D01*
X574133Y634930D01*
X572730Y636333D01*
X571010Y637326D01*
X569370Y637766D01*
D02*
G37*
G36*
X566830D02*
X565190Y637326D01*
X563470Y636333D01*
X562066Y634930D01*
X561074Y633210D01*
X560634Y631570D01*
X566830D01*
Y637766D01*
D02*
G37*
G36*
X476030D02*
Y631570D01*
X482226D01*
X481786Y633210D01*
X480793Y634930D01*
X479390Y636333D01*
X477670Y637326D01*
X476030Y637766D01*
D02*
G37*
G36*
X473490D02*
X471850Y637326D01*
X470130Y636333D01*
X468727Y634930D01*
X467734Y633210D01*
X467294Y631570D01*
X473490D01*
Y637766D01*
D02*
G37*
G36*
X382690D02*
Y631570D01*
X388886D01*
X388446Y633210D01*
X387453Y634930D01*
X386050Y636333D01*
X384330Y637326D01*
X382690Y637766D01*
D02*
G37*
G36*
X380150D02*
X378510Y637326D01*
X376790Y636333D01*
X375387Y634930D01*
X374394Y633210D01*
X373954Y631570D01*
X380150D01*
Y637766D01*
D02*
G37*
G36*
X289350D02*
Y631570D01*
X295546D01*
X295106Y633210D01*
X294114Y634930D01*
X292710Y636333D01*
X290990Y637326D01*
X289350Y637766D01*
D02*
G37*
G36*
X286810D02*
X285170Y637326D01*
X283450Y636333D01*
X282047Y634930D01*
X281054Y633210D01*
X280614Y631570D01*
X286810D01*
Y637766D01*
D02*
G37*
G36*
X196010D02*
Y631570D01*
X202206D01*
X201766Y633210D01*
X200774Y634930D01*
X199370Y636333D01*
X197650Y637326D01*
X196010Y637766D01*
D02*
G37*
G36*
X102670D02*
Y631570D01*
X108866D01*
X108426Y633210D01*
X107434Y634930D01*
X106030Y636333D01*
X104310Y637326D01*
X102670Y637766D01*
D02*
G37*
G36*
X100130D02*
X98490Y637326D01*
X96770Y636333D01*
X95366Y634930D01*
X94374Y633210D01*
X93934Y631570D01*
X100130D01*
Y637766D01*
D02*
G37*
G36*
X108866Y629030D02*
X102670D01*
Y622834D01*
X104310Y623274D01*
X106030Y624266D01*
X107434Y625670D01*
X108426Y627390D01*
X108866Y629030D01*
D02*
G37*
G36*
X382276Y590200D02*
X380564D01*
X378911Y589757D01*
X377429Y588901D01*
X376219Y587691D01*
X375363Y586209D01*
X374920Y584556D01*
Y582844D01*
X375363Y581191D01*
X376219Y579709D01*
X377429Y578499D01*
X378911Y577643D01*
X380564Y577200D01*
X382276D01*
X383929Y577643D01*
X385411Y578499D01*
X386621Y579709D01*
X387477Y581191D01*
X387920Y582844D01*
Y584556D01*
X387477Y586209D01*
X386621Y587691D01*
X385411Y588901D01*
X383929Y589757D01*
X382276Y590200D01*
D02*
G37*
G36*
X288936D02*
X287224D01*
X285571Y589757D01*
X284089Y588901D01*
X282879Y587691D01*
X282023Y586209D01*
X281580Y584556D01*
Y582844D01*
X282023Y581191D01*
X282879Y579709D01*
X284089Y578499D01*
X285571Y577643D01*
X287224Y577200D01*
X288936D01*
X290589Y577643D01*
X292071Y578499D01*
X293281Y579709D01*
X294137Y581191D01*
X294580Y582844D01*
Y584556D01*
X294137Y586209D01*
X293281Y587691D01*
X292071Y588901D01*
X290589Y589757D01*
X288936Y590200D01*
D02*
G37*
G36*
X195596D02*
X193884D01*
X192231Y589757D01*
X190749Y588901D01*
X189539Y587691D01*
X188683Y586209D01*
X188240Y584556D01*
Y582844D01*
X188683Y581191D01*
X189539Y579709D01*
X190749Y578499D01*
X192231Y577643D01*
X193884Y577200D01*
X195596D01*
X197249Y577643D01*
X198731Y578499D01*
X199941Y579709D01*
X200797Y581191D01*
X201240Y582844D01*
Y584556D01*
X200797Y586209D01*
X199941Y587691D01*
X198731Y588901D01*
X197249Y589757D01*
X195596Y590200D01*
D02*
G37*
G36*
X102256D02*
X100544D01*
X98891Y589757D01*
X97409Y588901D01*
X96199Y587691D01*
X95343Y586209D01*
X94900Y584556D01*
Y582844D01*
X95343Y581191D01*
X96199Y579709D01*
X97409Y578499D01*
X98891Y577643D01*
X100544Y577200D01*
X102256D01*
X103909Y577643D01*
X105391Y578499D01*
X106601Y579709D01*
X107457Y581191D01*
X107900Y582844D01*
Y584556D01*
X107457Y586209D01*
X106601Y587691D01*
X105391Y588901D01*
X103909Y589757D01*
X102256Y590200D01*
D02*
G37*
G36*
X581656Y577500D02*
X579944D01*
X578291Y577057D01*
X576809Y576201D01*
X575599Y574991D01*
X574743Y573509D01*
X574300Y571856D01*
Y570144D01*
X574743Y568491D01*
X575599Y567009D01*
X576809Y565799D01*
X578291Y564943D01*
X579944Y564500D01*
X581656D01*
X583309Y564943D01*
X584791Y565799D01*
X586001Y567009D01*
X586857Y568491D01*
X587300Y570144D01*
Y571856D01*
X586857Y573509D01*
X586001Y574991D01*
X584791Y576201D01*
X583309Y577057D01*
X581656Y577500D01*
D02*
G37*
G36*
X488316D02*
X486604D01*
X484951Y577057D01*
X483469Y576201D01*
X482259Y574991D01*
X481403Y573509D01*
X480960Y571856D01*
Y570144D01*
X481403Y568491D01*
X482259Y567009D01*
X483469Y565799D01*
X484951Y564943D01*
X486604Y564500D01*
X488316D01*
X489969Y564943D01*
X491451Y565799D01*
X492661Y567009D01*
X493517Y568491D01*
X493960Y570144D01*
Y571856D01*
X493517Y573509D01*
X492661Y574991D01*
X491451Y576201D01*
X489969Y577057D01*
X488316Y577500D01*
D02*
G37*
G36*
X394976D02*
X393264D01*
X391611Y577057D01*
X390129Y576201D01*
X388919Y574991D01*
X388063Y573509D01*
X387620Y571856D01*
Y570144D01*
X388063Y568491D01*
X388919Y567009D01*
X390129Y565799D01*
X391611Y564943D01*
X393264Y564500D01*
X394976D01*
X396629Y564943D01*
X398111Y565799D01*
X399321Y567009D01*
X400177Y568491D01*
X400620Y570144D01*
Y571856D01*
X400177Y573509D01*
X399321Y574991D01*
X398111Y576201D01*
X396629Y577057D01*
X394976Y577500D01*
D02*
G37*
G36*
X301636D02*
X299924D01*
X298271Y577057D01*
X296789Y576201D01*
X295579Y574991D01*
X294723Y573509D01*
X294280Y571856D01*
Y570144D01*
X294723Y568491D01*
X295579Y567009D01*
X296789Y565799D01*
X298271Y564943D01*
X299924Y564500D01*
X301636D01*
X303289Y564943D01*
X304771Y565799D01*
X305981Y567009D01*
X306837Y568491D01*
X307280Y570144D01*
Y571856D01*
X306837Y573509D01*
X305981Y574991D01*
X304771Y576201D01*
X303289Y577057D01*
X301636Y577500D01*
D02*
G37*
G36*
X208296D02*
X206584D01*
X204931Y577057D01*
X203449Y576201D01*
X202239Y574991D01*
X201383Y573509D01*
X200940Y571856D01*
Y570144D01*
X201383Y568491D01*
X202239Y567009D01*
X203449Y565799D01*
X204931Y564943D01*
X206584Y564500D01*
X208296D01*
X209949Y564943D01*
X211431Y565799D01*
X212641Y567009D01*
X213497Y568491D01*
X213940Y570144D01*
Y571856D01*
X213497Y573509D01*
X212641Y574991D01*
X211431Y576201D01*
X209949Y577057D01*
X208296Y577500D01*
D02*
G37*
G36*
X114956D02*
X113244D01*
X111591Y577057D01*
X110109Y576201D01*
X108899Y574991D01*
X108043Y573509D01*
X107600Y571856D01*
Y570144D01*
X108043Y568491D01*
X108899Y567009D01*
X110109Y565799D01*
X111591Y564943D01*
X113244Y564500D01*
X114956D01*
X116609Y564943D01*
X118091Y565799D01*
X119301Y567009D01*
X120157Y568491D01*
X120600Y570144D01*
Y571856D01*
X120157Y573509D01*
X119301Y574991D01*
X118091Y576201D01*
X116609Y577057D01*
X114956Y577500D01*
D02*
G37*
G36*
X728406Y568560D02*
X727014D01*
X725727Y568027D01*
X724743Y567043D01*
X724210Y565756D01*
Y564364D01*
X724743Y563078D01*
X725727Y562093D01*
X727014Y561560D01*
X728406D01*
X729693Y562093D01*
X730677Y563078D01*
X731210Y564364D01*
Y565756D01*
X730677Y567043D01*
X729693Y568027D01*
X728406Y568560D01*
D02*
G37*
G36*
X569370Y565766D02*
Y559570D01*
X575566D01*
X575126Y561210D01*
X574133Y562930D01*
X572730Y564333D01*
X571010Y565326D01*
X569370Y565766D01*
D02*
G37*
G36*
X566830D02*
X565190Y565326D01*
X563470Y564333D01*
X562066Y562930D01*
X561074Y561210D01*
X560634Y559570D01*
X566830D01*
Y565766D01*
D02*
G37*
G36*
X476030D02*
Y559570D01*
X482226D01*
X481786Y561210D01*
X480793Y562930D01*
X479390Y564333D01*
X477670Y565326D01*
X476030Y565766D01*
D02*
G37*
G36*
X473490D02*
X471850Y565326D01*
X470130Y564333D01*
X468727Y562930D01*
X467734Y561210D01*
X467294Y559570D01*
X473490D01*
Y565766D01*
D02*
G37*
G36*
X382690D02*
Y559570D01*
X388886D01*
X388446Y561210D01*
X387453Y562930D01*
X386050Y564333D01*
X384330Y565326D01*
X382690Y565766D01*
D02*
G37*
G36*
X380150D02*
X378510Y565326D01*
X376790Y564333D01*
X375387Y562930D01*
X374394Y561210D01*
X373954Y559570D01*
X380150D01*
Y565766D01*
D02*
G37*
G36*
X289350D02*
Y559570D01*
X295546D01*
X295106Y561210D01*
X294114Y562930D01*
X292710Y564333D01*
X290990Y565326D01*
X289350Y565766D01*
D02*
G37*
G36*
X286810D02*
X285170Y565326D01*
X283450Y564333D01*
X282047Y562930D01*
X281054Y561210D01*
X280614Y559570D01*
X286810D01*
Y565766D01*
D02*
G37*
G36*
X196010D02*
Y559570D01*
X202206D01*
X201766Y561210D01*
X200774Y562930D01*
X199370Y564333D01*
X197650Y565326D01*
X196010Y565766D01*
D02*
G37*
G36*
X102670D02*
Y559570D01*
X108866D01*
X108426Y561210D01*
X107434Y562930D01*
X106030Y564333D01*
X104310Y565326D01*
X102670Y565766D01*
D02*
G37*
G36*
X108866Y557030D02*
X102670D01*
Y550834D01*
X104310Y551274D01*
X106030Y552266D01*
X107434Y553670D01*
X108426Y555390D01*
X108866Y557030D01*
D02*
G37*
G36*
X767776Y519120D02*
X766384D01*
X765097Y518587D01*
X764113Y517603D01*
X763580Y516316D01*
Y514924D01*
X764113Y513637D01*
X765097Y512653D01*
X766384Y512120D01*
X767776D01*
X769063Y512653D01*
X770047Y513637D01*
X770580Y514924D01*
Y516316D01*
X770047Y517603D01*
X769063Y518587D01*
X767776Y519120D01*
D02*
G37*
G36*
X382276Y518200D02*
X380564D01*
X378911Y517757D01*
X377429Y516901D01*
X376219Y515691D01*
X375363Y514209D01*
X374920Y512556D01*
Y510844D01*
X375363Y509191D01*
X376219Y507709D01*
X377429Y506499D01*
X378911Y505643D01*
X380564Y505200D01*
X382276D01*
X383929Y505643D01*
X385411Y506499D01*
X386621Y507709D01*
X387477Y509191D01*
X387920Y510844D01*
Y512556D01*
X387477Y514209D01*
X386621Y515691D01*
X385411Y516901D01*
X383929Y517757D01*
X382276Y518200D01*
D02*
G37*
G36*
X288936D02*
X287224D01*
X285571Y517757D01*
X284089Y516901D01*
X282879Y515691D01*
X282023Y514209D01*
X281580Y512556D01*
Y510844D01*
X282023Y509191D01*
X282879Y507709D01*
X284089Y506499D01*
X285571Y505643D01*
X287224Y505200D01*
X288936D01*
X290589Y505643D01*
X292071Y506499D01*
X293281Y507709D01*
X294137Y509191D01*
X294580Y510844D01*
Y512556D01*
X294137Y514209D01*
X293281Y515691D01*
X292071Y516901D01*
X290589Y517757D01*
X288936Y518200D01*
D02*
G37*
G36*
X195596D02*
X193884D01*
X192231Y517757D01*
X190749Y516901D01*
X189539Y515691D01*
X188683Y514209D01*
X188240Y512556D01*
Y510844D01*
X188683Y509191D01*
X189539Y507709D01*
X190749Y506499D01*
X192231Y505643D01*
X193884Y505200D01*
X195596D01*
X197249Y505643D01*
X198731Y506499D01*
X199941Y507709D01*
X200797Y509191D01*
X201240Y510844D01*
Y512556D01*
X200797Y514209D01*
X199941Y515691D01*
X198731Y516901D01*
X197249Y517757D01*
X195596Y518200D01*
D02*
G37*
G36*
X102256D02*
X100544D01*
X98891Y517757D01*
X97409Y516901D01*
X96199Y515691D01*
X95343Y514209D01*
X94900Y512556D01*
Y510844D01*
X95343Y509191D01*
X96199Y507709D01*
X97409Y506499D01*
X98891Y505643D01*
X100544Y505200D01*
X102256D01*
X103909Y505643D01*
X105391Y506499D01*
X106601Y507709D01*
X107457Y509191D01*
X107900Y510844D01*
Y512556D01*
X107457Y514209D01*
X106601Y515691D01*
X105391Y516901D01*
X103909Y517757D01*
X102256Y518200D01*
D02*
G37*
G36*
X662366Y511500D02*
X660974D01*
X659687Y510967D01*
X658703Y509983D01*
X658170Y508696D01*
Y507304D01*
X658703Y506017D01*
X659687Y505033D01*
X660974Y504500D01*
X662366D01*
X663653Y505033D01*
X664637Y506017D01*
X665170Y507304D01*
Y508696D01*
X664637Y509983D01*
X663653Y510967D01*
X662366Y511500D01*
D02*
G37*
G36*
X581656Y505500D02*
X579944D01*
X578291Y505057D01*
X576809Y504201D01*
X575599Y502991D01*
X574743Y501509D01*
X574300Y499856D01*
Y498144D01*
X574743Y496491D01*
X575599Y495009D01*
X576809Y493799D01*
X578291Y492943D01*
X579944Y492500D01*
X581656D01*
X583309Y492943D01*
X584791Y493799D01*
X586001Y495009D01*
X586857Y496491D01*
X587300Y498144D01*
Y499856D01*
X586857Y501509D01*
X586001Y502991D01*
X584791Y504201D01*
X583309Y505057D01*
X581656Y505500D01*
D02*
G37*
G36*
X488316D02*
X486604D01*
X484951Y505057D01*
X483469Y504201D01*
X482259Y502991D01*
X481403Y501509D01*
X480960Y499856D01*
Y498144D01*
X481403Y496491D01*
X482259Y495009D01*
X483469Y493799D01*
X484951Y492943D01*
X486604Y492500D01*
X488316D01*
X489969Y492943D01*
X491451Y493799D01*
X492661Y495009D01*
X493517Y496491D01*
X493960Y498144D01*
Y499856D01*
X493517Y501509D01*
X492661Y502991D01*
X491451Y504201D01*
X489969Y505057D01*
X488316Y505500D01*
D02*
G37*
G36*
X394976D02*
X393264D01*
X391611Y505057D01*
X390129Y504201D01*
X388919Y502991D01*
X388063Y501509D01*
X387620Y499856D01*
Y498144D01*
X388063Y496491D01*
X388919Y495009D01*
X390129Y493799D01*
X391611Y492943D01*
X393264Y492500D01*
X394976D01*
X396629Y492943D01*
X398111Y493799D01*
X399321Y495009D01*
X400177Y496491D01*
X400620Y498144D01*
Y499856D01*
X400177Y501509D01*
X399321Y502991D01*
X398111Y504201D01*
X396629Y505057D01*
X394976Y505500D01*
D02*
G37*
G36*
X301636D02*
X299924D01*
X298271Y505057D01*
X296789Y504201D01*
X295579Y502991D01*
X294723Y501509D01*
X294280Y499856D01*
Y498144D01*
X294723Y496491D01*
X295579Y495009D01*
X296789Y493799D01*
X298271Y492943D01*
X299924Y492500D01*
X301636D01*
X303289Y492943D01*
X304771Y493799D01*
X305981Y495009D01*
X306837Y496491D01*
X307280Y498144D01*
Y499856D01*
X306837Y501509D01*
X305981Y502991D01*
X304771Y504201D01*
X303289Y505057D01*
X301636Y505500D01*
D02*
G37*
G36*
X208296D02*
X206584D01*
X204931Y505057D01*
X203449Y504201D01*
X202239Y502991D01*
X201383Y501509D01*
X200940Y499856D01*
Y498144D01*
X201383Y496491D01*
X202239Y495009D01*
X203449Y493799D01*
X204931Y492943D01*
X206584Y492500D01*
X208296D01*
X209949Y492943D01*
X211431Y493799D01*
X212641Y495009D01*
X213497Y496491D01*
X213940Y498144D01*
Y499856D01*
X213497Y501509D01*
X212641Y502991D01*
X211431Y504201D01*
X209949Y505057D01*
X208296Y505500D01*
D02*
G37*
G36*
X114956D02*
X113244D01*
X111591Y505057D01*
X110109Y504201D01*
X108899Y502991D01*
X108043Y501509D01*
X107600Y499856D01*
Y498144D01*
X108043Y496491D01*
X108899Y495009D01*
X110109Y493799D01*
X111591Y492943D01*
X113244Y492500D01*
X114956D01*
X116609Y492943D01*
X118091Y493799D01*
X119301Y495009D01*
X120157Y496491D01*
X120600Y498144D01*
Y499856D01*
X120157Y501509D01*
X119301Y502991D01*
X118091Y504201D01*
X116609Y505057D01*
X114956Y505500D01*
D02*
G37*
G36*
X569370Y493766D02*
Y487570D01*
X575566D01*
X575126Y489210D01*
X574133Y490930D01*
X572730Y492333D01*
X571010Y493326D01*
X569370Y493766D01*
D02*
G37*
G36*
X566830D02*
X565190Y493326D01*
X563470Y492333D01*
X562066Y490930D01*
X561074Y489210D01*
X560634Y487570D01*
X566830D01*
Y493766D01*
D02*
G37*
G36*
X476030D02*
Y487570D01*
X482226D01*
X481786Y489210D01*
X480793Y490930D01*
X479390Y492333D01*
X477670Y493326D01*
X476030Y493766D01*
D02*
G37*
G36*
X473490D02*
X471850Y493326D01*
X470130Y492333D01*
X468727Y490930D01*
X467734Y489210D01*
X467294Y487570D01*
X473490D01*
Y493766D01*
D02*
G37*
G36*
X382690D02*
Y487570D01*
X388886D01*
X388446Y489210D01*
X387453Y490930D01*
X386050Y492333D01*
X384330Y493326D01*
X382690Y493766D01*
D02*
G37*
G36*
X380150D02*
X378510Y493326D01*
X376790Y492333D01*
X375387Y490930D01*
X374394Y489210D01*
X373954Y487570D01*
X380150D01*
Y493766D01*
D02*
G37*
G36*
X289350D02*
Y487570D01*
X295546D01*
X295106Y489210D01*
X294114Y490930D01*
X292710Y492333D01*
X290990Y493326D01*
X289350Y493766D01*
D02*
G37*
G36*
X286810D02*
X285170Y493326D01*
X283450Y492333D01*
X282047Y490930D01*
X281054Y489210D01*
X280614Y487570D01*
X286810D01*
Y493766D01*
D02*
G37*
G36*
X196010D02*
Y487570D01*
X202206D01*
X201766Y489210D01*
X200774Y490930D01*
X199370Y492333D01*
X197650Y493326D01*
X196010Y493766D01*
D02*
G37*
G36*
X102670D02*
Y487570D01*
X108866D01*
X108426Y489210D01*
X107434Y490930D01*
X106030Y492333D01*
X104310Y493326D01*
X102670Y493766D01*
D02*
G37*
G36*
X746186Y485578D02*
X744794D01*
X743507Y485045D01*
X742523Y484060D01*
X741990Y482774D01*
Y481382D01*
X742523Y480095D01*
X743507Y479111D01*
X744794Y478578D01*
X746186D01*
X747473Y479111D01*
X748457Y480095D01*
X748990Y481382D01*
Y482774D01*
X748457Y484060D01*
X747473Y485045D01*
X746186Y485578D01*
D02*
G37*
G36*
X728406D02*
X727014D01*
X725727Y485045D01*
X724743Y484060D01*
X724210Y482774D01*
Y481382D01*
X724743Y480095D01*
X725727Y479111D01*
X727014Y478578D01*
X728406D01*
X729693Y479111D01*
X730677Y480095D01*
X731210Y481382D01*
Y482774D01*
X730677Y484060D01*
X729693Y485045D01*
X728406Y485578D01*
D02*
G37*
G36*
X182896Y505500D02*
X181184D01*
X179531Y505057D01*
X178049Y504201D01*
X176839Y502991D01*
X175983Y501509D01*
X175540Y499856D01*
Y498144D01*
X175983Y496491D01*
X176839Y495009D01*
X178049Y493799D01*
X178471Y493555D01*
Y485980D01*
X178743Y484614D01*
X179517Y483457D01*
X186728Y476245D01*
X186242Y475072D01*
X102745D01*
X100270Y477547D01*
X100853Y478760D01*
X102393D01*
X104310Y479274D01*
X106030Y480266D01*
X107434Y481670D01*
X108426Y483390D01*
X108866Y485030D01*
X101400D01*
Y486300D01*
X100130D01*
Y493766D01*
X98490Y493326D01*
X96770Y492333D01*
X95366Y490930D01*
X94374Y489210D01*
X93860Y487293D01*
Y486896D01*
X92590Y486195D01*
X92269Y486397D01*
Y493555D01*
X92691Y493799D01*
X93901Y495009D01*
X94757Y496491D01*
X95200Y498144D01*
Y499856D01*
X94757Y501509D01*
X93901Y502991D01*
X92691Y504201D01*
X91209Y505057D01*
X89556Y505500D01*
X87844D01*
X86191Y505057D01*
X84709Y504201D01*
X83499Y502991D01*
X82643Y501509D01*
X82200Y499856D01*
Y498144D01*
X82643Y496491D01*
X83499Y495009D01*
X84709Y493799D01*
X85131Y493555D01*
Y484070D01*
X85403Y482704D01*
X86177Y481547D01*
X98744Y468980D01*
X99901Y468206D01*
X101267Y467934D01*
X284698D01*
X285184Y466761D01*
X272857Y454433D01*
X272083Y453276D01*
X271811Y451910D01*
Y432445D01*
X271389Y432201D01*
X270179Y430991D01*
X269323Y429509D01*
X268880Y427856D01*
Y426144D01*
X269323Y424491D01*
X270179Y423009D01*
X271389Y421799D01*
X272871Y420943D01*
X274524Y420500D01*
X276236D01*
X277889Y420943D01*
X279371Y421799D01*
X280581Y423009D01*
X281437Y424491D01*
X281880Y426144D01*
Y427856D01*
X281437Y429509D01*
X280581Y430991D01*
X279371Y432201D01*
X278949Y432445D01*
Y450432D01*
X290951Y462435D01*
X381932D01*
X382458Y461165D01*
X366197Y444903D01*
X365423Y443746D01*
X365151Y442380D01*
Y432445D01*
X364729Y432201D01*
X363519Y430991D01*
X362663Y429509D01*
X362220Y427856D01*
Y426144D01*
X362663Y424491D01*
X363519Y423009D01*
X364729Y421799D01*
X366211Y420943D01*
X367864Y420500D01*
X369576D01*
X371229Y420943D01*
X372711Y421799D01*
X373921Y423009D01*
X374777Y424491D01*
X375220Y426144D01*
Y427856D01*
X374777Y429509D01*
X373921Y430991D01*
X372711Y432201D01*
X372289Y432445D01*
Y440902D01*
X374308Y442921D01*
X375363Y442209D01*
X374920Y440556D01*
Y438844D01*
X375363Y437191D01*
X376219Y435709D01*
X377429Y434499D01*
X378911Y433643D01*
X380564Y433200D01*
X382276D01*
X383929Y433643D01*
X385411Y434499D01*
X386621Y435709D01*
X387477Y437191D01*
X387920Y438844D01*
Y440556D01*
X387477Y442209D01*
X386621Y443691D01*
X385411Y444901D01*
X383929Y445757D01*
X382276Y446200D01*
X380564D01*
X378911Y445757D01*
X378199Y446813D01*
X387393Y456007D01*
X470891D01*
X471377Y454833D01*
X459537Y442993D01*
X458763Y441836D01*
X458491Y440470D01*
Y432445D01*
X458069Y432201D01*
X456859Y430991D01*
X456003Y429509D01*
X455560Y427856D01*
Y426144D01*
X456003Y424491D01*
X456859Y423009D01*
X458069Y421799D01*
X459551Y420943D01*
X461204Y420500D01*
X462916D01*
X464569Y420943D01*
X466051Y421799D01*
X467261Y423009D01*
X468117Y424491D01*
X468560Y426144D01*
Y427856D01*
X468117Y429509D01*
X467261Y430991D01*
X466051Y432201D01*
X465629Y432445D01*
Y438992D01*
X466990Y440353D01*
X468260Y439827D01*
Y438844D01*
X468703Y437191D01*
X469559Y435709D01*
X470769Y434499D01*
X472251Y433643D01*
X473904Y433200D01*
X475616D01*
X477269Y433643D01*
X478751Y434499D01*
X479961Y435709D01*
X480817Y437191D01*
X481260Y438844D01*
Y440556D01*
X480817Y442209D01*
X479961Y443691D01*
X478751Y444901D01*
X477269Y445757D01*
X475616Y446200D01*
X474633D01*
X474107Y447470D01*
X476967Y450330D01*
X557924D01*
X558410Y449157D01*
X552877Y443623D01*
X552103Y442466D01*
X551831Y441100D01*
Y432445D01*
X551409Y432201D01*
X550199Y430991D01*
X549343Y429509D01*
X548900Y427856D01*
Y426144D01*
X549343Y424491D01*
X550199Y423009D01*
X551409Y421799D01*
X552891Y420943D01*
X554544Y420500D01*
X556256D01*
X557909Y420943D01*
X559391Y421799D01*
X560601Y423009D01*
X561457Y424491D01*
X561900Y426144D01*
Y427856D01*
X561457Y429509D01*
X560601Y430991D01*
X559391Y432201D01*
X558969Y432445D01*
Y439622D01*
X560425Y441078D01*
X561360Y440662D01*
X561600Y440457D01*
Y438844D01*
X562043Y437191D01*
X562899Y435709D01*
X564109Y434499D01*
X565591Y433643D01*
X567244Y433200D01*
X568956D01*
X570609Y433643D01*
X572091Y434499D01*
X573301Y435709D01*
X574157Y437191D01*
X574600Y438844D01*
Y440556D01*
X574157Y442209D01*
X573428Y443471D01*
X573860Y444741D01*
X591612D01*
X604751Y431602D01*
X605909Y430829D01*
X607275Y430557D01*
X675529D01*
X675874Y430625D01*
X676225D01*
X676550Y430760D01*
X676895Y430829D01*
X677187Y431024D01*
X677511Y431158D01*
X677760Y431407D01*
X678052Y431602D01*
X678248Y431894D01*
X678496Y432143D01*
X678631Y432468D01*
X678826Y432760D01*
X678894Y433105D01*
X679029Y433429D01*
Y433781D01*
X679097Y434125D01*
X679029Y434470D01*
Y434822D01*
X679019Y434846D01*
X679378Y435653D01*
X679721Y436013D01*
X679898Y436116D01*
X688396D01*
X688740Y436185D01*
X689211D01*
X689646Y436365D01*
X689761Y436388D01*
X689859Y436453D01*
X690498Y436718D01*
X691482Y437702D01*
X692015Y438989D01*
Y440381D01*
X691482Y441667D01*
X690498Y442652D01*
X689859Y442917D01*
X689761Y442982D01*
X689646Y443005D01*
X689211Y443185D01*
X688740D01*
X688396Y443253D01*
X636877D01*
X636351Y444523D01*
X636697Y444870D01*
X637230Y446156D01*
Y447549D01*
X636697Y448835D01*
X635713Y449819D01*
X634426Y450352D01*
X633034D01*
X631747Y449819D01*
X630763Y448835D01*
X630230Y447549D01*
Y446156D01*
X630763Y444870D01*
X631109Y444523D01*
X630583Y443253D01*
X611192D01*
X599612Y454833D01*
X600098Y456007D01*
X639898D01*
X640659Y454737D01*
X640390Y454086D01*
Y452694D01*
X640923Y451407D01*
X641907Y450423D01*
X643194Y449890D01*
X644586D01*
X645873Y450423D01*
X646857Y451407D01*
X647390Y452694D01*
Y454086D01*
X647121Y454737D01*
X647882Y456007D01*
X655155D01*
X656521Y456278D01*
X657679Y457052D01*
X661085Y460458D01*
X701532D01*
X701877Y460527D01*
X702228D01*
X702553Y460662D01*
X702898Y460730D01*
X703190Y460925D01*
X703515Y461060D01*
X703763Y461308D01*
X704055Y461504D01*
X704251Y461796D01*
X704499Y462044D01*
X704634Y462369D01*
X704829Y462661D01*
X704898Y463006D01*
X705032Y463331D01*
Y463682D01*
X705101Y464027D01*
X705032Y464372D01*
Y464723D01*
X704898Y465048D01*
X704829Y465393D01*
X704634Y465685D01*
X704550Y465887D01*
X704767Y466483D01*
X705110Y467091D01*
X705178Y467157D01*
X714520D01*
X714865Y467225D01*
X715216D01*
X715541Y467360D01*
X715885Y467429D01*
X716178Y467624D01*
X716502Y467758D01*
X716751Y468007D01*
X717043Y468202D01*
X717238Y468494D01*
X717487Y468743D01*
X717621Y469068D01*
X717817Y469360D01*
X717885Y469705D01*
X718020Y470029D01*
Y470381D01*
X718088Y470726D01*
X718020Y471070D01*
Y471422D01*
X717885Y471746D01*
X717817Y472091D01*
X717621Y472383D01*
X717487Y472708D01*
X717238Y472957D01*
X717043Y473249D01*
X716751Y473444D01*
X716502Y473693D01*
X716178Y473827D01*
X715885Y474022D01*
X715541Y474091D01*
X715216Y474226D01*
X714865D01*
X714520Y474294D01*
X657415D01*
X656050Y474022D01*
X654892Y473249D01*
X651215Y469572D01*
X607453D01*
X606967Y470745D01*
X623580Y487358D01*
X629397D01*
X630245Y486088D01*
X630230Y486051D01*
Y484659D01*
X630763Y483372D01*
X631747Y482388D01*
X633034Y481855D01*
X634426D01*
X635713Y482388D01*
X636697Y483372D01*
X637230Y484659D01*
Y486051D01*
X637215Y486088D01*
X638063Y487358D01*
X701514D01*
X701858Y487426D01*
X702210D01*
X702535Y487561D01*
X702879Y487630D01*
X703171Y487825D01*
X703496Y487959D01*
X703745Y488208D01*
X704037Y488403D01*
X704232Y488695D01*
X704481Y488944D01*
X704615Y489269D01*
X704811Y489561D01*
X704879Y489906D01*
X705014Y490230D01*
Y490582D01*
X705082Y490927D01*
X705014Y491271D01*
Y491623D01*
X704962Y491747D01*
X705204Y492352D01*
X705591Y492834D01*
X705854Y493017D01*
X707378D01*
X711992Y488403D01*
X712284Y488208D01*
X712532Y487959D01*
X712857Y487825D01*
X713149Y487630D01*
X713494Y487561D01*
X713819Y487426D01*
X714170D01*
X714515Y487358D01*
X714860Y487426D01*
X715211D01*
X715536Y487561D01*
X715881Y487630D01*
X716173Y487825D01*
X716498Y487959D01*
X716746Y488208D01*
X717038Y488403D01*
X717234Y488695D01*
X717482Y488944D01*
X717617Y489269D01*
X717812Y489561D01*
X717880Y489906D01*
X718015Y490230D01*
Y490582D01*
X718084Y490927D01*
X718015Y491271D01*
Y491623D01*
X717880Y491947D01*
X717812Y492292D01*
X717617Y492584D01*
X717482Y492909D01*
X717234Y493158D01*
X717038Y493450D01*
X711379Y499109D01*
X710222Y499882D01*
X708856Y500154D01*
X619571D01*
X618205Y499882D01*
X617048Y499109D01*
X599027Y481089D01*
X575264D01*
X574531Y482359D01*
X575126Y483390D01*
X575566Y485030D01*
X560634D01*
X561074Y483390D01*
X561669Y482359D01*
X560936Y481089D01*
X481924D01*
X481191Y482359D01*
X481786Y483390D01*
X482226Y485030D01*
X467294D01*
X467734Y483390D01*
X468329Y482359D01*
X467596Y481089D01*
X388584D01*
X387851Y482359D01*
X388446Y483390D01*
X388886Y485030D01*
X373954D01*
X374394Y483390D01*
X374989Y482359D01*
X374256Y481089D01*
X295244D01*
X294511Y482359D01*
X295106Y483390D01*
X295546Y485030D01*
X280614D01*
X281054Y483390D01*
X281649Y482359D01*
X280916Y481089D01*
X201904D01*
X201171Y482359D01*
X201766Y483390D01*
X202206Y485030D01*
X194740D01*
Y486300D01*
X193470D01*
Y493766D01*
X191830Y493326D01*
X190110Y492333D01*
X188706Y490930D01*
X187714Y489210D01*
X187514Y488466D01*
X186052Y487913D01*
X185609Y488207D01*
Y493555D01*
X186031Y493799D01*
X187241Y495009D01*
X188097Y496491D01*
X188540Y498144D01*
Y499856D01*
X188097Y501509D01*
X187241Y502991D01*
X186031Y504201D01*
X184549Y505057D01*
X182896Y505500D01*
D02*
G37*
G36*
X650212Y479179D02*
X648819D01*
X647533Y478646D01*
X646548Y477662D01*
X646015Y476375D01*
Y474983D01*
X646548Y473697D01*
X647533Y472712D01*
X648819Y472179D01*
X650212D01*
X651498Y472712D01*
X652483Y473697D01*
X653015Y474983D01*
Y476375D01*
X652483Y477662D01*
X651498Y478646D01*
X650212Y479179D01*
D02*
G37*
G36*
X288936Y446200D02*
X287224D01*
X285571Y445757D01*
X284089Y444901D01*
X282879Y443691D01*
X282023Y442209D01*
X281580Y440556D01*
Y438844D01*
X282023Y437191D01*
X282879Y435709D01*
X284089Y434499D01*
X285571Y433643D01*
X287224Y433200D01*
X288936D01*
X290589Y433643D01*
X292071Y434499D01*
X293281Y435709D01*
X294137Y437191D01*
X294580Y438844D01*
Y440556D01*
X294137Y442209D01*
X293281Y443691D01*
X292071Y444901D01*
X290589Y445757D01*
X288936Y446200D01*
D02*
G37*
G36*
X195596D02*
X193884D01*
X192231Y445757D01*
X190749Y444901D01*
X189539Y443691D01*
X188683Y442209D01*
X188240Y440556D01*
Y438844D01*
X188683Y437191D01*
X189539Y435709D01*
X190749Y434499D01*
X192231Y433643D01*
X193884Y433200D01*
X195596D01*
X197249Y433643D01*
X198731Y434499D01*
X199941Y435709D01*
X200797Y437191D01*
X201240Y438844D01*
Y440556D01*
X200797Y442209D01*
X199941Y443691D01*
X198731Y444901D01*
X197249Y445757D01*
X195596Y446200D01*
D02*
G37*
G36*
X102256D02*
X100544D01*
X98891Y445757D01*
X97409Y444901D01*
X96199Y443691D01*
X95343Y442209D01*
X94900Y440556D01*
Y438844D01*
X95343Y437191D01*
X96199Y435709D01*
X97409Y434499D01*
X98891Y433643D01*
X100544Y433200D01*
X102256D01*
X103909Y433643D01*
X105391Y434499D01*
X106601Y435709D01*
X107457Y437191D01*
X107900Y438844D01*
Y440556D01*
X107457Y442209D01*
X106601Y443691D01*
X105391Y444901D01*
X103909Y445757D01*
X102256Y446200D01*
D02*
G37*
G36*
X661096Y427680D02*
X659704D01*
X658417Y427147D01*
X657433Y426163D01*
X656900Y424876D01*
Y423484D01*
X657433Y422197D01*
X658417Y421213D01*
X659704Y420680D01*
X661096D01*
X662383Y421213D01*
X663367Y422197D01*
X663900Y423484D01*
Y424876D01*
X663367Y426163D01*
X662383Y427147D01*
X661096Y427680D01*
D02*
G37*
G36*
X581656Y433500D02*
X579944D01*
X578291Y433057D01*
X576809Y432201D01*
X575599Y430991D01*
X574743Y429509D01*
X574300Y427856D01*
Y426144D01*
X574743Y424491D01*
X575599Y423009D01*
X576809Y421799D01*
X578291Y420943D01*
X579944Y420500D01*
X581656D01*
X583309Y420943D01*
X584791Y421799D01*
X586001Y423009D01*
X586857Y424491D01*
X587300Y426144D01*
Y427856D01*
X586857Y429509D01*
X586001Y430991D01*
X584791Y432201D01*
X583309Y433057D01*
X581656Y433500D01*
D02*
G37*
G36*
X488316D02*
X486604D01*
X484951Y433057D01*
X483469Y432201D01*
X482259Y430991D01*
X481403Y429509D01*
X480960Y427856D01*
Y426144D01*
X481403Y424491D01*
X482259Y423009D01*
X483469Y421799D01*
X484951Y420943D01*
X486604Y420500D01*
X488316D01*
X489969Y420943D01*
X491451Y421799D01*
X492661Y423009D01*
X493517Y424491D01*
X493960Y426144D01*
Y427856D01*
X493517Y429509D01*
X492661Y430991D01*
X491451Y432201D01*
X489969Y433057D01*
X488316Y433500D01*
D02*
G37*
G36*
X394976D02*
X393264D01*
X391611Y433057D01*
X390129Y432201D01*
X388919Y430991D01*
X388063Y429509D01*
X387620Y427856D01*
Y426144D01*
X388063Y424491D01*
X388919Y423009D01*
X390129Y421799D01*
X391611Y420943D01*
X393264Y420500D01*
X394976D01*
X396629Y420943D01*
X398111Y421799D01*
X399321Y423009D01*
X400177Y424491D01*
X400620Y426144D01*
Y427856D01*
X400177Y429509D01*
X399321Y430991D01*
X398111Y432201D01*
X396629Y433057D01*
X394976Y433500D01*
D02*
G37*
G36*
X301636D02*
X299924D01*
X298271Y433057D01*
X296789Y432201D01*
X295579Y430991D01*
X294723Y429509D01*
X294280Y427856D01*
Y426144D01*
X294723Y424491D01*
X295579Y423009D01*
X296789Y421799D01*
X298271Y420943D01*
X299924Y420500D01*
X301636D01*
X303289Y420943D01*
X304771Y421799D01*
X305981Y423009D01*
X306837Y424491D01*
X307280Y426144D01*
Y427856D01*
X306837Y429509D01*
X305981Y430991D01*
X304771Y432201D01*
X303289Y433057D01*
X301636Y433500D01*
D02*
G37*
G36*
X208296D02*
X206584D01*
X204931Y433057D01*
X203449Y432201D01*
X202239Y430991D01*
X201383Y429509D01*
X200940Y427856D01*
Y426144D01*
X201383Y424491D01*
X202239Y423009D01*
X203449Y421799D01*
X204931Y420943D01*
X206584Y420500D01*
X208296D01*
X209949Y420943D01*
X211431Y421799D01*
X212641Y423009D01*
X213497Y424491D01*
X213940Y426144D01*
Y427856D01*
X213497Y429509D01*
X212641Y430991D01*
X211431Y432201D01*
X209949Y433057D01*
X208296Y433500D01*
D02*
G37*
G36*
X114956D02*
X113244D01*
X111591Y433057D01*
X110109Y432201D01*
X108899Y430991D01*
X108043Y429509D01*
X107600Y427856D01*
Y426144D01*
X108043Y424491D01*
X108899Y423009D01*
X110109Y421799D01*
X111591Y420943D01*
X113244Y420500D01*
X114956D01*
X116609Y420943D01*
X118091Y421799D01*
X119301Y423009D01*
X120157Y424491D01*
X120600Y426144D01*
Y427856D01*
X120157Y429509D01*
X119301Y430991D01*
X118091Y432201D01*
X116609Y433057D01*
X114956Y433500D01*
D02*
G37*
G36*
X569370Y421766D02*
Y415570D01*
X575566D01*
X575126Y417210D01*
X574133Y418930D01*
X572730Y420334D01*
X571010Y421326D01*
X569370Y421766D01*
D02*
G37*
G36*
X566830D02*
X565190Y421326D01*
X563470Y420334D01*
X562066Y418930D01*
X561074Y417210D01*
X560634Y415570D01*
X566830D01*
Y421766D01*
D02*
G37*
G36*
X476030D02*
Y415570D01*
X482226D01*
X481786Y417210D01*
X480793Y418930D01*
X479390Y420334D01*
X477670Y421326D01*
X476030Y421766D01*
D02*
G37*
G36*
X473490D02*
X471850Y421326D01*
X470130Y420334D01*
X468727Y418930D01*
X467734Y417210D01*
X467294Y415570D01*
X473490D01*
Y421766D01*
D02*
G37*
G36*
X382690D02*
Y415570D01*
X388886D01*
X388446Y417210D01*
X387453Y418930D01*
X386050Y420334D01*
X384330Y421326D01*
X382690Y421766D01*
D02*
G37*
G36*
X380150D02*
X378510Y421326D01*
X376790Y420334D01*
X375387Y418930D01*
X374394Y417210D01*
X373954Y415570D01*
X380150D01*
Y421766D01*
D02*
G37*
G36*
X289350D02*
Y415570D01*
X295546D01*
X295106Y417210D01*
X294114Y418930D01*
X292710Y420334D01*
X290990Y421326D01*
X289350Y421766D01*
D02*
G37*
G36*
X286810D02*
X285170Y421326D01*
X283450Y420334D01*
X282047Y418930D01*
X281054Y417210D01*
X280614Y415570D01*
X286810D01*
Y421766D01*
D02*
G37*
G36*
X196010D02*
Y415570D01*
X202206D01*
X201766Y417210D01*
X200774Y418930D01*
X199370Y420334D01*
X197650Y421326D01*
X196010Y421766D01*
D02*
G37*
G36*
X102670D02*
Y415570D01*
X108866D01*
X108426Y417210D01*
X107434Y418930D01*
X106030Y420334D01*
X104310Y421326D01*
X102670Y421766D01*
D02*
G37*
G36*
X182896Y433500D02*
X181184D01*
X179531Y433057D01*
X178049Y432201D01*
X176839Y430991D01*
X175983Y429509D01*
X175540Y427856D01*
Y426144D01*
X175983Y424491D01*
X176839Y423009D01*
X178049Y421799D01*
X178471Y421555D01*
Y413590D01*
X178743Y412224D01*
X179517Y411067D01*
X186293Y404291D01*
X185807Y403117D01*
X104850D01*
X102390Y405577D01*
X102874Y406889D01*
X104310Y407274D01*
X106030Y408266D01*
X107434Y409670D01*
X108426Y411390D01*
X108866Y413030D01*
X101400D01*
Y414300D01*
X100130D01*
Y421766D01*
X98490Y421326D01*
X96770Y420334D01*
X95366Y418930D01*
X94374Y417210D01*
X94220Y416634D01*
X92768Y416125D01*
X92269Y416493D01*
Y421555D01*
X92691Y421799D01*
X93901Y423009D01*
X94757Y424491D01*
X95200Y426144D01*
Y427856D01*
X94757Y429509D01*
X93901Y430991D01*
X92691Y432201D01*
X91209Y433057D01*
X89556Y433500D01*
X87844D01*
X86191Y433057D01*
X84709Y432201D01*
X83499Y430991D01*
X82643Y429509D01*
X82200Y427856D01*
Y426144D01*
X82643Y424491D01*
X83499Y423009D01*
X84709Y421799D01*
X85131Y421555D01*
Y414220D01*
X85403Y412854D01*
X86177Y411697D01*
X100848Y397025D01*
X102006Y396252D01*
X103371Y395980D01*
X285134D01*
X285620Y394807D01*
X272857Y382043D01*
X272083Y380886D01*
X271811Y379520D01*
Y360445D01*
X271389Y360201D01*
X270179Y358991D01*
X269323Y357509D01*
X268880Y355856D01*
Y354144D01*
X269323Y352491D01*
X270179Y351009D01*
X271389Y349799D01*
X272871Y348943D01*
X274524Y348500D01*
X276236D01*
X277889Y348943D01*
X279371Y349799D01*
X280581Y351009D01*
X281437Y352491D01*
X281880Y354144D01*
Y355856D01*
X281437Y357509D01*
X280581Y358991D01*
X279371Y360201D01*
X278949Y360445D01*
Y378042D01*
X291038Y390131D01*
X376939D01*
X377465Y388861D01*
X366197Y377593D01*
X365423Y376436D01*
X365151Y375070D01*
Y360445D01*
X364729Y360201D01*
X363519Y358991D01*
X362663Y357509D01*
X362220Y355856D01*
Y354144D01*
X362663Y352491D01*
X363519Y351009D01*
X364729Y349799D01*
X366211Y348943D01*
X367864Y348500D01*
X369576D01*
X371229Y348943D01*
X372711Y349799D01*
X373921Y351009D01*
X374777Y352491D01*
X375220Y354144D01*
Y355856D01*
X374777Y357509D01*
X373921Y358991D01*
X372711Y360201D01*
X372289Y360445D01*
Y373592D01*
X382704Y384007D01*
X468741D01*
X469227Y382834D01*
X459537Y373143D01*
X458763Y371986D01*
X458491Y370620D01*
Y360445D01*
X458069Y360201D01*
X456859Y358991D01*
X456003Y357509D01*
X455560Y355856D01*
Y354144D01*
X456003Y352491D01*
X456859Y351009D01*
X458069Y349799D01*
X459551Y348943D01*
X461204Y348500D01*
X462916D01*
X464569Y348943D01*
X466051Y349799D01*
X467261Y351009D01*
X468117Y352491D01*
X468560Y354144D01*
Y355856D01*
X468117Y357509D01*
X467261Y358991D01*
X466051Y360201D01*
X465629Y360445D01*
Y369142D01*
X467975Y371489D01*
X468992Y370709D01*
X468703Y370209D01*
X468260Y368556D01*
Y366844D01*
X468703Y365191D01*
X469559Y363709D01*
X470769Y362499D01*
X472251Y361643D01*
X473904Y361200D01*
X475616D01*
X477269Y361643D01*
X478751Y362499D01*
X479961Y363709D01*
X480817Y365191D01*
X481260Y366844D01*
Y368556D01*
X480817Y370209D01*
X479961Y371691D01*
X478751Y372901D01*
X477269Y373757D01*
X475616Y374200D01*
X473904D01*
X472251Y373757D01*
X471751Y373468D01*
X470971Y374485D01*
X474937Y378451D01*
X558543D01*
X559029Y377277D01*
X552877Y371125D01*
X552103Y369967D01*
X551831Y368601D01*
Y360445D01*
X551409Y360201D01*
X550199Y358991D01*
X549343Y357509D01*
X548900Y355856D01*
Y354144D01*
X549343Y352491D01*
X550199Y351009D01*
X551409Y349799D01*
X552891Y348943D01*
X554544Y348500D01*
X556256D01*
X557909Y348943D01*
X559391Y349799D01*
X560601Y351009D01*
X561457Y352491D01*
X561900Y354144D01*
Y355856D01*
X561457Y357509D01*
X560601Y358991D01*
X559391Y360201D01*
X558969Y360445D01*
Y367123D01*
X560330Y368485D01*
X561600Y367959D01*
Y366844D01*
X562043Y365191D01*
X562899Y363709D01*
X564109Y362499D01*
X565591Y361643D01*
X567244Y361200D01*
X568956D01*
X570609Y361643D01*
X572091Y362499D01*
X573301Y363709D01*
X574157Y365191D01*
X574600Y366844D01*
Y368556D01*
X574157Y370209D01*
X573385Y371546D01*
X573750Y372773D01*
X573767Y372816D01*
X591326D01*
X615601Y348541D01*
X616759Y347768D01*
X618125Y347496D01*
X658954D01*
X658998Y347405D01*
X659233Y346226D01*
X659189Y346208D01*
X658940Y345959D01*
X658648Y345764D01*
X658453Y345472D01*
X658204Y345223D01*
X658070Y344898D01*
X657874Y344606D01*
X657806Y344262D01*
X657671Y343937D01*
Y343585D01*
X657603Y343241D01*
X657671Y342896D01*
Y342545D01*
X657806Y342220D01*
X657874Y341875D01*
X658070Y341583D01*
X658204Y341258D01*
X658453Y341010D01*
X658648Y340717D01*
X658940Y340522D01*
X659189Y340274D01*
X659513Y340139D01*
X659806Y339944D01*
X660150Y339875D01*
X660475Y339741D01*
X660826D01*
X661171Y339672D01*
X712744D01*
X724141Y328275D01*
Y316113D01*
X724210Y315768D01*
Y315417D01*
X724344Y315092D01*
X724413Y314747D01*
X724608Y314455D01*
X724743Y314130D01*
X724991Y313882D01*
X725187Y313590D01*
X725479Y313394D01*
X725727Y313146D01*
X726052Y313011D01*
X726344Y312816D01*
X726689Y312747D01*
X727014Y312613D01*
X727365D01*
X727710Y312544D01*
X728055Y312613D01*
X728406D01*
X728731Y312747D01*
X729076Y312816D01*
X729368Y313011D01*
X729693Y313146D01*
X729941Y313394D01*
X730233Y313590D01*
X730429Y313882D01*
X730677Y314130D01*
X730812Y314455D01*
X731007Y314747D01*
X731076Y315092D01*
X731210Y315417D01*
Y315768D01*
X731279Y316113D01*
Y329753D01*
X731007Y331119D01*
X730233Y332276D01*
X716746Y345764D01*
X715588Y346538D01*
X714222Y346809D01*
X677645D01*
X677601Y346900D01*
X677366Y348079D01*
X677411Y348097D01*
X677659Y348346D01*
X677951Y348541D01*
X678147Y348834D01*
X678395Y349082D01*
X678530Y349407D01*
X678725Y349699D01*
X678793Y350044D01*
X678928Y350368D01*
Y350720D01*
X678997Y351065D01*
X678928Y351409D01*
Y351761D01*
X679338Y352611D01*
X679679Y352941D01*
X679806Y353009D01*
X688533D01*
X688878Y353078D01*
X689229D01*
X689554Y353212D01*
X689899Y353281D01*
X690191Y353476D01*
X690516Y353610D01*
X690764Y353859D01*
X691057Y354054D01*
X691252Y354346D01*
X691500Y354595D01*
X691635Y354920D01*
X691830Y355212D01*
X691899Y355557D01*
X692033Y355881D01*
Y356233D01*
X692102Y356577D01*
X692033Y356922D01*
Y357274D01*
X691899Y357598D01*
X691830Y357943D01*
X691635Y358235D01*
X691500Y358560D01*
X691252Y358809D01*
X691057Y359101D01*
X690764Y359296D01*
X690516Y359545D01*
X690191Y359679D01*
X689899Y359874D01*
X689554Y359943D01*
X689229Y360078D01*
X688878D01*
X688533Y360146D01*
X636752D01*
X636226Y361416D01*
X636697Y361887D01*
X637230Y363174D01*
Y364566D01*
X636697Y365853D01*
X635713Y366837D01*
X634426Y367370D01*
X633034D01*
X631747Y366837D01*
X630763Y365853D01*
X630230Y364566D01*
Y363174D01*
X630763Y361887D01*
X631234Y361416D01*
X630708Y360146D01*
X622487D01*
X606052Y376581D01*
X606538Y377754D01*
X641401D01*
X641720Y377029D01*
X641790Y376484D01*
X640923Y375617D01*
X640390Y374330D01*
Y372938D01*
X640923Y371651D01*
X641907Y370667D01*
X643194Y370134D01*
X644586D01*
X645873Y370667D01*
X646857Y371651D01*
X647390Y372938D01*
Y374330D01*
X646857Y375617D01*
X645990Y376484D01*
X646060Y377029D01*
X646379Y377754D01*
X701559D01*
X701904Y377823D01*
X702255D01*
X702580Y377957D01*
X702925Y378026D01*
X703217Y378221D01*
X703542Y378356D01*
X703790Y378604D01*
X704082Y378799D01*
X704278Y379092D01*
X704526Y379340D01*
X704661Y379665D01*
X704856Y379957D01*
X704925Y380302D01*
X705059Y380627D01*
Y380978D01*
X705128Y381323D01*
X705059Y381668D01*
Y382019D01*
X704925Y382344D01*
X705500Y383324D01*
X705772Y383592D01*
X705780Y383597D01*
X714515D01*
X714860Y383666D01*
X715211D01*
X715536Y383800D01*
X715881Y383868D01*
X716173Y384064D01*
X716498Y384198D01*
X716746Y384447D01*
X717038Y384642D01*
X717234Y384934D01*
X717482Y385183D01*
X717617Y385508D01*
X717812Y385800D01*
X717880Y386144D01*
X718015Y386469D01*
Y386821D01*
X718084Y387165D01*
X718015Y387510D01*
Y387862D01*
X717880Y388186D01*
X717812Y388531D01*
X717617Y388823D01*
X717482Y389148D01*
X717234Y389397D01*
X717038Y389689D01*
X716746Y389884D01*
X716498Y390133D01*
X716173Y390267D01*
X715881Y390462D01*
X715536Y390531D01*
X715211Y390665D01*
X714860D01*
X714515Y390734D01*
X653796D01*
X652948Y392004D01*
X652979Y392081D01*
Y393473D01*
X652447Y394759D01*
X651462Y395744D01*
X650175Y396277D01*
X648783D01*
X647497Y395744D01*
X646512Y394759D01*
X645979Y393473D01*
Y392081D01*
X646011Y392004D01*
X645163Y390734D01*
X607920D01*
X602986Y395667D01*
X602768Y396835D01*
X603046Y397339D01*
X609947Y404240D01*
X629392D01*
X630240Y402970D01*
X630229Y402943D01*
Y401550D01*
X630762Y400264D01*
X631746Y399279D01*
X633033Y398746D01*
X634425D01*
X635711Y399279D01*
X636696Y400264D01*
X637229Y401550D01*
Y402943D01*
X637217Y402970D01*
X638066Y404240D01*
X701536D01*
X701881Y404309D01*
X702233D01*
X702557Y404443D01*
X702902Y404512D01*
X703194Y404707D01*
X703519Y404842D01*
X703767Y405090D01*
X704060Y405285D01*
X704255Y405578D01*
X704504Y405826D01*
X704638Y406151D01*
X704833Y406443D01*
X704902Y406788D01*
X705036Y407113D01*
Y407464D01*
X705105Y407809D01*
X705036Y408154D01*
Y408505D01*
X705034Y408510D01*
X705416Y409351D01*
X705753Y409692D01*
X705909Y409780D01*
X714623D01*
X714968Y409849D01*
X715319D01*
X715644Y409983D01*
X715988Y410052D01*
X716281Y410247D01*
X716605Y410381D01*
X716854Y410630D01*
X717146Y410825D01*
X717341Y411118D01*
X717590Y411366D01*
X717724Y411691D01*
X717920Y411983D01*
X717988Y412328D01*
X718123Y412652D01*
Y413004D01*
X718191Y413349D01*
X718123Y413693D01*
Y414045D01*
X717988Y414370D01*
X717920Y414714D01*
X717724Y415006D01*
X717590Y415331D01*
X717341Y415580D01*
X717146Y415872D01*
X716854Y416067D01*
X716605Y416316D01*
X716281Y416450D01*
X715988Y416646D01*
X715644Y416714D01*
X715319Y416849D01*
X714968D01*
X714623Y416917D01*
X604063D01*
X602697Y416646D01*
X601540Y415872D01*
X594366Y408699D01*
X574795D01*
X574306Y409969D01*
X575126Y411390D01*
X575566Y413030D01*
X560634D01*
X561074Y411390D01*
X561894Y409969D01*
X561405Y408699D01*
X481455D01*
X480966Y409969D01*
X481786Y411390D01*
X482226Y413030D01*
X467294D01*
X467734Y411390D01*
X468554Y409969D01*
X468065Y408699D01*
X388115D01*
X387626Y409969D01*
X388446Y411390D01*
X388886Y413030D01*
X373954D01*
X374394Y411390D01*
X375214Y409969D01*
X374725Y408699D01*
X294774D01*
X294286Y409969D01*
X295106Y411390D01*
X295546Y413030D01*
X280614D01*
X281054Y411390D01*
X281874Y409969D01*
X281385Y408699D01*
X201434D01*
X200946Y409969D01*
X201766Y411390D01*
X202206Y413030D01*
X194740D01*
Y414300D01*
X193470D01*
Y421766D01*
X191830Y421326D01*
X190110Y420334D01*
X188706Y418930D01*
X187714Y417210D01*
X187425Y416134D01*
X185977Y415595D01*
X185609Y415852D01*
Y421555D01*
X186031Y421799D01*
X187241Y423009D01*
X188097Y424491D01*
X188540Y426144D01*
Y427856D01*
X188097Y429509D01*
X187241Y430991D01*
X186031Y432201D01*
X184549Y433057D01*
X182896Y433500D01*
D02*
G37*
G36*
X746186Y402595D02*
X744794D01*
X743507Y402062D01*
X742523Y401078D01*
X741990Y399792D01*
Y398399D01*
X742523Y397113D01*
X743507Y396128D01*
X744794Y395595D01*
X746186D01*
X747473Y396128D01*
X748457Y397113D01*
X748990Y398399D01*
Y399792D01*
X748457Y401078D01*
X747473Y402062D01*
X746186Y402595D01*
D02*
G37*
G36*
X728406D02*
X727014D01*
X725727Y402062D01*
X724743Y401078D01*
X724210Y399792D01*
Y398399D01*
X724743Y397113D01*
X725727Y396128D01*
X727014Y395595D01*
X728406D01*
X729693Y396128D01*
X730677Y397113D01*
X731210Y398399D01*
Y399792D01*
X730677Y401078D01*
X729693Y402062D01*
X728406Y402595D01*
D02*
G37*
G36*
X382276Y374200D02*
X380564D01*
X378911Y373757D01*
X377429Y372901D01*
X376219Y371691D01*
X375363Y370209D01*
X374920Y368556D01*
Y366844D01*
X375363Y365191D01*
X376219Y363709D01*
X377429Y362499D01*
X378911Y361643D01*
X380564Y361200D01*
X382276D01*
X383929Y361643D01*
X385411Y362499D01*
X386621Y363709D01*
X387477Y365191D01*
X387920Y366844D01*
Y368556D01*
X387477Y370209D01*
X386621Y371691D01*
X385411Y372901D01*
X383929Y373757D01*
X382276Y374200D01*
D02*
G37*
G36*
X288936D02*
X287224D01*
X285571Y373757D01*
X284089Y372901D01*
X282879Y371691D01*
X282023Y370209D01*
X281580Y368556D01*
Y366844D01*
X282023Y365191D01*
X282879Y363709D01*
X284089Y362499D01*
X285571Y361643D01*
X287224Y361200D01*
X288936D01*
X290589Y361643D01*
X292071Y362499D01*
X293281Y363709D01*
X294137Y365191D01*
X294580Y366844D01*
Y368556D01*
X294137Y370209D01*
X293281Y371691D01*
X292071Y372901D01*
X290589Y373757D01*
X288936Y374200D01*
D02*
G37*
G36*
X195596D02*
X193884D01*
X192231Y373757D01*
X190749Y372901D01*
X189539Y371691D01*
X188683Y370209D01*
X188240Y368556D01*
Y366844D01*
X188683Y365191D01*
X189539Y363709D01*
X190749Y362499D01*
X192231Y361643D01*
X193884Y361200D01*
X195596D01*
X197249Y361643D01*
X198731Y362499D01*
X199941Y363709D01*
X200797Y365191D01*
X201240Y366844D01*
Y368556D01*
X200797Y370209D01*
X199941Y371691D01*
X198731Y372901D01*
X197249Y373757D01*
X195596Y374200D01*
D02*
G37*
G36*
X102256D02*
X100544D01*
X98891Y373757D01*
X97409Y372901D01*
X96199Y371691D01*
X95343Y370209D01*
X94900Y368556D01*
Y366844D01*
X95343Y365191D01*
X96199Y363709D01*
X97409Y362499D01*
X98891Y361643D01*
X100544Y361200D01*
X102256D01*
X103909Y361643D01*
X105391Y362499D01*
X106601Y363709D01*
X107457Y365191D01*
X107900Y366844D01*
Y368556D01*
X107457Y370209D01*
X106601Y371691D01*
X105391Y372901D01*
X103909Y373757D01*
X102256Y374200D01*
D02*
G37*
G36*
X581656Y361500D02*
X579944D01*
X578291Y361057D01*
X576809Y360201D01*
X575599Y358991D01*
X574743Y357509D01*
X574300Y355856D01*
Y354144D01*
X574743Y352491D01*
X575599Y351009D01*
X576809Y349799D01*
X578291Y348943D01*
X579944Y348500D01*
X581656D01*
X583309Y348943D01*
X584791Y349799D01*
X586001Y351009D01*
X586857Y352491D01*
X587300Y354144D01*
Y355856D01*
X586857Y357509D01*
X586001Y358991D01*
X584791Y360201D01*
X583309Y361057D01*
X581656Y361500D01*
D02*
G37*
G36*
X488316D02*
X486604D01*
X484951Y361057D01*
X483469Y360201D01*
X482259Y358991D01*
X481403Y357509D01*
X480960Y355856D01*
Y354144D01*
X481403Y352491D01*
X482259Y351009D01*
X483469Y349799D01*
X484951Y348943D01*
X486604Y348500D01*
X488316D01*
X489969Y348943D01*
X491451Y349799D01*
X492661Y351009D01*
X493517Y352491D01*
X493960Y354144D01*
Y355856D01*
X493517Y357509D01*
X492661Y358991D01*
X491451Y360201D01*
X489969Y361057D01*
X488316Y361500D01*
D02*
G37*
G36*
X394976D02*
X393264D01*
X391611Y361057D01*
X390129Y360201D01*
X388919Y358991D01*
X388063Y357509D01*
X387620Y355856D01*
Y354144D01*
X388063Y352491D01*
X388919Y351009D01*
X390129Y349799D01*
X391611Y348943D01*
X393264Y348500D01*
X394976D01*
X396629Y348943D01*
X398111Y349799D01*
X399321Y351009D01*
X400177Y352491D01*
X400620Y354144D01*
Y355856D01*
X400177Y357509D01*
X399321Y358991D01*
X398111Y360201D01*
X396629Y361057D01*
X394976Y361500D01*
D02*
G37*
G36*
X301636D02*
X299924D01*
X298271Y361057D01*
X296789Y360201D01*
X295579Y358991D01*
X294723Y357509D01*
X294280Y355856D01*
Y354144D01*
X294723Y352491D01*
X295579Y351009D01*
X296789Y349799D01*
X298271Y348943D01*
X299924Y348500D01*
X301636D01*
X303289Y348943D01*
X304771Y349799D01*
X305981Y351009D01*
X306837Y352491D01*
X307280Y354144D01*
Y355856D01*
X306837Y357509D01*
X305981Y358991D01*
X304771Y360201D01*
X303289Y361057D01*
X301636Y361500D01*
D02*
G37*
G36*
X208296D02*
X206584D01*
X204931Y361057D01*
X203449Y360201D01*
X202239Y358991D01*
X201383Y357509D01*
X200940Y355856D01*
Y354144D01*
X201383Y352491D01*
X202239Y351009D01*
X203449Y349799D01*
X204931Y348943D01*
X206584Y348500D01*
X208296D01*
X209949Y348943D01*
X211431Y349799D01*
X212641Y351009D01*
X213497Y352491D01*
X213940Y354144D01*
Y355856D01*
X213497Y357509D01*
X212641Y358991D01*
X211431Y360201D01*
X209949Y361057D01*
X208296Y361500D01*
D02*
G37*
G36*
X114956D02*
X113244D01*
X111591Y361057D01*
X110109Y360201D01*
X108899Y358991D01*
X108043Y357509D01*
X107600Y355856D01*
Y354144D01*
X108043Y352491D01*
X108899Y351009D01*
X110109Y349799D01*
X111591Y348943D01*
X113244Y348500D01*
X114956D01*
X116609Y348943D01*
X118091Y349799D01*
X119301Y351009D01*
X120157Y352491D01*
X120600Y354144D01*
Y355856D01*
X120157Y357509D01*
X119301Y358991D01*
X118091Y360201D01*
X116609Y361057D01*
X114956Y361500D01*
D02*
G37*
G36*
X569370Y349766D02*
Y343570D01*
X575566D01*
X575126Y345210D01*
X574133Y346930D01*
X572730Y348334D01*
X571010Y349326D01*
X569370Y349766D01*
D02*
G37*
G36*
X566830D02*
X565190Y349326D01*
X563470Y348334D01*
X562066Y346930D01*
X561074Y345210D01*
X560634Y343570D01*
X566830D01*
Y349766D01*
D02*
G37*
G36*
X476030D02*
Y343570D01*
X482226D01*
X481786Y345210D01*
X480793Y346930D01*
X479390Y348334D01*
X477670Y349326D01*
X476030Y349766D01*
D02*
G37*
G36*
X473490D02*
X471850Y349326D01*
X470130Y348334D01*
X468727Y346930D01*
X467734Y345210D01*
X467294Y343570D01*
X473490D01*
Y349766D01*
D02*
G37*
G36*
X382690D02*
Y343570D01*
X388886D01*
X388446Y345210D01*
X387453Y346930D01*
X386050Y348334D01*
X384330Y349326D01*
X382690Y349766D01*
D02*
G37*
G36*
X380150D02*
X378510Y349326D01*
X376790Y348334D01*
X375387Y346930D01*
X374394Y345210D01*
X373954Y343570D01*
X380150D01*
Y349766D01*
D02*
G37*
G36*
X289350D02*
Y343570D01*
X295546D01*
X295106Y345210D01*
X294114Y346930D01*
X292710Y348334D01*
X290990Y349326D01*
X289350Y349766D01*
D02*
G37*
G36*
X286810D02*
X285170Y349326D01*
X283450Y348334D01*
X282047Y346930D01*
X281054Y345210D01*
X280614Y343570D01*
X286810D01*
Y349766D01*
D02*
G37*
G36*
X196010D02*
Y343570D01*
X202206D01*
X201766Y345210D01*
X200774Y346930D01*
X199370Y348334D01*
X197650Y349326D01*
X196010Y349766D01*
D02*
G37*
G36*
X102670D02*
Y343570D01*
X108866D01*
X108426Y345210D01*
X107434Y346930D01*
X106030Y348334D01*
X104310Y349326D01*
X102670Y349766D01*
D02*
G37*
G36*
X767280Y454419D02*
X766935Y454350D01*
X766584D01*
X766259Y454216D01*
X765914Y454147D01*
X765622Y453952D01*
X765297Y453817D01*
X765049Y453569D01*
X764757Y453373D01*
X764561Y453081D01*
X764313Y452833D01*
X764178Y452508D01*
X763983Y452216D01*
X763914Y451871D01*
X763780Y451546D01*
Y451195D01*
X763711Y450850D01*
Y288090D01*
X763983Y286724D01*
X764757Y285567D01*
X772401Y277922D01*
Y270937D01*
X771131Y270596D01*
X770302Y272033D01*
X768533Y273802D01*
X766367Y275053D01*
X763951Y275700D01*
X761449D01*
X759033Y275053D01*
X756867Y273802D01*
X755161Y272096D01*
X755149Y272095D01*
X754805Y272123D01*
X753853Y272416D01*
X753668Y273344D01*
X752895Y274502D01*
X745473Y281923D01*
X744316Y282697D01*
X742950Y282969D01*
X726240D01*
X724874Y282697D01*
X723717Y281923D01*
X716297Y274503D01*
X715523Y273346D01*
X715251Y271980D01*
Y248920D01*
X715320Y248575D01*
Y248224D01*
X715454Y247899D01*
X715523Y247554D01*
X715718Y247262D01*
X715853Y246937D01*
X716101Y246689D01*
X716297Y246397D01*
X716589Y246201D01*
X716837Y245953D01*
X717162Y245818D01*
X717454Y245623D01*
X717799Y245555D01*
X718124Y245420D01*
X718475D01*
X718820Y245351D01*
X719165Y245420D01*
X719516D01*
X719841Y245555D01*
X720186Y245623D01*
X720478Y245818D01*
X720803Y245953D01*
X721051Y246201D01*
X721343Y246397D01*
X721539Y246689D01*
X721787Y246937D01*
X721922Y247262D01*
X722117Y247554D01*
X722186Y247899D01*
X722320Y248224D01*
Y248575D01*
X722389Y248920D01*
Y270502D01*
X727718Y275831D01*
X732442D01*
X732783Y274561D01*
X731467Y273802D01*
X729698Y272033D01*
X728447Y269867D01*
X727800Y267451D01*
Y264949D01*
X728447Y262533D01*
X729698Y260367D01*
X731467Y258598D01*
X733633Y257347D01*
X736049Y256700D01*
X738551D01*
X740967Y257347D01*
X743133Y258598D01*
X744902Y260367D01*
X745533Y261460D01*
X746803Y261119D01*
Y253129D01*
X747074Y251763D01*
X747848Y250605D01*
X753898Y244555D01*
X753847Y244467D01*
X753200Y242051D01*
Y239549D01*
X753847Y237133D01*
X755098Y234967D01*
X756867Y233198D01*
X759033Y231947D01*
X761449Y231300D01*
X763951D01*
X766367Y231947D01*
X768533Y233198D01*
X770302Y234967D01*
X771131Y236404D01*
X772401Y236063D01*
Y220137D01*
X771131Y219796D01*
X770302Y221233D01*
X768533Y223002D01*
X766367Y224253D01*
X763951Y224900D01*
X761449D01*
X759033Y224253D01*
X756867Y223002D01*
X755098Y221233D01*
X753847Y219067D01*
X753200Y216651D01*
Y214149D01*
X753847Y211733D01*
X755098Y209567D01*
X756867Y207798D01*
X757200Y207606D01*
X756859Y206336D01*
X750068D01*
X748702Y206064D01*
X747544Y205291D01*
X741055Y198802D01*
X740967Y198853D01*
X738551Y199500D01*
X736049D01*
X733633Y198853D01*
X731467Y197602D01*
X729698Y195833D01*
X728447Y193667D01*
X727800Y191251D01*
Y188749D01*
X728447Y186333D01*
X729698Y184167D01*
X731467Y182398D01*
X731867Y182167D01*
X731527Y180897D01*
X677241D01*
X653084Y205055D01*
Y309880D01*
X653015Y310225D01*
Y310576D01*
X652880Y310901D01*
X652812Y311246D01*
X652617Y311538D01*
X652482Y311863D01*
X652234Y312111D01*
X652038Y312403D01*
X651746Y312599D01*
X651498Y312847D01*
X651173Y312982D01*
X650881Y313177D01*
X650536Y313246D01*
X650211Y313380D01*
X649860D01*
X649515Y313449D01*
X649170Y313380D01*
X648819D01*
X648729Y313343D01*
X648048Y313625D01*
X647619Y313990D01*
X647459Y314236D01*
Y319390D01*
X647390Y319735D01*
Y320086D01*
X647255Y320411D01*
X647187Y320756D01*
X646992Y321048D01*
X646857Y321373D01*
X646678Y321551D01*
X646699Y321815D01*
X647110Y322699D01*
X647218Y322821D01*
X701556D01*
X701901Y322890D01*
X702252D01*
X702577Y323024D01*
X702922Y323093D01*
X703214Y323288D01*
X703538Y323423D01*
X703787Y323671D01*
X704079Y323867D01*
X704275Y324159D01*
X704523Y324407D01*
X704658Y324732D01*
X704853Y325024D01*
X704921Y325369D01*
X705056Y325694D01*
Y326045D01*
X705124Y326390D01*
X705056Y326735D01*
Y327086D01*
X704921Y327411D01*
X705522Y328375D01*
X705796Y328629D01*
X707229D01*
X711992Y323867D01*
X712284Y323671D01*
X712532Y323423D01*
X712857Y323288D01*
X713149Y323093D01*
X713494Y323024D01*
X713819Y322890D01*
X714170D01*
X714515Y322821D01*
X714860Y322890D01*
X715211D01*
X715536Y323024D01*
X715881Y323093D01*
X716173Y323288D01*
X716498Y323423D01*
X716746Y323671D01*
X717038Y323867D01*
X717234Y324159D01*
X717482Y324407D01*
X717617Y324732D01*
X717812Y325024D01*
X717880Y325369D01*
X718015Y325694D01*
Y326045D01*
X718084Y326390D01*
X718015Y326735D01*
Y327086D01*
X717880Y327411D01*
X717812Y327756D01*
X717617Y328048D01*
X717482Y328373D01*
X717234Y328621D01*
X717038Y328913D01*
X711230Y334721D01*
X710073Y335495D01*
X708707Y335767D01*
X574026D01*
X573500Y337037D01*
X574133Y337670D01*
X575126Y339390D01*
X575566Y341030D01*
X560634D01*
X561074Y339390D01*
X562066Y337670D01*
X562700Y337037D01*
X562174Y335767D01*
X480686D01*
X480160Y337037D01*
X480793Y337670D01*
X481786Y339390D01*
X482226Y341030D01*
X467294D01*
X467734Y339390D01*
X468727Y337670D01*
X469360Y337037D01*
X468834Y335767D01*
X387346D01*
X386820Y337037D01*
X387453Y337670D01*
X388446Y339390D01*
X388886Y341030D01*
X373954D01*
X374394Y339390D01*
X375387Y337670D01*
X376020Y337037D01*
X375494Y335767D01*
X294006D01*
X293480Y337037D01*
X294114Y337670D01*
X295106Y339390D01*
X295546Y341030D01*
X280614D01*
X281054Y339390D01*
X282047Y337670D01*
X282680Y337037D01*
X282154Y335767D01*
X200666D01*
X200140Y337037D01*
X200774Y337670D01*
X201766Y339390D01*
X202206Y341030D01*
X194740D01*
Y342300D01*
X193470D01*
Y349766D01*
X191830Y349326D01*
X190110Y348334D01*
X188706Y346930D01*
X187714Y345210D01*
X187375Y343945D01*
X186075Y343357D01*
X185959Y343364D01*
X185609Y343598D01*
Y349555D01*
X186031Y349799D01*
X187241Y351009D01*
X188097Y352491D01*
X188540Y354144D01*
Y355856D01*
X188097Y357509D01*
X187241Y358991D01*
X186031Y360201D01*
X184549Y361057D01*
X182896Y361500D01*
X181184D01*
X179531Y361057D01*
X178049Y360201D01*
X176839Y358991D01*
X175983Y357509D01*
X175540Y355856D01*
Y354144D01*
X175983Y352491D01*
X176839Y351009D01*
X178049Y349799D01*
X178471Y349555D01*
Y341200D01*
X178743Y339834D01*
X179517Y338677D01*
X187061Y331132D01*
X186575Y329959D01*
X104238D01*
X100707Y333490D01*
X101233Y334760D01*
X102393D01*
X104310Y335274D01*
X106030Y336267D01*
X107434Y337670D01*
X108426Y339390D01*
X108866Y341030D01*
X101400D01*
Y342300D01*
X100130D01*
Y349766D01*
X98490Y349326D01*
X96770Y348334D01*
X95366Y346930D01*
X94374Y345210D01*
X93860Y343293D01*
X92590Y342634D01*
X92269Y342848D01*
Y349555D01*
X92691Y349799D01*
X93901Y351009D01*
X94757Y352491D01*
X95200Y354144D01*
Y355856D01*
X94757Y357509D01*
X93901Y358991D01*
X92691Y360201D01*
X91209Y361057D01*
X89556Y361500D01*
X87844D01*
X86191Y361057D01*
X84709Y360201D01*
X83499Y358991D01*
X82643Y357509D01*
X82200Y355856D01*
Y354144D01*
X82643Y352491D01*
X83499Y351009D01*
X84709Y349799D01*
X85131Y349555D01*
Y340450D01*
X85403Y339085D01*
X86177Y337927D01*
X100237Y323867D01*
X101395Y323093D01*
X102760Y322821D01*
X630416D01*
X630942Y321551D01*
X630763Y321373D01*
X630230Y320086D01*
Y318694D01*
X630763Y317407D01*
X631747Y316423D01*
X633034Y315890D01*
X634426D01*
X635713Y316423D01*
X636697Y317407D01*
X637230Y318694D01*
Y320086D01*
X636697Y321373D01*
X636518Y321551D01*
X637044Y322821D01*
X640562D01*
X640670Y322699D01*
X641081Y321815D01*
X641102Y321551D01*
X640923Y321373D01*
X640788Y321048D01*
X640593Y320756D01*
X640525Y320411D01*
X640390Y320086D01*
Y319735D01*
X640321Y319390D01*
Y199983D01*
X640593Y198618D01*
X641367Y197460D01*
X676750Y162077D01*
X677908Y161303D01*
X679273Y161031D01*
X728421D01*
X728447Y160933D01*
X729698Y158767D01*
X731467Y156998D01*
X733633Y155747D01*
X736049Y155100D01*
X738551D01*
X740967Y155747D01*
X743133Y156998D01*
X744902Y158767D01*
X746153Y160933D01*
X746800Y163349D01*
Y165851D01*
X746153Y168267D01*
X744902Y170433D01*
X743133Y172202D01*
X742634Y172490D01*
X742975Y173760D01*
X748493D01*
X753898Y168355D01*
X753847Y168267D01*
X753200Y165851D01*
Y163349D01*
X753847Y160933D01*
X755098Y158767D01*
X756867Y156998D01*
X759033Y155747D01*
X761449Y155100D01*
X763951D01*
X766367Y155747D01*
X768533Y156998D01*
X770302Y158767D01*
X771553Y160933D01*
X772200Y163349D01*
Y165851D01*
X771553Y168267D01*
X770302Y170433D01*
X768533Y172202D01*
X766367Y173453D01*
X763951Y174100D01*
X761449D01*
X759033Y173453D01*
X758945Y173402D01*
X752495Y179852D01*
X751337Y180625D01*
X749972Y180897D01*
X743073D01*
X742733Y182167D01*
X743133Y182398D01*
X744902Y184167D01*
X746153Y186333D01*
X746800Y188749D01*
Y191251D01*
X746153Y193667D01*
X746102Y193755D01*
X751546Y199199D01*
X757093D01*
X757433Y197929D01*
X756867Y197602D01*
X755098Y195833D01*
X753847Y193667D01*
X753200Y191251D01*
Y188749D01*
X753847Y186333D01*
X755098Y184167D01*
X756867Y182398D01*
X759033Y181147D01*
X761449Y180500D01*
X763951D01*
X766367Y181147D01*
X768533Y182398D01*
X770302Y184167D01*
X771553Y186333D01*
X772200Y188749D01*
Y191251D01*
X771553Y193667D01*
X770302Y195833D01*
X768533Y197602D01*
X767967Y197929D01*
X768307Y199199D01*
X769187D01*
X770553Y199471D01*
X771711Y200244D01*
X778493Y207027D01*
X779267Y208184D01*
X779539Y209550D01*
Y279400D01*
X779267Y280766D01*
X778493Y281923D01*
X770849Y289568D01*
Y450850D01*
X770780Y451195D01*
Y451546D01*
X770646Y451871D01*
X770577Y452216D01*
X770382Y452508D01*
X770247Y452833D01*
X769999Y453081D01*
X769803Y453373D01*
X769511Y453569D01*
X769263Y453817D01*
X768938Y453952D01*
X768646Y454147D01*
X768301Y454216D01*
X767976Y454350D01*
X767625D01*
X767280Y454419D01*
D02*
G37*
G36*
X746186Y319613D02*
X744794D01*
X743507Y319080D01*
X742523Y318096D01*
X741990Y316809D01*
Y315417D01*
X742523Y314130D01*
X743507Y313146D01*
X744794Y312613D01*
X746186D01*
X747473Y313146D01*
X748457Y314130D01*
X748990Y315417D01*
Y316809D01*
X748457Y318096D01*
X747473Y319080D01*
X746186Y319613D01*
D02*
G37*
G36*
Y310840D02*
X744794D01*
X743507Y310307D01*
X742523Y309323D01*
X741990Y308036D01*
Y306644D01*
X742523Y305357D01*
X743507Y304373D01*
X744794Y303840D01*
X746186D01*
X747473Y304373D01*
X748457Y305357D01*
X748990Y306644D01*
Y308036D01*
X748457Y309323D01*
X747473Y310307D01*
X746186Y310840D01*
D02*
G37*
G36*
X721711Y304490D02*
X720319D01*
X719032Y303957D01*
X718561Y303486D01*
X718090Y303957D01*
X716804Y304490D01*
X715411D01*
X714125Y303957D01*
X713140Y302973D01*
X712607Y301686D01*
Y300294D01*
X713140Y299007D01*
X714125Y298023D01*
X715411Y297490D01*
X716804D01*
X718090Y298023D01*
X718561Y298494D01*
X719032Y298023D01*
X720319Y297490D01*
X721711D01*
X722998Y298023D01*
X723982Y299007D01*
X724515Y300294D01*
Y301686D01*
X723982Y302973D01*
X722998Y303957D01*
X721711Y304490D01*
D02*
G37*
G36*
X634426Y275280D02*
X633034D01*
X631747Y274747D01*
X630763Y273763D01*
X630230Y272476D01*
Y271084D01*
X630763Y269797D01*
X631747Y268813D01*
X633034Y268280D01*
X634426D01*
X635713Y268813D01*
X636697Y269797D01*
X637230Y271084D01*
Y272476D01*
X636697Y273763D01*
X635713Y274747D01*
X634426Y275280D01*
D02*
G37*
G36*
X375920Y317004D02*
X147111D01*
X145843Y316751D01*
X144768Y316033D01*
X83557Y254823D01*
X83107Y254636D01*
X82123Y253652D01*
X81590Y252366D01*
Y250973D01*
X82123Y249687D01*
X83107Y248702D01*
X84394Y248169D01*
X85786D01*
X87073Y248702D01*
X88057Y249687D01*
X88244Y250137D01*
X148483Y310376D01*
X374548D01*
X386277Y298647D01*
X387352Y297929D01*
X388620Y297676D01*
X427887D01*
X433495Y292069D01*
Y275921D01*
X428997Y271423D01*
X428547Y271237D01*
X427563Y270253D01*
X427030Y268966D01*
Y267574D01*
X427563Y266287D01*
X428547Y265303D01*
X429834Y264770D01*
X431226D01*
X432513Y265303D01*
X433497Y266287D01*
X433684Y266737D01*
X439152Y272206D01*
X439870Y273281D01*
X440122Y274549D01*
Y293441D01*
X439870Y294709D01*
X439152Y295784D01*
X431603Y303333D01*
X430528Y304051D01*
X429260Y304304D01*
X389993D01*
X378263Y316033D01*
X377188Y316751D01*
X376978Y316793D01*
X375920Y317004D01*
D02*
G37*
G36*
X518856Y265270D02*
X517464D01*
X516177Y264737D01*
X515193Y263753D01*
X514660Y262466D01*
Y261074D01*
X515193Y259787D01*
X516177Y258803D01*
X517464Y258270D01*
X518856D01*
X520143Y258803D01*
X521127Y259787D01*
X521660Y261074D01*
Y262466D01*
X521127Y263753D01*
X520143Y264737D01*
X518856Y265270D01*
D02*
G37*
G36*
X617016Y265120D02*
X615624D01*
X614338Y264587D01*
X613353Y263603D01*
X612820Y262316D01*
Y260924D01*
X613353Y259637D01*
X614338Y258653D01*
X615624Y258120D01*
X617016D01*
X618303Y258653D01*
X619287Y259637D01*
X619820Y260924D01*
Y262316D01*
X619287Y263603D01*
X618303Y264587D01*
X617016Y265120D01*
D02*
G37*
G36*
X679450Y275349D02*
X679105Y275280D01*
X678754D01*
X678429Y275145D01*
X678084Y275077D01*
X677792Y274882D01*
X677467Y274747D01*
X677219Y274499D01*
X676927Y274303D01*
X676731Y274011D01*
X676483Y273763D01*
X676348Y273438D01*
X676153Y273146D01*
X676085Y272801D01*
X675950Y272476D01*
Y272125D01*
X675881Y271780D01*
Y248920D01*
X675950Y248575D01*
Y248224D01*
X676085Y247899D01*
X676153Y247554D01*
X676348Y247262D01*
X676483Y246937D01*
X676731Y246689D01*
X676927Y246397D01*
X677219Y246201D01*
X677467Y245953D01*
X677792Y245818D01*
X678084Y245623D01*
X678429Y245555D01*
X678754Y245420D01*
X679105D01*
X679450Y245351D01*
X679795Y245420D01*
X680146D01*
X680471Y245555D01*
X680816Y245623D01*
X681108Y245818D01*
X681433Y245953D01*
X681681Y246201D01*
X681973Y246397D01*
X682169Y246689D01*
X682417Y246937D01*
X682552Y247262D01*
X682747Y247554D01*
X682815Y247899D01*
X682950Y248224D01*
Y248575D01*
X683019Y248920D01*
Y271780D01*
X682950Y272125D01*
Y272476D01*
X682815Y272801D01*
X682747Y273146D01*
X682552Y273438D01*
X682417Y273763D01*
X682169Y274011D01*
X681973Y274303D01*
X681681Y274499D01*
X681433Y274747D01*
X681108Y274882D01*
X680816Y275077D01*
X680471Y275145D01*
X680146Y275280D01*
X679795D01*
X679450Y275349D01*
D02*
G37*
G36*
X517736Y252270D02*
X516344D01*
X515057Y251737D01*
X514073Y250753D01*
X513540Y249466D01*
Y248074D01*
X514073Y246787D01*
X515057Y245803D01*
X516344Y245270D01*
X517736D01*
X519023Y245803D01*
X520007Y246787D01*
X520540Y248074D01*
Y249466D01*
X520007Y250753D01*
X519023Y251737D01*
X517736Y252270D01*
D02*
G37*
G36*
X506198Y317008D02*
X504442Y316659D01*
X502953Y315664D01*
X501959Y314176D01*
X501610Y312420D01*
Y226158D01*
X483240Y207788D01*
X385972D01*
X384216Y207439D01*
X382728Y206444D01*
X381733Y204956D01*
X381384Y203200D01*
Y158002D01*
X373279Y149897D01*
X187149D01*
X163649Y173397D01*
Y267512D01*
X163581Y267857D01*
Y268208D01*
X163446Y268533D01*
X163378Y268877D01*
X163182Y269170D01*
X163048Y269494D01*
X162799Y269743D01*
X162604Y270035D01*
X162312Y270230D01*
X162063Y270479D01*
X161739Y270613D01*
X161446Y270809D01*
X161102Y270877D01*
X160777Y271012D01*
X160425D01*
X160081Y271080D01*
X159736Y271012D01*
X159385D01*
X159060Y270877D01*
X158715Y270809D01*
X158423Y270613D01*
X158098Y270479D01*
X157850Y270230D01*
X157557Y270035D01*
X157400Y269799D01*
X157079Y269729D01*
X156252Y269795D01*
X155912Y269913D01*
X155284Y270854D01*
X154129Y271626D01*
X154142Y272292D01*
X154340Y272896D01*
X201208D01*
X207446Y266658D01*
Y246790D01*
X207260Y246340D01*
Y244948D01*
X207793Y243661D01*
X208777Y242677D01*
X210064Y242144D01*
X211456D01*
X212743Y242677D01*
X213727Y243661D01*
X214260Y244948D01*
Y246340D01*
X214074Y246790D01*
Y268030D01*
X213821Y269298D01*
X213103Y270373D01*
X205187Y278289D01*
Y303654D01*
X205374Y304104D01*
Y305496D01*
X204841Y306783D01*
X203856Y307767D01*
X202570Y308300D01*
X201178D01*
X199891Y307767D01*
X198907Y306783D01*
X198374Y305496D01*
Y304104D01*
X198560Y303654D01*
Y279523D01*
X128980D01*
X127712Y279271D01*
X126637Y278552D01*
X82747Y234662D01*
X82029Y233587D01*
X81776Y232319D01*
Y211488D01*
X81590Y211038D01*
Y209646D01*
X82123Y208360D01*
X83107Y207375D01*
X84394Y206842D01*
X85786D01*
X87073Y207375D01*
X88057Y208360D01*
X88590Y209646D01*
Y211038D01*
X88404Y211488D01*
Y230947D01*
X130353Y272896D01*
X150460D01*
X150658Y272292D01*
X150671Y271626D01*
X149516Y270854D01*
X148632Y269531D01*
X148322Y267970D01*
Y197780D01*
X148632Y196220D01*
X149516Y194896D01*
X150839Y194012D01*
X152400Y193702D01*
X153961Y194012D01*
X155242Y194869D01*
X155494Y194820D01*
X156512Y194449D01*
Y171919D01*
X156784Y170553D01*
X157557Y169395D01*
X182216Y144737D01*
X182451Y143554D01*
X183446Y142065D01*
X184934Y141070D01*
X186690Y140721D01*
X375179D01*
X376935Y141070D01*
X378424Y142065D01*
X389216Y152858D01*
X390211Y154346D01*
X390560Y156102D01*
Y198612D01*
X485140D01*
X486896Y198961D01*
X488384Y199956D01*
X509442Y221014D01*
X510437Y222502D01*
X510786Y224258D01*
Y312420D01*
X510437Y314176D01*
X509442Y315664D01*
X507954Y316659D01*
X506198Y317008D01*
D02*
G37*
G36*
X441386Y239270D02*
X439994D01*
X438707Y238737D01*
X437723Y237753D01*
X437190Y236466D01*
Y235074D01*
X437723Y233787D01*
X438707Y232803D01*
X439994Y232270D01*
X441386D01*
X442673Y232803D01*
X443657Y233787D01*
X444190Y235074D01*
Y236466D01*
X443657Y237753D01*
X442673Y238737D01*
X441386Y239270D01*
D02*
G37*
G36*
X738551Y250300D02*
X736049D01*
X733633Y249653D01*
X731467Y248402D01*
X729698Y246633D01*
X728447Y244467D01*
X727800Y242051D01*
Y239549D01*
X728447Y237133D01*
X729698Y234967D01*
X731467Y233198D01*
X733633Y231947D01*
X736049Y231300D01*
X738551D01*
X740967Y231947D01*
X743133Y233198D01*
X744902Y234967D01*
X746153Y237133D01*
X746800Y239549D01*
Y242051D01*
X746153Y244467D01*
X744902Y246633D01*
X743133Y248402D01*
X740967Y249653D01*
X738551Y250300D01*
D02*
G37*
G36*
X622996Y237180D02*
X621604D01*
X620317Y236647D01*
X619333Y235663D01*
X618800Y234376D01*
Y232984D01*
X619333Y231697D01*
X620317Y230713D01*
X621604Y230180D01*
X622996D01*
X624283Y230713D01*
X625267Y231697D01*
X625800Y232984D01*
Y234376D01*
X625267Y235663D01*
X624283Y236647D01*
X622996Y237180D01*
D02*
G37*
G36*
X580886Y231030D02*
X579494D01*
X578207Y230497D01*
X577223Y229513D01*
X576690Y228226D01*
Y226834D01*
X577223Y225547D01*
X578207Y224563D01*
X579494Y224030D01*
X580886D01*
X582173Y224563D01*
X583157Y225547D01*
X583690Y226834D01*
Y228226D01*
X583157Y229513D01*
X582173Y230497D01*
X580886Y231030D01*
D02*
G37*
G36*
X116883Y223210D02*
X115491D01*
X114204Y222677D01*
X113220Y221693D01*
X112687Y220406D01*
Y219014D01*
X113220Y217727D01*
X114204Y216743D01*
X115491Y216210D01*
X116883D01*
X118169Y216743D01*
X119154Y217727D01*
X119687Y219014D01*
Y220406D01*
X119154Y221693D01*
X118169Y222677D01*
X116883Y223210D01*
D02*
G37*
G36*
X267396Y218130D02*
X266004D01*
X264717Y217597D01*
X263733Y216613D01*
X263200Y215326D01*
Y213934D01*
X263733Y212647D01*
X264717Y211663D01*
X266004Y211130D01*
X267396D01*
X268683Y211663D01*
X269667Y212647D01*
X270200Y213934D01*
Y215326D01*
X269667Y216613D01*
X268683Y217597D01*
X267396Y218130D01*
D02*
G37*
G36*
X139126D02*
X137734D01*
X136447Y217597D01*
X135463Y216613D01*
X134930Y215326D01*
Y213934D01*
X135463Y212647D01*
X136447Y211663D01*
X137734Y211130D01*
X139126D01*
X140413Y211663D01*
X141397Y212647D01*
X141930Y213934D01*
Y215326D01*
X141397Y216613D01*
X140413Y217597D01*
X139126Y218130D01*
D02*
G37*
G36*
X738551Y224900D02*
X736049D01*
X733633Y224253D01*
X731467Y223002D01*
X729698Y221233D01*
X728447Y219067D01*
X727800Y216651D01*
Y214149D01*
X728447Y211733D01*
X729698Y209567D01*
X731467Y207798D01*
X733633Y206547D01*
X736049Y205900D01*
X738551D01*
X740967Y206547D01*
X743133Y207798D01*
X744902Y209567D01*
X746153Y211733D01*
X746800Y214149D01*
Y216651D01*
X746153Y219067D01*
X744902Y221233D01*
X743133Y223002D01*
X740967Y224253D01*
X738551Y224900D01*
D02*
G37*
G36*
X115733Y201659D02*
X114341D01*
X113054Y201126D01*
X112070Y200142D01*
X111537Y198855D01*
Y197463D01*
X112070Y196176D01*
X113054Y195192D01*
X114341Y194659D01*
X115733D01*
X117020Y195192D01*
X118004Y196176D01*
X118537Y197463D01*
Y198855D01*
X118004Y200142D01*
X117020Y201126D01*
X115733Y201659D01*
D02*
G37*
G36*
X281366Y173078D02*
X279974D01*
X278687Y172545D01*
X277703Y171560D01*
X277262Y170495D01*
X265790Y159023D01*
X203636D01*
X202571Y159465D01*
X201179D01*
X199892Y158932D01*
X198908Y157947D01*
X198375Y156661D01*
Y155268D01*
X198908Y153982D01*
X199892Y152997D01*
X201179Y152465D01*
X202571D01*
X203636Y152906D01*
X267057D01*
X267057Y152906D01*
X268228Y153139D01*
X269220Y153802D01*
X281587Y166169D01*
X282653Y166610D01*
X283637Y167595D01*
X284170Y168881D01*
Y170274D01*
X283637Y171560D01*
X282653Y172545D01*
X281366Y173078D01*
D02*
G37*
G36*
X428248Y281414D02*
X376905D01*
X375540Y281142D01*
X374382Y280369D01*
X354297Y260284D01*
X353523Y259126D01*
X353252Y257760D01*
Y154940D01*
X353320Y154595D01*
Y154244D01*
X353455Y153919D01*
X353523Y153574D01*
X353718Y153282D01*
X353853Y152957D01*
X354102Y152709D01*
X354297Y152417D01*
X354589Y152221D01*
X354838Y151973D01*
X355162Y151838D01*
X355455Y151643D01*
X355799Y151574D01*
X356124Y151440D01*
X356475D01*
X356820Y151371D01*
X357165Y151440D01*
X357516D01*
X357841Y151574D01*
X358186Y151643D01*
X358478Y151838D01*
X358803Y151973D01*
X359051Y152221D01*
X359344Y152417D01*
X359539Y152709D01*
X359787Y152957D01*
X359922Y153282D01*
X360117Y153574D01*
X360186Y153919D01*
X360320Y154244D01*
Y154595D01*
X360389Y154940D01*
Y256282D01*
X378383Y274277D01*
X428248D01*
X428593Y274345D01*
X428944D01*
X429269Y274480D01*
X429613Y274548D01*
X429906Y274744D01*
X430230Y274878D01*
X430479Y275127D01*
X430771Y275322D01*
X430966Y275614D01*
X431215Y275863D01*
X431349Y276187D01*
X431545Y276480D01*
X431613Y276824D01*
X431748Y277149D01*
Y277500D01*
X431816Y277845D01*
X431748Y278190D01*
Y278542D01*
X431613Y278866D01*
X431545Y279211D01*
X431349Y279503D01*
X431215Y279828D01*
X430966Y280076D01*
X430771Y280369D01*
X430479Y280564D01*
X430230Y280812D01*
X429906Y280947D01*
X429613Y281142D01*
X429269Y281211D01*
X428944Y281345D01*
X428593D01*
X428248Y281414D01*
D02*
G37*
G36*
X764088Y149740D02*
X763970D01*
Y140470D01*
X773240D01*
Y140588D01*
X772522Y143268D01*
X771134Y145672D01*
X769172Y147634D01*
X766768Y149022D01*
X764088Y149740D01*
D02*
G37*
G36*
X761430D02*
X761312D01*
X758632Y149022D01*
X756228Y147634D01*
X754266Y145672D01*
X752878Y143268D01*
X752160Y140588D01*
Y140470D01*
X761430D01*
Y149740D01*
D02*
G37*
G36*
X738551Y148700D02*
X736049D01*
X733633Y148053D01*
X731467Y146802D01*
X729698Y145033D01*
X728447Y142867D01*
X727800Y140451D01*
Y137949D01*
X728447Y135533D01*
X729698Y133367D01*
X731467Y131598D01*
X733633Y130347D01*
X736049Y129700D01*
X738551D01*
X740967Y130347D01*
X743133Y131598D01*
X744902Y133367D01*
X746153Y135533D01*
X746800Y137949D01*
Y140451D01*
X746153Y142867D01*
X744902Y145033D01*
X743133Y146802D01*
X740967Y148053D01*
X738551Y148700D01*
D02*
G37*
G36*
X773240Y137930D02*
X763970D01*
Y128660D01*
X764088D01*
X766768Y129378D01*
X769172Y130766D01*
X771134Y132728D01*
X772522Y135132D01*
X773240Y137812D01*
Y137930D01*
D02*
G37*
G36*
X761430D02*
X752160D01*
Y137812D01*
X752878Y135132D01*
X754266Y132728D01*
X756228Y130766D01*
X758632Y129378D01*
X761312Y128660D01*
X761430D01*
Y137930D01*
D02*
G37*
G36*
X764088Y124340D02*
X763970D01*
Y115070D01*
X773240D01*
Y115188D01*
X772522Y117868D01*
X771134Y120272D01*
X769172Y122234D01*
X766768Y123622D01*
X764088Y124340D01*
D02*
G37*
G36*
X761430D02*
X761312D01*
X758632Y123622D01*
X756228Y122234D01*
X754266Y120272D01*
X752878Y117868D01*
X752160Y115188D01*
Y115070D01*
X761430D01*
Y124340D01*
D02*
G37*
G36*
X746800Y123300D02*
X727800D01*
Y104300D01*
X746800D01*
Y123300D01*
D02*
G37*
G36*
X773240Y112530D02*
X763970D01*
Y103260D01*
X764088D01*
X766768Y103978D01*
X769172Y105366D01*
X771134Y107328D01*
X772522Y109732D01*
X773240Y112412D01*
Y112530D01*
D02*
G37*
G36*
X761430D02*
X752160D01*
Y112412D01*
X752878Y109732D01*
X754266Y107328D01*
X756228Y105366D01*
X758632Y103978D01*
X761312Y103260D01*
X761430D01*
Y112530D01*
D02*
G37*
G36*
X116934Y74620D02*
X115542D01*
X114255Y74087D01*
X113271Y73103D01*
X112738Y71816D01*
Y70424D01*
X113271Y69137D01*
X114255Y68153D01*
X115542Y67620D01*
X116934D01*
X118221Y68153D01*
X119205Y69137D01*
X119738Y70424D01*
Y71816D01*
X119205Y73103D01*
X118221Y74087D01*
X116934Y74620D01*
D02*
G37*
G36*
X267396Y67000D02*
X266004D01*
X264717Y66467D01*
X263733Y65483D01*
X263200Y64196D01*
Y62804D01*
X263733Y61517D01*
X264717Y60533D01*
X266004Y60000D01*
X267396D01*
X268683Y60533D01*
X269667Y61517D01*
X270200Y62804D01*
Y64196D01*
X269667Y65483D01*
X268683Y66467D01*
X267396Y67000D01*
D02*
G37*
G36*
X139126D02*
X137734D01*
X136447Y66467D01*
X135463Y65483D01*
X134930Y64196D01*
Y62804D01*
X135463Y61517D01*
X136447Y60533D01*
X137734Y60000D01*
X139126D01*
X140413Y60533D01*
X141397Y61517D01*
X141930Y62804D01*
Y64196D01*
X141397Y65483D01*
X140413Y66467D01*
X139126Y67000D01*
D02*
G37*
G36*
X115734Y51080D02*
X114342D01*
X113056Y50547D01*
X112071Y49562D01*
X111538Y48276D01*
Y46883D01*
X112071Y45597D01*
X113056Y44612D01*
X114342Y44080D01*
X115734D01*
X117021Y44612D01*
X118005Y45597D01*
X118538Y46883D01*
Y48276D01*
X118005Y49562D01*
X117021Y50547D01*
X115734Y51080D01*
D02*
G37*
G36*
X130236Y50701D02*
X128844D01*
X127557Y50168D01*
X126573Y49183D01*
X126040Y47897D01*
Y46505D01*
X126573Y45218D01*
X127557Y44234D01*
X128844Y43701D01*
X130236D01*
X131523Y44234D01*
X132507Y45218D01*
X133040Y46505D01*
Y47897D01*
X132507Y49183D01*
X131523Y50168D01*
X130236Y50701D01*
D02*
G37*
G36*
X588706Y35250D02*
X587314D01*
X586027Y34717D01*
X585665Y34354D01*
X584835Y33857D01*
X584005Y34354D01*
X583643Y34717D01*
X582356Y35250D01*
X580964D01*
X579677Y34717D01*
X579315Y34354D01*
X578485Y33857D01*
X577655Y34354D01*
X577293Y34717D01*
X576006Y35250D01*
X574614D01*
X573327Y34717D01*
X572343Y33733D01*
X571810Y32446D01*
Y31054D01*
X572343Y29767D01*
X572706Y29405D01*
X573203Y28575D01*
X572706Y27745D01*
X572343Y27383D01*
X571810Y26096D01*
Y24704D01*
X572343Y23417D01*
X573327Y22433D01*
X574614Y21900D01*
X576006D01*
X577293Y22433D01*
X577655Y22796D01*
X578485Y23293D01*
X579315Y22796D01*
X579677Y22433D01*
X580964Y21900D01*
X582356D01*
X583643Y22433D01*
X584005Y22796D01*
X584835Y23293D01*
X585665Y22796D01*
X586027Y22433D01*
X587314Y21900D01*
X588706D01*
X589993Y22433D01*
X590977Y23417D01*
X591510Y24704D01*
Y26096D01*
X590977Y27383D01*
X590614Y27745D01*
X590117Y28575D01*
X590614Y29405D01*
X590977Y29767D01*
X591510Y31054D01*
Y32446D01*
X590977Y33733D01*
X589993Y34717D01*
X588706Y35250D01*
D02*
G37*
G36*
X756378Y32751D02*
X754986D01*
X753700Y32218D01*
X752715Y31234D01*
X752560Y30858D01*
X751185D01*
X751029Y31234D01*
X750045Y32218D01*
X748758Y32751D01*
X747366D01*
X746080Y32218D01*
X745095Y31234D01*
X744562Y29947D01*
Y28555D01*
X745095Y27268D01*
X746080Y26284D01*
X747366Y25751D01*
X748758D01*
X750045Y26284D01*
X751029Y27268D01*
X751185Y27644D01*
X752560D01*
X752715Y27268D01*
X753700Y26284D01*
X754986Y25751D01*
X756378D01*
X757665Y26284D01*
X758649Y27268D01*
X759182Y28555D01*
Y29947D01*
X758649Y31234D01*
X757665Y32218D01*
X756378Y32751D01*
D02*
G37*
%LPD*%
D11*
X160081Y171919D02*
Y267512D01*
Y171919D02*
X186690Y145309D01*
X714222Y343241D02*
X727710Y329753D01*
Y316113D02*
Y329753D01*
X661171Y343241D02*
X714222D01*
X376905Y277845D02*
X428248D01*
X356820Y154940D02*
Y257760D01*
X376905Y277845D01*
X768185Y463363D02*
X783590Y478768D01*
X758190Y463363D02*
X768185D01*
X783590Y478768D02*
Y653480D01*
Y744220D01*
X662515Y781050D02*
X746760D01*
X783590Y744220D01*
X643890Y199983D02*
X679273Y164600D01*
X643890Y199983D02*
Y319390D01*
X679273Y164600D02*
X737300D01*
X623750Y659370D02*
X701515D01*
X98910Y616100D02*
X580480D01*
X623750Y659370D01*
X621030Y665480D02*
X708405D01*
X188586Y621674D02*
X577224D01*
X621030Y665480D01*
X88700Y340450D02*
X102760Y326390D01*
X701556D01*
X88700Y340450D02*
Y355000D01*
X191042Y332198D02*
X708707D01*
X714515Y326390D01*
X182040Y341200D02*
X191042Y332198D01*
X182040Y341200D02*
Y355000D01*
X592805Y376385D02*
X618125Y351065D01*
X675428D01*
X621009Y356577D02*
X688533D01*
X595567Y382019D02*
X621009Y356577D01*
X606441Y387165D02*
X714515D01*
X563183Y376385D02*
X592805D01*
X473459Y382019D02*
X595567D01*
X597966Y387575D02*
X604218Y381323D01*
X381226Y387575D02*
X597966D01*
X604218Y381323D02*
X701559D01*
X599907Y393700D02*
X606441Y387165D01*
X289560Y393700D02*
X599907D01*
X604063Y413349D02*
X714623D01*
X595845Y405130D02*
X604063Y413349D01*
X608469Y407809D02*
X701536D01*
X600209Y399549D02*
X608469Y407809D01*
X275380Y379520D02*
X289560Y393700D01*
X275380Y355000D02*
Y379520D01*
X88700Y414220D02*
X103371Y399549D01*
X600209D01*
X368720Y375070D02*
X381226Y387575D01*
X462060Y370620D02*
X473459Y382019D01*
X555400Y355000D02*
Y368601D01*
X563183Y376385D01*
X368720Y355000D02*
Y375070D01*
X462060Y355000D02*
Y370620D01*
X88700Y414220D02*
Y427000D01*
X190500Y405130D02*
X595845D01*
X182040Y413590D02*
X190500Y405130D01*
X182040Y413590D02*
Y427000D01*
X609714Y439685D02*
X688396D01*
X595500Y453899D02*
X609714Y439685D01*
X593090Y448310D02*
X607275Y434125D01*
X675529D01*
X475489Y453899D02*
X595500D01*
X655155Y459575D02*
X659607Y464027D01*
X385915Y459575D02*
X655155D01*
X659607Y464027D02*
X701532D01*
X652693Y466003D02*
X657415Y470726D01*
X714520D01*
X289473Y466003D02*
X652693D01*
X275380Y427000D02*
Y451910D01*
X289473Y466003D01*
X462060Y440470D02*
X475489Y453899D01*
X368720Y442380D02*
X385915Y459575D01*
X368720Y427000D02*
Y442380D01*
X462060Y427000D02*
Y440470D01*
X562610Y448310D02*
X593090D01*
X555400Y441100D02*
X562610Y448310D01*
X555400Y427000D02*
Y441100D01*
X101267Y471503D02*
X602678D01*
X622102Y490927D01*
X701514D01*
X600505Y477520D02*
X619571Y496585D01*
X708856D01*
X190500Y477520D02*
X600505D01*
X708856Y496585D02*
X714515Y490927D01*
X88700Y484070D02*
X101267Y471503D01*
X88700Y484070D02*
Y499000D01*
X182040Y485980D02*
X190500Y477520D01*
X182040Y485980D02*
Y499000D01*
X622583Y522957D02*
X688515D01*
X620146Y517375D02*
X675515D01*
X617125Y520396D02*
X620146Y517375D01*
X562306Y520396D02*
X617125D01*
X619322Y526218D02*
X622583Y522957D01*
X462060Y514130D02*
X474148Y526218D01*
X619322D01*
X555400Y513490D02*
X562306Y520396D01*
X616821Y546971D02*
X701515D01*
X602035Y532185D02*
X616821Y546971D01*
X613461Y552501D02*
X714534D01*
X599181Y538221D02*
X613461Y552501D01*
X385285Y532185D02*
X602035D01*
X287821Y538221D02*
X599181D01*
X275380Y525780D02*
X287821Y538221D01*
X275380Y499000D02*
Y525780D01*
X368720Y515620D02*
X385285Y532185D01*
X368720Y499000D02*
Y515620D01*
X462060Y499000D02*
Y514130D01*
X100688Y543721D02*
X595817D01*
X88700Y555709D02*
X100688Y543721D01*
X595817D02*
X626135Y574040D01*
X182040Y557100D02*
X189644Y549496D01*
X593116D02*
X624010Y580390D01*
X189644Y549496D02*
X593116D01*
X626135Y574040D02*
X701515D01*
X624010Y580390D02*
X708165D01*
X714515Y574040D01*
X88700Y555709D02*
Y571000D01*
X182040Y557100D02*
Y571000D01*
X555400Y499000D02*
Y513490D01*
X616809Y600023D02*
X675515D01*
X614620Y605730D02*
X688515D01*
X607622Y598732D02*
X614620Y605730D01*
X609875Y593090D02*
X616809Y600023D01*
X462060Y583980D02*
X476812Y598732D01*
X607622D01*
X368720Y587160D02*
X386473Y604912D01*
X605538D01*
X563880Y593090D02*
X609875D01*
X630107Y629481D02*
X701515D01*
X605538Y604912D02*
X630107Y629481D01*
X627380Y635000D02*
X714515D01*
X602980Y610600D02*
X627380Y635000D01*
X291830Y610600D02*
X602980D01*
X275380Y594150D02*
X291830Y610600D01*
X275380Y571000D02*
Y594150D01*
X368720Y571000D02*
Y587160D01*
X462060Y571000D02*
Y583980D01*
X555400Y584610D02*
X563880Y593090D01*
X555400Y571000D02*
Y584610D01*
X88700Y626310D02*
X98910Y616100D01*
X182040Y628220D02*
X188586Y621674D01*
X708405Y665480D02*
X714515Y659370D01*
X580437Y693467D02*
X633153Y746183D01*
X708742D02*
X714515Y740410D01*
X633153Y746183D02*
X708742D01*
X618659Y696980D02*
X688492D01*
X592140Y670461D02*
X618659Y696980D01*
X688492D02*
X688494Y696983D01*
X621408Y691258D02*
X675559D01*
X595057Y664907D02*
X621408Y691258D01*
X590012Y676362D02*
X627600Y713950D01*
X701616D01*
X586740Y681990D02*
X624335Y719585D01*
X714602D01*
X564109Y664907D02*
X595057D01*
X472341Y670461D02*
X592140D01*
X384682Y676362D02*
X590012D01*
X292100Y681990D02*
X586740D01*
X555400Y656198D02*
X564109Y664907D01*
X462060Y660180D02*
X472341Y670461D01*
X368720Y660400D02*
X384682Y676362D01*
X275380Y665270D02*
X292100Y681990D01*
X275380Y643000D02*
Y665270D01*
X583722Y687861D02*
X636270Y740410D01*
X88700Y696160D02*
X96999Y687861D01*
X583722D01*
X186643Y693467D02*
X580437D01*
X182040Y698070D02*
X186643Y693467D01*
X555400Y643000D02*
Y656198D01*
X368720Y643000D02*
Y660400D01*
X462060Y643000D02*
Y660180D01*
X88700Y626310D02*
Y643000D01*
X182040Y628220D02*
Y643000D01*
X649515Y203577D02*
Y309880D01*
Y203577D02*
X675763Y177328D01*
X749972D01*
X636270Y740410D02*
X701515D01*
X582662Y768082D02*
X675515D01*
X555400Y740820D02*
X582662Y768082D01*
X492410Y773648D02*
X688515D01*
X555400Y715000D02*
Y740820D01*
X701515Y797989D02*
X701679D01*
X624286D02*
X701515D01*
X605597Y779300D02*
X624286Y797989D01*
X714515Y803514D02*
X714544D01*
X621904D02*
X714515D01*
X603250Y784860D02*
X621904Y803514D01*
X401371Y779300D02*
X605597D01*
X302260Y784860D02*
X603250D01*
X462060Y743298D02*
X492410Y773648D01*
X368720Y746649D02*
X401371Y779300D01*
X275380Y757980D02*
X302260Y784860D01*
X275380Y715000D02*
Y757980D01*
X368720Y715000D02*
Y746649D01*
X462060Y715000D02*
Y743298D01*
X88700Y696160D02*
Y715000D01*
X182040Y698070D02*
Y715000D01*
X679450Y248920D02*
Y271780D01*
X718820Y248920D02*
Y271980D01*
X742950Y279400D02*
X750371Y271979D01*
Y253129D02*
X762700Y240800D01*
X750371Y253129D02*
Y271979D01*
X726240Y279400D02*
X742950D01*
X718820Y271980D02*
X726240Y279400D01*
X769187Y202768D02*
X775970Y209550D01*
X737300Y190000D02*
X750068Y202768D01*
X769187D01*
X775970Y209550D02*
Y279400D01*
X767280Y288090D02*
X775970Y279400D01*
X767280Y288090D02*
Y450850D01*
X749972Y177328D02*
X762700Y164600D01*
D14*
X840010Y775040D02*
X842476Y775702D01*
X844286Y777503D01*
X844961Y779965D01*
X10000Y397390D02*
X7522Y396727D01*
X5707Y394914D01*
X5040Y392436D01*
X25040Y766130D02*
X24812Y768742D01*
X24133Y771274D01*
X23025Y773650D01*
X21521Y775798D01*
X19668Y777651D01*
X17520Y779155D01*
X15144Y780263D01*
X12612Y780941D01*
X10000Y781170D01*
X839967Y775040D02*
X837364Y774807D01*
X834841Y774127D01*
X832474Y773021D01*
X830334Y771522D01*
X828485Y769674D01*
X826985Y767535D01*
X825877Y765168D01*
X825195Y762646D01*
X824961Y760043D01*
X506260Y836000D02*
X506423Y833515D01*
X506909Y831072D01*
X507709Y828714D01*
X508811Y826480D01*
X510195Y824409D01*
X511837Y822537D01*
X513709Y820895D01*
X515780Y819511D01*
X518014Y818409D01*
X520372Y817609D01*
X522815Y817123D01*
X525300Y816960D01*
X5040Y786130D02*
X5705Y783650D01*
X7520Y781834D01*
X10000Y781170D01*
X838011Y5040D02*
X840669Y5572D01*
X842923Y7080D01*
X844429Y9334D01*
X844960Y11992D01*
X433300Y844960D02*
X430982Y844655D01*
X428823Y843761D01*
X426967Y842339D01*
X425543Y840485D01*
X424647Y838326D01*
X424340Y836009D01*
X88960D02*
X88653Y838324D01*
X87759Y840482D01*
X86337Y842335D01*
X84484Y843757D01*
X82327Y844653D01*
X80011Y844960D01*
X506260Y836009D02*
X505953Y838326D01*
X505057Y840485D01*
X503633Y842339D01*
X501777Y843761D01*
X499618Y844655D01*
X497300Y844960D01*
X5040Y11989D02*
X5572Y9331D01*
X7080Y7078D01*
X9334Y5571D01*
X11992Y5040D01*
X10000Y397390D02*
X12612Y397618D01*
X15144Y398297D01*
X17520Y399405D01*
X19668Y400909D01*
X21521Y402762D01*
X23025Y404910D01*
X24133Y407286D01*
X24812Y409818D01*
X25040Y412430D01*
X770000Y844960D02*
X767682Y844655D01*
X765523Y843761D01*
X763667Y842339D01*
X762243Y840485D01*
X761347Y838326D01*
X761040Y836009D01*
X824960Y420000D02*
X825189Y417388D01*
X825867Y414856D01*
X826975Y412480D01*
X828479Y410332D01*
X830332Y408479D01*
X832480Y406975D01*
X834856Y405867D01*
X837388Y405188D01*
X840000Y404960D01*
X405300Y816960D02*
X407785Y817123D01*
X410228Y817609D01*
X412586Y818409D01*
X414820Y819511D01*
X416891Y820895D01*
X418763Y822537D01*
X420405Y824409D01*
X421789Y826480D01*
X422891Y828714D01*
X423691Y831072D01*
X424177Y833515D01*
X424340Y836000D01*
X88960D02*
X89123Y833515D01*
X89609Y831072D01*
X90409Y828714D01*
X91511Y826480D01*
X92895Y824409D01*
X94537Y822537D01*
X96409Y820895D01*
X98480Y819511D01*
X100714Y818409D01*
X103072Y817609D01*
X105515Y817123D01*
X108000Y816960D01*
X11992Y844960D02*
X9331Y844428D01*
X7076Y842919D01*
X5569Y840662D01*
X5040Y838000D01*
X844960D02*
X844430Y840664D01*
X842922Y842922D01*
X840664Y844430D01*
X838000Y844960D01*
X742000Y816960D02*
X744485Y817123D01*
X746928Y817609D01*
X749286Y818409D01*
X751520Y819511D01*
X753591Y820895D01*
X755463Y822537D01*
X757105Y824409D01*
X758489Y826480D01*
X759591Y828714D01*
X760391Y831072D01*
X760877Y833515D01*
X761040Y836000D01*
X844960Y400000D02*
X844296Y402480D01*
X842480Y404296D01*
X840000Y404960D01*
X770000Y844960D02*
X838000D01*
X844960Y12016D02*
X844960Y400000D01*
X844960Y780099D02*
Y838000D01*
X525300Y816960D02*
X742000D01*
X25040Y412430D02*
Y766130D01*
X824960Y420000D02*
Y759903D01*
X433300Y844960D02*
X497300D01*
X5040Y12012D02*
X5040Y392427D01*
X12004Y844960D02*
X79977Y844960D01*
X12016Y5040D02*
X837988Y5040D01*
X5040Y786130D02*
Y838000D01*
X108000Y816960D02*
X405300D01*
D26*
X201875Y155964D02*
X267057D01*
X280670Y169578D01*
X621030Y591820D02*
X626599Y586251D01*
X739921D02*
X751840Y598170D01*
X626599Y586251D02*
X739921D01*
X775092Y499265D02*
Y615558D01*
X768350Y622300D02*
Y657860D01*
Y622300D02*
X775092Y615558D01*
X758190Y482363D02*
X775092Y499265D01*
X768350Y657860D02*
X775970Y665480D01*
X643890Y622581D02*
X768350D01*
D27*
X201874Y276916D02*
X202581Y276209D01*
X201874Y276916D02*
Y304800D01*
X436809Y274549D02*
Y293441D01*
X429260Y300990D02*
X436809Y293441D01*
X388620Y300990D02*
X429260D01*
X375920Y313690D02*
X388620Y300990D01*
X85090Y251669D02*
X147111Y313690D01*
X375920D01*
X202581Y276209D02*
X210760Y268030D01*
Y245644D02*
Y268030D01*
X128980Y276209D02*
X202581D01*
X85090Y232319D02*
X128980Y276209D01*
X85090Y210342D02*
Y232319D01*
X430530Y268270D02*
X436809Y274549D01*
D28*
X375179Y145309D02*
X385972Y156102D01*
X186690Y145309D02*
X375179D01*
X394970Y203200D02*
X485140D01*
X385972D02*
X394970D01*
X385972Y156102D02*
Y203200D01*
X506198Y224258D02*
Y312420D01*
X485140Y203200D02*
X506198Y224258D01*
D29*
X152400Y197780D02*
Y267970D01*
D30*
X833968Y14577D02*
D03*
D31*
X834140Y832698D02*
D03*
D32*
X15212Y812378D02*
D03*
D33*
X15240Y16510D02*
D03*
D34*
X737300Y266200D02*
D03*
Y240800D02*
D03*
Y215400D02*
D03*
Y190000D02*
D03*
Y164600D02*
D03*
Y139200D02*
D03*
X762700Y266200D02*
D03*
Y240800D02*
D03*
Y215400D02*
D03*
Y190000D02*
D03*
Y164600D02*
D03*
Y139200D02*
D03*
Y113800D02*
D03*
D35*
X737300D02*
D03*
D36*
X481462Y807835D02*
D03*
X449133D02*
D03*
Y840164D02*
D03*
X481462D02*
D03*
X488158Y824000D02*
D03*
X465298Y801140D02*
D03*
X442438Y824000D02*
D03*
X465298Y846860D02*
D03*
X52165Y19835D02*
D03*
X19835D02*
D03*
Y52165D02*
D03*
X52165D02*
D03*
X58860Y36000D02*
D03*
X36000Y13140D02*
D03*
X13140Y36000D02*
D03*
X36000Y58860D02*
D03*
X830164Y239835D02*
D03*
X797835D02*
D03*
Y272164D02*
D03*
X830164D02*
D03*
X836860Y256000D02*
D03*
X814000Y233140D02*
D03*
X791140Y256000D02*
D03*
X814000Y278860D02*
D03*
X36000Y836860D02*
D03*
X13140Y814000D02*
D03*
X36000Y791140D02*
D03*
X58860Y814000D02*
D03*
X52165Y830164D02*
D03*
X19835D02*
D03*
Y797835D02*
D03*
X52165D02*
D03*
X36000Y278860D02*
D03*
X13140Y256000D02*
D03*
X36000Y233140D02*
D03*
X58860Y256000D02*
D03*
X52165Y272164D02*
D03*
X19835D02*
D03*
Y239835D02*
D03*
X52165D02*
D03*
Y347836D02*
D03*
X19835D02*
D03*
Y380164D02*
D03*
X52165D02*
D03*
X58860Y364000D02*
D03*
X36000Y341140D02*
D03*
X13140Y364000D02*
D03*
X36000Y386860D02*
D03*
X830164Y797835D02*
D03*
X797835D02*
D03*
Y830164D02*
D03*
X830164D02*
D03*
X836860Y814000D02*
D03*
X814000Y791140D02*
D03*
X791140Y814000D02*
D03*
X814000Y836860D02*
D03*
Y386860D02*
D03*
X791140Y364000D02*
D03*
X814000Y341140D02*
D03*
X836860Y364000D02*
D03*
X830164Y380164D02*
D03*
X797835D02*
D03*
Y347836D02*
D03*
X830164D02*
D03*
Y19835D02*
D03*
X797835D02*
D03*
Y52165D02*
D03*
X830164D02*
D03*
X836860Y36000D02*
D03*
X814000Y13140D02*
D03*
X791140Y36000D02*
D03*
X814000Y58860D02*
D03*
D37*
X465298Y824000D02*
D03*
X36000Y36000D02*
D03*
X814000Y256000D02*
D03*
X36000Y814000D02*
D03*
Y256000D02*
D03*
Y364000D02*
D03*
X814000Y814000D02*
D03*
Y364000D02*
D03*
Y36000D02*
D03*
D38*
X443698Y845000D02*
D03*
X457698D02*
D03*
X471698D02*
D03*
X485698D02*
D03*
X499694Y844649D02*
D03*
X506867Y832626D02*
D03*
X514549Y820922D02*
D03*
X527989Y817000D02*
D03*
X541989D02*
D03*
X555989D02*
D03*
X569989D02*
D03*
X583989D02*
D03*
X597989D02*
D03*
X611989D02*
D03*
X625989D02*
D03*
X639989D02*
D03*
X653989D02*
D03*
X667989D02*
D03*
X681989D02*
D03*
X695989D02*
D03*
X709989D02*
D03*
X723989D02*
D03*
X737989D02*
D03*
X751625Y820170D02*
D03*
X760086Y831324D02*
D03*
X765980Y844023D02*
D03*
X779946Y845000D02*
D03*
X793945D02*
D03*
X807945D02*
D03*
X821945D02*
D03*
X835945D02*
D03*
X845000Y834322D02*
D03*
Y820322D02*
D03*
Y806322D02*
D03*
Y792322D02*
D03*
X844688Y778326D02*
D03*
X832680Y771128D02*
D03*
X825438Y759147D02*
D03*
X825000Y745153D02*
D03*
Y731153D02*
D03*
Y717153D02*
D03*
Y703154D02*
D03*
Y689154D02*
D03*
Y675154D02*
D03*
Y661153D02*
D03*
Y647153D02*
D03*
Y633153D02*
D03*
Y619154D02*
D03*
Y605154D02*
D03*
Y591153D02*
D03*
Y577154D02*
D03*
Y563153D02*
D03*
Y549154D02*
D03*
Y535154D02*
D03*
Y521153D02*
D03*
Y507154D02*
D03*
Y493153D02*
D03*
Y479154D02*
D03*
Y465154D02*
D03*
Y451153D02*
D03*
Y437154D02*
D03*
X825135Y423154D02*
D03*
X830854Y410376D02*
D03*
X843212Y403795D02*
D03*
X845000Y389910D02*
D03*
Y375910D02*
D03*
Y361910D02*
D03*
Y347910D02*
D03*
Y333910D02*
D03*
Y319910D02*
D03*
Y305910D02*
D03*
Y291910D02*
D03*
Y277910D02*
D03*
X845000Y263910D02*
D03*
Y249910D02*
D03*
Y235910D02*
D03*
Y221910D02*
D03*
Y207910D02*
D03*
Y193910D02*
D03*
Y179910D02*
D03*
Y165910D02*
D03*
Y151910D02*
D03*
X845000Y137910D02*
D03*
Y123910D02*
D03*
Y109910D02*
D03*
Y95910D02*
D03*
Y81910D02*
D03*
Y67910D02*
D03*
Y53910D02*
D03*
Y39910D02*
D03*
Y25910D02*
D03*
X844996Y11910D02*
D03*
X832820Y5000D02*
D03*
X818820D02*
D03*
X804820D02*
D03*
X790820D02*
D03*
X776820D02*
D03*
X762820D02*
D03*
X748820D02*
D03*
X734820D02*
D03*
X720820D02*
D03*
X706820D02*
D03*
X692820D02*
D03*
X678820D02*
D03*
X664820D02*
D03*
X650820D02*
D03*
X636820D02*
D03*
X622820D02*
D03*
X608820D02*
D03*
X594820D02*
D03*
X580820D02*
D03*
X566820D02*
D03*
X552820Y5000D02*
D03*
X538820D02*
D03*
X524820D02*
D03*
X510820D02*
D03*
X496820D02*
D03*
X482820D02*
D03*
X468820D02*
D03*
X454820D02*
D03*
X398820D02*
D03*
X384820D02*
D03*
X370820D02*
D03*
X356820D02*
D03*
X342820D02*
D03*
X328820D02*
D03*
X314820D02*
D03*
X300820D02*
D03*
X286820D02*
D03*
X272820Y5000D02*
D03*
X258820D02*
D03*
X244820D02*
D03*
X230820D02*
D03*
X216820D02*
D03*
X202820D02*
D03*
X188820D02*
D03*
X174820D02*
D03*
X160820D02*
D03*
X146820D02*
D03*
X132820D02*
D03*
X118820D02*
D03*
X104820D02*
D03*
X90820D02*
D03*
X76820D02*
D03*
X62820D02*
D03*
X48820D02*
D03*
X34820D02*
D03*
X20820D02*
D03*
X6982Y7125D02*
D03*
X5000Y20984D02*
D03*
Y34984D02*
D03*
Y48984D02*
D03*
Y62984D02*
D03*
Y76984D02*
D03*
Y90984D02*
D03*
Y104984D02*
D03*
Y118984D02*
D03*
Y132984D02*
D03*
Y146984D02*
D03*
Y160984D02*
D03*
Y174984D02*
D03*
Y188984D02*
D03*
Y202984D02*
D03*
Y216984D02*
D03*
Y230984D02*
D03*
Y244984D02*
D03*
Y258984D02*
D03*
Y272984D02*
D03*
Y286984D02*
D03*
Y300984D02*
D03*
Y314984D02*
D03*
Y328984D02*
D03*
Y342984D02*
D03*
Y356984D02*
D03*
Y370984D02*
D03*
Y384984D02*
D03*
X10583Y397822D02*
D03*
X21777Y406231D02*
D03*
X25000Y419855D02*
D03*
Y433855D02*
D03*
Y447855D02*
D03*
Y461855D02*
D03*
Y475855D02*
D03*
Y489855D02*
D03*
Y503855D02*
D03*
Y517855D02*
D03*
Y531855D02*
D03*
Y545855D02*
D03*
Y559855D02*
D03*
Y573855D02*
D03*
Y587855D02*
D03*
Y601855D02*
D03*
Y615855D02*
D03*
Y629855D02*
D03*
Y643855D02*
D03*
Y657855D02*
D03*
Y671855D02*
D03*
Y685855D02*
D03*
Y699855D02*
D03*
Y713855D02*
D03*
Y727855D02*
D03*
Y741855D02*
D03*
Y755855D02*
D03*
X23223Y769742D02*
D03*
X13392Y779709D02*
D03*
X5000Y790915D02*
D03*
Y804915D02*
D03*
Y818915D02*
D03*
Y832915D02*
D03*
X12067Y845000D02*
D03*
X26067D02*
D03*
X40067Y845000D02*
D03*
X54067D02*
D03*
X68067Y845000D02*
D03*
X82065Y844748D02*
D03*
X89513Y832894D02*
D03*
X97029Y821082D02*
D03*
X110421Y817000D02*
D03*
X124420D02*
D03*
X138420D02*
D03*
X152421D02*
D03*
X166420D02*
D03*
X180420D02*
D03*
X194421D02*
D03*
X208421D02*
D03*
X222421D02*
D03*
X236420D02*
D03*
X250420D02*
D03*
X264421D02*
D03*
X278421D02*
D03*
X292421D02*
D03*
X306420D02*
D03*
X320420D02*
D03*
X334421D02*
D03*
X348420D02*
D03*
X362421D02*
D03*
X376421D02*
D03*
X390420D02*
D03*
X404421Y817014D02*
D03*
X417475Y822071D02*
D03*
X424061Y834425D02*
D03*
X433227Y845007D02*
D03*
D39*
X425000Y21000D02*
D03*
D40*
X555400Y427000D02*
D03*
X568100Y439700D02*
D03*
Y414300D02*
D03*
X580800Y427000D02*
D03*
X555400Y355000D02*
D03*
X568100Y367700D02*
D03*
Y342300D02*
D03*
X580800Y355000D02*
D03*
X462060D02*
D03*
X474760Y367700D02*
D03*
Y342300D02*
D03*
X487460Y355000D02*
D03*
X368720Y427000D02*
D03*
X381420Y439700D02*
D03*
Y414300D02*
D03*
X394120Y427000D02*
D03*
X462060D02*
D03*
X474760Y439700D02*
D03*
Y414300D02*
D03*
X487460Y427000D02*
D03*
X368720Y355000D02*
D03*
X381420Y367700D02*
D03*
Y342300D02*
D03*
X394120Y355000D02*
D03*
X275380D02*
D03*
X288080Y367700D02*
D03*
Y342300D02*
D03*
X300780Y355000D02*
D03*
X275380Y427000D02*
D03*
X288080Y439700D02*
D03*
Y414300D02*
D03*
X300780Y427000D02*
D03*
X275380Y499000D02*
D03*
X288080Y511700D02*
D03*
Y486300D02*
D03*
X300780Y499000D02*
D03*
X368720D02*
D03*
X381420Y511700D02*
D03*
Y486300D02*
D03*
X394120Y499000D02*
D03*
X462060D02*
D03*
X474760Y511700D02*
D03*
Y486300D02*
D03*
X487460Y499000D02*
D03*
X555400D02*
D03*
X568100Y511700D02*
D03*
Y486300D02*
D03*
X580800Y499000D02*
D03*
X555400Y571000D02*
D03*
X568100Y583700D02*
D03*
Y558300D02*
D03*
X580800Y571000D02*
D03*
X462060D02*
D03*
X474760Y583700D02*
D03*
Y558300D02*
D03*
X487460Y571000D02*
D03*
X368720D02*
D03*
X381420Y583700D02*
D03*
Y558300D02*
D03*
X394120Y571000D02*
D03*
X275380D02*
D03*
X288080Y583700D02*
D03*
Y558300D02*
D03*
X300780Y571000D02*
D03*
X182040D02*
D03*
X194740Y583700D02*
D03*
Y558300D02*
D03*
X207440Y571000D02*
D03*
X182040Y499000D02*
D03*
X194740Y511700D02*
D03*
Y486300D02*
D03*
X207440Y499000D02*
D03*
X182040Y427000D02*
D03*
X194740Y439700D02*
D03*
Y414300D02*
D03*
X207440Y427000D02*
D03*
X182040Y355000D02*
D03*
X194740Y367700D02*
D03*
Y342300D02*
D03*
X207440Y355000D02*
D03*
X88700D02*
D03*
X101400Y367700D02*
D03*
Y342300D02*
D03*
X114100Y355000D02*
D03*
X88700Y427000D02*
D03*
X101400Y439700D02*
D03*
Y414300D02*
D03*
X114100Y427000D02*
D03*
X88700Y499000D02*
D03*
X101400Y511700D02*
D03*
Y486300D02*
D03*
X114100Y499000D02*
D03*
X88700Y571000D02*
D03*
X101400Y583700D02*
D03*
Y558300D02*
D03*
X114100Y571000D02*
D03*
X182040Y643000D02*
D03*
X194740Y655700D02*
D03*
Y630300D02*
D03*
X207440Y643000D02*
D03*
X275380D02*
D03*
X288080Y655700D02*
D03*
Y630300D02*
D03*
X300780Y643000D02*
D03*
X368720D02*
D03*
X381420Y655700D02*
D03*
Y630300D02*
D03*
X394120Y643000D02*
D03*
X462060D02*
D03*
X474760Y655700D02*
D03*
Y630300D02*
D03*
X487460Y643000D02*
D03*
X580800D02*
D03*
X568100Y630300D02*
D03*
Y655700D02*
D03*
X555400Y643000D02*
D03*
Y715000D02*
D03*
X568100Y727700D02*
D03*
Y702300D02*
D03*
X580800Y715000D02*
D03*
X462060D02*
D03*
X474760Y727700D02*
D03*
Y702300D02*
D03*
X487460Y715000D02*
D03*
X368720D02*
D03*
X381420Y727700D02*
D03*
Y702300D02*
D03*
X394120Y715000D02*
D03*
X275380D02*
D03*
X288080Y727700D02*
D03*
Y702300D02*
D03*
X300780Y715000D02*
D03*
X182040D02*
D03*
X194740Y727700D02*
D03*
Y702300D02*
D03*
X207440Y715000D02*
D03*
X88700D02*
D03*
X101400Y727700D02*
D03*
Y702300D02*
D03*
X114100Y715000D02*
D03*
X88700Y643000D02*
D03*
X101400Y655700D02*
D03*
Y630300D02*
D03*
X114100Y643000D02*
D03*
D41*
X280670Y176181D02*
D03*
Y169578D02*
D03*
X727710Y540732D02*
D03*
Y457749D02*
D03*
X365760Y76875D02*
D03*
X288162Y154940D02*
D03*
X306180D02*
D03*
X219875Y137105D02*
D03*
X123190Y71120D02*
D03*
X158189Y114155D02*
D03*
X167640Y114300D02*
D03*
X208280Y62468D02*
D03*
Y44450D02*
D03*
X176049Y67110D02*
D03*
X158031D02*
D03*
X85090Y27464D02*
D03*
Y45482D02*
D03*
Y63500D02*
D03*
X55880Y138270D02*
D03*
Y156288D02*
D03*
Y174306D02*
D03*
Y192324D02*
D03*
Y120251D02*
D03*
Y102233D02*
D03*
Y84215D02*
D03*
Y210342D02*
D03*
X207440Y304800D02*
D03*
X201874D02*
D03*
X201875Y155964D02*
D03*
X317500Y77470D02*
D03*
X256540Y63500D02*
D03*
X246380D02*
D03*
X276933Y127459D02*
D03*
X303632Y125730D02*
D03*
X280670Y280670D02*
D03*
X270510D02*
D03*
X231140Y276209D02*
D03*
X220980D02*
D03*
X210760Y238760D02*
D03*
Y245644D02*
D03*
X160081Y267512D02*
D03*
X186690Y145309D02*
D03*
X394970Y203200D02*
D03*
X385972D02*
D03*
X405730Y163830D02*
D03*
X370840Y194380D02*
D03*
Y178470D02*
D03*
X372110Y231210D02*
D03*
Y215300D02*
D03*
X309951Y209550D02*
D03*
X294040D02*
D03*
X240771Y167640D02*
D03*
X224860D02*
D03*
Y125730D02*
D03*
X208950D02*
D03*
X466090Y25329D02*
D03*
Y41240D02*
D03*
X379730Y24060D02*
D03*
Y39970D02*
D03*
X751840Y598170D02*
D03*
X621030Y591820D02*
D03*
X659130Y593090D02*
D03*
X430530Y268270D02*
D03*
X85090Y210342D02*
D03*
Y251669D02*
D03*
X727710Y316113D02*
D03*
X661171Y343241D02*
D03*
X660400Y424180D02*
D03*
X727710Y399095D02*
D03*
Y482078D02*
D03*
X661670Y508000D02*
D03*
X727710Y565060D02*
D03*
Y648043D02*
D03*
X660400Y680720D02*
D03*
X662515Y760352D02*
D03*
X727710Y731025D02*
D03*
X152400Y267970D02*
D03*
Y197780D02*
D03*
X754380Y690980D02*
D03*
X129540Y47201D02*
D03*
X716107Y300990D02*
D03*
X721015D02*
D03*
X428248Y277845D02*
D03*
X356820Y154940D02*
D03*
X440690Y235770D02*
D03*
X266700Y214630D02*
D03*
X138430D02*
D03*
Y63500D02*
D03*
X266700D02*
D03*
X116187Y219710D02*
D03*
X115037Y198159D02*
D03*
X116238Y71120D02*
D03*
X115038Y47580D02*
D03*
X622300Y233680D02*
D03*
X580190Y227530D02*
D03*
X700299Y153670D02*
D03*
X700511Y105410D02*
D03*
X713952D02*
D03*
X700511Y121920D02*
D03*
X713952D02*
D03*
X625989Y788546D02*
D03*
X528638Y802780D02*
D03*
X546656D02*
D03*
X564674D02*
D03*
X582692D02*
D03*
X510619D02*
D03*
X600710D02*
D03*
X405368Y798830D02*
D03*
X423386D02*
D03*
X279241Y782320D02*
D03*
X261223D02*
D03*
X243205D02*
D03*
X225187D02*
D03*
X207169D02*
D03*
X189151D02*
D03*
X171133D02*
D03*
X153114D02*
D03*
X135096D02*
D03*
X117078D02*
D03*
X99060D02*
D03*
X81042D02*
D03*
X677806Y753110D02*
D03*
X692150D02*
D03*
X796178Y759666D02*
D03*
Y774010D02*
D03*
X770000Y788296D02*
D03*
Y773952D02*
D03*
Y745263D02*
D03*
Y802640D02*
D03*
X754380Y788296D02*
D03*
Y759607D02*
D03*
Y745263D02*
D03*
Y802640D02*
D03*
X796290Y637166D02*
D03*
Y622822D02*
D03*
Y651510D02*
D03*
Y708286D02*
D03*
Y693942D02*
D03*
Y679597D02*
D03*
Y665253D02*
D03*
Y722630D02*
D03*
X727710Y374767D02*
D03*
Y361202D02*
D03*
Y346857D02*
D03*
Y389890D02*
D03*
Y770142D02*
D03*
Y755797D02*
D03*
Y741453D02*
D03*
Y798830D02*
D03*
Y706696D02*
D03*
Y605696D02*
D03*
Y591352D02*
D03*
Y577008D02*
D03*
Y634385D02*
D03*
Y523812D02*
D03*
Y509468D02*
D03*
Y495124D02*
D03*
Y552501D02*
D03*
Y470725D02*
D03*
Y413349D02*
D03*
X669015Y446422D02*
D03*
X669015Y420370D02*
D03*
X669015Y363440D02*
D03*
X669015Y307340D02*
D03*
X690041Y232410D02*
D03*
Y212952D02*
D03*
X718820Y232410D02*
D03*
Y212952D02*
D03*
X640630Y91830D02*
D03*
X621172D02*
D03*
X474010Y261770D02*
D03*
Y275814D02*
D03*
X521970Y373380D02*
D03*
Y353922D02*
D03*
X429260Y374650D02*
D03*
Y355192D02*
D03*
X334010Y378460D02*
D03*
Y359002D02*
D03*
X232410Y381000D02*
D03*
Y361542D02*
D03*
X154940Y382270D02*
D03*
Y362812D02*
D03*
X527050Y737870D02*
D03*
Y718412D02*
D03*
Y660040D02*
D03*
Y640582D02*
D03*
Y582209D02*
D03*
Y504379D02*
D03*
Y426549D02*
D03*
Y446006D02*
D03*
X433070Y426141D02*
D03*
Y756920D02*
D03*
Y737462D02*
D03*
Y718005D02*
D03*
Y659632D02*
D03*
Y640174D02*
D03*
Y581802D02*
D03*
Y523429D02*
D03*
Y445598D02*
D03*
Y503971D02*
D03*
X344170Y428681D02*
D03*
Y759460D02*
D03*
Y740002D02*
D03*
Y720545D02*
D03*
Y662172D02*
D03*
Y642714D02*
D03*
Y603799D02*
D03*
Y584342D02*
D03*
Y564884D02*
D03*
Y525969D02*
D03*
Y448139D02*
D03*
Y506511D02*
D03*
X154940Y426141D02*
D03*
Y756920D02*
D03*
Y737462D02*
D03*
Y718005D02*
D03*
Y679090D02*
D03*
Y659632D02*
D03*
Y640174D02*
D03*
Y601259D02*
D03*
Y581802D02*
D03*
Y523429D02*
D03*
Y445598D02*
D03*
Y465056D02*
D03*
Y503971D02*
D03*
X248920Y427411D02*
D03*
Y758190D02*
D03*
Y738732D02*
D03*
Y719275D02*
D03*
Y680360D02*
D03*
Y660902D02*
D03*
Y641444D02*
D03*
Y602529D02*
D03*
Y583072D02*
D03*
Y524699D02*
D03*
Y446869D02*
D03*
Y505241D02*
D03*
X745490Y307340D02*
D03*
Y647700D02*
D03*
X754380Y678480D02*
D03*
X745490Y482078D02*
D03*
Y399095D02*
D03*
Y316113D02*
D03*
X758190Y463363D02*
D03*
X783590Y653480D02*
D03*
X643890Y319390D02*
D03*
X633730Y271780D02*
D03*
Y319390D02*
D03*
X643890Y788546D02*
D03*
Y705564D02*
D03*
Y622581D02*
D03*
Y539750D02*
D03*
Y453390D02*
D03*
Y373634D02*
D03*
X633730Y756542D02*
D03*
X633840Y682940D02*
D03*
X633730Y651320D02*
D03*
Y612817D02*
D03*
Y568337D02*
D03*
Y529835D02*
D03*
Y485355D02*
D03*
Y446852D02*
D03*
X633729Y402246D02*
D03*
X633730Y363870D02*
D03*
X714515Y326390D02*
D03*
X701556D02*
D03*
X675428Y351065D02*
D03*
X688533Y356577D02*
D03*
X701559Y381323D02*
D03*
X714515Y387165D02*
D03*
X701536Y407809D02*
D03*
X714623Y413349D02*
D03*
X688515Y439685D02*
D03*
X675529Y434125D02*
D03*
X714520Y470726D02*
D03*
X701532Y464027D02*
D03*
X714515Y490927D02*
D03*
X701514D02*
D03*
X688515Y522957D02*
D03*
X675515Y517375D02*
D03*
X701515Y546971D02*
D03*
X714534Y552501D02*
D03*
X714515Y574040D02*
D03*
X701515D02*
D03*
X675515Y600023D02*
D03*
X688515Y605730D02*
D03*
X701515Y629481D02*
D03*
X714515Y635000D02*
D03*
X701515Y659370D02*
D03*
X714515D02*
D03*
X675559Y691258D02*
D03*
X688494Y696983D02*
D03*
X701616Y713950D02*
D03*
X714602Y719585D02*
D03*
X649515Y725170D02*
D03*
X662515Y781050D02*
D03*
X675515Y768082D02*
D03*
X688515Y773648D02*
D03*
X701515Y797989D02*
D03*
X714515Y803514D02*
D03*
X701515Y740410D02*
D03*
X714515D02*
D03*
X649515Y309880D02*
D03*
X649479Y392777D02*
D03*
X649515Y475679D02*
D03*
X649515Y558800D02*
D03*
Y641350D02*
D03*
X581660Y31750D02*
D03*
X575310D02*
D03*
Y25400D02*
D03*
X588010Y31750D02*
D03*
Y25400D02*
D03*
X581660D02*
D03*
X438150Y143002D02*
D03*
X453280D02*
D03*
X379730Y55880D02*
D03*
X403119Y78740D02*
D03*
X387209D02*
D03*
X397192Y312420D02*
D03*
X775970Y665480D02*
D03*
X414020Y215901D02*
D03*
X794279Y309880D02*
D03*
X821161D02*
D03*
X803910Y565150D02*
D03*
Y547132D02*
D03*
Y529114D02*
D03*
Y511096D02*
D03*
Y493078D02*
D03*
Y475059D02*
D03*
Y457041D02*
D03*
Y439023D02*
D03*
Y421005D02*
D03*
X748062Y29251D02*
D03*
X755682D02*
D03*
X387350Y798830D02*
D03*
X81042D02*
D03*
X99060D02*
D03*
X117078D02*
D03*
X135096D02*
D03*
X153114D02*
D03*
X171133D02*
D03*
X189151D02*
D03*
X207169D02*
D03*
X225187D02*
D03*
X243205D02*
D03*
X261223D02*
D03*
X279241D02*
D03*
X297259D02*
D03*
X369332D02*
D03*
X351314D02*
D03*
X333296D02*
D03*
X315278D02*
D03*
X527050Y208280D02*
D03*
Y224190D02*
D03*
X701040Y274320D02*
D03*
Y260879D02*
D03*
Y236220D02*
D03*
Y222779D02*
D03*
Y209338D02*
D03*
X686858Y153670D02*
D03*
X579120Y64770D02*
D03*
Y78211D02*
D03*
Y91652D02*
D03*
X769620Y71861D02*
D03*
Y85302D02*
D03*
X687070Y105410D02*
D03*
Y121920D02*
D03*
X679450Y248920D02*
D03*
Y271780D02*
D03*
X718820Y248920D02*
D03*
X633730Y262890D02*
D03*
X776388Y647700D02*
D03*
X803910Y579120D02*
D03*
X793750Y535940D02*
D03*
Y494030D02*
D03*
X792480Y450850D02*
D03*
X758190Y474980D02*
D03*
X793750Y405130D02*
D03*
X774700D02*
D03*
X516044Y268357D02*
D03*
X424180Y215901D02*
D03*
X676910Y106680D02*
D03*
X583346Y177941D02*
D03*
X615950Y223520D02*
D03*
X628650Y215900D02*
D03*
X662940Y262890D02*
D03*
X463788Y116840D02*
D03*
X445770D02*
D03*
Y124460D02*
D03*
X756920Y574040D02*
D03*
Y560599D02*
D03*
Y534882D02*
D03*
Y508000D02*
D03*
Y494559D02*
D03*
X760730Y297498D02*
D03*
Y310938D02*
D03*
Y324379D02*
D03*
Y337820D02*
D03*
Y405024D02*
D03*
Y391583D02*
D03*
Y378142D02*
D03*
Y364702D02*
D03*
Y351261D02*
D03*
X575733Y287620D02*
D03*
X521970Y285150D02*
D03*
X478790Y215300D02*
D03*
X419030Y78740D02*
D03*
X434940D02*
D03*
X450850D02*
D03*
X556260Y146121D02*
D03*
Y130210D02*
D03*
Y114300D02*
D03*
Y177941D02*
D03*
Y162031D02*
D03*
X528320Y180269D02*
D03*
Y116628D02*
D03*
Y132539D02*
D03*
Y148449D02*
D03*
Y55668D02*
D03*
Y69109D02*
D03*
Y82550D02*
D03*
X688340Y58208D02*
D03*
Y71649D02*
D03*
Y85090D02*
D03*
X816610Y96203D02*
D03*
Y109643D02*
D03*
Y123084D02*
D03*
Y136525D02*
D03*
Y149966D02*
D03*
Y163407D02*
D03*
Y176848D02*
D03*
Y190288D02*
D03*
Y203729D02*
D03*
X791210D02*
D03*
Y190288D02*
D03*
Y176848D02*
D03*
Y163407D02*
D03*
Y149966D02*
D03*
Y136525D02*
D03*
Y123084D02*
D03*
Y109643D02*
D03*
Y96203D02*
D03*
Y82762D02*
D03*
X807720Y309880D02*
D03*
X37862Y84215D02*
D03*
Y102233D02*
D03*
Y120251D02*
D03*
X44450Y317738D02*
D03*
Y299720D02*
D03*
X37862Y210342D02*
D03*
Y192324D02*
D03*
Y174306D02*
D03*
Y156288D02*
D03*
Y138270D02*
D03*
X54610Y444024D02*
D03*
Y426006D02*
D03*
Y407988D02*
D03*
Y462042D02*
D03*
Y768350D02*
D03*
Y750332D02*
D03*
Y732314D02*
D03*
Y714296D02*
D03*
Y696277D02*
D03*
Y678259D02*
D03*
Y660241D02*
D03*
Y642223D02*
D03*
Y624205D02*
D03*
Y606187D02*
D03*
Y588169D02*
D03*
Y570151D02*
D03*
Y552132D02*
D03*
Y480060D02*
D03*
Y498078D02*
D03*
Y516096D02*
D03*
Y534114D02*
D03*
X521970Y303530D02*
D03*
X535411D02*
D03*
X562292D02*
D03*
X575733D02*
D03*
X589174D02*
D03*
X410633Y312420D02*
D03*
X424074D02*
D03*
X437515D02*
D03*
X450956D02*
D03*
X464397D02*
D03*
X477837D02*
D03*
X491278D02*
D03*
X767080Y515620D02*
D03*
X506198Y312420D02*
D03*
X556260Y207247D02*
D03*
X497840Y102870D02*
D03*
X528320Y164359D02*
D03*
X505460Y163830D02*
D03*
X478790Y191771D02*
D03*
X459740Y261770D02*
D03*
X518160D02*
D03*
X767280Y450850D02*
D03*
X758190Y482363D02*
D03*
X616320Y261620D02*
D03*
X517040Y248770D02*
D03*
M02*
