G04*
G04 #@! TF.GenerationSoftware,Altium Limited,Altium Designer,25.8.1 (18)*
G04*
G04 Layer_Color=16711935*
%FSLAX44Y44*%
%MOMM*%
G71*
G04*
G04 #@! TF.SameCoordinates,2A5453E3-354D-4B83-B7DC-91B48DEC4409*
G04*
G04*
G04 #@! TF.FilePolarity,Negative*
G04*
G01*
G75*
%ADD14C,1.2000*%
%ADD19C,0.3000*%
%ADD20C,0.8032*%
%ADD21C,1.4032*%
%ADD22C,6.2032*%
%ADD23C,1.2700*%
%ADD49R,0.9000X0.9500*%
%ADD57R,1.7018X0.8128*%
%ADD59R,0.9500X0.9000*%
%ADD63R,1.8796X2.3622*%
%ADD65R,0.8128X1.7018*%
%ADD68R,2.3455X3.1725*%
%ADD69R,2.3455X0.6325*%
%ADD73R,2.3622X1.8796*%
%ADD89R,1.1032X1.1532*%
%ADD90R,1.0032X1.1032*%
%ADD91R,1.1032X0.8032*%
G04:AMPARAMS|DCode=92|XSize=0.9032mm|YSize=0.5428mm|CornerRadius=0.1186mm|HoleSize=0mm|Usage=FLASHONLY|Rotation=270.000|XOffset=0mm|YOffset=0mm|HoleType=Round|Shape=RoundedRectangle|*
%AMROUNDEDRECTD92*
21,1,0.9032,0.3056,0,0,270.0*
21,1,0.6660,0.5428,0,0,270.0*
1,1,0.2372,-0.1528,-0.3330*
1,1,0.2372,-0.1528,0.3330*
1,1,0.2372,0.1528,0.3330*
1,1,0.2372,0.1528,-0.3330*
%
%ADD92ROUNDEDRECTD92*%
%ADD93R,0.8032X1.1032*%
%ADD94O,0.8032X2.0032*%
%ADD95R,1.1132X1.4232*%
%ADD96C,1.7032*%
%ADD97R,1.1532X1.1032*%
G04:AMPARAMS|DCode=98|XSize=0.9032mm|YSize=0.5428mm|CornerRadius=0.1186mm|HoleSize=0mm|Usage=FLASHONLY|Rotation=270.000|XOffset=0mm|YOffset=0mm|HoleType=Round|Shape=RoundedRectangle|*
%AMROUNDEDRECTD98*
21,1,0.9032,0.3056,0,0,270.0*
21,1,0.6660,0.5428,0,0,270.0*
1,1,0.2372,-0.1528,-0.3330*
1,1,0.2372,-0.1528,0.3330*
1,1,0.2372,0.1528,0.3330*
1,1,0.2372,0.1528,-0.3330*
%
%ADD98ROUNDEDRECTD98*%
G04:AMPARAMS|DCode=99|XSize=0.9032mm|YSize=0.373mm|CornerRadius=0.1101mm|HoleSize=0mm|Usage=FLASHONLY|Rotation=270.000|XOffset=0mm|YOffset=0mm|HoleType=Round|Shape=RoundedRectangle|*
%AMROUNDEDRECTD99*
21,1,0.9032,0.1528,0,0,270.0*
21,1,0.6830,0.3730,0,0,270.0*
1,1,0.2202,-0.0764,-0.3415*
1,1,0.2202,-0.0764,0.3415*
1,1,0.2202,0.0764,0.3415*
1,1,0.2202,0.0764,-0.3415*
%
%ADD99ROUNDEDRECTD99*%
%ADD100R,1.1032X1.0032*%
%ADD101R,0.7724X1.3724*%
%ADD102R,0.5100X1.6600*%
%ADD103O,1.3500X0.4500*%
%ADD104O,2.0032X0.8032*%
%ADD105R,2.5032X3.0032*%
%ADD106R,2.5032X2.4892*%
%ADD107R,1.6032X1.6032*%
%ADD108R,3.5032X3.3532*%
%ADD109R,1.1032X1.0032*%
%ADD110R,1.5000X1.4000*%
%ADD111R,3.3032X3.7982*%
%ADD112R,2.2352X2.8702*%
%ADD113R,2.0660X6.9342*%
%ADD114R,2.9391X2.4948*%
G36*
X50660Y122032D02*
X53960D01*
Y136032D01*
X50660D01*
Y122032D01*
D02*
G37*
D14*
X844960Y838000D02*
X844430Y840664D01*
X842922Y842922D01*
X840664Y844430D01*
X838000Y844960D01*
X770000D02*
X767682Y844655D01*
X765523Y843761D01*
X763667Y842339D01*
X762243Y840485D01*
X761347Y838326D01*
X761040Y836009D01*
X742000Y816960D02*
X744485Y817123D01*
X746928Y817609D01*
X749286Y818409D01*
X751520Y819511D01*
X753591Y820895D01*
X755463Y822537D01*
X757105Y824409D01*
X758489Y826480D01*
X759591Y828714D01*
X760391Y831072D01*
X760877Y833515D01*
X761040Y836000D01*
X824960Y420000D02*
X825189Y417388D01*
X825867Y414856D01*
X826975Y412480D01*
X828479Y410332D01*
X830332Y408479D01*
X832480Y406975D01*
X834856Y405867D01*
X837388Y405188D01*
X840000Y404960D01*
X506260Y836009D02*
X505953Y838326D01*
X505057Y840485D01*
X503633Y842339D01*
X501777Y843761D01*
X499618Y844655D01*
X497300Y844960D01*
X506260Y836000D02*
X506423Y833515D01*
X506909Y831072D01*
X507709Y828714D01*
X508811Y826480D01*
X510195Y824409D01*
X511837Y822537D01*
X513709Y820895D01*
X515780Y819511D01*
X518014Y818409D01*
X520372Y817609D01*
X522815Y817123D01*
X525300Y816960D01*
X433300Y844960D02*
X430982Y844655D01*
X428823Y843761D01*
X426967Y842339D01*
X425543Y840485D01*
X424647Y838326D01*
X424340Y836009D01*
X405300Y816960D02*
X407785Y817123D01*
X410228Y817609D01*
X412586Y818409D01*
X414820Y819511D01*
X416891Y820895D01*
X418763Y822537D01*
X420405Y824409D01*
X421789Y826480D01*
X422891Y828714D01*
X423691Y831072D01*
X424177Y833515D01*
X424340Y836000D01*
X844960Y400000D02*
X844296Y402480D01*
X842480Y404296D01*
X840000Y404960D01*
X88960Y836000D02*
X89123Y833515D01*
X89609Y831072D01*
X90409Y828714D01*
X91511Y826480D01*
X92895Y824409D01*
X94537Y822537D01*
X96409Y820895D01*
X98480Y819511D01*
X100714Y818409D01*
X103072Y817609D01*
X105515Y817123D01*
X108000Y816960D01*
X11992Y844960D02*
X9331Y844428D01*
X7076Y842919D01*
X5569Y840662D01*
X5040Y838000D01*
X25040Y766130D02*
X24812Y768742D01*
X24133Y771274D01*
X23025Y773650D01*
X21521Y775798D01*
X19668Y777651D01*
X17520Y779155D01*
X15144Y780263D01*
X12612Y780941D01*
X10000Y781170D01*
X5040Y786130D02*
X5705Y783650D01*
X7520Y781834D01*
X10000Y781170D01*
X10000Y397390D02*
X12612Y397618D01*
X15144Y398297D01*
X17520Y399405D01*
X19668Y400909D01*
X21521Y402762D01*
X23025Y404910D01*
X24133Y407286D01*
X24812Y409818D01*
X25040Y412430D01*
X10000Y397390D02*
X7522Y396727D01*
X5707Y394914D01*
X5040Y392436D01*
X838011Y5040D02*
X840669Y5572D01*
X842923Y7080D01*
X844429Y9334D01*
X844960Y11992D01*
X88960Y836009D02*
X88653Y838324D01*
X87759Y840482D01*
X86337Y842335D01*
X84484Y843757D01*
X82327Y844653D01*
X80011Y844960D01*
X5040Y11989D02*
X5572Y9331D01*
X7080Y7078D01*
X9334Y5571D01*
X11992Y5040D01*
X839967Y775040D02*
X837364Y774807D01*
X834841Y774127D01*
X832474Y773021D01*
X830334Y771522D01*
X828485Y769674D01*
X826985Y767535D01*
X825877Y765168D01*
X825195Y762646D01*
X824961Y760043D01*
X840010Y775040D02*
X842476Y775702D01*
X844286Y777503D01*
X844961Y779965D01*
X844960Y820322D02*
Y838000D01*
Y806322D02*
Y820322D01*
Y780099D02*
Y806322D01*
X824960Y745153D02*
Y759903D01*
Y717153D02*
Y745153D01*
Y689154D02*
Y717153D01*
X814000Y844960D02*
X838000D01*
X793945D02*
X814000D01*
X770000D02*
X793945D01*
X681989Y816960D02*
X742000D01*
X653989D02*
X681989D01*
X639989D02*
X653989D01*
X824960Y591153D02*
Y689154D01*
Y507154D02*
Y591153D01*
Y437154D02*
Y507154D01*
Y420000D02*
Y437154D01*
X597989Y816960D02*
X639989D01*
X569989D02*
X597989D01*
X541989D02*
X569989D01*
X525300D02*
X541989D01*
X457698Y844960D02*
X497300D01*
X433300D02*
X457698D01*
X390420Y816960D02*
X405300D01*
X362421D02*
X390420D01*
X844960Y389910D02*
X844960Y400000D01*
X844960Y375910D02*
X844960Y389910D01*
X844960Y364000D02*
X844960Y375910D01*
X844960Y361910D02*
Y364000D01*
Y291910D02*
Y361910D01*
Y277910D02*
Y291910D01*
Y193910D02*
Y277910D01*
Y179910D02*
Y193910D01*
Y123910D02*
Y179910D01*
Y81910D02*
Y123910D01*
Y36000D02*
Y81910D01*
Y12016D02*
Y36000D01*
X818820Y5040D02*
X837988D01*
X790820D02*
X818820D01*
X734820D02*
X790820D01*
X678820D02*
X734820D01*
X650820D02*
X678820D01*
X594820D02*
X650820D01*
X552820D02*
X594820D01*
X496820D02*
X552820D01*
X370820D02*
X496820D01*
X356820Y5040D02*
X370820Y5040D01*
X306420Y816960D02*
X362421D01*
X250420D02*
X306420D01*
X180420D02*
X250420D01*
X138420D02*
X180420D01*
X108000D02*
X138420D01*
X40067Y844960D02*
X54067Y844960D01*
X40067Y844960D02*
X40067D01*
X68067Y844960D02*
X79977D01*
X54067D02*
X68067D01*
X26067Y844960D02*
X40067D01*
X12067Y844960D02*
X26067Y844960D01*
X12004Y844960D02*
X12067D01*
X25040Y755855D02*
Y766130D01*
X5040Y814000D02*
Y838000D01*
Y786130D02*
Y814000D01*
X25040Y559855D02*
Y573855D01*
Y517855D02*
Y559855D01*
Y699855D02*
Y755855D01*
Y671855D02*
Y699855D01*
Y629855D02*
Y671855D01*
Y573855D02*
Y629855D01*
X328820Y5040D02*
X356820D01*
X286820D02*
X328820D01*
X244820D02*
X286820D01*
X174820D02*
X244820D01*
X146820D02*
X174820D01*
X132820Y5040D02*
X146820Y5040D01*
X118820Y5040D02*
X132820D01*
X90820D02*
X118820D01*
X34820D02*
X90820D01*
X20820D02*
X34820D01*
X25040Y475855D02*
Y517855D01*
Y433855D02*
Y475855D01*
Y412430D02*
Y433855D01*
X5040Y384984D02*
X5040Y392427D01*
X5040Y364000D02*
Y384984D01*
Y356984D02*
Y364000D01*
Y328984D02*
Y356984D01*
Y300984D02*
Y328984D01*
Y230984D02*
Y300984D01*
Y224080D02*
Y230984D01*
X12016Y5040D02*
X20820Y5040D01*
X5040Y202984D02*
Y224080D01*
Y132984D02*
Y202984D01*
Y104984D02*
Y132984D01*
Y48984D02*
Y104984D01*
Y34984D02*
Y48984D01*
Y12012D02*
Y34984D01*
D19*
X5000Y272984D02*
D03*
X821945Y845000D02*
D03*
X845000Y806322D02*
D03*
X832820Y5000D02*
D03*
X804820D02*
D03*
X845000Y53910D02*
D03*
X845000Y263910D02*
D03*
X54067Y845000D02*
D03*
X5000Y804915D02*
D03*
Y832915D02*
D03*
D20*
X825000Y745153D02*
D03*
Y535154D02*
D03*
Y549154D02*
D03*
X825438Y759147D02*
D03*
X807945Y845000D02*
D03*
X832680Y771128D02*
D03*
X844688Y778326D02*
D03*
X835945Y845000D02*
D03*
X845000Y820322D02*
D03*
Y834322D02*
D03*
Y792322D02*
D03*
X527989Y817000D02*
D03*
X555989D02*
D03*
X541989D02*
D03*
X597989D02*
D03*
X611989D02*
D03*
X583989D02*
D03*
X569989D02*
D03*
X667989D02*
D03*
X681989D02*
D03*
X625989D02*
D03*
X653989D02*
D03*
X639989D02*
D03*
X737989D02*
D03*
X695989D02*
D03*
X723989D02*
D03*
X709989D02*
D03*
X457698Y845000D02*
D03*
X471698D02*
D03*
X433227Y845007D02*
D03*
X443698Y845000D02*
D03*
X485698D02*
D03*
X499694Y844649D02*
D03*
X514549Y820922D02*
D03*
X751625Y820170D02*
D03*
X506867Y832626D02*
D03*
X760086Y831324D02*
D03*
X765980Y844023D02*
D03*
X793945Y845000D02*
D03*
X779946D02*
D03*
X825000Y577154D02*
D03*
Y563153D02*
D03*
Y591153D02*
D03*
Y689154D02*
D03*
Y675154D02*
D03*
Y731153D02*
D03*
Y703154D02*
D03*
Y717153D02*
D03*
Y619154D02*
D03*
Y605154D02*
D03*
Y661153D02*
D03*
Y633153D02*
D03*
Y647153D02*
D03*
Y465154D02*
D03*
Y451153D02*
D03*
Y493153D02*
D03*
Y479154D02*
D03*
X830854Y410376D02*
D03*
X843212Y403795D02*
D03*
X825000Y437154D02*
D03*
X825135Y423154D02*
D03*
X825000Y521153D02*
D03*
Y507154D02*
D03*
X762820Y5000D02*
D03*
X720820D02*
D03*
X734820D02*
D03*
X818820D02*
D03*
X776820D02*
D03*
X790820D02*
D03*
X706820D02*
D03*
X844996Y11910D02*
D03*
X845000Y39910D02*
D03*
Y25910D02*
D03*
Y95910D02*
D03*
Y81910D02*
D03*
Y137910D02*
D03*
Y109910D02*
D03*
Y123910D02*
D03*
Y67910D02*
D03*
X845000Y151910D02*
D03*
Y179910D02*
D03*
Y165910D02*
D03*
Y221910D02*
D03*
Y207910D02*
D03*
Y249910D02*
D03*
Y235910D02*
D03*
Y193910D02*
D03*
X845000Y389910D02*
D03*
Y375910D02*
D03*
Y277910D02*
D03*
Y319910D02*
D03*
Y305910D02*
D03*
Y361910D02*
D03*
Y333910D02*
D03*
Y347910D02*
D03*
Y291910D02*
D03*
X89513Y832894D02*
D03*
X68067Y845000D02*
D03*
X12067Y845000D02*
D03*
X40067Y845000D02*
D03*
X26067Y845000D02*
D03*
X82065Y844748D02*
D03*
X166420Y817000D02*
D03*
X306420D02*
D03*
X334421D02*
D03*
X320420D02*
D03*
X390420D02*
D03*
X264421D02*
D03*
X152421D02*
D03*
X180420D02*
D03*
X110421D02*
D03*
X138420D02*
D03*
X124420D02*
D03*
X236420D02*
D03*
X250420D02*
D03*
X194421D02*
D03*
X222421D02*
D03*
X208421D02*
D03*
X362421D02*
D03*
X376421D02*
D03*
X278421D02*
D03*
X348420D02*
D03*
X292421D02*
D03*
X404421Y817014D02*
D03*
X417475Y822071D02*
D03*
X424061Y834425D02*
D03*
X608820Y5000D02*
D03*
X622820D02*
D03*
X580820D02*
D03*
X594820D02*
D03*
X678820D02*
D03*
X692820D02*
D03*
X636820D02*
D03*
X664820D02*
D03*
X650820D02*
D03*
X496820Y5000D02*
D03*
X510820D02*
D03*
X482820D02*
D03*
X468820D02*
D03*
X552820D02*
D03*
X566820Y5000D02*
D03*
X524820Y5000D02*
D03*
X538820D02*
D03*
X748820Y5000D02*
D03*
X5000Y244984D02*
D03*
Y230984D02*
D03*
Y258984D02*
D03*
Y202984D02*
D03*
Y216984D02*
D03*
Y34984D02*
D03*
Y104984D02*
D03*
Y118984D02*
D03*
Y48984D02*
D03*
Y90984D02*
D03*
Y146984D02*
D03*
Y132984D02*
D03*
Y188984D02*
D03*
Y160984D02*
D03*
Y174984D02*
D03*
X6982Y7125D02*
D03*
X20820Y5000D02*
D03*
X34820D02*
D03*
X48820D02*
D03*
X5000Y20984D02*
D03*
Y76984D02*
D03*
Y62984D02*
D03*
Y300984D02*
D03*
Y286984D02*
D03*
Y328984D02*
D03*
Y314984D02*
D03*
Y356984D02*
D03*
Y342984D02*
D03*
Y370984D02*
D03*
X25000Y475855D02*
D03*
Y685855D02*
D03*
Y699855D02*
D03*
X5000Y790915D02*
D03*
X13392Y779709D02*
D03*
X23223Y769742D02*
D03*
X25000Y559855D02*
D03*
Y545855D02*
D03*
Y587855D02*
D03*
Y573855D02*
D03*
Y503855D02*
D03*
Y461855D02*
D03*
Y531855D02*
D03*
Y517855D02*
D03*
Y629855D02*
D03*
Y615855D02*
D03*
Y671855D02*
D03*
Y643855D02*
D03*
Y657855D02*
D03*
Y601855D02*
D03*
X5000Y818915D02*
D03*
X97029Y821082D02*
D03*
X5000Y384984D02*
D03*
X10583Y397822D02*
D03*
X21777Y406231D02*
D03*
X25000Y447855D02*
D03*
Y419855D02*
D03*
Y433855D02*
D03*
X160820Y5000D02*
D03*
X174820D02*
D03*
X132820D02*
D03*
X146820D02*
D03*
X188820D02*
D03*
X62820D02*
D03*
X104820D02*
D03*
X118820D02*
D03*
X76820D02*
D03*
X90820D02*
D03*
X328820Y5000D02*
D03*
X342820D02*
D03*
X300820D02*
D03*
X314820D02*
D03*
X384820D02*
D03*
X356820D02*
D03*
X370820D02*
D03*
X244820Y5000D02*
D03*
X258820D02*
D03*
X202820D02*
D03*
X230820D02*
D03*
X216820D02*
D03*
X272820D02*
D03*
X286820Y5000D02*
D03*
X25000Y727855D02*
D03*
Y713855D02*
D03*
Y755855D02*
D03*
Y741855D02*
D03*
Y489855D02*
D03*
D21*
X814000Y791140D02*
D03*
X830164Y797835D02*
D03*
Y830164D02*
D03*
X814000Y836860D02*
D03*
X836860Y814000D02*
D03*
X465298Y801140D02*
D03*
X449133Y807835D02*
D03*
X481462D02*
D03*
X797835Y797835D02*
D03*
X791140Y814000D02*
D03*
X442438Y824000D02*
D03*
X488158D02*
D03*
X449133Y840164D02*
D03*
X481462D02*
D03*
X465298Y846860D02*
D03*
X797835Y830164D02*
D03*
X814000Y13140D02*
D03*
X791140Y36000D02*
D03*
X830164Y19835D02*
D03*
X797835D02*
D03*
X836860Y36000D02*
D03*
X797835Y52165D02*
D03*
X814000Y233140D02*
D03*
X791140Y256000D02*
D03*
X797835Y239835D02*
D03*
X814000Y58860D02*
D03*
X830164Y52165D02*
D03*
Y272164D02*
D03*
Y239835D02*
D03*
X836860Y256000D02*
D03*
X797835Y347836D02*
D03*
Y272164D02*
D03*
X791140Y364000D02*
D03*
X797835Y380164D02*
D03*
X814000Y386860D02*
D03*
Y341140D02*
D03*
Y278860D02*
D03*
X830164Y380164D02*
D03*
Y347836D02*
D03*
X836860Y364000D02*
D03*
X52165Y830164D02*
D03*
X36000Y13140D02*
D03*
X13140Y36000D02*
D03*
X19835Y239835D02*
D03*
Y52165D02*
D03*
Y19835D02*
D03*
X36000Y233140D02*
D03*
Y58860D02*
D03*
X52165Y239835D02*
D03*
X36000Y791140D02*
D03*
X52165Y797835D02*
D03*
X13140Y814000D02*
D03*
X19835Y830164D02*
D03*
Y797835D02*
D03*
X58860Y814000D02*
D03*
X36000Y836860D02*
D03*
X13140Y256000D02*
D03*
X19835Y347836D02*
D03*
X13140Y364000D02*
D03*
X19835Y380164D02*
D03*
Y272164D02*
D03*
X36000Y278860D02*
D03*
Y341140D02*
D03*
Y386860D02*
D03*
X52165Y19835D02*
D03*
X58860Y36000D02*
D03*
X52165Y52165D02*
D03*
X58860Y256000D02*
D03*
X52165Y272164D02*
D03*
Y347836D02*
D03*
X58860Y364000D02*
D03*
X52165Y380164D02*
D03*
D22*
X425000Y21000D02*
D03*
X36000Y364000D02*
D03*
Y256000D02*
D03*
Y36000D02*
D03*
X814000D02*
D03*
Y256000D02*
D03*
Y364000D02*
D03*
Y814000D02*
D03*
X465298Y824000D02*
D03*
X36000Y814000D02*
D03*
D23*
X381420Y702300D02*
D03*
Y558300D02*
D03*
Y486300D02*
D03*
Y630300D02*
D03*
X288080D02*
D03*
Y702300D02*
D03*
X194740Y630300D02*
D03*
Y702300D02*
D03*
X288080Y558300D02*
D03*
X194740Y486300D02*
D03*
X288080D02*
D03*
X194740Y558300D02*
D03*
X101400Y486300D02*
D03*
Y702300D02*
D03*
Y630300D02*
D03*
Y558300D02*
D03*
X381420Y342300D02*
D03*
Y414300D02*
D03*
X288080D02*
D03*
Y342300D02*
D03*
X194740Y414300D02*
D03*
Y342300D02*
D03*
X101400D02*
D03*
Y414300D02*
D03*
X275380Y643000D02*
D03*
X368720Y715000D02*
D03*
X88700Y643000D02*
D03*
Y715000D02*
D03*
X182040Y643000D02*
D03*
X275380Y715000D02*
D03*
X368720Y643000D02*
D03*
X182040Y715000D02*
D03*
X275380Y355000D02*
D03*
X288080Y367700D02*
D03*
X300780Y355000D02*
D03*
X182040D02*
D03*
X194740Y367700D02*
D03*
X207440Y355000D02*
D03*
X88700D02*
D03*
X381420Y727700D02*
D03*
X394120Y715000D02*
D03*
X300780Y571000D02*
D03*
X288080Y583700D02*
D03*
X275380Y571000D02*
D03*
X207440D02*
D03*
X194740Y583700D02*
D03*
X182040Y571000D02*
D03*
X114100D02*
D03*
X101400Y583700D02*
D03*
X88700Y571000D02*
D03*
X394120Y499000D02*
D03*
X381420Y511700D02*
D03*
X368720Y499000D02*
D03*
X114100D02*
D03*
X101400Y511700D02*
D03*
X88700Y499000D02*
D03*
X300780D02*
D03*
X288080Y511700D02*
D03*
X275380Y499000D02*
D03*
X182040D02*
D03*
X194740Y511700D02*
D03*
X207440Y499000D02*
D03*
X394120Y427000D02*
D03*
X381420Y439700D02*
D03*
X368720Y427000D02*
D03*
X300780D02*
D03*
X288080Y439700D02*
D03*
X275380Y427000D02*
D03*
X182040D02*
D03*
X194740Y439700D02*
D03*
X207440Y427000D02*
D03*
X288080Y727700D02*
D03*
X300780Y715000D02*
D03*
X88700Y427000D02*
D03*
X101400Y439700D02*
D03*
X114100Y427000D02*
D03*
X368720Y355000D02*
D03*
X381420Y367700D02*
D03*
X394120Y355000D02*
D03*
X101400Y367700D02*
D03*
X114100Y355000D02*
D03*
X207440Y715000D02*
D03*
X194740Y727700D02*
D03*
X381420Y655700D02*
D03*
X394120Y643000D02*
D03*
X114100D02*
D03*
X101400Y655700D02*
D03*
X207440Y643000D02*
D03*
X194740Y655700D02*
D03*
X368720Y571000D02*
D03*
X381420Y583700D02*
D03*
X394120Y571000D02*
D03*
X300780Y643000D02*
D03*
X288080Y655700D02*
D03*
X114100Y715000D02*
D03*
X101400Y727700D02*
D03*
D49*
X619404Y253692D02*
D03*
X598085Y725986D02*
D03*
X666531D02*
D03*
X734978D02*
D03*
X708428Y118539D02*
D03*
X467537Y253490D02*
D03*
X557476Y118602D02*
D03*
X700755Y725986D02*
D03*
X632308D02*
D03*
D57*
X763435Y690980D02*
D03*
Y678480D02*
D03*
Y628480D02*
D03*
Y703480D02*
D03*
Y715980D02*
D03*
Y665980D02*
D03*
Y640980D02*
D03*
Y653480D02*
D03*
D59*
X733860Y632171D02*
D03*
Y597948D02*
D03*
Y666394D02*
D03*
D63*
X744708Y247587D02*
D03*
X700004Y207239D02*
D03*
X284530Y252730D02*
D03*
X175641Y246380D02*
D03*
X549052Y207010D02*
D03*
X284530Y297722D02*
D03*
X282752Y112383D02*
D03*
X600964Y353060D02*
D03*
X556260D02*
D03*
X700004Y247587D02*
D03*
X220345Y246380D02*
D03*
X744708Y207239D02*
D03*
X593756Y207010D02*
D03*
X329234Y252730D02*
D03*
X327456Y112383D02*
D03*
X329234Y297722D02*
D03*
D65*
X583650Y755561D02*
D03*
X596150D02*
D03*
X608650D02*
D03*
X621150D02*
D03*
X658650D02*
D03*
X571150D02*
D03*
X696150D02*
D03*
X633650D02*
D03*
X646150D02*
D03*
X671150D02*
D03*
X683650D02*
D03*
D68*
X265410Y170796D02*
D03*
D69*
X325617D02*
D03*
Y183496D02*
D03*
Y196196D02*
D03*
Y145396D02*
D03*
Y158096D02*
D03*
D73*
X93980Y84328D02*
D03*
Y129032D02*
D03*
D89*
X628904Y278692D02*
D03*
X638404Y253692D02*
D03*
X725478Y700986D02*
D03*
X657031D02*
D03*
X622808D02*
D03*
X691255D02*
D03*
X588585D02*
D03*
X579085Y725986D02*
D03*
X613308D02*
D03*
X715978D02*
D03*
X717928Y143539D02*
D03*
X727428Y118539D02*
D03*
X486537Y253490D02*
D03*
X477037Y278490D02*
D03*
X566976Y143602D02*
D03*
X576476Y118602D02*
D03*
X681755Y725986D02*
D03*
X647531D02*
D03*
D90*
X615058Y235484D02*
D03*
X518970Y217388D02*
D03*
Y199388D02*
D03*
X744708Y118808D02*
D03*
X669922Y253643D02*
D03*
X716280Y550960D02*
D03*
X518970Y253706D02*
D03*
X593756Y118871D02*
D03*
X464105Y168511D02*
D03*
X427050Y647761D02*
D03*
Y503761D02*
D03*
Y359761D02*
D03*
X432220Y210829D02*
D03*
X371396Y175132D02*
D03*
X353060D02*
D03*
X65774Y190485D02*
D03*
X432012Y95589D02*
D03*
X734110Y550960D02*
D03*
X464105Y150511D02*
D03*
X669922Y199325D02*
D03*
X427050Y710239D02*
D03*
Y422239D02*
D03*
Y566239D02*
D03*
X734110Y568960D02*
D03*
X744708Y136808D02*
D03*
X615058Y217484D02*
D03*
X669922Y217325D02*
D03*
Y235643D02*
D03*
X717928Y160497D02*
D03*
Y178497D02*
D03*
X744708Y160497D02*
D03*
Y178497D02*
D03*
X549054Y235028D02*
D03*
Y253028D02*
D03*
X65774Y172485D02*
D03*
X566976Y178560D02*
D03*
X593756D02*
D03*
Y136871D02*
D03*
Y160560D02*
D03*
X566976D02*
D03*
X432012Y77589D02*
D03*
X464105Y133560D02*
D03*
Y115560D02*
D03*
X432220Y228829D02*
D03*
X464106Y217547D02*
D03*
Y235547D02*
D03*
X353060Y136110D02*
D03*
Y118110D02*
D03*
Y157132D02*
D03*
X371396D02*
D03*
Y118110D02*
D03*
Y136110D02*
D03*
X413188Y77589D02*
D03*
Y95589D02*
D03*
X518970Y235706D02*
D03*
X716280Y568960D02*
D03*
X427050Y665761D02*
D03*
Y692239D02*
D03*
Y404239D02*
D03*
Y377761D02*
D03*
Y548239D02*
D03*
Y521761D02*
D03*
D91*
X634339Y235643D02*
D03*
X652340Y271586D02*
D03*
X541200Y136761D02*
D03*
X770256Y569228D02*
D03*
X615057Y185428D02*
D03*
X681756Y569229D02*
D03*
X84384Y172485D02*
D03*
X464105Y185491D02*
D03*
X447050Y692349D02*
D03*
Y665651D02*
D03*
X751841Y569229D02*
D03*
X770255Y551069D02*
D03*
X751840Y551070D02*
D03*
X615058Y203587D02*
D03*
X692151Y136698D02*
D03*
X692150Y118539D02*
D03*
X692151Y160607D02*
D03*
X692153Y178766D02*
D03*
X652339Y253427D02*
D03*
X634338Y217484D02*
D03*
X652338D02*
D03*
X652339Y235643D02*
D03*
X102384Y172485D02*
D03*
X102385Y190644D02*
D03*
X84385D02*
D03*
X541201Y178829D02*
D03*
X541200Y160670D02*
D03*
X483386Y217547D02*
D03*
X483387Y235706D02*
D03*
X501386Y217547D02*
D03*
X501387Y235706D02*
D03*
X464106Y203650D02*
D03*
X541198Y118602D02*
D03*
X447045Y359492D02*
D03*
X447047Y377651D02*
D03*
X699769Y569229D02*
D03*
X447049Y548349D02*
D03*
X447050Y566508D02*
D03*
X447049Y521651D02*
D03*
X447048Y503492D02*
D03*
X447426Y404349D02*
D03*
X447428Y422508D02*
D03*
X447049Y647492D02*
D03*
X447051Y710508D02*
D03*
X699768Y551070D02*
D03*
X681755D02*
D03*
D92*
X608428Y257927D02*
D03*
X600334D02*
D03*
X448112Y257990D02*
D03*
X456207D02*
D03*
D93*
X637150Y299782D02*
D03*
X692150Y81977D02*
D03*
X624840Y82039D02*
D03*
X541198Y82040D02*
D03*
X473888D02*
D03*
X541198Y99930D02*
D03*
X504357Y299844D02*
D03*
X655309Y299781D02*
D03*
X710309Y81976D02*
D03*
X642999Y82038D02*
D03*
X692150Y99867D02*
D03*
X710309Y99866D02*
D03*
X642999Y99867D02*
D03*
X624840Y99868D02*
D03*
X492047Y99930D02*
D03*
X473888Y99931D02*
D03*
X413059Y175131D02*
D03*
X394901Y175132D02*
D03*
X413438Y211048D02*
D03*
X395279Y211049D02*
D03*
X413438Y193268D02*
D03*
X395279Y193269D02*
D03*
X486198Y299845D02*
D03*
X559357Y99929D02*
D03*
Y82039D02*
D03*
X492047D02*
D03*
D94*
X507286Y178560D02*
D03*
X519986Y122060D02*
D03*
X494586Y178560D02*
D03*
X507286Y122060D02*
D03*
X481886Y178560D02*
D03*
X494586Y122060D02*
D03*
X481886D02*
D03*
X519986Y178560D02*
D03*
X645538Y121997D02*
D03*
X632838Y178497D02*
D03*
X658238Y121997D02*
D03*
X645538Y178497D02*
D03*
X670938Y121997D02*
D03*
X658238Y178497D02*
D03*
X632838Y121997D02*
D03*
X670938Y178497D02*
D03*
D95*
X397770Y751840D02*
D03*
X365070D02*
D03*
X304430D02*
D03*
X271730D02*
D03*
X211090D02*
D03*
X178390D02*
D03*
X397770Y679840D02*
D03*
X365070D02*
D03*
X304430D02*
D03*
X271730D02*
D03*
X211090D02*
D03*
X178390D02*
D03*
X365070Y607840D02*
D03*
X397770D02*
D03*
X271730D02*
D03*
X304430D02*
D03*
X178390D02*
D03*
X211090D02*
D03*
X365070Y535840D02*
D03*
X397770D02*
D03*
X85050D02*
D03*
X117750D02*
D03*
X271730D02*
D03*
X304430D02*
D03*
X178390D02*
D03*
X211090D02*
D03*
X365070Y463840D02*
D03*
X397770D02*
D03*
X271730D02*
D03*
X304430D02*
D03*
X178390D02*
D03*
X211090D02*
D03*
X85050D02*
D03*
X117750D02*
D03*
X365070Y391840D02*
D03*
X397770D02*
D03*
X271730D02*
D03*
X304430D02*
D03*
X178390D02*
D03*
X211090D02*
D03*
X85050D02*
D03*
X117750D02*
D03*
Y751840D02*
D03*
Y607840D02*
D03*
Y679840D02*
D03*
X85050D02*
D03*
Y751840D02*
D03*
Y607840D02*
D03*
D96*
X586740Y598170D02*
D03*
Y570774D02*
D03*
Y543378D02*
D03*
Y515983D02*
D03*
Y488587D02*
D03*
Y461191D02*
D03*
Y433796D02*
D03*
Y406400D02*
D03*
X538331Y53340D02*
D03*
X615057Y53412D02*
D03*
X378393D02*
D03*
X461605D02*
D03*
D97*
X708860Y641671D02*
D03*
X733860Y651171D02*
D03*
X708860Y607448D02*
D03*
X733860Y616948D02*
D03*
Y685394D02*
D03*
X708860Y675894D02*
D03*
D98*
X600334Y273927D02*
D03*
X608428Y273927D02*
D03*
X448112Y273990D02*
D03*
X456207Y273990D02*
D03*
D99*
X604381Y273927D02*
D03*
Y257927D02*
D03*
X452159Y273990D02*
D03*
Y257990D02*
D03*
D100*
X567580Y235028D02*
D03*
X585580D02*
D03*
X507176Y99930D02*
D03*
X525176D02*
D03*
X507176Y82040D02*
D03*
X744708Y81976D02*
D03*
Y99866D02*
D03*
X549054Y299782D02*
D03*
X593756Y99929D02*
D03*
Y82039D02*
D03*
X394755Y299845D02*
D03*
X279484Y219063D02*
D03*
X220014Y171224D02*
D03*
X279484Y76823D02*
D03*
X525176Y82040D02*
D03*
X604520Y299720D02*
D03*
X452159Y299845D02*
D03*
X220014Y189104D02*
D03*
X297484Y76823D02*
D03*
X567054Y299782D02*
D03*
X586520Y299720D02*
D03*
X726708Y81976D02*
D03*
X658128Y81977D02*
D03*
X676128D02*
D03*
X726708Y99866D02*
D03*
X658128Y99867D02*
D03*
X676128D02*
D03*
X652338Y199325D02*
D03*
X634338D02*
D03*
X238014Y189104D02*
D03*
X84384Y156833D02*
D03*
X102384D02*
D03*
X158793Y154814D02*
D03*
X176793D02*
D03*
X238014Y171224D02*
D03*
X331774Y219063D02*
D03*
X501386Y199388D02*
D03*
X483386D02*
D03*
X413170Y228829D02*
D03*
X395169D02*
D03*
X412755Y299845D02*
D03*
X434159D02*
D03*
X575756Y82039D02*
D03*
Y99929D02*
D03*
X313774Y76823D02*
D03*
X331774D02*
D03*
X313774Y219063D02*
D03*
X297484D02*
D03*
D101*
X576554Y279228D02*
D03*
X422669Y279089D02*
D03*
X586054Y279228D02*
D03*
X432169Y279089D02*
D03*
X586104Y253028D02*
D03*
X567054D02*
D03*
Y279228D02*
D03*
X432220Y252889D02*
D03*
X413170Y279089D02*
D03*
Y252889D02*
D03*
D102*
X482330Y506806D02*
D03*
X482330Y419194D02*
D03*
Y563194D02*
D03*
X482330Y362806D02*
D03*
Y650806D02*
D03*
X482330Y707194D02*
D03*
X475830D02*
D03*
X462830D02*
D03*
Y563194D02*
D03*
Y419194D02*
D03*
X475830Y650806D02*
D03*
X475830Y563194D02*
D03*
X495330Y707194D02*
D03*
X508330D02*
D03*
X521330D02*
D03*
X534330D02*
D03*
Y650806D02*
D03*
X521330D02*
D03*
X469330D02*
D03*
X488830Y707194D02*
D03*
X501830D02*
D03*
X514830D02*
D03*
X527830D02*
D03*
X514830Y650806D02*
D03*
X508330D02*
D03*
X501830D02*
D03*
X495330D02*
D03*
X488830D02*
D03*
X527830D02*
D03*
X462830D02*
D03*
X469330Y707194D02*
D03*
X462830Y506806D02*
D03*
Y362806D02*
D03*
X469330Y563194D02*
D03*
Y419194D02*
D03*
X495330Y506806D02*
D03*
X508330D02*
D03*
X521330D02*
D03*
X534330D02*
D03*
Y563194D02*
D03*
X521330D02*
D03*
X508330D02*
D03*
X495330D02*
D03*
X508330Y362806D02*
D03*
X495330D02*
D03*
X521330D02*
D03*
X534330D02*
D03*
Y419194D02*
D03*
X521330D02*
D03*
X508330D02*
D03*
X495330D02*
D03*
X469330Y362806D02*
D03*
X475830D02*
D03*
X488830D02*
D03*
X501830D02*
D03*
X514830D02*
D03*
X527830D02*
D03*
X527830Y419194D02*
D03*
X514830D02*
D03*
X501830D02*
D03*
X488830D02*
D03*
X475830D02*
D03*
X475830Y506806D02*
D03*
X501830Y563194D02*
D03*
X527830Y506806D02*
D03*
X514830D02*
D03*
X514830Y563194D02*
D03*
X488830D02*
D03*
X527830D02*
D03*
X501830Y506806D02*
D03*
X488830D02*
D03*
X469330D02*
D03*
D103*
X447906Y131110D02*
D03*
X391406Y144110D02*
D03*
Y137610D02*
D03*
Y131110D02*
D03*
Y118110D02*
D03*
X447906Y157110D02*
D03*
Y150610D02*
D03*
Y144110D02*
D03*
Y118110D02*
D03*
X391406Y157110D02*
D03*
Y150610D02*
D03*
Y124610D02*
D03*
X447906Y137610D02*
D03*
Y124610D02*
D03*
D104*
X196043Y201804D02*
D03*
Y189104D02*
D03*
Y214504D02*
D03*
X139543Y201804D02*
D03*
Y189104D02*
D03*
Y176404D02*
D03*
X196043D02*
D03*
X139543Y214504D02*
D03*
D105*
X167793Y195454D02*
D03*
D106*
X234950Y124460D02*
D03*
Y83820D02*
D03*
D107*
X43660Y129032D02*
D03*
X60960D02*
D03*
D108*
X138870Y105410D02*
D03*
X193870D02*
D03*
D109*
X501387Y253490D02*
D03*
X501388Y271649D02*
D03*
D110*
X391406Y94589D02*
D03*
Y78589D02*
D03*
D111*
X829500Y827025D02*
D03*
D112*
X833120Y20955D02*
D03*
D113*
X16934Y810895D02*
D03*
D114*
X18679Y16482D02*
D03*
M02*
